<svg xmlns="http://www.w3.org/2000/svg" width="346.623" height="419.69" viewBox="0 0 346.623 419.69">
  <g id="Group_1915" data-name="Group 1915" transform="translate(-787 -218.884)">
    <path id="Path_13352" data-name="Path 13352" d="M3493.47,1798.429a6.394,6.394,0,1,0-12.635,1.977c.912,5.959,2.085,24.63-4.358,32.142a8.607,8.607,0,0,1-5.2,2.986l.586-35.557a9.247,9.247,0,1,0-18.49.075l1.666,67.48a8.617,8.617,0,0,1-5.406-3.015c-6.443-7.513-5.28-26.182-4.358-32.142a6.4,6.4,0,0,0-12.645-1.977c-.461,2.936-4.159,29.078,7.271,42.429a21.658,21.658,0,0,0,15.463,7.6l.723,29.368h13.965l1.017-61.361a21.648,21.648,0,0,0,15.138-7.576C3497.629,1827.506,3493.931,1801.365,3493.47,1798.429Z" transform="translate(-2365.335 -1301.631)" fill="#bdbdbd"/>
    <path id="Path_13353" data-name="Path 13353" d="M2387.811,1908.959a4.077,4.077,0,1,0-8.056,1.26c.587,3.8,1.331,15.7-2.776,20.488a5.483,5.483,0,0,1-3.311,1.9l.377-22.667a5.894,5.894,0,1,0-11.786.049l1.058,43.019a5.531,5.531,0,0,1-3.447-1.928c-4.106-4.788-3.363-16.688-2.776-20.487a4.077,4.077,0,1,0-8.056-1.26c-.293,1.872-2.65,18.531,4.631,27.048a13.8,13.8,0,0,0,9.858,4.84l.461,18.732h8.894l.65-39.122a13.77,13.77,0,0,0,9.648-4.829C2390.462,1927.5,2388.1,1910.831,2387.811,1908.959Z" transform="translate(-1555.822 -1371.958)" fill="#bdbdbd"/>
    <path id="Path_3493" data-name="Path 3493" d="M1355.023,1802.249c0,11.713-77.591,21.21-173.308,21.21s-173.315-9.5-173.315-21.21,77.6-21.209,173.315-21.209S1355.023,1790.537,1355.023,1802.249Z" transform="translate(-221.4 -1184.886)" fill="#bce7e4"/>
    <path id="Path_13355" data-name="Path 13355" d="M3107.052,1876.953s-.233,13.434-.009,14.78-5.258,9.219-7.5,8.87-6.729-1.1-7.375-1.844-.359-2.51-.135-4.12,1.911-16.24,1.911-16.988S3104.557,1874.91,3107.052,1876.953Z" transform="translate(-2101.951 -1305.846)" fill="#fcae88"/>
    <path id="Path_13356" data-name="Path 13356" d="M3096.44,1907.615c-2.8,1.516-4.378,6.129-4.773,6.186s-1.139-.057-1.139-.514.116-1.994-.4-1.994-1.077,2.508-1.193,6.155-1.409,12.344,0,13.449c.888.694,9.008,4.958,9.232,5.528s-.17,4.562.511,5.19,2.279,2.162,3.535,2.216,8.488.8,11.915,0,7.743-2.45,7.86-2.907-.853-10.141-1.938-11.337-8.891-11.911-9.52-12.88a11.045,11.045,0,0,1-1.077-4.673c0-1.368-1.238-4.352-3.544-5.071C3103.51,1906.214,3098.548,1906.475,3096.44,1907.615Z" transform="translate(-2100.042 -1322.5)" fill="#eeeff1" fill-rule="evenodd"/>
    <path id="Path_13357" data-name="Path 13357" d="M2944.652,1894.078s0,7.824-.224,9.17,5.258,9.219,7.5,8.871,6.729-1.1,7.375-1.845.368-2.509.135-4.12-1.678-10.63-1.678-11.378S2947.146,1892.035,2944.652,1894.078Z" transform="translate(-2021.441 -1315.203)" fill="#fcae88"/>
    <path id="Path_13358" data-name="Path 13358" d="M2947.286,1512.254c-3.167,11.541-9.179,51.082-9.179,70.3s-1.92,68.211-1.92,75.657-.8,25.919,1.122,26.881,6.415,3.848,12.507,2.886,7.7-4.811,7.86-8.339,1.606-28.863,3.051-38.644,6.576-28.646,9.941-40.781,11.224-36.534,13.306-36.442,15.073,53.55,16.15,56.58,3.149,46.075,3.284,49.686,0,7.091,2.27,8.562,9.232,5.083,12.839,5.351,6.021-5.485,6.693-7.224,1.857-59.314,1.427-75.107.825-45.247.09-54.851-3.077-30.185-4.567-34.513S2947.286,1512.254,2947.286,1512.254Z" transform="translate(-2016.852 -1106.016)" fill="#192b59"/>
    <path id="Path_13359" data-name="Path 13359" d="M2892.823,1157.608c3.033-3.366,17.164-19.3,19.972-19.861s9.636-1.8,11.153-3.366,7.967-21.789,5.419-25.467-12.391-2.633-15.369,3.626-2.835,9.539-7.752,13.861-26.342,21.844-28.343,23.614,1.965,10.368,5.1,11.859S2892.823,1157.608,2892.823,1157.608Z" transform="translate(-1984.802 -885.529)" fill="#fcae88" fill-rule="evenodd"/>
    <path id="Path_13360" data-name="Path 13360" d="M2910.332,1212.487c-7.223,1.514-19.219,2.8-23.184,4.078s-19.569,6.758-19.452,4.428,7.222-12.584,5.94-13.633-8.972-2.33-10.255-3.961-3.023-5.476-4.773-5.01-22.009,19.34-20.627,26.565c3.275,17.035,51.159,29.447,52.254,36.877s-3.715,78.666-1.095,81.289,30.371,12.673,44.359,13.548,38.518-4,39.854-7.68-6.819-74.462-5.877-74.462,1.22,22.281,11.87,28.043c7.034,3.8,16.707-.115,18.555-2.214s-6.6-31.721-10.435-41.709-7.492-30.631-16.15-37.957-20.879-6.078-25.086-7.8-18.322-.489-21.883-.86S2910.332,1212.487,2910.332,1212.487Z" transform="translate(-1963.246 -935.553)" fill="#03a9f4" fill-rule="evenodd"/>
    <path id="Path_13361" data-name="Path 13361" d="M3178.57,1379.864s-12.453,3.764-13.431,5.059-2.692,6.478,0,8.637,5.662,3.774,8.865,1.283,6.119-5.845,7.967-6.267,7.384.371,9.708-.541,6.738-18.528,4.952-19.6S3178.57,1379.864,3178.57,1379.864Z" transform="translate(-2141.25 -1028.453)" fill="#f59a7a" fill-rule="evenodd"/>
    <path id="Path_13362" data-name="Path 13362" d="M2981.136,1157.211c-4.02-.833-11.781-8.422-12.49-16.132-.7-7.512-6.218-28.625,13.01-36.543,18.043-7.43,36.607.214,39.281,9.377,2.494,8.557-18.689,8.942-26.45,14.514s-8.3,9.273-10.237,8.392S2981.136,1157.211,2981.136,1157.211Z" transform="translate(-2033.987 -882.659)" fill="#e64d4e"/>
    <path id="Path_13363" data-name="Path 13363" d="M2996.385,1186.831c-.251,3.441-1.112,20.084.323,22.535,1.328,2.249,3.679,8.789,12.9,8.5s15.2-9.51,15.7-10.591-.574-14.41-.574-16.643-12.39-7.494-17.361-7.349S2996.627,1183.6,2996.385,1186.831Z" transform="translate(-2049.568 -927.319)" fill="#f59a7a" fill-rule="evenodd"/>
    <path id="Path_13364" data-name="Path 13364" d="M2988.585,1158.746c1.041-.031-.188,6.313,1.7,8.385s10.085,12.882,18.761,11.825c7.51-.913,6.433-7.38,7.51-12.7.987-4.834,4.1-5.25,5.195-17.871.431-4.885,2.737-12.531-1.507-13.944s-20.161-5.182-24.117,0-4.333,17.619-6.406,16.017-6.406-9.422-8.954-5.182S2983.022,1158.905,2988.585,1158.746Z" transform="translate(-2040.916 -899.184)" fill="#fcae88"/>
    <path id="Path_13365" data-name="Path 13365" d="M3115.446,1331.911l-25.257,31.93a2.512,2.512,0,0,0,2.019,4.065l46.674-.793a2.488,2.488,0,0,0,1.965-1l23.856-31.883a2.276,2.276,0,0,0-1.839-3.642l-45.471.375A2.514,2.514,0,0,0,3115.446,1331.911Z" transform="translate(-2100.79 -1007.804)" fill="#abe2fc" fill-rule="evenodd"/>
    <path id="Path_13366" data-name="Path 13366" d="M3210.991,1361.836c-2.458.249-6.03,1.63-6.03,2.915s2.871,1.637,3.661,1.758,1.821.367,1.525.762-.888,2.372-2.467,2.026a96.686,96.686,0,0,0-9.833-.445c-1.328,0-2.916.939-3.015,1.927s-.4,1.186-1.184,1.235-2.225.79-2.225,2.074,3.176,2.442,3.176,2.9,6.227,4.256,7.447,4.963,3.5,2.5,4.782,2.5,3.436-1.22,3.6-2.986,2.7-3.051,2.727-3.917-.8-1.509-.7-2.055,2.306-1.317,2.306-2.7a15.366,15.366,0,0,0-1-3.82c-.126-.579-.637-1.83-.126-1.991s2.315-1.83,1.992-3.372S3212.121,1361.722,3210.991,1361.836Z" transform="translate(-2156.4 -1024.87)" fill="#fcae88"/>
    <path id="Path_13367" data-name="Path 13367" d="M2932.824,1912.372c2.809,1.516,4.379,6.129,4.782,6.186s1.139-.057,1.139-.513-.117-1.995.395-1.995,1.085,2.508,1.193,6.155,1.418,12.344,0,13.45c-.879.693-9,4.958-9.223,5.528s.171,4.556-.52,5.184-2.279,2.171-3.535,2.225-8.488.8-11.906,0-7.752-2.449-7.868-2.907.861-10.145,1.938-11.341,8.892-11.911,9.52-12.88a11.043,11.043,0,0,0,1.086-4.673c0-1.368,1.238-4.352,3.535-5.071C2925.763,1910.973,2930.715,1911.233,2932.824,1912.372Z" transform="translate(-2001.143 -1325.1)" fill="#eeeff1" fill-rule="evenodd"/>
  </g>
</svg>
