<svg id="Group_670" data-name="Group 670" xmlns="http://www.w3.org/2000/svg" width="142.215" height="407.385" viewBox="0 0 142.215 407.385">
  <path id="Path_11821" data-name="Path 11821" d="M347.616,486.224h30.348c1.364-2.651.37-4.328.07-6.571-.44-3.28.478-9.231-.506-11.868-.547-1.465-1.2-1.315-.871-2.733,2.2-9.68,6.7-76.091,7.6-78.83.589-1.8,1.185-.636.569-3.017-.234-.907-.437.325-.121-1.245.308-1.537.379.234.434-1.642.137-4.742-.086-4.945,1.193-10.855,6.318-1.046,11.713-3.922,17.127-5.461.237,4.263.283,8.8.485,13.08a10.243,10.243,0,0,1-.107,3.041c-.37,1.308-.808.507-.746,2.568l.049.789c-.007.072-.026.173-.04.246-.225,1.228-1.262,1.159.662,3.767,1.421,1.925,2.529,21.336,2.856,25.09l3.444,38.181c.341,3.593.184,10.27,1.8,12.605l-.981.63c-3,2.2-3.156,5.6-3.146,9.165a51.889,51.889,0,0,1-.1,6.826c-.429,2.355-1.041,3.7.133,6.234h30.348a8.894,8.894,0,0,0,.554-4.01c-.04-2.943-.23-1.617-1.14-3.358-.588-1.127-.264-1.824-1.086-3.212-.7-1.189-.894-.941-1.4-2.6-2.239-7.284-1.364-9.334-5.833-10.7a5.1,5.1,0,0,0,1.236-2.328l.178-68.118c0-1.165-.021-2.3.072-3.457a13.093,13.093,0,0,1,.684-2.921c.26-1.4-.367-.963-.234-2.54.168-2.018.655-.607-.188-2.7-.986-2.453.377-22.967.6-27.241l4.375.487c.8,3.416,1.4,6.746,2.106,10.229.64,3.149.758,8.325,4.553,7.188,7.729-2.315,15.178-11.277,18.683-18.02,1.238-2.383-.02-4.276-1.355-8.868L443.306,287.4c-1.777-6.264-3.688-12.527-5.512-18.806-1.365-4.7-4.135-11.22-3.619-16.009.1-.882.408-.536.633-1.8-1.007-1.268-1.388-.624-1.486-1.913l.507-10.482c27.523-1.644,18.946-26.8,15.561-43.42-1.7-8.368-3.475-19.235-6.048-27.334-1.982-6.235-8.38-9.09-13.91-11.127-7.222-2.66-2.432-2.967-5.167-3.853l-.84-.264c-.36-.116-.753-.248-1.113-.37-.779-.266-1.525-.519-2.439-.824-1.56-.519-2.93-1.009-4.592-1.587-2.973-1.034-6.84-2.106-9.4-3.3-.217-5.31,4.231-2.7,8.183-11.775.575-1.317,1.03-4.462,1.945-4.894l1.54-.679a3.888,3.888,0,0,0,1.377-1.177,9.287,9.287,0,0,0,1.843-3.233c1.363-3.9.483-4.826-1.257-7.457s3.662-11.2,3.522-15.411c-.1-3.164-2.211-5.157-3.718-6.522-4.024-3.646-3.048.057-4.352-5.784a14.125,14.125,0,0,0-3.518-6.663c-2.423-2.476-3.688-1.949-6.379-3.514h-7.394c-2.9,1.394-13.445,1.74-23.181,11.065a15.713,15.713,0,0,0-5.323,11.782c-.165,3.478.756,12.22,1.791,15.159-.052,1.01-3.928,2.569-2.047,8.017.981,2.843,2.236,5.041,5.665,5.173,2.287,10.947,9.059,11.207,9.432,14.5.287,2.541-1.888,3.9-3.166,5.009-3.835-.632-.909-2.105-7.337.7a50.644,50.644,0,0,1-7.18,2.894c-.869,1.768.3,1.164-1.267,2.079l-12.548,5.6c-1.826,1.088-2.881,1.375-4.075,3.172-5.041,7.581-5.2,27.209-5.282,37.46-.031,3.655-.68,10.774-.075,13.815,1.51,7.6,7.757,11.76,15.967,13.037.37,3.277,2.642,19.816,2.224,21.645-.032.138-.151.177-.194.23s-.309.358-.371.449c-1.025,1.5-.231,4.941-1.091,7.614-6.548,20.34-13.266,43.354-19.523,63.938-3.658,12.038-7.5,24.307-11.1,36.4-1.292,4.341,1.293,5.848,3.55,7.626a65.641,65.641,0,0,0,24.322,11.541c0,9.052-.681,19.488-1.111,28.691l-1.654,42.8c-.068,2.329-.181,4.864-.274,6.976-.6,13.366.781,2.378-1.973,12.3-2.129,7.667-2.448,5.556-3.124,8.119-.613,2.325.012,1.026-1.049,2.571C346.729,480.929,346.855,484.675,347.616,486.224Z" transform="translate(-319.566 -78.839)" fill="#cec5c8" fill-rule="evenodd"/>
  <path id="Path_11825" data-name="Path 11825" d="M406.908,468.709l.05.11h30.348l.055-.11Zm-60.1.11h30.348l.055-.11H346.754Z" transform="translate(-318.757 -61.434)" fill="#cec5c8" fill-rule="evenodd"/>
  <path id="Path_11826" data-name="Path 11826" d="M361.28,120.338s-3.965-15.423-1.795-23.013,16.485-17.354,30.8-18.005,14.48,13.395,14.48,13.395c15.227,8.333,2.668,15.448,3.351,26.187C408.339,122.38,361.415,120.637,361.28,120.338Z" transform="translate(-318.216 -78.834)" fill="#262262" fill-rule="evenodd"/>
  <path id="Path_11827" data-name="Path 11827" d="M365.205,444.639c.065.443-.506,10.882-.506,10.882s-11.577-3.923-10.566-4.809S365.205,444.639,365.205,444.639Z" transform="translate(-318.429 -62.51)" fill="#262262" fill-rule="evenodd"/>
  <path id="Path_11828" data-name="Path 11828" d="M400.529,444.7s-1.708,5.82-1.582,6.517,10.5,4.3,12.085,3.543,5.693-4.177,5.693-4.682-.19-6.9-.19-6.9Z" transform="translate(-316.425 -62.574)" fill="#262262" fill-rule="evenodd"/>
  <path id="Path_11829" data-name="Path 11829" d="M437.4,353.62s-7.339-15.437-27.332-5.82-35.936,16.7-56.688,14.678,14.171-94.9,26.32-96.42S435.375,261,437.4,353.62Z" transform="translate(-318.749 -70.511)" fill="#bcb0bf" fill-rule="evenodd"/>
  <path id="Path_11830" data-name="Path 11830" d="M347.5,361.3l-3.544,92.119a2.138,2.138,0,0,0,1.582,2.15c1.771.7,9.173,2.848,19.866,1.329a2.391,2.391,0,0,0,1.772-2.214c.19-1.9,6.961-77.44,6.961-77.44a2.815,2.815,0,0,0,.949-1.583c.221-1.044-.507-1.233-.76-1.8s1.045-1.519.95-2.121a7.756,7.756,0,0,0-.538-1.549l12.971-81.775a1.717,1.717,0,0,1,1.772-1.455l4.24-11.8H359.178s-3.037,10.376-5.568,29.1S347.5,361.3,347.5,361.3Z" transform="translate(-318.881 -70.082)" fill="#26377f" fill-rule="evenodd"/>
  <path id="Path_11831" data-name="Path 11831" d="M347.371,361.3l-.468,12.151,16.974-2.205,2.235-4.893,5.367-72.246s.126-6.074,5.062-5.631c3.916.352,7.037.782,10.815,1.357l.225-1.418a1.717,1.717,0,0,1,1.772-1.455l4.178-11.629-1.329-.171H359.046s-1.081,3.693-2.49,10.647l-2.43,13.9q-.327,2.189-.649,4.554C350.947,322.993,347.371,361.3,347.371,361.3Z" transform="translate(-318.749 -70.082)" fill="#262262" fill-rule="evenodd"/>
  <path id="Path_11832" data-name="Path 11832" d="M387.535,286.94s1.583.346,1.962,3.826,2.909,80.918,2.909,80.918-1.2,1.2-1.2,1.772.886,1.2.886,1.2a2.3,2.3,0,0,0-1.139,1.9c.062,1.2,1.834,2.658,1.834,2.658l6.706,74.338a2.13,2.13,0,0,0,1.773,1.077c1.2,0,9.173.441,16.007-1.583,0,0,1.139-.317,1.2-2.088s.255-73.011.255-73.011a2.111,2.111,0,0,0,0-3.29s1.834-2.278-.254-3.353l2.721-68.268,1.519-21.511-2.784-5.82-28.956,1.662h-2.932Z" transform="translate(-316.934 -70.058)" fill="#26377f" fill-rule="evenodd"/>
  <path id="Path_11833" data-name="Path 11833" d="M387.535,286.9s1.583.346,1.962,3.826c.172,1.579.788,18.388,1.408,36.281l3.5-33.023s-.379-4.049,6.328-3.8,10.755,2.278,11.768,9.745,6.281,63.6,6.285,63.644l2.414-60.581,1.519-21.511-1.049-2.193c-5.484-.789-12.206-1.7-19.22-2.624l-11.471.659h-2.932Z" transform="translate(-316.934 -70.015)" fill="#262262" fill-rule="evenodd"/>
  <path id="Path_11834" data-name="Path 11834" d="M370.009,147.258l8.7-1.68,16.479-.364.651-.46,3.037,1.06,4.414,4.665,19.424,40.366-7.593,63.268L417.4,286.76a83.208,83.208,0,0,1-52.133-4.556l-7.593-120.083,7.719-14.551Z" transform="translate(-318.268 -75.909)" fill="#4a75cc" fill-rule="evenodd"/>
  <path id="Path_11835" data-name="Path 11835" d="M383.5,162.62h2.136s3.151-4.668,2.808-4.865-4.945-1.012-4.945-1.012-4.6.816-4.945,1.012,2.809,4.865,2.809,4.865Z" transform="translate(-317.336 -75.374)" fill="#e7477b" fill-rule="evenodd"/>
  <path id="Path_11836" data-name="Path 11836" d="M369.877,147.187l4.373-.844.673,5.357s-4.158,3.687-4.474,5.142-1.139,14.489-1.139,14.489l6.579,32.9,24.8-3.163,5.627-27.935L411.446,175s-6.725,41.055-6.453,42.39-43.56-12.953-43.56-12.953l-.806-48.206h0l4.632-8.733Z" transform="translate(-318.137 -75.838)" fill="#2a54a8" fill-rule="evenodd"/>
  <path id="Path_11837" data-name="Path 11837" d="M418.918,218.318l-2.464,20.537-4.995-1.406,3.747,16.935,2.051,29.4a65.946,65.946,0,0,1-11.09,1.866,8.867,8.867,0,0,0,2.9-7.421c-.06-1.038-2.909-28.313-3.352-28.756s-1.709-1.423-1.488-1.8,1.33-1.993,1.33-1.993-.761-5.536-1.045-7.941a3.417,3.417,0,0,0-2.393-2.914l-.017-.005-.014,0-.009,0-.007,0h-.007L370.3,225.873s-1.834-.759-6.9.317c-.476.1-1.02.24-1.611.411l-.964-15.259c12.392.768,27.356,1.5,27.122.548C387.7,210.865,405.666,215.079,418.918,218.318Z" transform="translate(-318.128 -72.934)" fill="#2a54a8" fill-rule="evenodd"/>
  <path id="Path_11838" data-name="Path 11838" d="M383.726,258.088l10.242-10.242-8.106-85.42L384.6,161.1h-1.745l-1.264,1.329-8.106,85.42Z" transform="translate(-317.562 -75.179)" fill="#e7477b" fill-rule="evenodd"/>
  <path id="Path_11839" data-name="Path 11839" d="M392.637,232.318l-17.5-4.923,1.444-15.217c6.256.232,10.866.226,10.735-.306-.068-.279,1.222-.167,3.4.206Z" transform="translate(-317.488 -72.917)" fill="#a9255e" fill-rule="evenodd"/>
  <path id="Path_11840" data-name="Path 11840" d="M397.449,181.027H414.67a1.485,1.485,0,0,1,1.481,1.48v6.472a1.486,1.486,0,0,1-1.481,1.481H397.449a1.485,1.485,0,0,1-1.48-1.481v-6.472A1.484,1.484,0,0,1,397.449,181.027Z" transform="translate(-316.557 -74.288)" fill="#26377f" fill-rule="evenodd"/>
  <path id="Path_11841" data-name="Path 11841" d="M398.943,183.244h13.7a1.22,1.22,0,0,1,1.217,1.217h0a1.22,1.22,0,0,1-1.217,1.217h-13.7a1.221,1.221,0,0,1-1.218-1.217h0A1.221,1.221,0,0,1,398.943,183.244Z" transform="translate(-316.478 -74.19)" fill="#fff" fill-rule="evenodd"/>
  <path id="Path_11842" data-name="Path 11842" d="M411.536,186.71h1.124a.609.609,0,0,1,0,1.218h-1.124a.609.609,0,0,1,0-1.218Z" transform="translate(-315.889 -74.035)" fill="#abd3ec" fill-rule="evenodd"/>
  <path id="Path_11843" data-name="Path 11843" d="M398.334,186.71H409.58a.609.609,0,0,1,0,1.218H398.334a.609.609,0,1,1,0-1.218Z" transform="translate(-316.478 -74.035)" fill="#abd3ec" fill-rule="evenodd"/>
  <path id="Path_11844" data-name="Path 11844" d="M383.748,115.211A10.786,10.786,0,0,1,394.5,125.965v21.879a10.755,10.755,0,0,1-21.51,0V125.965A10.786,10.786,0,0,1,383.748,115.211Z" transform="translate(-317.584 -77.23)" fill="#ee8b83" fill-rule="evenodd"/>
  <path id="Path_11845" data-name="Path 11845" d="M398.688,148.2l-1.834-2.1,23.093,8.666,4.239,24.064L420.9,246.86s3.353.645.253,2.694c0,0,1.709.41.19,2.224l28.281,96.494s-6.579,14.989-19.233,19.438a2.085,2.085,0,0,1-2.91-.819c-1.139-1.874-16.7-84.082-19.233-112.188a4.96,4.96,0,0,1-.887-2.225,2.075,2.075,0,0,1,1.14-1.873s-1.9-.7-2.025-1.816,1.075-1.523,1.075-1.523l-4.871-29.858,6.517-39.586Z" transform="translate(-316.518 -75.85)" fill="#fff" fill-rule="evenodd"/>
  <path id="Path_11846" data-name="Path 11846" d="M422.843,198.567l-.587,12.128L404.09,205.52l2.24-13.606L420.572,175.8S416.738,191.481,422.843,198.567Z" transform="translate(-316.194 -74.522)" fill="#deeefa" fill-rule="evenodd"/>
  <path id="Path_11847" data-name="Path 11847" d="M421.827,219.343l-1.021,21.111L406,236.29,402.48,214.7C409.011,216.2,416.277,217.969,421.827,219.343Z" transform="translate(-316.266 -72.784)" fill="#deeefa" fill-rule="evenodd"/>
  <path id="Path_11848" data-name="Path 11848" d="M393.583,143.683l18.916,6.44,8.542,27.109-18.22,40.285,2.024-44.266L397,146.2l-3.417-.937Z" transform="translate(-316.664 -75.957)" fill="#fff" fill-rule="evenodd"/>
  <path id="Path_11849" data-name="Path 11849" d="M360.209,150.875l-13.982,5.914s7.718,7.34,6.453,31.932l-.507,6.829-3.037,18.5,3.8,33.259a1.886,1.886,0,0,0-.886,3.161s-1.518.871-.379,2.833L320.161,356.558a4.266,4.266,0,0,0,1.011,4.3c1.9,1.9,17.336,15.69,43.909,15.944a2.776,2.776,0,0,0,2.151-2.657c.126-2.278,3.923-118.818,3.923-118.818s2.025-.507.886-2.025c0,0,1.645-2.088,0-3.67l3.132-30.865Z" transform="translate(-319.954 -75.636)" fill="#fff" fill-rule="evenodd"/>
  <path id="Path_11850" data-name="Path 11850" d="M351.423,184.274q-.033,1.611-.12,3.333l-.507,6.829-.035.213,12.086,9.215s6.362-21.06-2.278-27.332l-7.019-.715Z" transform="translate(-318.577 -74.521)" fill="#deeefa" fill-rule="evenodd"/>
  <path id="Path_11851" data-name="Path 11851" d="M348.036,210.485l-.148.9,2.254,19.75c4.087-1.677,10.541-4.209,13.843-4.911,5.062-1.076,6.9-.317,6.9-.317l1.991.561,1.052-10.366-.9-4.077C363.828,211.587,353.023,210.842,348.036,210.485Z" transform="translate(-318.706 -72.972)" fill="#deeefa" fill-rule="evenodd"/>
  <path id="Path_11852" data-name="Path 11852" d="M370.2,147.2l-2.721-1.171-11.262,4.8-2.784,22.134,20.246,46.021-6.58-50,1.076-21.167Z" transform="translate(-318.458 -75.852)" fill="#fff" fill-rule="evenodd"/>
  <path id="Path_11853" data-name="Path 11853" d="M421.1,154.387s8.877,3.174,11.028,10.006,10,47.325,10,47.325,1.772,12.527-5.314,18.221-16.451,5.314-25.435,4.681-39.669-9.047-39.669-9.047-.349-.159-.507-.918-.031-7.941-.031-7.941l18.6-4.555,34.1-3.408.63-30.378Z" transform="translate(-317.668 -75.479)" fill="#fff" fill-rule="evenodd"/>
  <path id="Path_11854" data-name="Path 11854" d="M380.852,225.665c-5.332-1.383-9.149-2.429-9.149-2.429s-.349-.159-.507-.918-.031-7.941-.031-7.941l18.6-4.555,31.3-3.127-16.865,7.18-.812,2.7Z" transform="translate(-317.668 -73.142)" fill="#deeefa" fill-rule="evenodd"/>
  <path id="Path_11855" data-name="Path 11855" d="M401.916,199.07s7.465.254,10,.7,7.776,7.269,7.776,7.269-13.879,2.58-14.322,2.517-1.591-2.569-1.591-2.569Z" transform="translate(-316.292 -73.483)" fill="#f2ba95" fill-rule="evenodd"/>
  <path id="Path_11856" data-name="Path 11856" d="M350.484,189.8l8.161,1.455a5.417,5.417,0,0,1,3.48,2.087c1.455,1.9,5.252,5.631,5.252,5.631l-15.121,2.215-4.239-5.441Z" transform="translate(-318.7 -73.897)" fill="#f2ba95" fill-rule="evenodd"/>
  <path id="Path_11857" data-name="Path 11857" d="M356.344,225.333s46.85-6.169,48.716-6.517a3.261,3.261,0,0,0,2.435-1.644,75.154,75.154,0,0,0,1.139-8.289,92.188,92.188,0,0,0-2.057-9.917,1.187,1.187,0,0,0-1.282-.885l-50.868,2.277a2.519,2.519,0,0,0-2.131-2.612s.239-5.082.784-8.773,1.354-24.488-7.465-32.437c0,0-3.758,2.078-5.15,3.028s-3.891,5.726-5.03,12.052-1.771,38.847-1.771,38.847S333.98,225.963,356.344,225.333Z" transform="translate(-319.341 -75.383)" fill="#fff" fill-rule="evenodd"/>
  <path id="Path_11858" data-name="Path 11858" d="M364.075,118.121s-1.933-2.058-3.243-1.934-2.93,2.931-2.743,5.051,2.682,9.478,6.984,6.672S364.075,118.121,364.075,118.121Z" transform="translate(-318.251 -77.186)" fill="#f2ba95" fill-rule="evenodd"/>
  <path id="Path_11859" data-name="Path 11859" d="M365.679,120.411a.479.479,0,0,1,.1.556.263.263,0,0,1-.4.068s-1.151,6.527-2.121,5.512a7.915,7.915,0,0,1-2.4-3.647c-.411-1.654,1.058-3.176.527-3.606-.508-.411-1.05.234-1.1.295l0,0h0a4.332,4.332,0,0,0-.625,1.223.264.264,0,0,1-.411.155.49.49,0,0,1-.2-.534c0-.006.742-2.485,2.56-2.407C363.349,118.1,365.672,120.4,365.679,120.411Z" transform="translate(-318.208 -77.104)" fill="#ee8b83" fill-rule="evenodd"/>
  <path id="Path_11860" data-name="Path 11860" d="M402.887,117.207s1.942-2.05,3.251-1.919,2.918,2.944,2.72,5.063-2.722,9.466-7.013,6.641S402.887,117.207,402.887,117.207Z" transform="translate(-316.369 -77.226)" fill="#f2ba95" fill-rule="evenodd"/>
  <path id="Path_11861" data-name="Path 11861" d="M401.191,119.491a.477.477,0,0,0-.1.554.262.262,0,0,0,.4.07s1.123,6.533,2.1,5.521A7.91,7.91,0,0,0,406,122c.418-1.653-1.045-3.181-.51-3.609.509-.408,1.049.238,1.1.3l0,0a4.31,4.31,0,0,1,.619,1.225.265.265,0,0,0,.411.158.492.492,0,0,0,.2-.534c0-.006-.73-2.488-2.549-2.419C403.532,117.193,401.2,119.484,401.191,119.491Z" transform="translate(-316.33 -77.144)" fill="#ee8b83" fill-rule="evenodd"/>
  <path id="Path_11862" data-name="Path 11862" d="M384.112,89.546c-26.967.559-22.872,21.529-20.389,38.441a22.242,22.242,0,0,0,5.01,11.3s7.642,6.627,10.276,8.011a12.847,12.847,0,0,0,10.916-.067c2.617-1.416,10.177-8.136,10.177-8.136a22.253,22.253,0,0,0,4.871-11.363C407.248,110.792,411.084,89.773,384.112,89.546Z" transform="translate(-318.079 -78.376)" fill="#f2ba95" fill-rule="evenodd"/>
  <path id="Path_11863" data-name="Path 11863" d="M361.923,104.992A49.846,49.846,0,0,0,362,116.5a13,13,0,0,0,1.217.71c14.8,7.655,30.21-10.786,33.152-11.672s3.551,2.612,3.551,2.612l6.256-1.072a26.3,26.3,0,0,0-1.35-6.887c-6.812-1.908-24.16-5.628-26.3-6.136C376.983,93.683,367.052,98.985,361.923,104.992Z" transform="translate(-318.092 -78.176)" fill="#ee8b83" fill-rule="evenodd"/>
  <path id="Path_11872" data-name="Path 11872" d="M401.758,450s-1.567,1.136-1.567-1-1.29-1.933-2.429-.165-1.975,2.18-1.975,5.8v10.98c0,2.8,7.746.37,7.746.37l3.53-10.158Z" transform="translate(-316.565 -62.384)" fill="#fff" fill-rule="evenodd"/>
  <path id="Path_11873" data-name="Path 11873" d="M401.5,450.056l1.09-1.99s1.139-1.809,4.707-1.809h9.794a3.765,3.765,0,0,1,3.188,2.879c.912,2.8,3.265,11.6,3.265,11.6l-7.06,1.4-11.009-.493Z" transform="translate(-316.31 -62.437)" fill="#e0dcdc" fill-rule="evenodd"/>
  <path id="Path_11874" data-name="Path 11874" d="M400.733,465.263s2.343-9.194,9.641-9.194h8.47c2.118,0,5.947,1.132,5.947,6.623Z" transform="translate(-316.344 -61.999)" fill="#fff" fill-rule="evenodd"/>
  <path id="Path_11875" data-name="Path 11875" d="M404,466.656l-.093.305-.582,1.917H424.69l.526-.7-.449-2.832-11.534-.479Z" transform="translate(-316.229 -61.606)" fill="#aca8bc" fill-rule="evenodd"/>
  <path id="Path_11876" data-name="Path 11876" d="M395.814,463.275s.02,1.072,3.418,1.072a4.252,4.252,0,0,0,.952-.07c2.072-.436,5.271-2.178,10.317-2.178h13.832a1.845,1.845,0,0,1,2.051,2v3.682a1.214,1.214,0,0,1-1.33,1.219s.6-1.933-2-1.933H412.973c-3.209,0-4.7,1.933-9.6,1.933h-7c-.816,0-1.183-.978-1.183-1.876V464.3A1.308,1.308,0,0,1,395.814,463.275Z" transform="translate(-316.592 -61.729)" fill="#e0dcdc" fill-rule="evenodd"/>
  <path id="Path_11877" data-name="Path 11877" d="M361.42,450s1.568,1.136,1.568-1,1.29-1.933,2.429-.165,1.974,2.18,1.974,5.8v10.98c0,2.8-7.745.37-7.745.37l-3.531-10.158Z" transform="translate(-318.338 -62.384)" fill="#fff" fill-rule="evenodd"/>
  <path id="Path_11878" data-name="Path 11878" d="M362.136,450.056l-1.089-1.99s-1.139-1.809-4.707-1.809h-9.794a3.765,3.765,0,0,0-3.188,2.879c-.912,2.8-3.266,11.6-3.266,11.6l7.061,1.4,11.009-.493Z" transform="translate(-319.054 -62.437)" fill="#e0dcdc" fill-rule="evenodd"/>
  <path id="Path_11879" data-name="Path 11879" d="M362.992,465.263s-2.342-9.194-9.641-9.194h-8.47c-2.117,0-5.946,1.132-5.946,6.623Z" transform="translate(-319.106 -61.999)" fill="#fff" fill-rule="evenodd"/>
  <path id="Path_11880" data-name="Path 11880" d="M359.637,466.656l.092.305.583,1.917H338.943l-.527-.7.45-2.832,11.534-.479Z" transform="translate(-319.129 -61.606)" fill="#aca8bc" fill-rule="evenodd"/>
  <path id="Path_11881" data-name="Path 11881" d="M368.217,463.275s-.019,1.072-3.417,1.072a4.252,4.252,0,0,1-.952-.07c-2.073-.436-5.271-2.178-10.317-2.178H339.7a1.845,1.845,0,0,0-2.051,2v3.682a1.214,1.214,0,0,0,1.33,1.219s-.594-1.933,2-1.933h10.082c3.21,0,4.7,1.933,9.6,1.933h7c.817,0,1.183-.978,1.183-1.876V464.3A1.308,1.308,0,0,0,368.217,463.275Z" transform="translate(-319.163 -61.729)" fill="#e0dcdc" fill-rule="evenodd"/>
  <path id="Path_11882" data-name="Path 11882" d="M411.468,149.969a.358.358,0,0,1,.684-.212l8.541,27.109a.359.359,0,0,1-.015.254l-10.972,24.26a.358.358,0,1,1-.653-.295l10.916-24.135Z" transform="translate(-315.974 -75.697)" fill="#c1e2f6" fill-rule="evenodd"/>
  <path id="Path_11883" data-name="Path 11883" d="M355.876,150.6a.357.357,0,1,1,.708.087l-2.772,22.033,7.142,16.236a.359.359,0,0,1-.656.289l-7.181-16.325h0a.363.363,0,0,1-.027-.187Z" transform="translate(-318.473 -75.662)" fill="#c1e2f6" fill-rule="evenodd"/>
  <path id="Path_11884" data-name="Path 11884" d="M422.733,178.34a.358.358,0,0,1-.709.1l-3.4-23.987a.358.358,0,0,1,.709-.1Z" transform="translate(-315.545 -75.494)" fill="#deeefa" fill-rule="evenodd"/>
  <path id="Path_11885" data-name="Path 11885" d="M352.938,189.041a.358.358,0,1,1-.708-.1,65.037,65.037,0,0,0-1.142-19.8c-1.116-4.849-3.026-9.448-6.209-12.316a.358.358,0,1,1,.48-.533c3.307,2.98,5.282,7.714,6.427,12.689A65.907,65.907,0,0,1,352.938,189.041Z" transform="translate(-318.846 -75.398)" fill="#deeefa" fill-rule="evenodd"/>
  <path id="Path_11886" data-name="Path 11886" d="M351.712,195.645a.357.357,0,1,1-.067.711,6.791,6.791,0,0,0-3.594.67.358.358,0,0,1-.348-.625A7.538,7.538,0,0,1,351.712,195.645Zm2.1,2.608a.359.359,0,0,1,0,.718,7.842,7.842,0,0,0-5.713,3.277.358.358,0,1,1-.566-.44A8.61,8.61,0,0,1,353.811,198.253Z" transform="translate(-318.725 -73.637)" fill="#c1e2f6" fill-rule="evenodd"/>
  <path id="Path_11887" data-name="Path 11887" d="M373.119,146.121l10.755,11.184-9.108,6.341-4.589-16.5,2.942-2.986Z" transform="translate(-317.71 -75.936)" fill="#7097ce" fill-rule="evenodd"/>
  <path id="Path_11888" data-name="Path 11888" d="M383.288,157.34l10.755-11.627v-2.341l3.417,2.842s-3.73,15.57-4.047,15.57S383.288,157.34,383.288,157.34Z" transform="translate(-317.124 -75.971)" fill="#7097ce" fill-rule="evenodd"/>
  <path id="Path_11889" data-name="Path 11889" d="M405.669,123.25s-4.4-1.23-4.836-7.953-.977-10.521-4.989-10.3-15.544,17.489-30.294,9.571c0,0-.065,8.377-2.492,8.53,0,0-.61-4.738-2.323-5.6-.027-.014-.009-.062-.014-.092a51.661,51.661,0,0,1,.2-15.287c.975-4.013,8.933-12.914,14.247-14.65s23.361.925,26.609,3.651c2.929,2.459,8.514,10.64,6.537,25.146-.018.126.074.375-.053.38C406.089,116.732,406.025,121.663,405.669,123.25Z" transform="translate(-318.153 -78.494)" fill="#262262" fill-rule="evenodd"/>
  <path id="Path_11890" data-name="Path 11890" d="M360.614,104.761q.688.588,1.407,1.085.185.128.371.251a18.16,18.16,0,0,0,5.74,2.468c10.224,2.477,21.887-3.252,25.4-5.591a26.444,26.444,0,0,1,8-3.026c.972-.246,1.891-.47,2.7-.7a10.787,10.787,0,0,0,2.287-.857,1.554,1.554,0,0,0,.873-.984c.4-2.215-2.616-4.692-2.616-4.692s-.126-10.841-9.865-13.033a17.412,17.412,0,0,0-4.615-.361c-14.316.651-28.633,10.412-30.8,18.005a21.469,21.469,0,0,0-.65,5.7A18.873,18.873,0,0,0,360.614,104.761Z" transform="translate(-318.216 -78.834)" fill="#26377f" fill-rule="evenodd"/>
  <path id="Path_11891" data-name="Path 11891" d="M396.738,100.257a.286.286,0,0,1,.233.522c-.014.006-4.857,2.191-9.93,3.838a47.3,47.3,0,0,1-9.116,2.137,22.424,22.424,0,0,1-10.456-1.014.286.286,0,1,1,.2-.536,21.859,21.859,0,0,0,10.191.981,46.829,46.829,0,0,0,9.005-2.112C391.915,102.432,396.724,100.263,396.738,100.257Z" transform="translate(-317.839 -77.899)" fill="#262262" fill-rule="evenodd"/>
  <path id="Path_11892" data-name="Path 11892" d="M403.018,92.209a.358.358,0,1,1-.7-.135c0-.027,1.944-9.541-7.686-12.522a.357.357,0,0,1,.21-.683C405.09,82.042,403.023,92.179,403.018,92.209Z" transform="translate(-316.628 -78.854)" fill="#26377f" fill-rule="evenodd"/>
  <path id="Path_11893" data-name="Path 11893" d="M388.14,108.061a.286.286,0,0,1,.446.358c-.03.039-10.907,13.794-24.407,6.08a.287.287,0,0,1,.284-.5C377.535,121.471,388.11,108.1,388.14,108.061Z" transform="translate(-317.984 -77.554)" fill="#262262" fill-rule="evenodd"/>
</svg>
