<svg xmlns="http://www.w3.org/2000/svg" width="56.196" height="46.354" viewBox="0 0 56.196 46.354">
  <g id="Group_116" data-name="Group 116" transform="translate(-6663 -1213.325)">
    <g id="Group_80" data-name="Group 80" transform="translate(6502.293 813.615)">
      <path id="Path_101" data-name="Path 101" d="M197.309,436.069a2.347,2.347,0,0,0-2.344,2.343v5.036l11.071-7.379Zm-3.256,9.995a.9.9,0,0,1-.429-.107.912.912,0,0,1-.482-.8v-6.741a4.173,4.173,0,0,1,4.167-4.168h11.739a.912.912,0,0,1,.506,1.672L194.56,445.91A.917.917,0,0,1,194.053,446.064Z" fill="#03a9f4"/>
    </g>
    <g id="Group_81" data-name="Group 81" transform="translate(6502.293 813.615)">
      <path id="Path_102" data-name="Path 102" d="M202.326,410.076H190.59a.912.912,0,1,1,0-1.825h10.823v-1.636H187.339a.912.912,0,0,1,0-1.824h14.986a.913.913,0,0,1,.912.912v3.461A.912.912,0,0,1,202.326,410.076Z" fill="#03a9f4"/>
    </g>
    <g id="Group_82" data-name="Group 82" transform="translate(6502.293 813.615)">
      <path id="Path_103" data-name="Path 103" d="M194.875,414.418h-5.942a.912.912,0,0,1,0-1.824h5.942a.912.912,0,0,1,0,1.824Z" fill="#03a9f4"/>
    </g>
    <g id="Group_83" data-name="Group 83" transform="translate(6502.293 813.615)">
      <path id="Path_104" data-name="Path 104" d="M202.517,418.76H185.739a.912.912,0,1,1,0-1.824h16.778a.912.912,0,0,1,0,1.824Z" fill="#03a9f4"/>
    </g>
    <g id="Group_84" data-name="Group 84" transform="translate(6502.293 813.615)">
      <path id="Path_105" data-name="Path 105" d="M198.293,423.1h-9.36a.912.912,0,0,1,0-1.825h9.36a.912.912,0,1,1,0,1.825Z" fill="#03a9f4"/>
    </g>
    <g id="Group_85" data-name="Group 85" transform="translate(6502.293 813.615)">
      <path id="Path_106" data-name="Path 106" d="M193.76,427.443h-6.1a.912.912,0,1,1,0-1.825h6.1a.912.912,0,1,1,0,1.825Z" fill="#03a9f4"/>
    </g>
    <g id="Group_86" data-name="Group 86" transform="translate(6502.293 813.615)">
      <path id="Path_107" data-name="Path 107" d="M188.554,433.219l2.036,2.036,20.8-20.8-2.036-2.036Zm2.036,4.239a.917.917,0,0,1-.646-.268l-3.325-3.326a.91.91,0,0,1,0-1.29l22.092-22.092a.912.912,0,0,1,1.29,0l3.326,3.326a.908.908,0,0,1,.267.644.917.917,0,0,1-.267.644L191.235,437.19A.914.914,0,0,1,190.59,437.458Z" fill="#03a9f4"/>
    </g>
    <g id="Group_87" data-name="Group 87" transform="translate(6502.293 813.615)">
      <path id="Path_108" data-name="Path 108" d="M210.646,411.126l2.036,2.036.815-.813-2.036-2.038Zm2.036,4.237a.909.909,0,0,1-.644-.267l-3.326-3.325a.913.913,0,0,1,0-1.29l2.1-2.1a.912.912,0,0,1,1.289,0l3.326,3.328a.909.909,0,0,1,0,1.289l-2.1,2.1A.912.912,0,0,1,212.682,415.363Z" fill="#03a9f4"/>
    </g>
    <g id="Group_88" data-name="Group 88" transform="translate(6502.293 813.615)">
      <path id="Path_109" data-name="Path 109" d="M213.16,409.432l1.217,1.217.527-.528a.635.635,0,0,0,.172-.485.987.987,0,0,0-.9-.9.654.654,0,0,0-.483.173Zm1.217,3.419a.91.91,0,0,1-.646-.267l-2.506-2.508a.912.912,0,0,1,0-1.289l1.173-1.173a2.439,2.439,0,0,1,1.861-.705,2.812,2.812,0,0,1,2.641,2.64,2.437,2.437,0,0,1-.705,1.862l-1.173,1.173A.909.909,0,0,1,214.378,412.85Z" fill="#03a9f4"/>
    </g>
    <g id="Group_89" data-name="Group 89" transform="translate(6502.293 813.615)">
      <path id="Path_110" data-name="Path 110" d="M187.683,434.928l-.549,1.748,1.747-.551Zm-1.944,4.055a.912.912,0,0,1-.872-1.186l1.527-4.852a.912.912,0,0,1,1.515-.372l3.326,3.326a.912.912,0,0,1-.371,1.515l-4.852,1.528A.928.928,0,0,1,185.739,438.983Z" fill="#03a9f4"/>
    </g>
    <g id="Group_90" data-name="Group 90" transform="translate(6502.293 813.615)">
      <path id="Path_111" data-name="Path 111" d="M194.053,446.064h-16.6a4.173,4.173,0,0,1-4.169-4.168v-5.254a.912.912,0,0,1,1.824,0V441.9a2.347,2.347,0,0,0,2.345,2.344h16.321l14.359-9.572V423.854a.912.912,0,1,1,1.825,0v11.3a.914.914,0,0,1-.407.759L194.56,445.91A.912.912,0,0,1,194.053,446.064Z" fill="#03a9f4"/>
    </g>
    <g id="Group_91" data-name="Group 91" transform="translate(6502.293 813.615)">
      <path id="Path_112" data-name="Path 112" d="M209.048,408.346a.913.913,0,0,1-.912-.912v-3.556a2.346,2.346,0,0,0-2.344-2.344H177.455a2.358,2.358,0,0,0-2.026,1.161.912.912,0,1,1-1.574-.922,4.185,4.185,0,0,1,3.6-2.063h28.337a4.173,4.173,0,0,1,4.169,4.167v3.556A.912.912,0,0,1,209.048,408.346Z" fill="#03a9f4"/>
    </g>
    <g id="Group_92" data-name="Group 92" transform="translate(6502.293 813.615)">
      <path id="Path_113" data-name="Path 113" d="M171.364,425.056a.91.91,0,0,1,.911.912v5.714a.627.627,0,0,0,.625.625h5.036a.626.626,0,0,0,.626-.625v-5.745a.912.912,0,0,1,1.368-.79l4.928,2.847a.629.629,0,0,0,.854-.23l2.517-4.362a.623.623,0,0,0-.228-.853l-4.9-2.83a.912.912,0,0,1,0-1.581l4.875-2.815a.625.625,0,0,0,.228-.854l-2.517-4.359a.623.623,0,0,0-.854-.23l-4.9,2.828a.911.911,0,0,1-1.368-.788V406.29a.625.625,0,0,0-.626-.625H172.9a.626.626,0,0,0-.625.625v5.6a.912.912,0,0,1-1.369.791l-4.894-2.826a.614.614,0,0,0-.474-.062.622.622,0,0,0-.379.29l-2.518,4.362a.625.625,0,0,0,.228.853l4.922,2.842a.913.913,0,0,1,0,1.581l-4.948,2.856a.625.625,0,0,0-.228.854l2.518,4.36a.619.619,0,0,0,.379.292.632.632,0,0,0,.474-.062l4.92-2.842A.9.9,0,0,1,171.364,425.056Zm6.572,9.076H172.9a2.452,2.452,0,0,1-2.45-2.45v-4.134L166.9,429.6a2.45,2.45,0,0,1-3.346-.9l-2.517-4.362a2.45,2.45,0,0,1,.9-3.345l3.58-2.068-3.553-2.051a2.451,2.451,0,0,1-.9-3.345l2.517-4.362a2.45,2.45,0,0,1,3.346-.9l3.526,2.035v-4.02a2.452,2.452,0,0,1,2.45-2.448h5.036a2.452,2.452,0,0,1,2.45,2.448v4.051l3.534-2.04a2.448,2.448,0,0,1,3.346.9l2.518,4.362a2.451,2.451,0,0,1-.9,3.345l-3.507,2.026,3.534,2.04a2.454,2.454,0,0,1,.9,3.347l-2.518,4.36a2.454,2.454,0,0,1-3.345.9l-3.561-2.056v4.165A2.452,2.452,0,0,1,177.936,434.132Z" fill="#03a9f4"/>
    </g>
  </g>
</svg>
