<svg xmlns="http://www.w3.org/2000/svg" width="55.994" height="50.635" viewBox="0 0 55.994 50.635">
  <g id="Group_154" data-name="Group 154" transform="translate(-4449.94 -3651.306)">
    <g id="Group_42" data-name="Group 42" transform="translate(4449.94 3651.306)">
      <path id="Path_63" data-name="Path 63" d="M238.626,78.019c-7.941,0-14.4,7.107-14.4,15.844a10.936,10.936,0,0,0,.059,1.281,17.088,17.088,0,0,0,.917,4.414c2.172,7.022,8.3,17.066,25.2,25.352,16.911-8.292,23.035-18.342,25.192-25.337a17.152,17.152,0,0,0,.92-4.4,11.285,11.285,0,0,0,.062-1.272c0-8.771-6.462-15.878-14.4-15.878a13.891,13.891,0,0,0-11.049,5.688.941.941,0,0,1-1.449,0A13.889,13.889,0,0,0,238.626,78.019ZM250.4,126.834a.91.91,0,0,1-.4-.091c-17.788-8.609-24.245-19.224-26.53-26.613a18.794,18.794,0,0,1-1-4.832,12.127,12.127,0,0,1-.066-1.463c0-9.712,7.276-17.636,16.221-17.636A15.576,15.576,0,0,1,250.4,81.714,15.571,15.571,0,0,1,262.172,76.2c8.945,0,16.223,7.923,16.223,17.664a12.379,12.379,0,0,1-.067,1.459,18.886,18.886,0,0,1-1,4.8c-2.284,7.395-8.743,18.01-26.53,26.617A.91.91,0,0,1,250.4,126.834Z" transform="translate(-222.402 -76.198)" fill="#03a9f4"/>
    </g>
    <g id="Group_43" data-name="Group 43" transform="translate(4458.256 3660.404)">
      <path id="Path_64" data-name="Path 64" d="M231.006,94.092a.911.911,0,0,1-.911-.911c0-4.724,3.547-8.567,7.908-8.567.159,0,.316.005.472.016a.91.91,0,1,1-.119,1.816c-.116-.008-.235-.011-.353-.011-3.356,0-6.086,3.025-6.086,6.745A.911.911,0,0,1,231.006,94.092Z" transform="translate(-230.095 -84.614)" fill="#03a9f4"/>
    </g>
    <g id="Group_44" data-name="Group 44" transform="translate(4465.273 3663.96)">
      <path id="Path_65" data-name="Path 65" d="M249.25,89.724a10.843,10.843,0,1,0,10.843,10.843A10.855,10.855,0,0,0,249.25,89.724Zm0,23.508a12.664,12.664,0,1,1,12.663-12.665A12.68,12.68,0,0,1,249.25,113.232Z" transform="translate(-236.585 -87.904)" fill="#03a9f4"/>
    </g>
    <g id="Group_45" data-name="Group 45" transform="translate(4485.013 3662.045)">
      <path id="Path_66" data-name="Path 66" d="M263.456,99.507a.911.911,0,0,1-.9-.791A15.02,15.02,0,0,0,255.3,87.829a.91.91,0,0,1,.92-1.571,16.853,16.853,0,0,1,8.144,12.218.91.91,0,0,1-.782,1.023A.78.78,0,0,1,263.456,99.507Z" transform="translate(-254.846 -86.132)" fill="#03a9f4"/>
    </g>
    <g id="Group_46" data-name="Group 46" transform="translate(4462.001 3680.704)">
      <path id="Path_67" data-name="Path 67" d="M242.464,114.409a.928.928,0,0,1-.4-.095,16.873,16.873,0,0,1-8.455-9.724.911.911,0,0,1,1.729-.573,15.029,15.029,0,0,0,7.536,8.666.911.911,0,0,1-.406,1.727Z" transform="translate(-233.559 -103.393)" fill="#03a9f4"/>
    </g>
    <g id="Group_47" data-name="Group 47" transform="translate(4470.044 3668.513)">
      <path id="Path_68" data-name="Path 68" d="M247.75,106.516h2.282v-2.773a.911.911,0,0,1,1.366-.79l2.378,1.374,1.142-1.976-2.365-1.366a.911.911,0,0,1,0-1.577l2.352-1.358-1.142-1.976L251.4,97.441a.911.911,0,0,1-1.366-.788V93.937H247.75v2.7a.91.91,0,0,1-1.366.788l-2.362-1.364-1.14,1.977,2.374,1.371a.911.911,0,0,1,0,1.577l-2.387,1.379,1.14,1.977,2.375-1.371a.91.91,0,0,1,1.366.788Zm2.414,1.82h-2.547a1.689,1.689,0,0,1-1.687-1.687v-1.314l-1.124.649a1.691,1.691,0,0,1-2.307-.617l-1.273-2.207a1.691,1.691,0,0,1,.617-2.307l1.138-.656-1.123-.649a1.689,1.689,0,0,1-.618-2.307l1.273-2.205a1.691,1.691,0,0,1,2.307-.618l1.111.641V93.8a1.69,1.69,0,0,1,1.687-1.689h2.547a1.69,1.69,0,0,1,1.689,1.689v1.271l1.115-.643a1.687,1.687,0,0,1,2.305.618l1.273,2.205a1.69,1.69,0,0,1-.617,2.307l-1.1.635,1.114.643a1.686,1.686,0,0,1,.617,2.305l-1.272,2.207a1.692,1.692,0,0,1-2.307.618l-1.128-.651v1.33A1.689,1.689,0,0,1,250.163,108.337Z" transform="translate(-240.999 -92.115)" fill="#03a9f4"/>
    </g>
  </g>
</svg>
