<svg xmlns="http://www.w3.org/2000/svg" width="60.383" height="50.968" viewBox="0 0 60.383 50.968">
  <g id="Group_157" data-name="Group 157" transform="translate(-4525.677 -3732.522)">
    <g id="Group_93" data-name="Group 93" transform="translate(4527.938 3761.161)">
      <path id="Path_114" data-name="Path 114" d="M470.214,509.734h24.935V491.289H470.214Zm25.9,1.942H469.243a.97.97,0,0,1-.97-.971V490.318a.97.97,0,0,1,.97-.971h26.876a.971.971,0,0,1,.971.971v20.388A.971.971,0,0,1,496.119,511.677Z" transform="translate(-468.274 -489.347)" fill="#03a9f4"/>
    </g>
    <g id="Group_94" data-name="Group 94" transform="translate(4535.019 3765.017)">
      <path id="Path_115" data-name="Path 115" d="M477.388,494.8a.722.722,0,0,0,0,1.443h9.33a.722.722,0,1,0,0-1.443Zm9.33,3.385h-9.33a2.664,2.664,0,0,1,0-5.327h9.33a2.664,2.664,0,0,1,0,5.327Z" transform="translate(-474.726 -492.861)" fill="#03a9f4"/>
    </g>
    <g id="Group_95" data-name="Group 95" transform="translate(4540.504 3740.774)">
      <path id="Path_116" data-name="Path 116" d="M481.667,491.156H506.6V472.71H481.667Zm25.9,1.942H480.7a.971.971,0,0,1-.971-.971V471.74a.971.971,0,0,1,.971-.971h26.876a.972.972,0,0,1,.972.971v20.386A.972.972,0,0,1,507.571,493.1Z" transform="translate(-479.724 -470.769)" fill="#03a9f4"/>
    </g>
    <g id="Group_96" data-name="Group 96" transform="translate(4547.586 3744.632)">
      <path id="Path_117" data-name="Path 117" d="M488.842,476.224a.722.722,0,0,0,0,1.443h9.328a.722.722,0,1,0,0-1.443Zm9.328,3.385h-9.328a2.662,2.662,0,1,1,0-5.325h9.328a2.662,2.662,0,1,1,0,5.325Z" transform="translate(-486.179 -474.285)" fill="#03a9f4"/>
    </g>
    <g id="Group_97" data-name="Group 97" transform="translate(4554.814 3761.161)">
      <path id="Path_118" data-name="Path 118" d="M494.705,509.734h24.935V491.289H494.705Zm25.906,1.942H493.734a.97.97,0,0,1-.97-.971V490.318a.97.97,0,0,1,.97-.971h26.877a.972.972,0,0,1,.971.971v20.388A.972.972,0,0,1,520.612,511.677Z" transform="translate(-492.765 -489.347)" fill="#03a9f4"/>
    </g>
    <g id="Group_98" data-name="Group 98" transform="translate(4561.895 3765.017)">
      <path id="Path_119" data-name="Path 119" d="M501.879,494.8a.722.722,0,0,0,0,1.443h9.33a.722.722,0,1,0,0-1.443Zm9.33,3.385h-9.33a2.664,2.664,0,0,1,0-5.327h9.33a2.664,2.664,0,0,1,0,5.327Z" transform="translate(-499.217 -492.861)" fill="#03a9f4"/>
    </g>
    <g id="Group_99" data-name="Group 99" transform="translate(4525.677 3781.548)">
      <path id="Path_120" data-name="Path 120" d="M525.625,509.867H467.184a.971.971,0,1,1,0-1.942h58.441a.971.971,0,0,1,0,1.942Z" transform="translate(-466.213 -507.925)" fill="#03a9f4"/>
    </g>
    <g id="Group_100" data-name="Group 100" transform="translate(4569.87 3757.669)">
      <path id="Path_121" data-name="Path 121" d="M507.454,491.6a.972.972,0,0,1-.874-1.39l1.667-3.489a.971.971,0,1,1,1.754.836l-1.669,3.491A.969.969,0,0,1,507.454,491.6Z" transform="translate(-506.485 -486.165)" fill="#03a9f4"/>
    </g>
    <g id="Group_101" data-name="Group 101" transform="translate(4574.076 3757.997)">
      <path id="Path_122" data-name="Path 122" d="M516.4,491.57a.972.972,0,0,1-.972-.971v-1.315a.879.879,0,0,0-.878-.878H512.26V490.6a.971.971,0,0,1-1.942,0v-3.163a.97.97,0,0,1,.971-.971h3.262a2.823,2.823,0,0,1,2.82,2.819V490.6A.97.97,0,0,1,516.4,491.57Z" transform="translate(-510.318 -486.464)" fill="#03a9f4"/>
    </g>
    <g id="Group_102" data-name="Group 102" transform="translate(4530.354 3753.284)">
      <path id="Path_123" data-name="Path 123" d="M472.462,490.046h8.163v-5.034a5.186,5.186,0,0,0-2.944-.9,5.27,5.27,0,0,0-5.266,5.264A4.943,4.943,0,0,0,472.462,490.046Zm9.134,1.942h-9.924a.972.972,0,0,1-.937-.717,7.2,7.2,0,0,1,11.473-7.5.976.976,0,0,1,.36.755v6.491A.971.971,0,0,1,481.6,491.988Z" transform="translate(-470.475 -482.169)" fill="#03a9f4"/>
    </g>
    <g id="Group_103" data-name="Group 103" transform="translate(4549.943 3750.587)">
      <path id="Path_124" data-name="Path 124" d="M492.917,487.712h.759v-1.679a.969.969,0,0,1,.971-.97h1.679V484.3h-1.679a.97.97,0,0,1-.971-.971v-1.679h-.759v1.679a.97.97,0,0,1-.971.971h-1.678v.759h1.678a.969.969,0,0,1,.971.97Zm1.73,1.942h-2.7a.97.97,0,0,1-.97-.971V487H489.3a.969.969,0,0,1-.97-.97v-2.7a.97.97,0,0,1,.97-.97h1.681v-1.681a.97.97,0,0,1,.97-.971h2.7a.97.97,0,0,1,.97.971v1.681H497.3a.969.969,0,0,1,.97.97v2.7a.968.968,0,0,1-.97.97h-1.681v1.681A.97.97,0,0,1,494.647,489.654Z" transform="translate(-488.326 -479.712)" fill="#03a9f4"/>
    </g>
    <g id="Group_104" data-name="Group 104" transform="translate(4571.646 3778.07)">
      <path id="Path_125" data-name="Path 125" d="M514.441,506.7h-5.365a.97.97,0,1,1,0-1.939h5.365a.97.97,0,0,1,0,1.939Z" transform="translate(-508.103 -504.756)" fill="#03a9f4"/>
    </g>
    <g id="Group_105" data-name="Group 105" transform="translate(4571.646 3775.459)">
      <path id="Path_126" data-name="Path 126" d="M514.441,504.317h-5.365a.97.97,0,1,1,0-1.941h5.365a.97.97,0,0,1,0,1.941Z" transform="translate(-508.103 -502.377)" fill="#03a9f4"/>
    </g>
    <g id="Group_106" data-name="Group 106" transform="translate(4573.822 3749.3)">
      <path id="Path_127" data-name="Path 127" d="M511.055,482.147a.971.971,0,0,1-.97-.971v-1.668a.971.971,0,0,1,1.942,0v1.668A.972.972,0,0,1,511.055,482.147Z" transform="translate(-510.086 -478.539)" fill="#03a9f4"/>
    </g>
    <g id="Group_107" data-name="Group 107" transform="translate(4572.988 3750.135)">
      <path id="Path_128" data-name="Path 128" d="M511.964,481.24H510.3a.97.97,0,1,1,0-1.941h1.667a.97.97,0,1,1,0,1.941Z" transform="translate(-509.326 -479.299)" fill="#03a9f4"/>
    </g>
    <g id="Group_108" data-name="Group 108" transform="translate(4578.753 3739.106)">
      <path id="Path_129" data-name="Path 129" d="M515.549,472.858a.97.97,0,0,1-.97-.97v-1.669a.971.971,0,0,1,1.942,0v1.669A.971.971,0,0,1,515.549,472.858Z" transform="translate(-514.579 -469.249)" fill="#03a9f4"/>
    </g>
    <g id="Group_109" data-name="Group 109" transform="translate(4577.919 3739.941)">
      <path id="Path_130" data-name="Path 130" d="M516.458,471.952h-1.667a.971.971,0,1,1,0-1.942h1.667a.971.971,0,1,1,0,1.942Z" transform="translate(-513.82 -470.01)" fill="#03a9f4"/>
    </g>
    <g id="Group_110" data-name="Group 110" transform="translate(4563.018 3732.522)">
      <path id="Path_131" data-name="Path 131" d="M501.21,466.86a.971.971,0,0,1-.97-.971v-1.667a.97.97,0,1,1,1.941,0v1.667A.971.971,0,0,1,501.21,466.86Z" transform="translate(-500.241 -463.25)" fill="#03a9f4"/>
    </g>
    <g id="Group_111" data-name="Group 111" transform="translate(4562.185 3733.357)">
      <path id="Path_132" data-name="Path 132" d="M502.119,465.953h-1.668a.971.971,0,0,1,0-1.942h1.668a.971.971,0,0,1,0,1.942Z" transform="translate(-499.481 -464.01)" fill="#03a9f4"/>
    </g>
    <g id="Group_112" data-name="Group 112" transform="translate(4534.185 3742.964)">
      <path id="Path_133" data-name="Path 133" d="M474.937,476.372a.97.97,0,0,1-.971-.97v-1.667a.971.971,0,1,1,1.942,0V475.4A.97.97,0,0,1,474.937,476.372Z" transform="translate(-473.966 -472.764)" fill="#03a9f4"/>
    </g>
    <g id="Group_113" data-name="Group 113" transform="translate(4533.35 3743.797)">
      <path id="Path_134" data-name="Path 134" d="M475.844,475.465h-1.667a.97.97,0,1,1,0-1.941h1.667a.97.97,0,1,1,0,1.941Z" transform="translate(-473.205 -473.524)" fill="#03a9f4"/>
    </g>
    <g id="Group_114" data-name="Group 114" transform="translate(4544.02 3733.357)">
      <path id="Path_135" data-name="Path 135" d="M486.225,465.953a1.478,1.478,0,0,0-1.355,1.574.69.69,0,0,0,.006.118,1.779,1.779,0,0,0,.094.471,3.041,3.041,0,1,0,6.076.034,1.853,1.853,0,0,0,.105-.485c.006-.067.006-.1.006-.115a1.486,1.486,0,0,0-1.355-1.6,1.286,1.286,0,0,0-1.016.535.972.972,0,0,1-1.546,0A1.287,1.287,0,0,0,486.225,465.953Zm1.789,7.416a.97.97,0,0,1-.423-.1c-2.974-1.438-4.068-3.266-4.462-4.547a3.472,3.472,0,0,1-.188-.915,2.6,2.6,0,0,1-.013-.306,3.41,3.41,0,0,1,3.3-3.492,3.134,3.134,0,0,0,3.578,0,3.415,3.415,0,0,1,3.3,3.509,2.426,2.426,0,0,1-.013.309,3.684,3.684,0,0,1-.191.909c-.4,1.283-1.5,3.1-4.459,4.533A.974.974,0,0,1,488.014,473.368Z" transform="translate(-482.928 -464.01)" fill="#03a9f4"/>
    </g>
  </g>
</svg>
