<svg xmlns="http://www.w3.org/2000/svg" width="47.289" height="40.322" viewBox="0 0 47.289 40.322">
  <g id="Group_1915" data-name="Group 1915" transform="translate(-570 -1878)">
    <g id="Group_115" data-name="Group 115" transform="translate(-6321.915 744.218)">
      <g id="Group_38" data-name="Group 38" transform="translate(6919.992 1154.832)">
        <path id="Path_59" data-name="Path 59" d="M486.834,102.132a1.455,1.455,0,0,0-.916.326l-8.208,6.7a1.846,1.846,0,0,0-.67,1.232l-.548,4.932a1.2,1.2,0,0,0,1.083,1.326l4.941.451a1.858,1.858,0,0,0,1.343-.41l8.208-6.7a1.453,1.453,0,0,0,.206-2.04l-4.314-5.284A1.448,1.448,0,0,0,486.834,102.132Zm-4.144,16.524c-.1,0-.21,0-.315-.015l-4.941-.451a2.745,2.745,0,0,1-2.481-3.037l.548-4.932a3.382,3.382,0,0,1,1.23-2.261l8.208-6.7a3,3,0,0,1,4.218.427l4.314,5.284a3,3,0,0,1-.427,4.218l-8.208,6.7A3.374,3.374,0,0,1,482.69,118.657Z" transform="translate(-474.936 -100.586)" fill="#03a9f4"/>
      </g>
      <g id="Group_39" data-name="Group 39" transform="translate(6923.117 1164.391)">
        <path id="Path_60" data-name="Path 60" d="M481.061,112.537a1.194,1.194,0,1,0,.121.007A1.1,1.1,0,0,0,481.061,112.537Zm.008,3.9a2.62,2.62,0,0,1-.28-.015,2.705,2.705,0,1,1,.28.015Z" transform="translate(-478.338 -110.989)" fill="#03a9f4"/>
      </g>
      <g id="Group_40" data-name="Group 40" transform="translate(6898.128 1139.998)">
        <path id="Path_61" data-name="Path 61" d="M468.54,112.331h-6.91a.773.773,0,0,1-.773-.774v-8.942h-8.943a.775.775,0,0,1-.774-.774V94.93a.775.775,0,0,1,.774-.774h8.943V85.213a.773.773,0,0,1,.773-.773h6.91a.773.773,0,0,1,.774.773v8.943h8.943a.775.775,0,0,1,.775.774v3.326a.774.774,0,0,1-1.548,0V95.7H468.54a.773.773,0,0,1-.773-.774V85.987H462.4V94.93a.774.774,0,0,1-.774.774h-8.942v5.362h8.942a.774.774,0,0,1,.774.774v8.943h5.363V101.84a.773.773,0,0,1,.773-.774h6.509a.774.774,0,0,1,0,1.548h-5.735v8.942A.774.774,0,0,1,468.54,112.331Z" transform="translate(-451.14 -84.44)" fill="#03a9f4"/>
      </g>
      <g id="Group_41" data-name="Group 41" transform="translate(6891.915 1133.782)">
        <path id="Path_62" data-name="Path 62" d="M464.536,118a20.161,20.161,0,1,1,19.919-23.3.774.774,0,0,1-1.53.24,18.606,18.606,0,1,0-9.561,19.294.773.773,0,1,1,.735,1.361A20.176,20.176,0,0,1,464.536,118Z" transform="translate(-444.376 -77.675)" fill="#03a9f4"/>
      </g>
    </g>
  </g>
</svg>
