<svg xmlns="http://www.w3.org/2000/svg" width="41.5" height="47.5" viewBox="0 0 41.5 47.5">
  <g id="Group_118" data-name="Group 118" transform="translate(-6767.581 -1500.597)">
    <path id="Path_39" data-name="Path 39" d="M63,43.754c-9.937,0-13.25,16.315-13.25,20.7,0,2.491,1.373,5.8,13.25,5.8s13.25-3.311,13.25-5.8C76.251,60.069,72.937,43.754,63,43.754Zm0,28c-6.333,0-14.75-.756-14.75-7.3,0-4.9,3.532-22.2,14.75-22.2s14.75,17.3,14.75,22.2C77.751,71,69.333,71.754,63,71.754Z" transform="translate(6725.33 1461.343)" fill="#03a9f4"/>
    <path id="Path_40" data-name="Path 40" d="M43.751,85.254h38.5V80a8.5,8.5,0,0,0-6.433-8.272l-3.274-.756a9.744,9.744,0,0,1-19.087,0l-3.288.759A8.5,8.5,0,0,0,43.751,80ZM83,86.754H43a.75.75,0,0,1-.75-.75V80a10,10,0,0,1,7.567-9.727l4.082-.943a.742.742,0,0,1,.6.118.75.75,0,0,1,.313.525,8.244,8.244,0,0,0,16.374,0,.75.75,0,0,1,.913-.643l4.068.94A10,10,0,0,1,83.751,80v6A.75.75,0,0,1,83,86.754Z" transform="translate(6725.33 1461.343)" fill="#03a9f4"/>
    <path id="Path_41" data-name="Path 41" d="M63,78a8.994,8.994,0,0,0,8.931-7.939L63,68l-8.932,2.061A8.995,8.995,0,0,0,63,78Z" transform="translate(6725.33 1461.343)" fill="#fff"/>
    <path id="Path_42" data-name="Path 42" d="M54.918,70.638a8.245,8.245,0,0,0,16.165,0L63,68.774ZM63,78.754a9.742,9.742,0,0,1-9.677-8.6.751.751,0,0,1,.576-.819l8.932-2.06a.738.738,0,0,1,.337,0l8.932,2.06a.751.751,0,0,1,.576.819A9.742,9.742,0,0,1,63,78.754Z" transform="translate(6725.33 1461.343)" fill="#03a9f4"/>
    <path id="Path_43" data-name="Path 43" d="M76,86.754a.75.75,0,0,1-.75-.75V80a.75.75,0,0,1,1.5,0v6A.75.75,0,0,1,76,86.754Z" transform="translate(6725.33 1461.343)" fill="#03a9f4"/>
    <path id="Path_44" data-name="Path 44" d="M50,86.754a.75.75,0,0,1-.75-.75V80a.75.75,0,0,1,1.5,0v6A.75.75,0,0,1,50,86.754Z" transform="translate(6725.33 1461.343)" fill="#03a9f4"/>
    <path id="Path_45" data-name="Path 45" d="M63,73a4.077,4.077,0,0,0,4-4.15V64H59v4.85A4.077,4.077,0,0,0,63,73Z" transform="translate(6725.33 1461.343)" fill="#fff"/>
    <path id="Path_46" data-name="Path 46" d="M59.751,64.754v4.1a3.253,3.253,0,1,0,6.5,0v-4.1Zm3.25,9a4.832,4.832,0,0,1-4.75-4.9V64a.75.75,0,0,1,.75-.75h8a.75.75,0,0,1,.75.75v4.85A4.832,4.832,0,0,1,63,73.754Z" transform="translate(6725.33 1461.343)" fill="#03a9f4"/>
    <path id="Path_47" data-name="Path 47" d="M64.993,49.859c.981,4.039,5.573,5.1,7.927,5.38C72.346,60.7,68.124,67,62.993,67c-5.1,0-9.29-6.246-9.912-11.647C59.68,56.672,62.338,52.588,64.993,49.859Z" transform="translate(6725.33 1461.343)" fill="#fff"/>
    <path id="Path_48" data-name="Path 48" d="M53.98,56.262c.958,4.906,4.776,9.992,9.013,9.992,4.379,0,8.262-5.336,9.085-10.377-2.475-.4-5.956-1.518-7.384-4.6-.043.047-.086.1-.13.142-2.02,2.2-4.535,4.945-9.052,4.945A12.31,12.31,0,0,1,53.98,56.262Zm9.013,11.492c-5.445,0-9.987-6.488-10.658-12.311a.753.753,0,0,1,.237-.638.74.74,0,0,1,.655-.183,11.751,11.751,0,0,0,2.284.239c3.859,0,5.937-2.267,7.948-4.459.337-.367.667-.727,1-1.066a.75.75,0,0,1,1.267.346c.859,3.536,4.934,4.533,7.287,4.812a.752.752,0,0,1,.658.823C73.048,61.2,68.512,67.754,62.993,67.754Z" transform="translate(6725.33 1461.343)" fill="#03a9f4"/>
    <path id="Path_49" data-name="Path 49" d="M53.78,54.718a11.236,11.236,0,0,0,1.74.143c3.857,0,5.937-2.267,7.947-4.459.337-.368.666-.727,1-1.066a.758.758,0,0,1,.735-.2.749.749,0,0,1,.531.546c.772,3.174,4.131,4.3,6.513,4.7.006-.141.009-.278.009-.412,0-5.634-4.15-10.217-9.25-10.217s-9.25,4.583-9.25,10.217C53.751,54.207,53.76,54.452,53.78,54.718Zm1.74,1.643a13.2,13.2,0,0,1-2.578-.269.749.749,0,0,1-.6-.65,12.855,12.855,0,0,1-.092-1.471c0-6.461,4.822-11.717,10.75-11.717s10.75,5.256,10.75,11.717a12.623,12.623,0,0,1-.077,1.347.751.751,0,0,1-.834.666c-2.463-.293-6.558-1.3-8.138-4.71l-.13.142C62.552,53.619,60.037,56.361,55.52,56.361Z" transform="translate(6725.33 1461.343)" fill="#03a9f4"/>
    <path id="Path_50" data-name="Path 50" d="M63,86.754a.75.75,0,0,1-.75-.75V73a.75.75,0,0,1,1.5,0V86A.75.75,0,0,1,63,86.754Z" transform="translate(6725.33 1461.343)" fill="#03a9f4"/>
    <path id="Path_51" data-name="Path 51" d="M73,51H53l.6-7.441A4,4,0,0,1,57.581,40H68.42A4,4,0,0,1,72.4,43.563Z" transform="translate(6725.33 1461.343)" fill="#fff"/>
    <path id="Path_52" data-name="Path 52" d="M53.814,50.254H72.187l-.539-6.631a3.243,3.243,0,0,0-3.228-2.869H57.581a3.248,3.248,0,0,0-3.23,2.892Zm19.207,1.5H53a.749.749,0,0,1-.748-.81l.6-7.442a4.753,4.753,0,0,1,4.724-4.248H68.42a4.748,4.748,0,0,1,4.722,4.226l.592,7.293a.735.735,0,0,1,.037.231A.75.75,0,0,1,73.021,51.754Z" transform="translate(6725.33 1461.343)" fill="#03a9f4"/>
    <path id="Path_53" data-name="Path 53" d="M63,47.754a.75.75,0,0,1-.75-.75V43a.75.75,0,0,1,1.5,0v4A.75.75,0,0,1,63,47.754Z" transform="translate(6725.33 1461.343)" fill="#03a9f4"/>
    <path id="Path_54" data-name="Path 54" d="M65,45.754H61a.75.75,0,0,1,0-1.5h4a.75.75,0,0,1,0,1.5Z" transform="translate(6725.33 1461.343)" fill="#03a9f4"/>
    <path id="Path_55" data-name="Path 55" d="M57,47.754H54a.75.75,0,0,1,0-1.5h3a.75.75,0,1,1,0,1.5Z" transform="translate(6725.33 1461.343)" fill="#03a9f4"/>
    <path id="Path_56" data-name="Path 56" d="M72,47.754H69a.75.75,0,0,1,0-1.5h3a.75.75,0,0,1,0,1.5Z" transform="translate(6725.33 1461.343)" fill="#03a9f4"/>
    <path id="Path_57" data-name="Path 57" d="M67.751,85.254h7.5v-2.5h-7.5Zm8.25,1.5H67a.75.75,0,0,1-.75-.75V82a.75.75,0,0,1,.75-.75h9a.75.75,0,0,1,.75.75v4A.75.75,0,0,1,76,86.754Z" transform="translate(6725.33 1461.343)" fill="#03a9f4"/>
    <path id="Path_58" data-name="Path 58" d="M59,82.754a.75.75,0,0,1-.75-.75V81a.75.75,0,0,1,1.5,0v1A.75.75,0,0,1,59,82.754Zm0,4a.75.75,0,0,1-.75-.75V85a.75.75,0,0,1,1.5,0v1A.75.75,0,0,1,59,86.754Z" transform="translate(6725.33 1461.343)" fill="#03a9f4"/>
  </g>
</svg>
