<svg xmlns="http://www.w3.org/2000/svg" width="50.174" height="50.174" viewBox="0 0 50.174 50.174">
  <g id="Group_159" data-name="Group 159" transform="translate(-4513.123 -3568.374)">
    <g id="Group_10" data-name="Group 10" transform="translate(4522.692 3568.474)">
      <path id="Path_11" data-name="Path 11" d="M49.829,168.98h27.88V122.162H49.829ZM78.5,170.558H49.04a.789.789,0,0,1-.789-.789v-48.4a.789.789,0,0,1,.789-.789H78.5a.789.789,0,0,1,.789.789v48.4A.789.789,0,0,1,78.5,170.558Z" transform="translate(-48.251 -120.584)" fill="#fff" stroke="#fff" stroke-width="0.2"/>
    </g>
    <g id="Group_11" data-name="Group 11" transform="translate(4532.161 3571.63)">
      <path id="Path_12" data-name="Path 12" d="M61.985,134.1h2.63v-2.367a.789.789,0,0,1,.789-.789h2.367v-2.63H65.4a.789.789,0,0,1-.789-.789v-2.367h-2.63v2.367a.789.789,0,0,1-.789.789H58.829v2.63H61.2a.789.789,0,0,1,.789.789Zm3.419,1.578H61.2a.789.789,0,0,1-.789-.789v-2.367H58.04a.789.789,0,0,1-.789-.789v-4.208a.789.789,0,0,1,.789-.789h2.367v-2.367a.789.789,0,0,1,.789-.789H65.4a.789.789,0,0,1,.789.789v2.367h2.367a.789.789,0,0,1,.789.789v4.208a.789.789,0,0,1-.789.789H66.194v2.367A.789.789,0,0,1,65.4,135.683Z" transform="translate(-57.251 -123.584)" fill="#fff" stroke="#fff" stroke-width="0.2"/>
    </g>
    <g id="Group_12" data-name="Group 12" transform="translate(4526.9 3587.412)">
      <path id="Path_13" data-name="Path 13" d="M53.829,142.792h3.682v-2.63H53.829ZM58.3,144.37H53.04a.789.789,0,0,1-.789-.789v-4.208a.789.789,0,0,1,.789-.789H58.3a.789.789,0,0,1,.789.789v4.208A.789.789,0,0,1,58.3,144.37Z" transform="translate(-52.251 -138.584)" fill="#fff" stroke="#fff" stroke-width="0.2"/>
    </g>
    <g id="Group_13" data-name="Group 13" transform="translate(4532.161 3587.412)">
      <path id="Path_14" data-name="Path 14" d="M58.829,142.792h3.682v-2.63H58.829ZM63.3,144.37H58.04a.789.789,0,0,1-.789-.789v-4.208a.789.789,0,0,1,.789-.789H63.3a.789.789,0,0,1,.789.789v4.208A.789.789,0,0,1,63.3,144.37Z" transform="translate(-57.251 -138.584)" fill="#fff" stroke="#fff" stroke-width="0.2"/>
    </g>
    <g id="Group_14" data-name="Group 14" transform="translate(4537.421 3587.412)">
      <path id="Path_15" data-name="Path 15" d="M63.829,142.792h3.682v-2.63H63.829ZM68.3,144.37H63.04a.789.789,0,0,1-.789-.789v-4.208a.789.789,0,0,1,.789-.789H68.3a.789.789,0,0,1,.789.789v4.208A.789.789,0,0,1,68.3,144.37Z" transform="translate(-62.251 -138.584)" fill="#fff" stroke="#fff" stroke-width="0.2"/>
    </g>
    <g id="Group_15" data-name="Group 15" transform="translate(4542.682 3587.412)">
      <path id="Path_16" data-name="Path 16" d="M68.829,142.792h3.682v-2.63H68.829ZM73.3,144.37H68.04a.789.789,0,0,1-.789-.789v-4.208a.789.789,0,0,1,.789-.789H73.3a.789.789,0,0,1,.789.789v4.208A.789.789,0,0,1,73.3,144.37Z" transform="translate(-67.251 -138.584)" fill="#fff" stroke="#fff" stroke-width="0.2"/>
    </g>
    <g id="Group_16" data-name="Group 16" transform="translate(4526.9 3595.828)">
      <path id="Path_17" data-name="Path 17" d="M53.829,150.792h3.682v-2.63H53.829ZM58.3,152.37H53.04a.789.789,0,0,1-.789-.789v-4.208a.789.789,0,0,1,.789-.789H58.3a.789.789,0,0,1,.789.789v4.208A.789.789,0,0,1,58.3,152.37Z" transform="translate(-52.251 -146.584)" fill="#fff" stroke="#fff" stroke-width="0.2"/>
    </g>
    <g id="Group_17" data-name="Group 17" transform="translate(4532.161 3595.828)">
      <path id="Path_18" data-name="Path 18" d="M58.829,150.792h3.682v-2.63H58.829ZM63.3,152.37H58.04a.789.789,0,0,1-.789-.789v-4.208a.789.789,0,0,1,.789-.789H63.3a.789.789,0,0,1,.789.789v4.208A.789.789,0,0,1,63.3,152.37Z" transform="translate(-57.251 -146.584)" fill="#fff" stroke="#fff" stroke-width="0.2"/>
    </g>
    <g id="Group_18" data-name="Group 18" transform="translate(4537.421 3595.828)">
      <path id="Path_19" data-name="Path 19" d="M63.829,150.792h3.682v-2.63H63.829ZM68.3,152.37H63.04a.789.789,0,0,1-.789-.789v-4.208a.789.789,0,0,1,.789-.789H68.3a.789.789,0,0,1,.789.789v4.208A.789.789,0,0,1,68.3,152.37Z" transform="translate(-62.251 -146.584)" fill="#fff" stroke="#fff" stroke-width="0.2"/>
    </g>
    <g id="Group_19" data-name="Group 19" transform="translate(4542.682 3595.828)">
      <path id="Path_20" data-name="Path 20" d="M68.829,150.792h3.682v-2.63H68.829ZM73.3,152.37H68.04a.789.789,0,0,1-.789-.789v-4.208a.789.789,0,0,1,.789-.789H73.3a.789.789,0,0,1,.789.789v4.208A.789.789,0,0,1,73.3,152.37Z" transform="translate(-67.251 -146.584)" fill="#fff" stroke="#fff" stroke-width="0.2"/>
    </g>
    <g id="Group_20" data-name="Group 20" transform="translate(4526.9 3604.245)">
      <path id="Path_21" data-name="Path 21" d="M53.829,158.792h3.682v-2.63H53.829ZM58.3,160.37H53.04a.789.789,0,0,1-.789-.789v-4.208a.789.789,0,0,1,.789-.789H58.3a.789.789,0,0,1,.789.789v4.208A.789.789,0,0,1,58.3,160.37Z" transform="translate(-52.251 -154.584)" fill="#fff" stroke="#fff" stroke-width="0.2"/>
    </g>
    <g id="Group_21" data-name="Group 21" transform="translate(4532.161 3604.245)">
      <path id="Path_22" data-name="Path 22" d="M58.829,158.792h3.682v-2.63H58.829ZM63.3,160.37H58.04a.789.789,0,0,1-.789-.789v-4.208a.789.789,0,0,1,.789-.789H63.3a.789.789,0,0,1,.789.789v4.208A.789.789,0,0,1,63.3,160.37Z" transform="translate(-57.251 -154.584)" fill="#fff" stroke="#fff" stroke-width="0.2"/>
    </g>
    <g id="Group_22" data-name="Group 22" transform="translate(4537.421 3604.245)">
      <path id="Path_23" data-name="Path 23" d="M63.829,158.792h3.682v-2.63H63.829ZM68.3,160.37H63.04a.789.789,0,0,1-.789-.789v-4.208a.789.789,0,0,1,.789-.789H68.3a.789.789,0,0,1,.789.789v4.208A.789.789,0,0,1,68.3,160.37Z" transform="translate(-62.251 -154.584)" fill="#fff" stroke="#fff" stroke-width="0.2"/>
    </g>
    <g id="Group_23" data-name="Group 23" transform="translate(4542.682 3604.245)">
      <path id="Path_24" data-name="Path 24" d="M68.829,158.792h3.682v-2.63H68.829ZM73.3,160.37H68.04a.789.789,0,0,1-.789-.789v-4.208a.789.789,0,0,1,.789-.789H73.3a.789.789,0,0,1,.789.789v4.208A.789.789,0,0,1,73.3,160.37Z" transform="translate(-67.251 -154.584)" fill="#fff" stroke="#fff" stroke-width="0.2"/>
    </g>
    <g id="Group_24" data-name="Group 24" transform="translate(4526.9 3612.662)">
      <path id="Path_25" data-name="Path 25" d="M53.829,166.792h8.943v-2.63H53.829Zm9.732,1.578H53.04a.789.789,0,0,1-.789-.789v-4.208a.789.789,0,0,1,.789-.789H63.561a.789.789,0,0,1,.789.789v4.208A.789.789,0,0,1,63.561,168.37Z" transform="translate(-52.251 -162.584)" fill="#fff" stroke="#fff" stroke-width="0.2"/>
    </g>
    <g id="Group_25" data-name="Group 25" transform="translate(4537.421 3612.662)">
      <path id="Path_26" data-name="Path 26" d="M63.829,166.792h8.943v-2.63H63.829Zm9.732,1.578H63.04a.789.789,0,0,1-.789-.789v-4.208a.789.789,0,0,1,.789-.789H73.561a.789.789,0,0,1,.789.789v4.208A.789.789,0,0,1,73.561,168.37Z" transform="translate(-62.251 -162.584)" fill="#fff" stroke="#fff" stroke-width="0.2"/>
    </g>
    <g id="Group_26" data-name="Group 26" transform="translate(4529.004 3583.203)">
      <path id="Path_27" data-name="Path 27" d="M56.092,136.162H55.04a.789.789,0,1,1,0-1.578h1.052a.789.789,0,1,1,0,1.578Z" transform="translate(-54.251 -134.584)" fill="#fff" stroke="#fff" stroke-width="0.2"/>
    </g>
    <g id="Group_27" data-name="Group 27" transform="translate(4522.692 3583.203)">
      <path id="Path_28" data-name="Path 28" d="M52.2,136.162H49.04a.789.789,0,0,1,0-1.578H52.2a.789.789,0,1,1,0,1.578Z" transform="translate(-48.251 -134.584)" fill="#fff" stroke="#fff" stroke-width="0.2"/>
    </g>
    <g id="Group_28" data-name="Group 28" transform="translate(4548.994 3583.203)">
      <path id="Path_29" data-name="Path 29" d="M77.2,136.162H74.04a.789.789,0,0,1,0-1.578H77.2a.789.789,0,1,1,0,1.578Z" transform="translate(-73.251 -134.584)" fill="#fff" stroke="#fff" stroke-width="0.2"/>
    </g>
    <g id="Group_29" data-name="Group 29" transform="translate(4544.786 3583.203)">
      <path id="Path_30" data-name="Path 30" d="M71.092,136.162H70.04a.789.789,0,0,1,0-1.578h1.052a.789.789,0,0,1,0,1.578Z" transform="translate(-69.251 -134.584)" fill="#fff" stroke="#fff" stroke-width="0.2"/>
    </g>
    <g id="Group_30" data-name="Group 30" transform="translate(4513.223 3591.62)">
      <path id="Path_31" data-name="Path 31" d="M40.829,167.834H48.72V144.162H40.829Zm8.68,1.578H40.04a.789.789,0,0,1-.789-.789v-25.25a.789.789,0,0,1,.789-.789h9.469a.789.789,0,0,1,.789.789v25.25A.789.789,0,0,1,49.509,169.412Z" transform="translate(-39.251 -142.584)" fill="#fff" stroke="#fff" stroke-width="0.2"/>
    </g>
    <g id="Group_31" data-name="Group 31" transform="translate(4552.15 3591.62)">
      <path id="Path_32" data-name="Path 32" d="M77.829,167.834H85.72V144.162H77.829Zm8.68,1.578H77.04a.789.789,0,0,1-.789-.789v-25.25a.789.789,0,0,1,.789-.789h9.469a.789.789,0,0,1,.789.789v25.25A.789.789,0,0,1,86.509,169.412Z" transform="translate(-76.251 -142.584)" fill="#fff" stroke="#fff" stroke-width="0.2"/>
    </g>
    <g id="Group_32" data-name="Group 32" transform="translate(4517.432 3612.662)">
      <path id="Path_33" data-name="Path 33" d="M44.829,166.792h3.682v-2.63H44.829ZM49.3,168.37H44.04a.789.789,0,0,1-.789-.789v-4.208a.789.789,0,0,1,.789-.789H49.3a.789.789,0,0,1,.789.789v4.208A.789.789,0,0,1,49.3,168.37Z" transform="translate(-43.251 -162.584)" fill="#fff" stroke="#fff" stroke-width="0.2"/>
    </g>
    <g id="Group_33" data-name="Group 33" transform="translate(4517.432 3604.245)">
      <path id="Path_34" data-name="Path 34" d="M44.829,158.792h3.682v-2.63H44.829ZM49.3,160.37H44.04a.789.789,0,0,1-.789-.789v-4.208a.789.789,0,0,1,.789-.789H49.3a.789.789,0,0,1,.789.789v4.208A.789.789,0,0,1,49.3,160.37Z" transform="translate(-43.251 -154.584)" fill="#fff" stroke="#fff" stroke-width="0.2"/>
    </g>
    <g id="Group_34" data-name="Group 34" transform="translate(4517.432 3595.828)">
      <path id="Path_35" data-name="Path 35" d="M44.829,150.792h3.682v-2.63H44.829ZM49.3,152.37H44.04a.789.789,0,0,1-.789-.789v-4.208a.789.789,0,0,1,.789-.789H49.3a.789.789,0,0,1,.789.789v4.208A.789.789,0,0,1,49.3,152.37Z" transform="translate(-43.251 -146.584)" fill="#fff" stroke="#fff" stroke-width="0.2"/>
    </g>
    <g id="Group_35" data-name="Group 35" transform="translate(4552.15 3612.662)">
      <path id="Path_36" data-name="Path 36" d="M77.829,166.792h3.682v-2.63H77.829ZM82.3,168.37H77.04a.789.789,0,0,1-.789-.789v-4.208a.789.789,0,0,1,.789-.789H82.3a.789.789,0,0,1,.789.789v4.208A.789.789,0,0,1,82.3,168.37Z" transform="translate(-76.251 -162.584)" fill="#fff" stroke="#fff" stroke-width="0.2"/>
    </g>
    <g id="Group_36" data-name="Group 36" transform="translate(4552.15 3604.245)">
      <path id="Path_37" data-name="Path 37" d="M77.829,158.792h3.682v-2.63H77.829ZM82.3,160.37H77.04a.789.789,0,0,1-.789-.789v-4.208a.789.789,0,0,1,.789-.789H82.3a.789.789,0,0,1,.789.789v4.208A.789.789,0,0,1,82.3,160.37Z" transform="translate(-76.251 -154.584)" fill="#fff" stroke="#fff" stroke-width="0.2"/>
    </g>
    <g id="Group_37" data-name="Group 37" transform="translate(4552.15 3595.828)">
      <path id="Path_38" data-name="Path 38" d="M77.829,150.792h3.682v-2.63H77.829ZM82.3,152.37H77.04a.789.789,0,0,1-.789-.789v-4.208a.789.789,0,0,1,.789-.789H82.3a.789.789,0,0,1,.789.789v4.208A.789.789,0,0,1,82.3,152.37Z" transform="translate(-76.251 -146.584)" fill="#fff" stroke="#fff" stroke-width="0.2"/>
    </g>
  </g>
</svg>
