<svg xmlns="http://www.w3.org/2000/svg" width="46.9" height="52.416" viewBox="0 0 46.9 52.416">
  <g id="Group_155" data-name="Group 155" transform="translate(-4570.101 -3566)">
    <g id="Group_4" data-name="Group 4" transform="translate(4575.618 3581.449)">
      <path id="Path_5" data-name="Path 5" d="M220.458,332.558h37.965l-2.1-33.657H222.563Zm38.845,1.655H219.578a.829.829,0,0,1-.827-.879l2.207-35.312a.828.828,0,0,1,.827-.776H257.1a.828.828,0,0,1,.827.776l2.207,35.312a.827.827,0,0,1-.827.879Z" transform="translate(-218.75 -297.246)" fill="#fff"/>
    </g>
    <g id="Group_5" data-name="Group 5" transform="translate(4584.446 3566)">
      <path id="Path_6" data-name="Path 6" d="M228.532,298.695h20.161l-.823-5.765a9.351,9.351,0,0,0-18.515,0Zm21.115,1.655h-22.07a.83.83,0,0,1-.82-.945l.959-6.709a11.006,11.006,0,0,1,21.791,0l.959,6.708a.828.828,0,0,1-.819.945Z" transform="translate(-226.75 -283.246)" fill="#fff"/>
    </g>
    <g id="Group_6" data-name="Group 6" transform="translate(4580.033 3566)">
      <path id="Path_7" data-name="Path 7" d="M224.532,298.695h20.161l-.823-5.765a9.351,9.351,0,0,0-18.515,0Zm21.115,1.655h-22.07a.83.83,0,0,1-.82-.945l.959-6.709a11.006,11.006,0,0,1,21.791,0l.959,6.708a.828.828,0,0,1-.819.945Z" transform="translate(-222.75 -283.246)" fill="#fff"/>
    </g>
    <g id="Group_7" data-name="Group 7" transform="translate(4576.722 3612.347)">
      <path id="Path_8" data-name="Path 8" d="M229.406,326.9h-8.828a.828.828,0,1,1,0-1.655h8.828a.828.828,0,1,1,0,1.655Zm4.414,0h-1.1a.828.828,0,1,1,0-1.655h1.1a.828.828,0,1,1,0,1.655Zm12.139,0H237.13a.828.828,0,1,1,0-1.655h8.828a.828.828,0,1,1,0,1.655Zm4.414,0h-1.1a.828.828,0,0,1,0-1.655h1.1a.828.828,0,1,1,0,1.655Zm7.725,0h-4.414a.828.828,0,1,1,0-1.655H258.1a.828.828,0,0,1,0,1.655Z" transform="translate(-219.75 -325.246)" fill="#fff"/>
    </g>
    <g id="Group_8" data-name="Group 8" transform="translate(4588.86 3590.277)">
      <path id="Path_9" data-name="Path 9" d="M236.819,318.488h2.759V314.9a.828.828,0,0,1,.828-.828h3.586v-2.759h-3.586a.828.828,0,0,1-.828-.828V306.9h-2.759v3.586a.828.828,0,0,1-.828.828h-3.586v2.759h3.586a.828.828,0,0,1,.828.828Zm3.586,1.655h-4.414a.828.828,0,0,1-.828-.828v-3.586h-3.586a.828.828,0,0,1-.828-.828v-4.414a.828.828,0,0,1,.828-.828h3.586v-3.586a.828.828,0,0,1,.828-.828h4.414a.828.828,0,0,1,.828.828v3.586h3.586a.828.828,0,0,1,.828.828V314.9a.828.828,0,0,1-.828.828h-3.586v3.586A.828.828,0,0,1,240.406,320.143Z" transform="translate(-230.75 -305.246)" fill="#fff"/>
    </g>
    <g id="Group_9" data-name="Group 9" transform="translate(4570.101 3581.449)">
      <path id="Path_10" data-name="Path 10" d="M215.487,332.558h3.83l2.1-33.657h-2.78Zm4.608,1.655h-5.517a.826.826,0,0,1-.824-.9L217.064,298a.829.829,0,0,1,.824-.75H222.3a.829.829,0,0,1,.827.88l-2.207,35.312A.828.828,0,0,1,220.1,334.213Z" transform="translate(-213.75 -297.246)" fill="#fff"/>
    </g>
  </g>
</svg>
