<svg xmlns="http://www.w3.org/2000/svg" width="46.3" height="47.372" viewBox="0 0 46.3 47.372">
  <g id="Group_1916" data-name="Group 1916" transform="translate(-1451 -1875)">
    <g id="Group_117" data-name="Group 117" transform="translate(-5362.805 742.902)">
      <g id="Group_58" data-name="Group 58" transform="translate(6744.209 727.993)">
        <path id="Path_79" data-name="Path 79" d="M92.746,451.478a23.149,23.149,0,1,1,0-46.3.778.778,0,0,1,0,1.556,21.594,21.594,0,1,0,21.594,21.594.778.778,0,1,1,1.555,0A23.175,23.175,0,0,1,92.746,451.478Z" fill="#03a9f4"/>
      </g>
      <g id="Group_59" data-name="Group 59" transform="translate(6744.209 727.993)">
        <path id="Path_80" data-name="Path 80" d="M92.505,407.808a.777.777,0,0,1-.586-1.288l.936-1.074a.778.778,0,1,1,1.172,1.023l-.937,1.073A.773.773,0,0,1,92.505,407.808Z" fill="#03a9f4"/>
      </g>
      <g id="Group_60" data-name="Group 60" transform="translate(6744.209 727.993)">
        <path id="Path_81" data-name="Path 81" d="M93.442,406.735a.777.777,0,0,1-.587-.267L91.92,405.4a.778.778,0,1,1,1.171-1.024l.937,1.074a.778.778,0,0,1-.586,1.289Z" fill="#03a9f4"/>
      </g>
      <g id="Group_61" data-name="Group 61" transform="translate(6744.209 727.993)">
        <path id="Path_82" data-name="Path 82" d="M89.751,438.842h5.99v-6.633a.777.777,0,0,1,.777-.777h6.633v-5.991H96.518a.776.776,0,0,1-.777-.777v-6.632h-5.99v6.632a.777.777,0,0,1-.778.777H82.342v5.991h6.631a.777.777,0,0,1,.778.777Zm6.767,1.555H88.973a.777.777,0,0,1-.777-.778v-6.632H81.564a.778.778,0,0,1-.778-.778v-7.545a.778.778,0,0,1,.778-.778H88.2v-6.632a.778.778,0,0,1,.777-.778h7.545a.778.778,0,0,1,.778.778v6.632h6.632a.778.778,0,0,1,.778.778v7.545a.778.778,0,0,1-.778.778H97.3v6.632A.778.778,0,0,1,96.518,440.4Z" fill="#03a9f4"/>
      </g>
      <g id="Group_62" data-name="Group 62" transform="translate(6744.209 727.993)">
        <path id="Path_83" data-name="Path 83" d="M74.655,430.458a.777.777,0,0,1-.775-.724c-.029-.429-.044-.866-.044-1.3a.778.778,0,0,1,1.556,0c0,.4.014.8.039,1.191a.777.777,0,0,1-.723.829Z" fill="#03a9f4"/>
      </g>
      <g id="Group_63" data-name="Group 63" transform="translate(6744.209 727.993)">
        <path id="Path_84" data-name="Path 84" d="M77.32,438.746a.778.778,0,0,1-.662-.368,18.954,18.954,0,0,1-1.391-2.717.777.777,0,1,1,1.437-.593,17.261,17.261,0,0,0,1.277,2.491.777.777,0,0,1-.252,1.071A.766.766,0,0,1,77.32,438.746Z" fill="#03a9f4"/>
      </g>
      <g id="Group_64" data-name="Group 64" transform="translate(6744.209 727.993)">
        <path id="Path_85" data-name="Path 85" d="M82.131,443.916a.769.769,0,0,1-.455-.148c-.349-.253-.694-.52-1.024-.8a.778.778,0,0,1,.994-1.2c.3.253.62.5.941.732a.778.778,0,0,1-.457,1.408Z" fill="#03a9f4"/>
      </g>
      <g id="Group_65" data-name="Group 65" transform="translate(6744.209 727.993)">
        <path id="Path_86" data-name="Path 86" d="M92.746,447.345a18.776,18.776,0,0,1-11.071-3.577.778.778,0,1,1,.912-1.26,17.355,17.355,0,1,0-7.195-14.072.778.778,0,0,1-1.556,0,18.909,18.909,0,1,1,18.91,18.908Z" fill="#03a9f4"/>
      </g>
      <g id="Group_66" data-name="Group 66" transform="translate(6744.209 727.993)">
        <path id="Path_87" data-name="Path 87" d="M89.751,438.842h5.99v-6.633a.777.777,0,0,1,.777-.777h6.633v-5.991H96.518a.776.776,0,0,1-.777-.777v-6.632h-5.99v6.632a.777.777,0,0,1-.778.777H82.342v5.991h6.631a.777.777,0,0,1,.778.777Zm6.767,1.555H88.973a.777.777,0,0,1-.777-.778v-6.632H81.564a.778.778,0,0,1-.778-.778v-7.545a.778.778,0,0,1,.778-.778H88.2v-6.632a.778.778,0,0,1,.777-.778h7.545a.778.778,0,0,1,.778.778v6.632h6.632a.778.778,0,0,1,.778.778v7.545a.778.778,0,0,1-.778.778H97.3v6.632A.778.778,0,0,1,96.518,440.4Z" fill="#03a9f4"/>
      </g>
    </g>
  </g>
</svg>
