<svg xmlns="http://www.w3.org/2000/svg" width="20.25" height="27" viewBox="0 0 20.25 27">
  <g id="lock" transform="translate(-64)">
    <g id="Group_775" data-name="Group 775" transform="translate(64)">
      <path id="Path_12436" data-name="Path 12436" d="M83.687,10.125H82V7.875a7.875,7.875,0,0,0-15.75,0v2.25H64.563a.562.562,0,0,0-.563.563V24.75A2.252,2.252,0,0,0,66.25,27H82a2.252,2.252,0,0,0,2.25-2.25V10.688A.562.562,0,0,0,83.687,10.125Zm-7.878,11.75a.563.563,0,0,1-.559.625H73a.563.563,0,0,1-.559-.625l.355-3.191a2.225,2.225,0,0,1-.921-1.809,2.25,2.25,0,0,1,4.5,0,2.225,2.225,0,0,1-.921,1.809Zm2.816-11.75h-9V7.875a4.5,4.5,0,0,1,9,0Z" transform="translate(-64)" fill="#03a9f4"/>
    </g>
  </g>
</svg>
