<svg xmlns="http://www.w3.org/2000/svg" xmlns:xlink="http://www.w3.org/1999/xlink" width="185.676" height="310" viewBox="0 0 185.676 310">
  <defs>
    <clipPath id="clip-path">
      <path id="Path_3724" data-name="Path 3724" d="M983.715,577.925l-17.413-.809-1.3-19.822,16.233-3.945Z" transform="translate(-965.006 -553.349)" clip-rule="evenodd"/>
    </clipPath>
  </defs>
  <g id="Group_1751" data-name="Group 1751" transform="translate(0 0)">
    <path id="Path_12017" data-name="Path 12017" d="M1501.729,418.962a5.794,5.794,0,0,1-.119,1.076,4.054,4.054,0,0,1-1.778,2.834,1.578,1.578,0,0,1-.878.186c-1.325,9.4-5.6,16.221-13.529,16.159a11.229,11.229,0,0,1-6.3-1.852c-5.237-3.5-7.47-11.611-7.417-21.027a36.7,36.7,0,0,1,.316-4.637c1.361-10.336,6.979-18.076,13.656-18.023,5.614.042,13.848,2.891,16.046,11.056.63,2.335-2.394,7.861-2.335,10.858a1.421,1.421,0,0,1,.743.041,1.194,1.194,0,0,1,.245.108A3.5,3.5,0,0,1,1501.729,418.962Z" transform="translate(-1355.959 -384.205)" fill="#fcae88"/>
    <path id="Path_3493" data-name="Path 3493" d="M1184.424,1791.811c0,5.948-39.4,10.771-88.01,10.771s-88.013-4.823-88.013-10.771,39.406-10.771,88.013-10.771S1184.424,1785.863,1184.424,1791.811Z" transform="translate(-1008.4 -1492.582)" fill="#bce7e4"/>
    <path id="Path_3497" data-name="Path 3497" d="M1151.752,705.475,1165.8,755.6,1144.69,778.73Z" transform="translate(-980.92 -633.758)" fill="#e6e7e8"/>
    <path id="Path_3498" data-name="Path 3498" d="M645.047,773.993s-7.535,13.55,0,21.787C648.887,793.578,652.03,785.242,645.047,773.993Z" transform="translate(-584.825 -687.714)" fill="#b5b6b6"/>
    <path id="Path_3499" data-name="Path 3499" d="M562,764.508s-5.831-5.418-6.129-6.656c-.487-2.027-1.659-4.3-6.7-4.96-2.042-.4-3.135-2.124-4.212-2.82-.639-.413-2.555.58-1.277,2.322,1.277,1.277,3.368,2.9,3.368,2.9s-4.929.753-12.062-3.681c-1.544-.96-1.056,2.74-3.151,2.636-2.6-.128.866,4.257,8.878,5.418-.873,1.342-7.369-2.283-7.136-.658.8.679,4.286,6.866,16.944,5.24.231.7,9.855,10.822,9.855,10.822Z" transform="translate(-497.642 -668.804)" fill="#fcae88"/>
    <path id="Path_3500" data-name="Path 3500" d="M659.115,728.312a7.234,7.234,0,0,1-1.662,2.693s6.418,6.938,13.91,14.614c9.275,9.506,19.879,14.406,22.288,14.406,2.438,0,4.911-2.813,7.065-6.372a84.117,84.117,0,0,0,6.461-14.452s.02-2.223.008-5.7c-.047-12.646-6.557-41.761-6.557-41.761L686.635,735.1l-29.179-25.877,0,0a56.1,56.1,0,0,1,1.813,7.186C659.971,720.285,660.353,724.952,659.115,728.312Z" transform="translate(-597.231 -622.939)" fill="#f1f2f2"/>
    <path id="Path_3501" data-name="Path 3501" d="M855.693,834.806a84.114,84.114,0,0,1-6.463,14.451,23.752,23.752,0,0,1-3.181,4.282l8.007-40.4A118.977,118.977,0,0,1,855.7,829.1C855.714,832.583,855.693,834.806,855.693,834.806Z" transform="translate(-745.748 -718.544)" fill="#b5b6b6"/>
    <path id="Path_3502" data-name="Path 3502" d="M917.43,1703.022l-.576-13.852h7.457l.577,13.852Z" transform="translate(-801.504 -1408.397)" fill="#0e131a"/>
    <path id="Path_3503" data-name="Path 3503" d="M816.573,1736.626H850.43a12.416,12.416,0,0,0,.4-4.641,1.641,1.641,0,0,0-1.095-1.409c0-2.21-1.047-6.748-4.3-7.328l0,0c.021.157.594,4.7-6.4,0-1.739-1.169-11.6,8.83-18.846,8.722-1.695-.025-2.659,1.683-3.156,3.039A10.038,10.038,0,0,0,816.573,1736.626Z" transform="translate(-722.535 -1435.158)" fill="#866c57"/>
    <path id="Path_3504" data-name="Path 3504" d="M952.35,1723.6c.1.136,3.836,5.394,2.228,9.359a9.408,9.408,0,0,0,3.168-.625,1.642,1.642,0,0,0-1.095-1.409c0-2.21-1.046-6.747-4.3-7.328Z" transform="translate(-829.456 -1435.511)" fill="#9e8979"/>
    <rect id="Rectangle_772" data-name="Rectangle 772" width="33.858" height="0.754" transform="translate(94.038 301.468)" fill="#474849"/>
    <path id="Path_3505" data-name="Path 3505" d="M816.573,1764.13H850.43s1.512-5.468-.7-6.051c0,0-20.683,8.269-32.706,4.433A10.035,10.035,0,0,0,816.573,1764.13Z" transform="translate(-722.535 -1462.663)" fill="#655141"/>
    <path id="Path_3506" data-name="Path 3506" d="M900.7,1740.565a.756.756,0,1,0,.756-.754A.756.756,0,0,0,900.7,1740.565Z" transform="translate(-788.786 -1448.276)" fill="#43362c"/>
    <path id="Path_3507" data-name="Path 3507" d="M889.113,1746.857a.757.757,0,1,0,.757-.757A.757.757,0,0,0,889.113,1746.857Z" transform="translate(-779.659 -1453.229)" fill="#43362c"/>
    <path id="Path_3508" data-name="Path 3508" d="M877.521,1753.156a.756.756,0,1,0,.756-.756A.759.759,0,0,0,877.521,1753.156Z" transform="translate(-770.531 -1458.19)" fill="#43362c"/>
    <path id="Path_3509" data-name="Path 3509" d="M829.814,1767.109c0,.287.572.521,1.279.521s1.28-.234,1.28-.521-.573-.519-1.28-.519S829.814,1766.824,829.814,1767.109Z" transform="translate(-732.963 -1469.364)" fill="#b6a79a"/>
    <path id="Path_3510" data-name="Path 3510" d="M1101.907,1701.424l-.8-14.283h7.457l.8,14.283Z" transform="translate(-946.603 -1406.799)" fill="#0e131a"/>
    <path id="Path_3511" data-name="Path 3511" d="M1081.743,1732.9s-12.284.907-20.453,0l.009-.009c.017-.019.051-.055.1-.11a24.468,24.468,0,0,0,4.382-4.62c2.478-3.428,4.074-12.237,8.737-8.741a25.65,25.65,0,0,0,4.737,3.256l1.834,7.547Z" transform="translate(-915.245 -1431.581)" fill="#866c57"/>
    <path id="Path_3512" data-name="Path 3512" d="M1081.743,1771.355s-12.284.907-20.453,0l.009-.008.1-.111c.884-.893,7.177-6.722,17.692-1.9a9.641,9.641,0,0,0,2-.661Z" transform="translate(-915.245 -1470.04)" fill="#655141"/>
    <rect id="Rectangle_773" data-name="Rectangle 773" width="20.453" height="0.907" transform="translate(146.045 301.315)" fill="#474849"/>
    <path id="Path_3513" data-name="Path 3513" d="M1130.31,1747.485c0,.459.215.833.482.833s.48-.374.48-.833-.215-.835-.48-.835S1130.31,1747.024,1130.31,1747.485Z" transform="translate(-969.597 -1453.662)" fill="#43362c"/>
    <path id="Path_3514" data-name="Path 3514" d="M1136.2,1738.885c0,.461.215.835.482.835s.482-.374.482-.835-.217-.835-.482-.835S1136.2,1738.424,1136.2,1738.885Z" transform="translate(-974.235 -1446.89)" fill="#43362c"/>
    <path id="Path_3515" data-name="Path 3515" d="M936.456,1043l6.809,144.546-18.517.149c-8.016-61.144-14.054-120.4-14.054-120.4s-3.98,81.251-6.7,120.4H885.927L884.089,1043Z" transform="translate(-775.703 -899.552)" fill="#414042"/>
    <path id="Path_3516" data-name="Path 3516" d="M884.19,1049.262l.937,73.8a92.826,92.826,0,0,0,22.971.882c1.508-28.116,2.676-52.01,2.676-52.01s2.149,21.084,5.583,51.073a149.421,149.421,0,0,0,23.466-5.53L936.882,1055l-28.646-6.112S896.9,1048.843,884.19,1049.262Z" transform="translate(-775.782 -904.186)" fill="#313032"/>
    <path id="Path_3517" data-name="Path 3517" d="M933.548,642.563l11.661,16.606,1.063,30.459L939.5,732.788H903.653l-5.232-48.554,1.881-22.312,9.679-19.359Z" transform="translate(-786.989 -584.216)" fill="#abe2fc"/>
    <g id="Group_187" data-name="Group 187" transform="translate(125.583 39.388)">
      <g id="Group_186" data-name="Group 186" transform="translate(0 0)" clip-path="url(#clip-path)">
        <path id="Path_3518" data-name="Path 3518" d="M961.568,532.967,963.784,542l-23.335,5.728-2.218-9.036Z" transform="translate(-943.921 -537.299)" fill="#f47b54"/>
        <path id="Path_3519" data-name="Path 3519" d="M972,575.486l.025.1-23.337,5.729-.024-.1Z" transform="translate(-952.141 -570.782)" fill="#f47b54"/>
        <path id="Path_3520" data-name="Path 3520" d="M972.118,575.944l.023.1L948.8,581.77l-.024-.1Z" transform="translate(-952.229 -571.142)" fill="#f47b54"/>
        <path id="Path_3521" data-name="Path 3521" d="M972.229,576.4l.023.1-23.336,5.729-.024-.1Z" transform="translate(-952.317 -571.504)" fill="#f47b54"/>
        <path id="Path_3522" data-name="Path 3522" d="M972.342,576.861l.023.1-23.335,5.729-.024-.1Z" transform="translate(-952.406 -571.864)" fill="#f47c55"/>
        <path id="Path_3523" data-name="Path 3523" d="M972.453,577.319l.025.1-23.337,5.729-.024-.1Z" transform="translate(-952.494 -572.225)" fill="#f47c55"/>
        <path id="Path_3524" data-name="Path 3524" d="M972.568,577.777l.023.1L949.255,583.6l-.024-.1Z" transform="translate(-952.584 -572.586)" fill="#f47c55"/>
        <path id="Path_3525" data-name="Path 3525" d="M972.68,578.236l.023.1-23.336,5.729-.024-.1Z" transform="translate(-952.672 -572.947)" fill="#f47d56"/>
        <path id="Path_3526" data-name="Path 3526" d="M972.792,578.694l.023.1L949.48,584.52l-.024-.1Z" transform="translate(-952.761 -573.308)" fill="#f47d56"/>
        <path id="Path_3527" data-name="Path 3527" d="M972.9,579.152l.026.1-23.337,5.728-.024-.1Z" transform="translate(-952.85 -573.668)" fill="#f47e57"/>
        <path id="Path_3528" data-name="Path 3528" d="M973.018,579.61l.023.1L949.7,585.436l-.024-.1Z" transform="translate(-952.938 -574.029)" fill="#f47e57"/>
        <path id="Path_3529" data-name="Path 3529" d="M973.129,580.068l.023.1-23.336,5.729-.024-.1Z" transform="translate(-953.026 -574.39)" fill="#f47e57"/>
        <path id="Path_3530" data-name="Path 3530" d="M973.242,580.527l.023.1-23.335,5.728-.024-.1Z" transform="translate(-953.115 -574.751)" fill="#f47f58"/>
        <path id="Path_3531" data-name="Path 3531" d="M973.353,580.985l.025.1-23.337,5.729-.024-.1Z" transform="translate(-953.203 -575.112)" fill="#f47f58"/>
        <path id="Path_3532" data-name="Path 3532" d="M973.468,581.443l.023.1-23.336,5.729-.024-.1Z" transform="translate(-953.292 -575.472)" fill="#f48059"/>
        <path id="Path_3533" data-name="Path 3533" d="M973.579,581.9l.023.1-23.336,5.729-.024-.1Z" transform="translate(-953.38 -575.833)" fill="#f48059"/>
        <path id="Path_3534" data-name="Path 3534" d="M973.692,582.36l.023.1-23.335,5.728-.024-.1Z" transform="translate(-953.469 -576.195)" fill="#f48059"/>
        <path id="Path_3535" data-name="Path 3535" d="M973.8,582.818l.025.1-23.337,5.728-.024-.1Z" transform="translate(-953.558 -576.555)" fill="#f4815a"/>
        <path id="Path_3536" data-name="Path 3536" d="M973.918,583.276l.023.1L950.6,589.1l-.024-.1Z" transform="translate(-953.647 -576.916)" fill="#f5815a"/>
        <path id="Path_3537" data-name="Path 3537" d="M974.029,583.734l.023.1-23.336,5.729-.024-.1Z" transform="translate(-953.735 -577.277)" fill="#f5815a"/>
        <path id="Path_3538" data-name="Path 3538" d="M974.142,584.192l.023.1-23.335,5.729-.024-.1Z" transform="translate(-953.824 -577.637)" fill="#f5825b"/>
        <path id="Path_3539" data-name="Path 3539" d="M974.253,584.651l.026.1-23.337,5.728-.024-.1Z" transform="translate(-953.912 -577.999)" fill="#f5825b"/>
        <path id="Path_3540" data-name="Path 3540" d="M974.368,585.109l.023.1-23.336,5.728-.024-.1Z" transform="translate(-954.001 -578.359)" fill="#f5825c"/>
        <path id="Path_3541" data-name="Path 3541" d="M974.479,585.567l.023.1-23.336,5.729-.024-.1Z" transform="translate(-954.089 -578.72)" fill="#f5835c"/>
        <path id="Path_3542" data-name="Path 3542" d="M974.592,586.025l.023.1-23.335,5.729-.024-.1Z" transform="translate(-954.178 -579.081)" fill="#f5835c"/>
        <path id="Path_3543" data-name="Path 3543" d="M974.7,586.484l.026.1-23.337,5.728-.024-.1Z" transform="translate(-954.266 -579.442)" fill="#f5845d"/>
        <path id="Path_3544" data-name="Path 3544" d="M974.818,586.942l.023.1L951.5,592.768l-.024-.1Z" transform="translate(-954.355 -579.803)" fill="#f5845d"/>
        <path id="Path_3545" data-name="Path 3545" d="M974.929,587.4l.023.1-23.336,5.729-.024-.1Z" transform="translate(-954.444 -580.163)" fill="#f5845d"/>
        <path id="Path_3546" data-name="Path 3546" d="M975.041,587.858l.023.1-23.335,5.729-.024-.1Z" transform="translate(-954.532 -580.524)" fill="#f5855e"/>
        <path id="Path_3547" data-name="Path 3547" d="M975.153,588.316l.026.1-23.337,5.729-.024-.1Z" transform="translate(-954.621 -580.885)" fill="#f5855e"/>
        <path id="Path_3548" data-name="Path 3548" d="M975.267,588.775l.023.1L951.954,594.6l-.024-.1Z" transform="translate(-954.709 -581.246)" fill="#f5855f"/>
        <path id="Path_3549" data-name="Path 3549" d="M975.379,589.233l.023.1-23.336,5.729-.024-.1Z" transform="translate(-954.798 -581.607)" fill="#f5865f"/>
        <path id="Path_3550" data-name="Path 3550" d="M975.492,589.691l.023.1-23.335,5.729-.024-.1Z" transform="translate(-954.887 -581.968)" fill="#f5865f"/>
        <path id="Path_3551" data-name="Path 3551" d="M975.6,590.149l.026.1-23.337,5.729-.024-.1Z" transform="translate(-954.975 -582.328)" fill="#f58660"/>
        <path id="Path_3552" data-name="Path 3552" d="M975.717,590.608l.023.1L952.4,596.434l-.024-.1Z" transform="translate(-955.063 -582.69)" fill="#f58760"/>
        <path id="Path_3553" data-name="Path 3553" d="M975.829,591.066l.023.1-23.336,5.729-.024-.1Z" transform="translate(-955.152 -583.05)" fill="#f58760"/>
        <path id="Path_3554" data-name="Path 3554" d="M975.942,591.524l.023.1L952.63,597.35l-.024-.1Z" transform="translate(-955.241 -583.411)" fill="#f68761"/>
        <path id="Path_3555" data-name="Path 3555" d="M976.053,591.982l.026.1-23.337,5.729-.024-.1Z" transform="translate(-955.329 -583.772)" fill="#f68861"/>
        <path id="Path_3556" data-name="Path 3556" d="M976.167,592.44l.023.1-23.336,5.728-.024-.1Z" transform="translate(-955.418 -584.132)" fill="#f68861"/>
        <path id="Path_3557" data-name="Path 3557" d="M976.279,592.9l.023.1-23.336,5.728-.024-.1Z" transform="translate(-955.507 -584.494)" fill="#f68862"/>
        <path id="Path_3558" data-name="Path 3558" d="M976.391,593.357l.023.1-23.335,5.728-.024-.1Z" transform="translate(-955.595 -584.855)" fill="#f68962"/>
        <path id="Path_3559" data-name="Path 3559" d="M976.5,593.815l.026.1-23.337,5.729-.024-.1Z" transform="translate(-955.684 -585.215)" fill="#f68962"/>
        <path id="Path_3560" data-name="Path 3560" d="M976.617,594.273l.023.1L953.3,600.1l-.024-.1Z" transform="translate(-955.772 -585.576)" fill="#f68963"/>
        <path id="Path_3561" data-name="Path 3561" d="M976.729,594.732l.023.1-23.336,5.728-.024-.1Z" transform="translate(-955.861 -585.937)" fill="#f68a63"/>
        <path id="Path_3562" data-name="Path 3562" d="M976.841,595.19l.023.1-23.335,5.728-.024-.1Z" transform="translate(-955.949 -586.298)" fill="#f68a63"/>
        <path id="Path_3563" data-name="Path 3563" d="M976.953,595.648l.025.1-23.337,5.729-.024-.1Z" transform="translate(-956.038 -586.659)" fill="#f68a64"/>
        <path id="Path_3564" data-name="Path 3564" d="M977.067,596.106l.023.1-23.336,5.728-.024-.1Z" transform="translate(-956.126 -587.019)" fill="#f68b64"/>
        <path id="Path_3565" data-name="Path 3565" d="M977.179,596.564l.023.1-23.336,5.729-.024-.1Z" transform="translate(-956.215 -587.38)" fill="#f68b64"/>
        <path id="Path_3566" data-name="Path 3566" d="M977.291,597.023l.023.1-23.335,5.728-.024-.1Z" transform="translate(-956.304 -587.741)" fill="#f68b65"/>
        <path id="Path_3567" data-name="Path 3567" d="M977.4,597.481l.026.1-23.337,5.728-.024-.1Z" transform="translate(-956.393 -588.102)" fill="#f68c65"/>
        <path id="Path_3568" data-name="Path 3568" d="M977.517,597.939l.023.1L954.2,603.765l-.024-.1Z" transform="translate(-956.481 -588.463)" fill="#f68c65"/>
        <path id="Path_3569" data-name="Path 3569" d="M977.629,598.4l.023.1-23.336,5.729-.024-.1Z" transform="translate(-956.57 -588.823)" fill="#f68c66"/>
        <path id="Path_3570" data-name="Path 3570" d="M977.741,598.856l.023.1-23.335,5.728-.024-.1Z" transform="translate(-956.658 -589.185)" fill="#f68d66"/>
        <path id="Path_3571" data-name="Path 3571" d="M977.853,599.314l.023.1-23.335,5.728-.024-.1Z" transform="translate(-956.747 -589.546)" fill="#f68d66"/>
        <path id="Path_3572" data-name="Path 3572" d="M977.967,599.772l.023.1L954.654,605.6l-.024-.1Z" transform="translate(-956.835 -589.906)" fill="#f68d67"/>
        <path id="Path_3573" data-name="Path 3573" d="M978.079,600.23l.023.1-23.336,5.728-.024-.1Z" transform="translate(-956.924 -590.267)" fill="#f68e67"/>
        <path id="Path_3574" data-name="Path 3574" d="M978.191,600.688l.023.1-23.335,5.728-.024-.1Z" transform="translate(-957.012 -590.628)" fill="#f78e67"/>
        <path id="Path_3575" data-name="Path 3575" d="M978.3,601.147l.023.1-23.335,5.729-.024-.1Z" transform="translate(-957.101 -590.989)" fill="#f78e68"/>
        <path id="Path_3576" data-name="Path 3576" d="M978.415,601.6l.025.1L955.1,607.431l-.024-.1Z" transform="translate(-957.189 -591.35)" fill="#f78f68"/>
        <path id="Path_3577" data-name="Path 3577" d="M978.529,602.063l.023.1-23.336,5.728-.024-.1Z" transform="translate(-957.279 -591.71)" fill="#f78f68"/>
        <path id="Path_3578" data-name="Path 3578" d="M978.641,602.521l.023.1-23.335,5.729-.024-.1Z" transform="translate(-957.367 -592.071)" fill="#f78f69"/>
        <path id="Path_3579" data-name="Path 3579" d="M978.753,602.98l.026.1-23.337,5.729-.024-.1Z" transform="translate(-957.456 -592.432)" fill="#f78f69"/>
        <path id="Path_3580" data-name="Path 3580" d="M978.867,603.438l.023.1-23.336,5.729-.024-.1Z" transform="translate(-957.544 -592.793)" fill="#f79069"/>
        <path id="Path_3581" data-name="Path 3581" d="M978.979,603.9l.023.1-23.336,5.728-.024-.1Z" transform="translate(-957.633 -593.154)" fill="#f79069"/>
        <path id="Path_3582" data-name="Path 3582" d="M979.091,604.354l.023.1-23.335,5.729-.024-.1Z" transform="translate(-957.721 -593.514)" fill="#f7906a"/>
        <path id="Path_3583" data-name="Path 3583" d="M979.2,604.812l.026.1-23.337,5.729-.024-.1Z" transform="translate(-957.809 -593.875)" fill="#f7916a"/>
        <path id="Path_3584" data-name="Path 3584" d="M979.317,605.271l.023.1L956,611.1l-.024-.1Z" transform="translate(-957.898 -594.237)" fill="#f7916a"/>
        <path id="Path_3585" data-name="Path 3585" d="M979.429,605.729l.023.1-23.336,5.728-.024-.1Z" transform="translate(-957.987 -594.597)" fill="#f7916b"/>
        <path id="Path_3586" data-name="Path 3586" d="M979.541,606.187l.023.1-23.335,5.729-.024-.1Z" transform="translate(-958.075 -594.958)" fill="#f7926b"/>
        <path id="Path_3587" data-name="Path 3587" d="M979.653,606.645l.026.1-23.337,5.729-.024-.1Z" transform="translate(-958.164 -595.319)" fill="#f7926b"/>
        <path id="Path_3588" data-name="Path 3588" d="M979.767,607.1l.023.1-23.336,5.729-.024-.1Z" transform="translate(-958.253 -595.68)" fill="#f7926c"/>
        <path id="Path_3589" data-name="Path 3589" d="M979.878,607.562l.023.1-23.336,5.729-.024-.1Z" transform="translate(-958.341 -596.041)" fill="#f7926c"/>
        <path id="Path_3590" data-name="Path 3590" d="M979.991,608.02l.023.1-23.335,5.729-.024-.1Z" transform="translate(-958.43 -596.401)" fill="#f7936c"/>
        <path id="Path_3591" data-name="Path 3591" d="M980.1,608.478l.023.1L956.791,614.3l-.024-.1Z" transform="translate(-958.518 -596.762)" fill="#f7936c"/>
        <path id="Path_3592" data-name="Path 3592" d="M980.215,608.936l.026.1L956.9,614.762l-.024-.1Z" transform="translate(-958.607 -597.123)" fill="#f7936d"/>
        <path id="Path_3593" data-name="Path 3593" d="M980.329,609.4l.023.1-23.336,5.728-.024-.1Z" transform="translate(-958.696 -597.484)" fill="#f7946d"/>
        <path id="Path_3594" data-name="Path 3594" d="M980.441,609.853l.023.1-23.335,5.729-.024-.1Z" transform="translate(-958.784 -597.845)" fill="#f7946d"/>
        <path id="Path_3595" data-name="Path 3595" d="M980.553,610.311l.023.1-23.335,5.729-.024-.1Z" transform="translate(-958.873 -598.206)" fill="#f8946e"/>
        <path id="Path_3596" data-name="Path 3596" d="M980.665,610.769l.025.1L957.354,616.6l-.024-.1Z" transform="translate(-958.961 -598.566)" fill="#f8946e"/>
        <path id="Path_3597" data-name="Path 3597" d="M980.778,611.228l.023.1-23.336,5.729-.024-.1Z" transform="translate(-959.049 -598.928)" fill="#f8956e"/>
        <path id="Path_3598" data-name="Path 3598" d="M980.891,611.686l.023.1-23.335,5.729-.024-.1Z" transform="translate(-959.139 -599.288)" fill="#f8956e"/>
        <path id="Path_3599" data-name="Path 3599" d="M981,612.144l.026.1-23.337,5.729-.024-.1Z" transform="translate(-959.227 -599.649)" fill="#f8956f"/>
        <path id="Path_3600" data-name="Path 3600" d="M981.117,612.6l.023.1L957.8,618.428l-.024-.1Z" transform="translate(-959.316 -600.01)" fill="#f8956f"/>
        <path id="Path_3601" data-name="Path 3601" d="M981.228,613.06l.023.1-23.336,5.728-.024-.1Z" transform="translate(-959.404 -600.37)" fill="#f8966f"/>
        <path id="Path_3602" data-name="Path 3602" d="M981.341,613.519l.023.1-23.335,5.728-.024-.1Z" transform="translate(-959.493 -600.732)" fill="#f89670"/>
        <path id="Path_3603" data-name="Path 3603" d="M981.452,613.977l.025.1L958.141,619.8l-.024-.1Z" transform="translate(-959.581 -601.092)" fill="#f89670"/>
        <path id="Path_3604" data-name="Path 3604" d="M981.567,614.435l.023.1-23.337,5.729-.024-.1Z" transform="translate(-959.67 -601.453)" fill="#f89770"/>
        <path id="Path_3605" data-name="Path 3605" d="M981.679,614.893l.023.1-23.336,5.728-.024-.1Z" transform="translate(-959.758 -601.814)" fill="#f89770"/>
        <path id="Path_3606" data-name="Path 3606" d="M981.791,615.352l.023.1-23.335,5.728-.024-.1Z" transform="translate(-959.847 -602.175)" fill="#f89771"/>
        <path id="Path_3607" data-name="Path 3607" d="M981.9,615.81l.026.1-23.337,5.729-.024-.1Z" transform="translate(-959.935 -602.536)" fill="#f89771"/>
        <path id="Path_3608" data-name="Path 3608" d="M982.017,616.268l.023.1L958.7,622.094l-.024-.1Z" transform="translate(-960.024 -602.896)" fill="#f89871"/>
        <path id="Path_3609" data-name="Path 3609" d="M982.128,616.726l.023.1-23.336,5.729-.024-.1Z" transform="translate(-960.113 -603.257)" fill="#f89871"/>
        <path id="Path_3610" data-name="Path 3610" d="M982.241,617.184l.023.1-23.335,5.729-.024-.1Z" transform="translate(-960.202 -603.618)" fill="#f89872"/>
        <path id="Path_3611" data-name="Path 3611" d="M982.352,617.643l.023.1-23.335,5.728-.024-.1Z" transform="translate(-960.29 -603.979)" fill="#f89872"/>
        <path id="Path_3612" data-name="Path 3612" d="M982.465,618.1l.026.1-23.336,5.728-.024-.1Z" transform="translate(-960.379 -604.34)" fill="#f89972"/>
        <path id="Path_3613" data-name="Path 3613" d="M982.578,618.559l.023.1-23.336,5.729-.024-.1Z" transform="translate(-960.467 -604.701)" fill="#f89972"/>
        <path id="Path_3614" data-name="Path 3614" d="M982.691,619.017l.023.1-23.335,5.728-.024-.1Z" transform="translate(-960.556 -605.061)" fill="#f89973"/>
        <path id="Path_3615" data-name="Path 3615" d="M982.8,619.476l.023.1L959.491,625.3l-.024-.1Z" transform="translate(-960.644 -605.423)" fill="#f89973"/>
        <path id="Path_3616" data-name="Path 3616" d="M982.915,619.934l.026.1L959.6,625.76l-.024-.1Z" transform="translate(-960.733 -605.783)" fill="#f89a73"/>
        <path id="Path_3617" data-name="Path 3617" d="M983.028,620.392l.024.1-23.336,5.729-.024-.1Z" transform="translate(-960.821 -606.144)" fill="#f89a74"/>
        <path id="Path_3618" data-name="Path 3618" d="M983.141,620.85l.023.1-23.335,5.729-.024-.1Z" transform="translate(-960.91 -606.505)" fill="#f89a74"/>
        <path id="Path_3619" data-name="Path 3619" d="M983.252,621.308l.025.1-23.337,5.729-.024-.1Z" transform="translate(-960.999 -606.865)" fill="#f99a74"/>
        <path id="Path_3620" data-name="Path 3620" d="M983.367,621.767l.023.1-23.337,5.729-.024-.1Z" transform="translate(-961.088 -607.227)" fill="#f99b74"/>
        <path id="Path_3621" data-name="Path 3621" d="M983.478,622.225l.023.1-23.336,5.728-.024-.1Z" transform="translate(-961.176 -607.587)" fill="#f99b75"/>
        <path id="Path_3622" data-name="Path 3622" d="M983.591,622.683l.023.1-23.335,5.729-.024-.1Z" transform="translate(-961.265 -607.948)" fill="#f99b75"/>
        <path id="Path_3623" data-name="Path 3623" d="M983.7,623.141l.025.1-23.337,5.728-.024-.1Z" transform="translate(-961.353 -608.309)" fill="#f99b75"/>
        <path id="Path_3624" data-name="Path 3624" d="M983.817,623.6l.023.1L960.5,629.426l-.024-.1Z" transform="translate(-961.442 -608.67)" fill="#f99c75"/>
        <path id="Path_3625" data-name="Path 3625" d="M983.928,624.058l.023.1-23.336,5.729-.024-.1Z" transform="translate(-961.53 -609.031)" fill="#f99c75"/>
        <path id="Path_3626" data-name="Path 3626" d="M984.04,624.516l.023.1-23.335,5.729-.024-.1Z" transform="translate(-961.618 -609.392)" fill="#f99c76"/>
        <path id="Path_3627" data-name="Path 3627" d="M984.152,624.974l.026.1L960.841,630.8l-.024-.1Z" transform="translate(-961.707 -609.752)" fill="#f99c76"/>
        <path id="Path_3628" data-name="Path 3628" d="M984.266,625.432l.023.1-23.336,5.729-.024-.1Z" transform="translate(-961.795 -610.113)" fill="#f99d76"/>
        <path id="Path_3629" data-name="Path 3629" d="M984.378,625.891l.023.1-23.336,5.729-.024-.1Z" transform="translate(-961.884 -610.474)" fill="#f99d76"/>
        <path id="Path_3630" data-name="Path 3630" d="M984.49,626.349l.023.1-23.335,5.729-.024-.1Z" transform="translate(-961.973 -610.835)" fill="#f99d77"/>
        <path id="Path_3631" data-name="Path 3631" d="M984.6,626.807l.023.1-23.335,5.729-.024-.1Z" transform="translate(-962.062 -611.196)" fill="#f99d77"/>
        <path id="Path_3632" data-name="Path 3632" d="M984.715,627.265l.026.1L961.4,633.091l-.024-.1Z" transform="translate(-962.151 -611.556)" fill="#f99d77"/>
        <path id="Path_3633" data-name="Path 3633" d="M984.828,627.724l.023.1-23.336,5.729-.024-.1Z" transform="translate(-962.239 -611.918)" fill="#f99e77"/>
        <path id="Path_3634" data-name="Path 3634" d="M984.94,628.182l.023.1-23.335,5.729-.024-.1Z" transform="translate(-962.327 -612.279)" fill="#f99e78"/>
        <path id="Path_3635" data-name="Path 3635" d="M985.052,628.64l.023.1-23.335,5.729-.024-.1Z" transform="translate(-962.416 -612.639)" fill="#f99e78"/>
        <path id="Path_3636" data-name="Path 3636" d="M985.164,629.1l.026.1-23.337,5.729-.024-.1Z" transform="translate(-962.504 -613)" fill="#f99e78"/>
        <path id="Path_3637" data-name="Path 3637" d="M985.278,629.557l.023.1-23.336,5.729-.024-.1Z" transform="translate(-962.593 -613.361)" fill="#f99f78"/>
        <path id="Path_3638" data-name="Path 3638" d="M985.39,630.015l.023.1-23.335,5.728-.024-.1Z" transform="translate(-962.681 -613.722)" fill="#f99f78"/>
        <path id="Path_3639" data-name="Path 3639" d="M985.5,630.473l.026.1L962.191,636.3l-.024-.1Z" transform="translate(-962.77 -614.083)" fill="#f99f79"/>
        <path id="Path_3640" data-name="Path 3640" d="M985.616,630.931l.023.1L962.3,636.757l-.024-.1Z" transform="translate(-962.858 -614.443)" fill="#f99f79"/>
        <path id="Path_3641" data-name="Path 3641" d="M985.728,631.389l.023.1-23.336,5.729-.024-.1Z" transform="translate(-962.948 -614.804)" fill="#f99f79"/>
        <path id="Path_3642" data-name="Path 3642" d="M985.84,631.848l.023.1-23.336,5.728-.024-.1Z" transform="translate(-963.036 -615.165)" fill="#f9a079"/>
        <path id="Path_3643" data-name="Path 3643" d="M985.952,632.306l.026.1-23.337,5.728-.024-.1Z" transform="translate(-963.125 -615.526)" fill="#f9a07a"/>
        <path id="Path_3644" data-name="Path 3644" d="M986.064,632.764l.025.1-23.336,5.728-.024-.1Z" transform="translate(-963.213 -615.887)" fill="#f9a07a"/>
        <path id="Path_3645" data-name="Path 3645" d="M986.178,633.222l.023.1-23.336,5.728-.024-.1Z" transform="translate(-963.302 -616.247)" fill="#f9a07a"/>
        <path id="Path_3646" data-name="Path 3646" d="M986.29,633.681l.023.1-23.335,5.728-.024-.1Z" transform="translate(-963.39 -616.609)" fill="#f9a07a"/>
        <path id="Path_3647" data-name="Path 3647" d="M986.4,634.139l.023.1-23.335,5.729-.024-.1Z" transform="translate(-963.479 -616.969)" fill="#f9a17a"/>
        <path id="Path_3648" data-name="Path 3648" d="M986.514,634.6l.026.1L963.2,640.423l-.024-.1Z" transform="translate(-963.567 -617.33)" fill="#faa17b"/>
        <path id="Path_3649" data-name="Path 3649" d="M986.628,635.055l.023.1-23.336,5.729-.024-.1Z" transform="translate(-963.656 -617.691)" fill="#faa17b"/>
        <path id="Path_3650" data-name="Path 3650" d="M986.74,635.513l.023.1-23.335,5.729-.024-.1Z" transform="translate(-963.744 -618.051)" fill="#faa17b"/>
        <path id="Path_3651" data-name="Path 3651" d="M986.852,635.972l.023.1L963.541,641.8l-.024-.1Z" transform="translate(-963.833 -618.413)" fill="#faa17b"/>
        <path id="Path_3652" data-name="Path 3652" d="M986.964,636.43l.026.1-23.337,5.728-.024-.1Z" transform="translate(-963.922 -618.773)" fill="#faa27b"/>
        <path id="Path_3653" data-name="Path 3653" d="M987.078,636.888l.023.1-23.336,5.728-.024-.1Z" transform="translate(-964.011 -619.134)" fill="#faa27c"/>
        <path id="Path_3654" data-name="Path 3654" d="M987.19,637.346l.023.1-23.335,5.728-.024-.1Z" transform="translate(-964.099 -619.495)" fill="#faa27c"/>
        <path id="Path_3655" data-name="Path 3655" d="M987.3,637.8l.023.1-23.335,5.729-.024-.1Z" transform="translate(-964.188 -619.856)" fill="#faa27c"/>
        <path id="Path_3656" data-name="Path 3656" d="M987.414,638.263l.025.1L964.1,644.089l-.024-.1Z" transform="translate(-964.276 -620.217)" fill="#faa27c"/>
        <path id="Path_3657" data-name="Path 3657" d="M987.528,638.721l.023.1-23.336,5.729-.024-.1Z" transform="translate(-964.364 -620.578)" fill="#faa37c"/>
        <path id="Path_3658" data-name="Path 3658" d="M987.64,639.179l.023.1-23.335,5.729-.024-.1Z" transform="translate(-964.453 -620.938)" fill="#faa37c"/>
        <path id="Path_3659" data-name="Path 3659" d="M987.752,639.637l.023.1-23.335,5.728-.024-.1Z" transform="translate(-964.542 -621.299)" fill="#faa37d"/>
        <path id="Path_3660" data-name="Path 3660" d="M987.864,640.1l.026.1-23.336,5.729-.024-.1Z" transform="translate(-964.63 -621.66)" fill="#faa37d"/>
        <path id="Path_3661" data-name="Path 3661" d="M987.978,640.554l.023.1-23.336,5.729-.024-.1Z" transform="translate(-964.719 -622.021)" fill="#faa37d"/>
        <path id="Path_3662" data-name="Path 3662" d="M988.09,641.012l.023.1-23.336,5.729-.024-.1Z" transform="translate(-964.807 -622.382)" fill="#faa37d"/>
        <path id="Path_3663" data-name="Path 3663" d="M988.2,641.47l.023.1L964.89,647.3l-.024-.1Z" transform="translate(-964.896 -622.743)" fill="#faa47d"/>
        <path id="Path_3664" data-name="Path 3664" d="M988.314,641.929l.026.1L965,647.755l-.024-.1Z" transform="translate(-964.985 -623.104)" fill="#faa47e"/>
        <path id="Path_3665" data-name="Path 3665" d="M988.429,642.387l.023.1-23.336,5.729-.024-.1Z" transform="translate(-965.074 -623.465)" fill="#faa47e"/>
        <path id="Path_3666" data-name="Path 3666" d="M988.54,642.845l.023.1-23.336,5.729-.024-.1Z" transform="translate(-965.162 -623.825)" fill="#faa47e"/>
        <path id="Path_3667" data-name="Path 3667" d="M988.652,643.3l.023.1-23.335,5.729-.024-.1Z" transform="translate(-965.25 -624.186)" fill="#faa47e"/>
        <path id="Path_3668" data-name="Path 3668" d="M988.764,643.761l.025.1-23.337,5.729-.024-.1Z" transform="translate(-965.339 -624.547)" fill="#faa47e"/>
        <path id="Path_3669" data-name="Path 3669" d="M988.878,644.22l.023.1-23.336,5.728-.024-.1Z" transform="translate(-965.428 -624.908)" fill="#faa57e"/>
        <path id="Path_3670" data-name="Path 3670" d="M988.99,644.678l.023.1L965.678,650.5l-.024-.1Z" transform="translate(-965.516 -625.269)" fill="#faa57f"/>
        <path id="Path_3671" data-name="Path 3671" d="M989.1,645.136l.023.1-23.335,5.729-.024-.1Z" transform="translate(-965.604 -625.629)" fill="#faa57f"/>
        <path id="Path_3672" data-name="Path 3672" d="M989.214,645.594l.026.1L965.9,651.42l-.024-.1Z" transform="translate(-965.693 -625.99)" fill="#faa57f"/>
        <path id="Path_3673" data-name="Path 3673" d="M989.328,646.053l.023.1-23.336,5.729-.024-.1Z" transform="translate(-965.782 -626.352)" fill="#faa57f"/>
        <path id="Path_3674" data-name="Path 3674" d="M989.44,646.511l.023.1-23.336,5.729-.024-.1Z" transform="translate(-965.871 -626.712)" fill="#faa57f"/>
        <path id="Path_3675" data-name="Path 3675" d="M989.552,646.969l.023.1-23.335,5.729-.024-.1Z" transform="translate(-965.959 -627.073)" fill="#faa67f"/>
        <path id="Path_3676" data-name="Path 3676" d="M989.664,647.427l.026.1-23.337,5.729-.024-.1Z" transform="translate(-966.048 -627.434)" fill="#faa680"/>
        <path id="Path_3677" data-name="Path 3677" d="M989.778,647.885l.023.1-23.336,5.729-.024-.1Z" transform="translate(-966.136 -627.794)" fill="#faa680"/>
        <path id="Path_3678" data-name="Path 3678" d="M989.89,648.344l.023.1-23.336,5.729-.024-.1Z" transform="translate(-966.225 -628.156)" fill="#faa680"/>
        <path id="Path_3679" data-name="Path 3679" d="M990,648.8l.023.1-23.335,5.729-.024-.1Z" transform="translate(-966.313 -628.516)" fill="#faa680"/>
        <path id="Path_3680" data-name="Path 3680" d="M990.114,649.26l.026.1L966.8,655.086l-.024-.1Z" transform="translate(-966.402 -628.877)" fill="#faa680"/>
        <path id="Path_3681" data-name="Path 3681" d="M990.228,649.718l.023.1-23.336,5.728-.024-.1Z" transform="translate(-966.49 -629.238)" fill="#faa680"/>
        <path id="Path_3682" data-name="Path 3682" d="M990.34,650.177l.023.1L967.028,656l-.024-.1Z" transform="translate(-966.579 -629.599)" fill="#faa781"/>
        <path id="Path_3683" data-name="Path 3683" d="M990.452,650.635l.023.1-23.335,5.728-.024-.1Z" transform="translate(-966.668 -629.96)" fill="#faa781"/>
        <path id="Path_3684" data-name="Path 3684" d="M990.564,651.093l.026.1-23.337,5.728-.024-.1Z" transform="translate(-966.757 -630.32)" fill="#faa781"/>
        <path id="Path_3685" data-name="Path 3685" d="M990.678,651.551l.023.1-23.336,5.729-.024-.1Z" transform="translate(-966.845 -630.681)" fill="#faa781"/>
        <path id="Path_3686" data-name="Path 3686" d="M990.79,652.009l.023.1-23.336,5.729-.024-.1Z" transform="translate(-966.934 -631.042)" fill="#fba781"/>
        <path id="Path_3687" data-name="Path 3687" d="M990.9,652.468l.023.1-23.335,5.728-.024-.1Z" transform="translate(-967.022 -631.403)" fill="#fba781"/>
        <path id="Path_3688" data-name="Path 3688" d="M991.014,652.926l.026.1L967.7,658.752l-.024-.1Z" transform="translate(-967.111 -631.764)" fill="#fba781"/>
        <path id="Path_3689" data-name="Path 3689" d="M991.128,653.384l.023.1-23.336,5.729-.024-.1Z" transform="translate(-967.199 -632.125)" fill="#fba882"/>
        <path id="Path_3690" data-name="Path 3690" d="M991.24,653.842l.023.1-23.336,5.728-.024-.1Z" transform="translate(-967.288 -632.485)" fill="#fba882"/>
        <path id="Path_3691" data-name="Path 3691" d="M991.352,654.3l.023.1-23.335,5.728-.024-.1Z" transform="translate(-967.376 -632.847)" fill="#fba882"/>
        <path id="Path_3692" data-name="Path 3692" d="M991.463,654.759l.025.1-23.337,5.728-.024-.1Z" transform="translate(-967.464 -633.207)" fill="#fba882"/>
        <path id="Path_3693" data-name="Path 3693" d="M991.578,655.217l.023.1-23.336,5.728-.024-.1Z" transform="translate(-967.554 -633.568)" fill="#fba882"/>
        <path id="Path_3694" data-name="Path 3694" d="M991.689,655.675l.023.1L968.377,661.5l-.024-.1Z" transform="translate(-967.642 -633.929)" fill="#fba882"/>
        <path id="Path_3695" data-name="Path 3695" d="M991.8,656.133l.023.1-23.335,5.729-.024-.1Z" transform="translate(-967.731 -634.289)" fill="#fba882"/>
        <path id="Path_3696" data-name="Path 3696" d="M991.913,656.592l.026.1L968.6,662.418l-.024-.1Z" transform="translate(-967.819 -634.651)" fill="#fba982"/>
        <path id="Path_3697" data-name="Path 3697" d="M992.028,657.05l.023.1-23.336,5.729-.024-.1Z" transform="translate(-967.908 -635.012)" fill="#fba983"/>
        <path id="Path_3698" data-name="Path 3698" d="M992.139,657.508l.023.1-23.336,5.729-.024-.1Z" transform="translate(-967.996 -635.372)" fill="#fba983"/>
        <path id="Path_3699" data-name="Path 3699" d="M992.252,657.966l.023.1-23.335,5.729-.024-.1Z" transform="translate(-968.085 -635.733)" fill="#fba983"/>
        <path id="Path_3700" data-name="Path 3700" d="M992.363,658.425l.026.1-23.337,5.728-.024-.1Z" transform="translate(-968.173 -636.094)" fill="#fba983"/>
        <path id="Path_3701" data-name="Path 3701" d="M992.478,658.883l.023.1-23.336,5.728-.024-.1Z" transform="translate(-968.262 -636.455)" fill="#fba983"/>
        <path id="Path_3702" data-name="Path 3702" d="M992.589,659.341l.023.1-23.336,5.729-.024-.1Z" transform="translate(-968.35 -636.815)" fill="#fba983"/>
        <path id="Path_3703" data-name="Path 3703" d="M992.7,659.8l.023.1-23.335,5.729-.024-.1Z" transform="translate(-968.439 -637.176)" fill="#fba983"/>
        <path id="Path_3704" data-name="Path 3704" d="M992.813,660.257l.025.1L969.5,666.083l-.024-.1Z" transform="translate(-968.528 -637.537)" fill="#fba983"/>
        <path id="Path_3705" data-name="Path 3705" d="M992.928,660.716l.023.1-23.336,5.729-.024-.1Z" transform="translate(-968.617 -637.898)" fill="#fbaa84"/>
        <path id="Path_3706" data-name="Path 3706" d="M993.039,661.174l.023.1L969.727,667l-.024-.1Z" transform="translate(-968.705 -638.259)" fill="#fbaa84"/>
        <path id="Path_3707" data-name="Path 3707" d="M993.152,661.632l.023.1-23.335,5.729-.024-.1Z" transform="translate(-968.794 -638.62)" fill="#fbaa84"/>
        <path id="Path_3708" data-name="Path 3708" d="M993.263,662.09l.026.1-23.337,5.729-.024-.1Z" transform="translate(-968.882 -638.98)" fill="#fbaa84"/>
        <path id="Path_3709" data-name="Path 3709" d="M993.378,662.549l.023.1-23.336,5.728-.024-.1Z" transform="translate(-968.971 -639.342)" fill="#fbaa84"/>
        <path id="Path_3710" data-name="Path 3710" d="M993.489,663.007l.023.1-23.336,5.729-.024-.1Z" transform="translate(-969.059 -639.702)" fill="#fbaa84"/>
        <path id="Path_3711" data-name="Path 3711" d="M993.6,663.465l.023.1-23.335,5.729-.024-.1Z" transform="translate(-969.148 -640.063)" fill="#fbaa84"/>
        <path id="Path_3712" data-name="Path 3712" d="M993.713,663.923l.026.1L970.4,669.749l-.024-.1Z" transform="translate(-969.236 -640.424)" fill="#fbaa84"/>
        <path id="Path_3713" data-name="Path 3713" d="M993.828,664.381l.023.1-23.336,5.729-.024-.1Z" transform="translate(-969.325 -640.784)" fill="#fbaa84"/>
        <path id="Path_3714" data-name="Path 3714" d="M993.94,664.84l.023.1-23.336,5.728-.024-.1Z" transform="translate(-969.414 -641.146)" fill="#fbab84"/>
        <path id="Path_3715" data-name="Path 3715" d="M994.052,665.3l.023.1-23.335,5.729-.024-.1Z" transform="translate(-969.503 -641.507)" fill="#fbab85"/>
        <path id="Path_3716" data-name="Path 3716" d="M994.163,665.756l.026.1-23.337,5.729-.024-.1Z" transform="translate(-969.591 -641.867)" fill="#fbab85"/>
        <path id="Path_3717" data-name="Path 3717" d="M994.277,666.214l.023.1-23.336,5.729-.024-.1Z" transform="translate(-969.679 -642.228)" fill="#fbab85"/>
        <path id="Path_3718" data-name="Path 3718" d="M994.389,666.673l.023.1L971.077,672.5l-.024-.1Z" transform="translate(-969.768 -642.589)" fill="#fbab85"/>
        <path id="Path_3719" data-name="Path 3719" d="M994.5,667.131l.023.1-23.335,5.729-.024-.1Z" transform="translate(-969.857 -642.95)" fill="#fbab85"/>
        <path id="Path_3720" data-name="Path 3720" d="M994.613,667.589l.026.1L971.3,673.415l-.024-.1Z" transform="translate(-969.945 -643.311)" fill="#fbab85"/>
        <path id="Path_3721" data-name="Path 3721" d="M994.728,668.047l.023.1-23.336,5.729-.024-.1Z" transform="translate(-970.034 -643.671)" fill="#fbab85"/>
        <path id="Path_3722" data-name="Path 3722" d="M994.839,668.505l.023.1-23.336,5.728-.024-.1Z" transform="translate(-970.122 -644.032)" fill="#fbab85"/>
        <path id="Path_3723" data-name="Path 3723" d="M994.952,668.964l.023.1L971.64,674.79l-.024-.1Z" transform="translate(-970.211 -644.394)" fill="#fbab85"/>
      </g>
    </g>
    <path id="Path_3725" data-name="Path 3725" d="M1066.419,395.889s1.826-5.994-3.439-7.811c.88.791,3.806,3.454,1.326,7.106C1065.6,395.634,1066.419,395.889,1066.419,395.889Z" transform="translate(-916.576 -383.814)" fill="#482b0e"/>
    <path id="Path_4170" data-name="Path 4170" d="M918.739,539.644l0,.008a31.786,31.786,0,0,0,.6,3.738c1.6,7.215,3.835,12.329,10.67,13.728,5.727,1.172,14.878-.916,14.882-10.854a5.928,5.928,0,0,1,.465-2.327s-3.473-1.931-4.76-2C935.1,541.644,925.671,537.815,918.739,539.644Z" transform="translate(-802.986 -502.781)" fill="#482b0e"/>
    <path id="Path_4171" data-name="Path 4171" d="M1038.058,411.928c1.879,5.055-11.737,25.595-11.737,25.595l-4.76-2s14.113-14.33.589-26.079c-1.611-1.4,4.839-5.984,6.637-5.369C1029.967,404.476,1036.91,408.84,1038.058,411.928Z" transform="translate(-883.958 -396.366)" fill="#482b0e"/>
    <path id="Path_4172" data-name="Path 4172" d="M1034.873,407.49a19.525,19.525,0,0,1-9.867,3.824,5.111,5.111,0,0,0-1.87-1.858c-1.857-1.05,4.839-5.984,6.637-5.369A32.957,32.957,0,0,1,1034.873,407.49Z" transform="translate(-884.945 -396.379)" fill="#36200b"/>
    <path id="Path_4173" data-name="Path 4173" d="M1050.159,507.7c-1.9,2.929-4.826,4.407-6.526,3.3s-1.541-4.376.363-7.306,4.824-4.41,6.526-3.3S1052.061,504.767,1050.159,507.7Z" transform="translate(-900.412 -471.968)" fill="#fcae88"/>
    <path id="Path_4174" data-name="Path 4174" d="M1060.691,513.271s6.875,0-.691,5.325C1060.151,517.469,1063.1,516.77,1060.691,513.271Z" transform="translate(-914.229 -482.401)" fill="#f09261"/>
    <path id="Path_4175" data-name="Path 4175" d="M935.333,384.124s-27.424-1.963-.493-16.109c-2.188,5.742,14.009-7.371,19.972,10.034C952.6,381.618,944.949,385.424,935.333,384.124Z" transform="translate(-806.342 -368.014)" fill="#482b0e"/>
    <path id="Path_4186" data-name="Path 4186" d="M989.942,512.3l-1.785-.277h0l1.785.277Zm-5.2-.806-.775-.12h.005l.77.119Z" transform="translate(-854.358 -480.909)" fill="#fbdcda"/>
    <path id="Path_4187" data-name="Path 4187" d="M990.577,512.4l-2.961-.459h0l2.961.46Z" transform="translate(-857.229 -481.352)" fill="#8c5135"/>
    <path id="Path_4188" data-name="Path 4188" d="M1002,514.171l-.451-.07h0l.451.07Z" transform="translate(-868.201 -483.055)" fill="#7b4831"/>
    <path id="Path_4197" data-name="Path 4197" d="M936.837,502.28l-1.76-.273h0Zm-5.172-.8-.777-.12h.008l.77.119Z" transform="translate(-812.556 -473.02)" fill="#fbdcda"/>
    <path id="Path_4198" data-name="Path 4198" d="M937.507,502.382l-2.962-.459h0l2.962.46Z" transform="translate(-815.435 -473.464)" fill="#8c5135"/>
    <path id="Path_4199" data-name="Path 4199" d="M948.932,504.155l-.45-.07h0l.449.07Z" transform="translate(-826.412 -475.167)" fill="#7b4831"/>
    <path id="Path_4460" data-name="Path 4460" d="M992.881,718.127l-.049.6-5.844,11.392L981.172,718.2l4.854-43.026.021-.229-.036-.084L982.4,666.6h9.2l-3.609,8.263-.038.084.025.229Z" transform="translate(-852.154 -603.141)" fill="#243444"/>
    <path id="Path_4461" data-name="Path 4461" d="M1003.94,705.475h1.981l-.038.084.025.229h-1.953Z" transform="translate(-870.083 -633.758)" fill="#505d69"/>
    <rect id="Rectangle_774" data-name="Rectangle 774" width="20.249" height="4.216" transform="translate(124.597 144.572)" fill="#a97c50"/>
    <rect id="Rectangle_775" data-name="Rectangle 775" width="9.923" height="6.55" transform="translate(129.78 143.397)" fill="#f2d97f"/>
    <path id="Path_4462" data-name="Path 4462" d="M1009.11,638.1l4.78,6.465,6.956-11.89-3.226-2.248Z" transform="translate(-874.154 -574.657)" fill="#cdeefd"/>
    <path id="Path_4463" data-name="Path 4463" d="M960.945,640.113l-3.977,6.421-9.022-11.611,4.474-1.94Z" transform="translate(-825.989 -576.672)" fill="#cdeefd"/>
    <path id="Path_4464" data-name="Path 4464" d="M853.365,788.129a148.689,148.689,0,0,0,29.6,4.546l3.9-9.755,3.283,9.931a106.022,106.022,0,0,0,32.193-4.722c-2.493-46.361.378-130.56,0-137.066l-24.954-14.684-10.743,39.44-11.386-39.44L854.9,648.144C854.526,654.65,855.857,741.768,853.365,788.129Z" transform="translate(-751.508 -579.346)" fill="#f1f2f2"/>
    <rect id="Rectangle_776" data-name="Rectangle 776" width="15.272" height="8.254" transform="translate(147.428 87.784)" fill="#fff"/>
    <rect id="Rectangle_777" data-name="Rectangle 777" width="4.297" height="3.683" transform="translate(148.489 90.07)" fill="#d1d3d4"/>
    <rect id="Rectangle_778" data-name="Rectangle 778" width="7.704" height="0.537" transform="translate(153.938 90.338)" fill="#d1d3d4"/>
    <rect id="Rectangle_779" data-name="Rectangle 779" width="7.704" height="0.537" transform="translate(153.938 91.644)" fill="#d1d3d4"/>
    <rect id="Rectangle_780" data-name="Rectangle 780" width="7.704" height="0.537" transform="translate(153.938 92.948)" fill="#d1d3d4"/>
    <rect id="Rectangle_781" data-name="Rectangle 781" width="1.611" height="2.214" transform="translate(154.259 86.322)" fill="#f1f2f2"/>
    <path id="Path_4465" data-name="Path 4465" d="M1009.95,722.8l11.958-21.259.939,1.681-12.9,19.578m11.076-22.835-2.846-3.461,5.075-.465-3.791,1.135Z" transform="translate(-874.816 -626.329)" fill="#dedfdf"/>
    <path id="Path_4466" data-name="Path 4466" d="M1023.488,630.91c1.269,1.6-.232,11.969-.232,11.969l-5.075.465,3.9,4.738L1009.95,669.64l8.9-41.108S1022.693,629.908,1023.488,630.91Z" transform="translate(-874.816 -573.167)" fill="#fff"/>
    <path id="Path_4467" data-name="Path 4467" d="M976.887,707.433l-5.253-18.195,1.508,2.153,3.85,15.115Z" transform="translate(-844.643 -620.971)" fill="#aed4e5"/>
    <path id="Path_4468" data-name="Path 4468" d="M999.241,781.43l-2.89-10.012.1-.927Z" transform="translate(-864.107 -684.957)" fill="#535e69"/>
    <path id="Path_4469" data-name="Path 4469" d="M960.776,717.435l-12.458-20.163,4.11-4.28-4.924-2.318,5.126-1.448,0,0,5.253,18.195,2.89,10.012" transform="translate(-825.642 -620.962)" fill="#dedfdf"/>
    <path id="Path_4470" data-name="Path 4470" d="M940.8,632.051c-1.269,1.6,1.134,11.727,1.134,11.727l5.075.465-3.894,4.738,12.09,21.558-9.767-40.865S941.592,631.049,940.8,632.051Z" transform="translate(-820.068 -574.065)" fill="#fff"/>
    <path id="Path_4471" data-name="Path 4471" d="M1065.49,685.279c8.241-21.395,7.481-30.88,5.392-35.067a6.2,6.2,0,0,0-2.514-2.923,6.889,6.889,0,0,1,2.482.535c.087.086,8.4,7.539-4.221,37.895Z" transform="translate(-918.553 -587.938)" fill="#231f20"/>
    <path id="Path_4472" data-name="Path 4472" d="M1057.333,822.368a2.938,2.938,0,1,1-1.673-3.8A2.937,2.937,0,0,1,1057.333,822.368Z" transform="translate(-907.658 -722.656)" fill="#8d8f90"/>
    <path id="Path_4473" data-name="Path 4473" d="M1058.187,823.385a2.633,2.633,0,1,1-1.5-3.409A2.636,2.636,0,0,1,1058.187,823.385Z" transform="translate(-908.795 -723.784)" fill="#bcbec0"/>
    <path id="Path_4474" data-name="Path 4474" d="M1060.414,826.075a1.829,1.829,0,1,1-1.041-2.368A1.831,1.831,0,0,1,1060.414,826.075Z" transform="translate(-911.771 -726.765)" fill="#58595b"/>
    <path id="Path_4475" data-name="Path 4475" d="M910.4,750.59l-4.194-2.022c-3.675-3.188-6.765-15.522-6.893-16.046l.518-.234c.032.126,3.135,12.524,6.626,15.6l4.105,1.97Z" transform="translate(-787.694 -654.872)" fill="#5e5f60"/>
    <path id="Path_4476" data-name="Path 4476" d="M949.133,813.849a.375.375,0,0,1-.18-.036l-1.338-.619a.63.63,0,0,1-.306-.363.992.992,0,0,1-.041-.553c.078-.367.375-.579.639-.457l1.337.619a.635.635,0,0,1,.307.364,1,1,0,0,1,.042.552A.561.561,0,0,1,949.133,813.849Z" transform="translate(-825.438 -717.475)" fill="#bcbec0"/>
    <path id="Path_4477" data-name="Path 4477" d="M917.915,748.707l-.232-.714,3.9-2.358c3.177-3.4,5.067-16.039,5.085-16.167l.541.183c-.079.533-1.961,13.109-5.31,16.638l-.055.044Z" transform="translate(-802.158 -652.652)" fill="#5e5f60"/>
    <path id="Path_4478" data-name="Path 4478" d="M912.424,815.4a.555.555,0,0,1-.5-.448,1,1,0,0,1-.012-.552.635.635,0,0,1,.27-.392l1.271-.746c.249-.147.567.036.68.394a1.012,1.012,0,0,1,.012.555.634.634,0,0,1-.269.391l-1.272.746A.38.38,0,0,1,912.424,815.4Z" transform="translate(-797.582 -718.599)" fill="#bcbec0"/>
    <path id="Path_4479" data-name="Path 4479" d="M911.293,695.568c-.3.015-.566-.317-.588-.744a7.911,7.911,0,0,0-2.88-6.2,5.361,5.361,0,0,0-6.813.363c-1.09.991-2.351,2.908-2.168,6.4.023.429-.206.789-.509.806h0c-.3.014-.564-.319-.587-.744-.173-3.3.768-6.061,2.648-7.772a6.225,6.225,0,0,1,7.913-.427c2.081,1.512,3.325,4.18,3.5,7.511.021.427-.208.789-.509.806Z" transform="translate(-786.44 -618.448)" fill="#231f20"/>
    <path id="Path_4480" data-name="Path 4480" d="M929.333,643.642a1.831,1.831,0,0,0-2.222.91c-1.5,2.917-1.786,8.923-1.784,9l1.218-.045C926.542,653.423,926.314,647.183,929.333,643.642Z" transform="translate(-808.177 -584.994)" fill="#231f20"/>
    <rect id="Rectangle_782" data-name="Rectangle 782" width="21.245" height="23.177" transform="translate(105.767 157.74)" fill="#fff"/>
    <path id="Path_4481" data-name="Path 4481" d="M1173.56,967.037c.04-4.332.089-8.6.144-12.749l0,0c-.057,4.151-.106,8.42-.144,12.752Z" transform="translate(-1003.656 -829.691)" fill="#cecfcf"/>
    <path id="Path_4482" data-name="Path 4482" d="M1100.03,980.99,1115.8,954.3c-.055,4.15-.1,8.417-.144,12.749Z" transform="translate(-945.752 -829.704)" fill="#d4d5d5"/>
    <path id="Path_4483" data-name="Path 4483" d="M1082.345,1087.156l-5.045,11.215h12.656l2.956-11.48Z" transform="translate(-927.853 -934.114)" fill="#fcae88"/>
    <path id="Path_4484" data-name="Path 4484" d="M1141.98,1094.141l1.866-7.251Z" transform="translate(-978.786 -934.114)" fill="#dcc7bd"/>
    <path id="Path_4485" data-name="Path 4485" d="M1106.307,1094.141c-3.694-1.908-7.5-3.84-9.627-4.922l.929-2.064,10.564-.266Z" transform="translate(-943.115 -934.114)" fill="#e49975"/>
    <path id="Path_4486" data-name="Path 4486" d="M1124.675,935.028c-2.9-10.151-31.355,28.086-32.205,32.776a29.667,29.667,0,0,1,12.388,2.7S1130.252,954.547,1124.675,935.028Z" transform="translate(-939.799 -813.182)" fill="#f1f2f2"/>
    <rect id="Rectangle_783" data-name="Rectangle 783" width="21.244" height="23.177" transform="translate(143.201 157.74)" fill="#fff"/>
    <g id="Group_182" data-name="Group 182" transform="translate(7.187 23.59)">
      <path id="Path_3383" data-name="Path 3383" d="M1374,484.861c15,0,18.6-12.452,13.774-31q-.731-2.8-1.715-5.791c-2.643-8.024,2.832-20.355,6.876-21.594-2.167-3.721,2.335-10.53,2.335-10.53s-34.975-22.738-30.463,27.561a47.768,47.768,0,0,1,.134,6.535C1363.8,473.676,1345.773,484.861,1374,484.861Z" transform="translate(-1358.222 -403.682)" fill="#6b2310"/>
      <path id="Path_3384" data-name="Path 3384" d="M1374,646.877c15,0,18.6-12.452,13.774-31-8.3,3.4-16.272.661-22.833-3.82C1363.8,635.692,1345.773,646.877,1374,646.877Z" transform="translate(-1358.222 -565.698)" fill="#501a0c"/>
      <path id="Path_3385" data-name="Path 3385" d="M1452.574,423.356c-.887,2.409-.281,4.85,1.355,5.452s3.68-.862,4.567-3.271.281-4.85-1.355-5.452S1453.461,420.947,1452.574,423.356Z" transform="translate(-1433.856 -411.032)" fill="#be1e2d"/>
      <path id="Path_3386" data-name="Path 3386" d="M1604.528,1720.363s-7.132-3.569-7.274-10.523h-7.414a42.789,42.789,0,0,1,.115,4.467c-.127.77-.875,3.707-.875,3.707S1601.852,1729.307,1604.528,1720.363Z" transform="translate(-1544.085 -1449.52)" fill="#fcae88"/>
      <path id="Path_3387" data-name="Path 3387" d="M1599.24,1749.5l-1.516,2.122s-7.519-3.808-13.651-5.155c-1.758-.386,0,8.494,0,8.494h4.551v-2.122l6.067,2.122h11.529S1607.235,1748.59,1599.24,1749.5Z" transform="translate(-1539.424 -1479)" fill="#414042"/>
      <path id="Path_3388" data-name="Path 3388" d="M1473.4,1746.32h-8.872v4.451h9.237Z" transform="translate(-1443.81 -1478.89)" fill="#b2151b"/>
      <path id="Path_3389" data-name="Path 3389" d="M1472.578,1721.131V1710.39h-6.98s-2.859,8.755-1.892,10.531C1464.766,1722.868,1472.578,1721.131,1472.578,1721.131Z" transform="translate(-1442.986 -1449.963)" fill="#fcae88"/>
      <path id="Path_3390" data-name="Path 3390" d="M1458.472,1746.32v3.528a9.119,9.119,0,0,1,8.872,0v-3.528s3.3,7.395,0,8.533h-8.872C1455.172,1753.715,1458.472,1746.32,1458.472,1746.32Z" transform="translate(-1437.752 -1478.89)" fill="#414042"/>
      <path id="Path_3391" data-name="Path 3391" d="M1440.97,1124.89l4.288,115.15h11.69L1465.779,1139l1.752,101.036h14.115l10.26-115.15Z" transform="translate(-1424.842 -978.578)" fill="#0072a5"/>
      <path id="Path_3392" data-name="Path 3392" d="M1491.9,1124.89l-.9,10.152-49.848-5.21-.185-4.943Z" transform="translate(-1424.834 -978.578)" fill="#05628d"/>
      <path id="Path_3393" data-name="Path 3393" d="M1669.652,814.432l5.444,12.009-9.352,3.285L1661,818.34Z" transform="translate(-1601.988 -728.629)" fill="#bd8366"/>
      <path id="Path_3394" data-name="Path 3394" d="M1628.86,680.64l11.778,26.883-9.714,3.749S1615.745,691.209,1628.86,680.64Z" transform="translate(-1571.814 -620.914)" fill="#0ca2e6"/>
      <path id="Path_3395" data-name="Path 3395" d="M1486.71,739.587h-54.38c.281-31.2,8.494-43.851,6.342-65.023a55.616,55.616,0,0,0-5.9-19.047c-2.81-5.694,18.761-13.872,18.761-13.872h10.213s11.842,5.212,13.187,7.6c.9,1.6,3.424,7.821,6.658,19.431,1.031,3.7-.959,9.711-1.676,11.482C1476.988,687.349,1485.028,722.257,1486.71,739.587Z" transform="translate(-1417.886 -589.52)" fill="#03a9f4"/>
      <path id="Path_3396" data-name="Path 3396" d="M1682,944.382c-1.226-12.63-5.828-34.594-7.1-48.363C1676.175,909.787,1680.776,931.753,1682,944.382Z" transform="translate(-1613.179 -794.315)" fill="#e8e9e9"/>
      <path id="Path_3397" data-name="Path 3397" d="M1673.22,859.9q0-.416.017-.809v0q-.015.393-.017.811Z" transform="translate(-1611.826 -764.586)" fill="#c7ab9d"/>
      <path id="Path_3398" data-name="Path 3398" d="M1489.326,914.663H1435.58c25.8-6.221,38.8-33.707,43.808-47.545,1.072-.3,2.029-.581,2.836-.819C1483.5,880.069,1488.1,902.033,1489.326,914.663Zm-7.63-54.727c.14-.513.211-.8.218-.831q-.015.392-.018.809Z" transform="translate(-1420.503 -764.595)" fill="#0ca2e6"/>
      <path id="Path_3399" data-name="Path 3399" d="M1458.37,816.317q.085-.484.166-.968Q1458.454,815.832,1458.37,816.317Zm1.13-24.5q-.2-1.5-.509-3.055C1459.2,789.8,1459.37,790.814,1459.5,791.813Z" transform="translate(-1438.851 -707.959)" fill="#e8e9e9"/>
      <path id="Path_3400" data-name="Path 3400" d="M1458.37,815.065q.085-.485.166-.968c.365-2.168.684-4.309.932-6.467.46.91.928,1.781,1.4,2.581A16.214,16.214,0,0,1,1458.37,815.065Zm1.218-23.78q-.041-.361-.088-.724c-.131-1-.3-2.017-.509-3.055,3.155-.231,6.438-.3,6.438-.3,0,.05-.064.693-.193,1.756Z" transform="translate(-1438.851 -706.707)" fill="#e1e2e3"/>
      <rect id="Rectangle_767" data-name="Rectangle 767" width="11.608" height="6.275" transform="translate(52.678 75.958)" fill="#fff"/>
      <rect id="Rectangle_768" data-name="Rectangle 768" width="3.267" height="2.8" transform="translate(53.483 77.695)" fill="#d1d3d4"/>
      <rect id="Rectangle_769" data-name="Rectangle 769" width="5.857" height="0.409" transform="translate(57.624 77.9)" fill="#d1d3d4"/>
      <rect id="Rectangle_770" data-name="Rectangle 770" width="5.857" height="0.408" transform="translate(57.624 78.891)" fill="#d1d3d4"/>
      <rect id="Rectangle_771" data-name="Rectangle 771" width="5.857" height="0.409" transform="translate(57.624 79.883)" fill="#d1d3d4"/>
      <path id="Path_3411" data-name="Path 3411" d="M1515.861,842.4s-4.869-2.179-8.141,0a33.468,33.468,0,0,1,1.565,6.7l4.592-.451Z" transform="translate(-1478.583 -750.362)" fill="#fcae88"/>
      <path id="Path_3412" data-name="Path 3412" d="M1677.99,849.111s6.27-3.774,8.658-3.243c1.037.271,4.264,6.486,3.114,7.706-1.9,2.017-10.92,1.883-10.92,1.883Z" transform="translate(-1615.666 -753.897)" fill="#fcae88"/>
      <path id="Path_3413" data-name="Path 3413" d="M1434.57,800.185s5.917,17.439,10.3,20.511c5.553,3.888,39.368-6.648,39.368-6.648l-2.23-5.638-29.88,3.35-5.605-16.5Z" transform="translate(-1419.69 -713.196)" fill="#fcae88"/>
      <path id="Path_3414" data-name="Path 3414" d="M1674.9,894.28h0c.542-.159,1.017-.3,1.417-.421h0C1675.918,893.979,1675.442,894.121,1674.9,894.28Z" transform="translate(-1613.179 -792.576)" fill="#f9bbb6" fill-rule="evenodd"/>
      <path id="Path_3415" data-name="Path 3415" d="M1620.94,902.287c2.855-.727,5.508-1.454,7.681-2.07h0C1626.448,900.834,1623.8,901.56,1620.94,902.287Z" transform="translate(-1569.735 -797.694)" fill="#f3b5b1"/>
      <path id="Path_3416" data-name="Path 3416" d="M1674.9,896.018h0Z" transform="translate(-1613.179 -794.314)" fill="#f0b2ae"/>
      <path id="Path_3417" data-name="Path 3417" d="M1660.35,896.837h0c1.072-.3,2.029-.581,2.836-.818h0C1662.379,896.256,1661.422,896.533,1660.35,896.837Z" transform="translate(-1601.464 -794.314)" fill="#edafab"/>
      <path id="Path_3418" data-name="Path 3418" d="M1682.146,877.237h0c.858-.257,1.361-.413,1.411-.429C1683.506,876.824,1683,876.98,1682.146,877.237Zm1.413-.43h0Zm0,0h0Zm0,0-1.421-3.593,4.676,1.112Z" transform="translate(-1619.008 -775.954)" fill="#f89a87"/>
      <path id="Path_3419" data-name="Path 3419" d="M1549.577,875.261l-13.717-6.983,22.408-2.513,6.1,1.451,1.421,3.593h0c-.051.016-.553.172-1.411.429-.4.12-.875.261-1.417.421-.807.237-1.764.515-2.836.818-2.173.617-4.826,1.343-7.681,2.07C1551.5,874.789,1550.548,875.027,1549.577,875.261Z" transform="translate(-1501.238 -769.958)" fill="#f89a87"/>
      <path id="Path_3420" data-name="Path 3420" d="M1435.287,812.585c-.423-1.164-.68-1.915-.713-2.014.033.1.29.85.715,2.014Zm-.717-2.026,5.857-2.411h0Z" transform="translate(-1419.69 -723.57)" fill="#f9b6b2"/>
      <path id="Path_3421" data-name="Path 3421" d="M1472.416,800.252l-1.7-4.991-.452.186h0l.452-.186,1.7,4.991Zm-7.8-2.479h0Z" transform="translate(-1443.883 -713.195)" fill="#f4b1ad"/>
      <path id="Path_3422" data-name="Path 3422" d="M1464.62,798.539h0l5.648-2.326h0Z" transform="translate(-1443.883 -713.961)" fill="#eeaca8"/>
      <path id="Path_3423" data-name="Path 3423" d="M1434.574,820.533h0Zm0,0s0,0,0-.006S1434.572,820.528,1434.572,820.531Zm0-.006h0Zm0,0h0Z" transform="translate(-1419.69 -733.533)" fill="#f9b6b2"/>
      <path id="Path_3424" data-name="Path 3424" d="M1435.289,802.211c-.425-1.163-.682-1.915-.715-2.014h0s0,0,0-.006h0l5.857-2.411,5.648-2.326.452-.186,1.7,4.991Z" transform="translate(-1419.69 -713.196)" fill="#f89987"/>
      <path id="Path_3425" data-name="Path 3425" d="M1577.3,854.04l-36.817-7.645-2.181,6.153S1583.106,875.167,1577.3,854.04Z" transform="translate(-1503.203 -754.363)" fill="#fcae88"/>
      <path id="Path_3426" data-name="Path 3426" d="M1436.974,706.853l-16.5,5.805c-2.277-12.347-1.509-25.3,4.455-28.739C1429.8,681.116,1434.208,695.128,1436.974,706.853Z" transform="translate(-1407.392 -623.262)" fill="#03a9f4"/>
      <path id="Path_3427" data-name="Path 3427" d="M1541.506,591.592v23.457L1531.4,601.737V591.592Z" transform="translate(-1497.647 -549.221)" fill="#fcae88"/>
      <path id="Path_3428" data-name="Path 3428" d="M1541.506,591.592v8.5L1531.4,597.08v-5.488Z" transform="translate(-1497.647 -549.221)" fill="#f58d86"/>
      <path id="Path_3429" data-name="Path 3429" d="M1460.51,394.073a19.874,19.874,0,1,0,19.874-19.875A19.874,19.874,0,0,0,1460.51,394.073Z" transform="translate(-1440.574 -374.198)" fill="#8e2e15"/>
      <path id="Path_3430" data-name="Path 3430" d="M1471.711,418.962a4.96,4.96,0,0,0,.14,1.076,4.07,4.07,0,0,0,2.1,2.834,2.142,2.142,0,0,0,1.035.186c1.561,9.4,6.6,16.221,15.945,16.159a14.983,14.983,0,0,0,7.422-1.852c6.172-3.5,8.8-11.611,8.741-21.027a31.252,31.252,0,0,0-.372-4.637c-1.6-10.336-8.225-18.076-16.1-18.023-8.786.055-15.881,9.782-16.159,21.914a1.962,1.962,0,0,0-.875.041,1.551,1.551,0,0,0-.289.108A3.3,3.3,0,0,0,1471.711,418.962Z" transform="translate(-1449.59 -389.88)" fill="#fcae88"/>
      <path id="Path_3433" data-name="Path 3433" d="M1504.655,586.049a15.778,15.778,0,0,1-6.475-7.682,15.8,15.8,0,0,0,6.475,7.681Z" transform="translate(-1470.902 -538.575)" fill="#f9bbb6"/>
      <path id="Path_3434" data-name="Path 3434" d="M1531.65,617.92c-.084-.046-.168-.093-.25-.141h0C1531.482,617.827,1531.566,617.874,1531.65,617.92Z" transform="translate(-1497.647 -570.304)" fill="#f58d86"/>
      <path id="Path_3435" data-name="Path 3435" d="M1613.79,612.729c.187-.131.372-.267.552-.407A2.107,2.107,0,0,1,1613.79,612.729Z" transform="translate(-1563.979 -565.911)" fill="#f9bbb6"/>
      <path id="Path_3436" data-name="Path 3436" d="M1504.329,560.58a14.821,14.821,0,0,1-7.2-1.72c-.084-.046-.168-.093-.249-.141a15.8,15.8,0,0,1-6.475-7.681,28.214,28.214,0,0,1-1.883-6.616c3.947,12.627,10.694,15.6,16.183,15.6a18.656,18.656,0,0,0,8.786-2.371l0,0c-.179.14-.364.276-.551.407a4.476,4.476,0,0,0-1.052.665,14.989,14.989,0,0,1-7.424,1.851Z" transform="translate(-1463.125 -511.245)" fill="#f89a87"/>
      <path id="Path_3437" data-name="Path 3437" d="M1511.839,385.292s-15.1,16.163-26.158,17.961C1485.1,401.038,1489.515,363.887,1511.839,385.292Z" transform="translate(-1460.801 -377.799)" fill="#8e2e15"/>
      <path id="Path_3438" data-name="Path 3438" d="M1613.96,410.932s4.34,14.438,8.176,19.078C1622.091,428.465,1621.265,401.668,1613.96,410.932Z" transform="translate(-1564.116 -402.209)" fill="#8e2e15"/>
      <path id="Path_3461" data-name="Path 3461" d="M1537.74,491.008c0-.046,0-.091,0-.134h.22C1537.89,490.917,1537.814,490.961,1537.74,491.008Z" transform="translate(-1502.751 -468.133)" fill="#bd8c7f"/>
    </g>
  </g>
</svg>
