<svg xmlns="http://www.w3.org/2000/svg" width="63.885" height="33.556" viewBox="0 0 63.885 33.556">
  <g id="Group_133" data-name="Group 133" transform="translate(0)">
    <rect id="Rectangle_629" data-name="Rectangle 629" width="7.577" height="19.484" rx="3.789" transform="translate(54.143 14.072)" fill="#03a9f4"/>
    <path id="Union_2" data-name="Union 2" d="M3.247,8.8V7.719H2.213a2.213,2.213,0,1,1,0-4.425H3.247V2.182a2.182,2.182,0,1,1,4.363,0V3.294h1a2.213,2.213,0,0,1,0,4.425h-1V8.8a2.182,2.182,0,0,1-4.363,0Z" transform="translate(53.061 0)" fill="red"/>
    <path id="Union_1" data-name="Union 1" d="M40.013,29.866,30.668,13.68l-1.683,1.682a5.662,5.662,0,0,1-7.857,0L19.446,13.68,10.1,29.866A5.412,5.412,0,0,1,.726,24.454L13.174,2.893A5.407,5.407,0,0,1,17.327.213a5.412,5.412,0,0,1,5.333,1.372l2.4,2.4,2.4-2.4A5.412,5.412,0,0,1,32.787.213a5.406,5.406,0,0,1,4.152,2.68L49.388,24.454a5.412,5.412,0,1,1-9.374,5.412Z" transform="translate(0 0.65)" fill="#03a9f4"/>
  </g>
</svg>
