<svg xmlns="http://www.w3.org/2000/svg" width="208" height="162" viewBox="0 0 208 162">
  <g id="Group_1915" data-name="Group 1915" transform="translate(-1372 -760)">
    <rect id="Rectangle_1088" data-name="Rectangle 1088" width="208" height="162" rx="30" transform="translate(1372 760)" fill="#f2f3f6"/>
    <g id="Group_706" data-name="Group 706" transform="translate(1395.465 776.814)">
      <path id="Path_11941" data-name="Path 11941" d="M234.466,309.9a4.427,4.427,0,0,0-4.421,4.421V346.7a4.426,4.426,0,0,0,4.421,4.421h48.751a4.424,4.424,0,0,0,4.42-4.421V314.321a4.425,4.425,0,0,0-4.42-4.421Zm48.751,43.316H234.466a6.527,6.527,0,0,1-6.52-6.52V314.321a6.529,6.529,0,0,1,6.52-6.522h48.751a6.529,6.529,0,0,1,6.521,6.522V346.7A6.527,6.527,0,0,1,283.218,353.216Z" transform="translate(-227.946 -307.799)" fill="#03a9f4"/>
      <path id="Path_11942" data-name="Path 11942" d="M247.172,343.3H235.805a1.05,1.05,0,1,1,0-2.1h11.366a2.24,2.24,0,0,0,0-4.479,1.05,1.05,0,1,1,0-2.1,4.34,4.34,0,0,1,0,8.679Z" transform="translate(-223.761 -291.308)" fill="#03a9f4"/>
      <path id="Path_11943" data-name="Path 11943" d="M264.733,343.3H253.367a4.34,4.34,0,0,1,0-8.679,1.05,1.05,0,1,1,0,2.1,2.24,2.24,0,0,0,0,4.479h11.366a1.05,1.05,0,1,1,0,2.1Z" transform="translate(-214.986 -291.308)" fill="#03a9f4"/>
      <path id="Path_11945" data-name="Path 11945" d="M271.827,314.112h-28.66a1.05,1.05,0,1,1,0-2.1h28.66a1.05,1.05,0,0,1,0,2.1Z" transform="translate(-219.235 -305.21)" fill="#03a9f4"/>
      <path id="Path_11946" data-name="Path 11946" d="M271.827,317.05h-28.66a1.05,1.05,0,1,1,0-2.1h28.66a1.05,1.05,0,0,1,0,2.1Z" transform="translate(-219.235 -303.404)" fill="#03a9f4"/>
      <path id="Path_11947" data-name="Path 11947" d="M255.175,319.987H243.166a1.05,1.05,0,1,1,0-2.1h12.009a1.05,1.05,0,1,1,0,2.1Z" transform="translate(-219.235 -301.598)" fill="#03a9f4"/>
      <path id="Path_11948" data-name="Path 11948" d="M235.02,326.05h-1.6a1.05,1.05,0,1,1,0-2.1h1.6a1.05,1.05,0,0,1,0,2.1Z" transform="translate(-225.23 -297.871)" fill="#03a9f4"/>
      <path id="Path_11949" data-name="Path 11949" d="M238.412,326.05h-1.605a1.05,1.05,0,0,1,0-2.1h1.605a1.05,1.05,0,0,1,0,2.1Z" transform="translate(-223.144 -297.871)" fill="#03a9f4"/>
      <path id="Path_11950" data-name="Path 11950" d="M241.8,326.05h-1.6a1.05,1.05,0,0,1,0-2.1h1.6a1.05,1.05,0,1,1,0,2.1Z" transform="translate(-221.058 -297.871)" fill="#03a9f4"/>
      <path id="Path_11951" data-name="Path 11951" d="M245.194,326.05h-1.6a1.05,1.05,0,1,1,0-2.1h1.6a1.05,1.05,0,0,1,0,2.1Z" transform="translate(-218.974 -297.871)" fill="#03a9f4"/>
      <path id="Path_11952" data-name="Path 11952" d="M248.585,326.05h-1.6a1.05,1.05,0,0,1,0-2.1h1.6a1.05,1.05,0,1,1,0,2.1Z" transform="translate(-216.889 -297.871)" fill="#03a9f4"/>
      <path id="Path_11953" data-name="Path 11953" d="M255.369,326.05h-1.6a1.05,1.05,0,0,1,0-2.1h1.6a1.05,1.05,0,0,1,0,2.1Z" transform="translate(-212.719 -297.871)" fill="#03a9f4"/>
      <path id="Path_11954" data-name="Path 11954" d="M258.759,326.05h-1.6a1.05,1.05,0,0,1,0-2.1h1.6a1.05,1.05,0,1,1,0,2.1Z" transform="translate(-210.633 -297.871)" fill="#03a9f4"/>
      <path id="Path_11955" data-name="Path 11955" d="M262.152,326.05h-1.6a1.05,1.05,0,1,1,0-2.1h1.6a1.05,1.05,0,0,1,0,2.1Z" transform="translate(-208.549 -297.871)" fill="#03a9f4"/>
      <path id="Path_11956" data-name="Path 11956" d="M251.977,326.05h-1.6a1.05,1.05,0,1,1,0-2.1h1.6a1.05,1.05,0,0,1,0,2.1Z" transform="translate(-214.804 -297.871)" fill="#03a9f4"/>
      <path id="Path_11957" data-name="Path 11957" d="M267.306,335.758c-1.169,0-1.849-1.085-2.453-2.048-.554-.885-1.127-1.8-1.872-1.863-.275-.031-.475.076-.951.4a4,4,0,0,1-2.785.883,5.38,5.38,0,0,1-1.86-.488,2.314,2.314,0,0,0-1.418-.263,1.942,1.942,0,0,0-.654.22,2.04,2.04,0,0,1-1.374.247c-1.394-.25-1.951-1.621-2.359-2.621-.04-.1-.086-.21-.134-.323-.2.357-.43.836-.6,1.2-.748,1.576-1.6,3.367-3.173,3.373a2.726,2.726,0,0,1-2.151-1.486c-.433-.6-.723-.969-1.127-1.011-.233-.024-.35.042-.751.316a3.124,3.124,0,0,1-2.2.694,3.661,3.661,0,0,1-2.417-1.458c-.438-.486-.646-.685-.933-.691-.1,0-.115,0-.476.216a9.261,9.261,0,0,1-1.534.785,11.348,11.348,0,0,1-2.97.743,1.05,1.05,0,1,1-.229-2.088,9.157,9.157,0,0,0,2.416-.6,7.47,7.47,0,0,0,1.221-.625,2.737,2.737,0,0,1,1.56-.528,3.344,3.344,0,0,1,2.508,1.387c.421.468.678.735,1.053.77.262.031.413-.06.812-.334a3.041,3.041,0,0,1,2.162-.673,3.726,3.726,0,0,1,2.606,1.873,3.2,3.2,0,0,0,.525.628,11.81,11.81,0,0,0,1.2-2.191c.715-1.507,1.419-2.931,2.724-2.8,1.067.1,1.486,1.125,1.854,2.028.171.42.53,1.3.788,1.347-.032-.006.013-.034.065-.061a4.027,4.027,0,0,1,1.268-.415,4.308,4.308,0,0,1,2.546.4,3.432,3.432,0,0,0,1.177.331,2.2,2.2,0,0,0,1.484-.525,3.375,3.375,0,0,1,2.312-.752c1.784.153,2.758,1.705,3.468,2.839a7.88,7.88,0,0,0,.691.995,13.366,13.366,0,0,0,1.427-3.457c.62-1.976,1.032-3.284,2.257-3.131.946.115,1.148,1.074,1.281,1.707a3.173,3.173,0,0,0,.342,1.056c-.029-.044.14-.144.266-.22a3.728,3.728,0,0,1,2.372-.664,3.935,3.935,0,0,1,1.809.657,3.435,3.435,0,0,0,1.469.559,4.177,4.177,0,0,0,1.08,0,1.049,1.049,0,0,1,.263,2.081,6.284,6.284,0,0,1-1.615,0,5.5,5.5,0,0,1-2.269-.835,2,2,0,0,0-.911-.371,1.78,1.78,0,0,0-1.122.375,2.264,2.264,0,0,1-2.152.357,2.16,2.16,0,0,1-1.063-.966c-.754,2.4-1.529,4.862-3.291,5.012C267.413,335.754,267.36,335.758,267.306,335.758Z" transform="translate(-225.486 -296.002)" fill="#03a9f4"/>
      <g id="Group_704" data-name="Group 704" transform="translate(8.346 6.801)">
        <path id="Path_11970" data-name="Path 11970" d="M200.684,509.4a1.482,1.482,0,0,1,.649-.294l-.007.087Zm4.832.017-.007.04-.819-.263-.009-.109A1.916,1.916,0,0,1,205.516,509.415Zm-5.694,4.458a.3.3,0,1,1,.3-.3A.3.3,0,0,1,199.822,513.873Zm1.568-5.437a2.3,2.3,0,0,0-1.809,1.316l-1.478.475a1.964,1.964,0,0,0-1.377,1.862l-.323,3.179a.325.325,0,0,0,.291.358l.034,0a.328.328,0,0,0,.325-.294l.325-3.195c0-.01,0-.022,0-.033a1.316,1.316,0,0,1,.921-1.258l1.2-.384v2.21a.955.955,0,1,0,.652,0v-2.419l1.583-.509a.326.326,0,0,0,.226-.283l.121-1.415a1.067,1.067,0,0,0-.061-.363,2.267,2.267,0,0,1-.461-.833l-.038-.3a1.915,1.915,0,0,0-.189-.622l-.037-.075a1.292,1.292,0,0,1-.135-.574v-1.241a1.9,1.9,0,1,1,3.8,0v1.185a1.286,1.286,0,0,1-.175.648,1.925,1.925,0,0,0-.248.733l-.031.246a2.218,2.218,0,0,1-.487.862.673.673,0,0,0-.079.334l.121,1.415a.326.326,0,0,0,.226.283l1.115.359-.427,2.5,0,.01a1.265,1.265,0,0,0,.547,1.225.327.327,0,0,0,.453-.087.326.326,0,0,0-.087-.453.619.619,0,0,1-.267-.592l.411-2.4.248.08.7,2.276a.544.544,0,0,1-.267.616l-.029.018a.326.326,0,0,0,.178.6.321.321,0,0,0,.178-.052l.028-.019a1.184,1.184,0,0,0,.535-1.356l-.567-1.84.681.22a1.313,1.313,0,0,1,.921,1.257.3.3,0,0,0,0,.033l.325,3.195a.328.328,0,0,0,.325.294l.033,0a.326.326,0,0,0,.292-.358l-.324-3.179a1.964,1.964,0,0,0-1.374-1.862l-1.122-.36-.006-.013a2.887,2.887,0,0,0-2.163-1.436l-.033-.375a2.624,2.624,0,0,0,.559-1.109l.031-.246a1.285,1.285,0,0,1,.164-.486,1.932,1.932,0,0,0,.264-.977v-1.185a2.553,2.553,0,1,0-5.105,0v1.241a1.946,1.946,0,0,0,.2.867l.036.075a1.273,1.273,0,0,1,.126.412l.038.3a2.625,2.625,0,0,0,.518,1.056h0Z" transform="translate(-196.402 -501.487)" fill="#03a9f4" stroke="#03a9f4" stroke-width="1.5"/>
      </g>
    </g>
    <g id="_322632" data-name="322632" transform="translate(1500.491 776.814)">
      <g id="Group_740" data-name="Group 740" transform="translate(8.235 30.838)">
        <path id="Path_12001" data-name="Path 12001" d="M906.892,1042.889l-3.1,3.1-6.568-6.568a2.191,2.191,0,0,1,3.1-3.1Z" transform="translate(-896.583 -1035.679)" fill="#f2f3f6"/>
      </g>
      <g id="Group_741" data-name="Group 741" transform="translate(7.197 29.801)">
        <path id="Path_12002" data-name="Path 12002" d="M893.976,1031.926a1.152,1.152,0,0,0-.814,1.967l5.833,5.833,1.63-1.63-5.833-5.834A1.148,1.148,0,0,0,893.976,1031.926ZM899,1042.665l-7.3-7.3a3.23,3.23,0,1,1,4.568-4.568l7.3,7.3Z" transform="translate(-890.746 -1029.849)" fill="#e0e1e9"/>
      </g>
      <g id="Group_742" data-name="Group 742" transform="translate(4.948 42.243)">
        <path id="Path_12003" data-name="Path 12003" d="M888.417,1106.985l-3.1,3.1-6.568-6.568a2.191,2.191,0,0,1,3.1-3.1Z" transform="translate(-878.108 -1099.775)" fill="#f2f3f6"/>
      </g>
      <g id="Group_743" data-name="Group 743" transform="translate(3.91 41.205)">
        <path id="Path_12004" data-name="Path 12004" d="M875.5,1096.016a1.152,1.152,0,0,0-.814,1.968l5.833,5.833,1.63-1.63-5.833-5.833A1.146,1.146,0,0,0,875.5,1096.016Zm5.019,10.74-7.3-7.3a3.23,3.23,0,1,1,4.568-4.568l7.3,7.3Z" transform="translate(-872.271 -1093.938)" fill="#e0e1e9"/>
      </g>
      <g id="Group_744" data-name="Group 744" transform="translate(6.984 21.737)">
        <path id="Path_12005" data-name="Path 12005" d="M912.021,997.092l-17.467,26.63a1.585,1.585,0,0,1-2.446.252l-2.091-2.091a1.584,1.584,0,0,1-.408-1.541l9.761-35.566a.339.339,0,0,1,.567-.15l12.04,12.039A.341.341,0,0,1,912.021,997.092Z" transform="translate(-889.552 -984.527)" fill="#f2f3f6"/>
      </g>
      <g id="Group_745" data-name="Group 745" transform="translate(5.946 20.698)">
        <path id="Path_12006" data-name="Path 12006" d="M906.355,991.724h0v0Zm-11.1-10.311-9.443,34.405a.547.547,0,0,0,.141.531l2.091,2.091a.547.547,0,0,0,.844-.087L906.043,992.2Zm-6.829,39.265a2.613,2.613,0,0,1-1.852-.768l-2.091-2.092a2.631,2.631,0,0,1-.674-2.55l9.761-35.566a1.378,1.378,0,0,1,2.3-.61l12.04,12.04a1.383,1.383,0,0,1,.179,1.729h0l-17.466,26.631a2.615,2.615,0,0,1-1.926,1.172C888.61,1020.674,888.52,1020.679,888.429,1020.679Z" transform="translate(-883.718 -978.69)" fill="#e0e1e9"/>
      </g>
      <g id="Group_746" data-name="Group 746" transform="translate(32.541 6.532)">
        <path id="Path_12007" data-name="Path 12007" d="M1040.391,909.388l3.1-3.1-6.567-6.568a2.192,2.192,0,0,0-3.1,3.1Z" transform="translate(-1033.182 -899.079)" fill="#f2f3f6"/>
      </g>
      <g id="Group_747" data-name="Group 747" transform="translate(31.503 5.495)">
        <path id="Path_12008" data-name="Path 12008" d="M1030.579,895.326a1.152,1.152,0,0,0-.815,1.967l5.833,5.833,1.631-1.63-5.833-5.833A1.15,1.15,0,0,0,1030.579,895.326Zm5.018,10.739-7.3-7.3a3.23,3.23,0,0,1,4.568-4.569l7.3,7.3Z" transform="translate(-1027.35 -893.25)" fill="#e0e1e9"/>
      </g>
      <g id="Group_748" data-name="Group 748" transform="translate(43.946 3.245)">
        <path id="Path_12009" data-name="Path 12009" d="M1104.489,890.913l3.1-3.1-6.568-6.568a2.191,2.191,0,0,0-3.1,3.1Z" transform="translate(-1097.279 -880.604)" fill="#f2f3f6"/>
      </g>
      <g id="Group_749" data-name="Group 749" transform="translate(42.909 2.208)">
        <path id="Path_12010" data-name="Path 12010" d="M1094.679,876.851a1.152,1.152,0,0,0-.816,1.967l5.834,5.833,1.63-1.63-5.833-5.833A1.149,1.149,0,0,0,1094.679,876.851Zm5.019,10.738-7.3-7.3a3.23,3.23,0,0,1,4.568-4.568l7.3,7.3Z" transform="translate(-1091.45 -874.775)" fill="#e0e1e9"/>
      </g>
      <g id="Group_750" data-name="Group 750" transform="translate(23.439 5.281)">
        <path id="Path_12011" data-name="Path 12011" d="M994.594,914.517l26.631-17.467a1.585,1.585,0,0,0,.252-2.446l-2.091-2.092a1.584,1.584,0,0,0-1.541-.408l-35.566,9.762a.339.339,0,0,0-.151.566l12.04,12.04A.339.339,0,0,0,994.594,914.517Z" transform="translate(-982.029 -892.048)" fill="#f2f3f6"/>
      </g>
      <g id="Group_751" data-name="Group 751" transform="translate(22.401 4.243)">
        <path id="Path_12012" data-name="Path 12012" d="M978.919,897.751,989.7,908.536l26.154-17.154a.545.545,0,0,0,.087-.842l-2.091-2.091a.55.55,0,0,0-.532-.141Zm10.311,11.1h0Zm.383,1.963a1.38,1.38,0,0,1-.977-.4L976.6,898.368a1.377,1.377,0,0,1,.611-2.3l35.563-9.762a2.63,2.63,0,0,1,2.551.675l2.091,2.091a2.625,2.625,0,0,1-.417,4.049l-26.633,17.467A1.374,1.374,0,0,1,989.613,910.81Z" transform="translate(-976.194 -886.21)" fill="#e0e1e9"/>
      </g>
      <g id="Group_752" data-name="Group 752" transform="translate(1.038 1.039)">
        <path id="Path_12013" data-name="Path 12013" d="M861.328,868.47A3.811,3.811,0,0,0,856.4,873.4a43.864,43.864,0,0,0,11.1,17.045l6.67,6.67,28.422,23.739a18.657,18.657,0,0,0,7.375,3.766,2.125,2.125,0,0,0,2.582-2.582,18.659,18.659,0,0,0-3.766-7.375l-23.74-28.422-6.67-6.67A43.862,43.862,0,0,0,861.328,868.47Z" transform="translate(-856.134 -868.205)" fill="#f2f3f6"/>
      </g>
      <g id="Group_753" data-name="Group 753" transform="translate(0 0)">
        <path id="Path_12014" data-name="Path 12014" d="M870.073,891.546l28.388,23.71a17.737,17.737,0,0,0,6.964,3.557,1.087,1.087,0,0,0,1.32-1.32,17.72,17.72,0,0,0-3.557-6.965l-23.709-28.387-6.636-6.637a43.022,43.022,0,0,0-16.684-10.864,2.771,2.771,0,0,0-3.585,3.585,43.006,43.006,0,0,0,10.864,16.684Zm35.63,29.379a3.228,3.228,0,0,1-.788-.1,19.838,19.838,0,0,1-7.787-3.976l-28.491-23.8-6.67-6.67a44.869,44.869,0,0,1-11.333-17.405,4.85,4.85,0,0,1,6.272-6.272,44.865,44.865,0,0,1,17.405,11.334l6.733,6.739,23.74,28.422a19.819,19.819,0,0,1,3.975,7.786,3.167,3.167,0,0,1-3.056,3.944Z" transform="translate(-850.3 -862.366)" fill="#e0e1e9"/>
      </g>
      <g id="Group_754" data-name="Group 754" transform="translate(41.924 41.925)">
        <path id="Path_12015" data-name="Path 12015" d="M1106.922,1102.846l-9.115,6.57a2.01,2.01,0,0,0-.463.463l-6.57,9.115a.831.831,0,0,1-1.261.1l-2.424-2.424a4,4,0,0,1-1.02-3.921l2.935-10.36a1.905,1.905,0,0,1,1.314-1.314l10.36-2.935a4,4,0,0,1,3.921,1.02l2.424,2.424A.831.831,0,0,1,1106.922,1102.846Z" transform="translate(-1085.916 -1097.988)" fill="#f2f3f6"/>
      </g>
      <g id="Group_755" data-name="Group 755" transform="translate(40.886 40.888)">
        <path id="Path_12016" data-name="Path 12016" d="M1096.969,1094.233a2.937,2.937,0,0,0-.806.112l-10.36,2.935a.861.861,0,0,0-.6.6l-2.935,10.359a2.965,2.965,0,0,0,.756,2.9l2.25,2.251,6.426-8.917a3.09,3.09,0,0,1,.7-.7l8.917-6.426-2.251-2.251A2.967,2.967,0,0,0,1096.969,1094.233Zm-11.668,21.349a1.868,1.868,0,0,1-1.321-.547l-2.424-2.425a5.043,5.043,0,0,1-1.286-4.939l2.935-10.36a2.928,2.928,0,0,1,2.031-2.031l10.36-2.935a5.052,5.052,0,0,1,4.939,1.286l2.424,2.424a1.87,1.87,0,0,1-.229,2.839l-9.115,6.57a1,1,0,0,0-.229.228l-6.569,9.115a1.862,1.862,0,0,1-1.366.77C1085.4,1115.58,1085.351,1115.582,1085.3,1115.582Z" transform="translate(-1080.079 -1092.156)" fill="#e0e1e9"/>
      </g>
    </g>
  </g>
</svg>
