<svg id="_322632-P9K3W6-323" data-name="322632-P9K3W6-323" xmlns="http://www.w3.org/2000/svg" width="130.861" height="205.521" viewBox="0 0 130.861 205.521">
  <g id="Group_707" data-name="Group 707" transform="translate(47.366 41.541)">
    <path id="Path_11972" data-name="Path 11972" d="M444.827,400.854h-8.691v-8.5a.317.317,0,0,0-.318-.317H417.711a.317.317,0,0,0-.318.317v8.5H408.7v-8.5a9.02,9.02,0,0,1,9.011-9.009h18.107a9.019,9.019,0,0,1,9.009,9.009Z" transform="translate(-408.7 -383.346)" fill="#fff"/>
  </g>
  <g id="Group_708" data-name="Group 708" transform="translate(44.568 38.741)">
    <path id="Path_11973" data-name="Path 11973" d="M435.9,395.015h3.093v-5.7a6.217,6.217,0,0,0-6.211-6.211H414.671a6.218,6.218,0,0,0-6.211,6.211v5.7h3.093v-5.7a3.121,3.121,0,0,1,3.117-3.115h18.107a3.12,3.12,0,0,1,3.117,3.115Zm8.691,5.6H430.3V391.8H417.152v8.817H402.863v-11.3A11.822,11.822,0,0,1,414.671,377.5h18.107a11.823,11.823,0,0,1,11.809,11.809Z" transform="translate(-402.863 -377.504)" fill="#73797a"/>
  </g>
  <g id="Group_709" data-name="Group 709" transform="translate(2.798 55.76)">
    <path id="Path_11974" data-name="Path 11974" d="M424.131,559.976H332.56a16.847,16.847,0,0,1-16.847-16.845V429.858a16.846,16.846,0,0,1,16.847-16.845h91.571a16.845,16.845,0,0,1,16.845,16.845V543.131A16.847,16.847,0,0,1,424.131,559.976Z" transform="translate(-315.713 -413.013)" fill="#03a9f4"/>
  </g>
  <g id="Group_710" data-name="Group 710" transform="translate(0 52.962)">
    <path id="Path_11975" data-name="Path 11975" d="M329.518,412.771a14.062,14.062,0,0,0-14.045,14.047V540.092a14.063,14.063,0,0,0,14.045,14.047h91.573a14.065,14.065,0,0,0,14.047-14.047V426.818a14.063,14.063,0,0,0-14.047-14.047Zm91.573,146.964H329.518a19.664,19.664,0,0,1-19.643-19.643V426.818a19.664,19.664,0,0,1,19.643-19.643h91.573a19.666,19.666,0,0,1,19.645,19.643V540.092A19.666,19.666,0,0,1,421.091,559.735Z" transform="translate(-309.875 -407.175)" fill="#73797a"/>
  </g>
  <g id="Group_711" data-name="Group 711" transform="translate(2.798 55.76)">
    <path id="Path_11976" data-name="Path 11976" d="M336.969,413.013h-4.41a16.846,16.846,0,0,0-16.847,16.845v4.41A21.255,21.255,0,0,0,336.969,413.013Z" transform="translate(-315.713 -413.013)" fill="#abc4cf"/>
  </g>
  <g id="Group_712" data-name="Group 712" transform="translate(0 52.962)">
    <path id="Path_11977" data-name="Path 11977" d="M329.518,412.771a14.062,14.062,0,0,0-14.045,14.047v1.4a18.5,18.5,0,0,0,15.445-15.447Zm-16.843,21.257h-2.8v-7.209a19.664,19.664,0,0,1,19.643-19.643h7.209v2.8A24.082,24.082,0,0,1,312.675,434.028Z" transform="translate(-309.875 -407.175)" fill="#abc4cf"/>
  </g>
  <g id="Group_713" data-name="Group 713" transform="translate(106.807 55.76)">
    <path id="Path_11978" data-name="Path 11978" d="M553.972,434.268v-4.41a16.845,16.845,0,0,0-16.845-16.845h-4.409A21.255,21.255,0,0,0,553.972,434.268Z" transform="translate(-532.717 -413.013)" fill="#abc4cf"/>
  </g>
  <g id="Group_714" data-name="Group 714" transform="translate(104.007 52.962)">
    <path id="Path_11979" data-name="Path 11979" d="M532.683,412.771a18.507,18.507,0,0,0,15.449,15.447v-1.4a14.063,14.063,0,0,0-14.047-14.047Zm21.047,21.257h-2.8a24.083,24.083,0,0,1-24.057-24.055v-2.8h7.209a19.666,19.666,0,0,1,19.645,19.643Z" transform="translate(-526.875 -407.175)" fill="#abc4cf"/>
  </g>
  <g id="Group_715" data-name="Group 715" transform="translate(2.798 181.469)">
    <path id="Path_11980" data-name="Path 11980" d="M315.713,675.292V679.7a16.847,16.847,0,0,0,16.847,16.845h4.41A21.255,21.255,0,0,0,315.713,675.292Z" transform="translate(-315.713 -675.292)" fill="#abc4cf"/>
  </g>
  <g id="Group_716" data-name="Group 716" transform="translate(0 178.669)">
    <path id="Path_11981" data-name="Path 11981" d="M315.473,675.26v1.4a14.063,14.063,0,0,0,14.045,14.047h1.4A18.5,18.5,0,0,0,315.473,675.26ZM336.728,696.3h-7.209a19.664,19.664,0,0,1-19.643-19.643v-7.209h2.8a24.082,24.082,0,0,1,24.053,24.055Z" transform="translate(-309.875 -669.451)" fill="#abc4cf"/>
  </g>
  <g id="Group_717" data-name="Group 717" transform="translate(106.807 181.469)">
    <path id="Path_11982" data-name="Path 11982" d="M553.972,679.7v-4.409a21.255,21.255,0,0,0-21.255,21.255h4.409A16.846,16.846,0,0,0,553.972,679.7Z" transform="translate(-532.717 -675.292)" fill="#abc4cf"/>
  </g>
  <g id="Group_718" data-name="Group 718" transform="translate(104.007 178.669)">
    <path id="Path_11983" data-name="Path 11983" d="M532.683,690.707h1.4a14.065,14.065,0,0,0,14.047-14.047v-1.4A18.5,18.5,0,0,0,532.683,690.707Zm1.4,5.6h-7.209v-2.8a24.083,24.083,0,0,1,24.057-24.055h2.8v7.209A19.666,19.666,0,0,1,534.085,696.3Z" transform="translate(-526.875 -669.451)" fill="#abc4cf"/>
  </g>
  <g id="Group_719" data-name="Group 719" transform="translate(27.989 113.008)">
    <rect id="Rectangle_1089" data-name="Rectangle 1089" width="18.215" height="89.716" fill="#515556"/>
  </g>
  <g id="Group_720" data-name="Group 720" transform="translate(25.191 110.208)">
    <path id="Path_11984" data-name="Path 11984" d="M368.031,616.331h12.617v-84.12H368.031Zm18.213,5.6H362.434V526.613h23.811Z" transform="translate(-362.434 -526.613)" fill="#73797a"/>
  </g>
  <g id="Group_721" data-name="Group 721" transform="translate(27.989 55.76)">
    <path id="Path_11985" data-name="Path 11985" d="M377.38,500.194a9.107,9.107,0,0,1-9.109-9.107V413.013h18.215v78.075A9.106,9.106,0,0,1,377.38,500.194Z" transform="translate(-368.271 -413.013)" fill="#515556"/>
  </g>
  <g id="Group_722" data-name="Group 722" transform="translate(25.191 52.962)">
    <path id="Path_11986" data-name="Path 11986" d="M368.031,412.771v75.277a6.309,6.309,0,1,0,12.617,0V412.771Zm6.309,87.184a11.921,11.921,0,0,1-11.906-11.907V407.175h23.811v80.873A11.919,11.919,0,0,1,374.34,499.955Z" transform="translate(-362.434 -407.175)" fill="#73797a"/>
  </g>
  <g id="Group_723" data-name="Group 723" transform="translate(25.191 102.603)">
    <path id="Path_11987" data-name="Path 11987" d="M374.34,516.344a6.314,6.314,0,0,0-6.309,6.307v5.913a6.309,6.309,0,1,0,12.617,0v-5.913A6.315,6.315,0,0,0,374.34,516.344Zm0,24.125a11.919,11.919,0,0,1-11.906-11.9v-5.913a11.905,11.905,0,0,1,23.811,0v5.913A11.918,11.918,0,0,1,374.34,540.469Z" transform="translate(-362.434 -510.746)" fill="#73797a"/>
  </g>
  <g id="Group_724" data-name="Group 724" transform="translate(35.18 112.506)">
    <path id="Path_11988" data-name="Path 11988" d="M385.192,553.3a1.916,1.916,0,0,1-1.917-1.917V533.326a1.917,1.917,0,1,1,3.834,0v18.059A1.918,1.918,0,0,1,385.192,553.3Z" transform="translate(-383.275 -531.409)" fill="#73797a"/>
  </g>
  <g id="Group_725" data-name="Group 725" transform="translate(84.657 138.57)">
    <rect id="Rectangle_1090" data-name="Rectangle 1090" width="18.213" height="64.154" transform="translate(0)" fill="#515556"/>
  </g>
  <g id="Group_726" data-name="Group 726" transform="translate(81.857 135.772)">
    <path id="Path_11989" data-name="Path 11989" d="M486.261,644.1h12.617V585.546H486.261Zm18.215,5.6H480.663V579.95h23.813Z" transform="translate(-480.663 -579.95)" fill="#73797a"/>
  </g>
  <g id="Group_727" data-name="Group 727" transform="translate(84.657 55.76)">
    <path id="Path_11990" data-name="Path 11990" d="M495.611,525.759a9.106,9.106,0,0,1-9.107-9.107V413.013h18.213V516.652A9.108,9.108,0,0,1,495.611,525.759Z" transform="translate(-486.505 -413.013)" fill="#515556"/>
  </g>
  <g id="Group_728" data-name="Group 728" transform="translate(81.857 52.962)">
    <path id="Path_11991" data-name="Path 11991" d="M486.261,412.771V513.613a6.309,6.309,0,0,0,12.617,0V412.771Zm6.309,112.746a11.919,11.919,0,0,1-11.906-11.9V407.175h23.813V513.613A11.919,11.919,0,0,1,492.569,525.517Z" transform="translate(-480.663 -407.175)" fill="#73797a"/>
  </g>
  <g id="Group_729" data-name="Group 729" transform="translate(81.857 128.165)">
    <path id="Path_11992" data-name="Path 11992" d="M492.569,569.677a6.316,6.316,0,0,0-6.309,6.309V581.9a6.309,6.309,0,1,0,12.617,0v-5.911A6.316,6.316,0,0,0,492.569,569.677Zm0,24.126A11.921,11.921,0,0,1,480.663,581.9v-5.911a11.906,11.906,0,1,1,23.813,0V581.9A11.921,11.921,0,0,1,492.569,593.8Z" transform="translate(-480.663 -564.08)" fill="#73797a"/>
  </g>
  <g id="Group_730" data-name="Group 730" transform="translate(91.847 138.069)">
    <path id="Path_11993" data-name="Path 11993" d="M503.422,606.638a1.918,1.918,0,0,1-1.917-1.919V586.659a1.917,1.917,0,0,1,3.834,0v18.059A1.918,1.918,0,0,1,503.422,606.638Z" transform="translate(-501.505 -584.742)" fill="#73797a"/>
  </g>
  <g id="Group_731" data-name="Group 731" transform="translate(30.621 16.679)">
    <rect id="Rectangle_1091" data-name="Rectangle 1091" width="6.824" height="39.08" transform="translate(0 0)" fill="#fff"/>
  </g>
  <g id="Group_732" data-name="Group 732" transform="translate(27.821 13.882)">
    <path id="Path_11994" data-name="Path 11994" d="M373.519,364.718h1.226V331.233h-1.226Zm6.824,5.6H367.921V325.638h12.422Z" transform="translate(-367.921 -325.638)" fill="#73797a"/>
  </g>
  <g id="Group_733" data-name="Group 733" transform="translate(93.416 16.679)">
    <rect id="Rectangle_1092" data-name="Rectangle 1092" width="6.824" height="39.08" transform="translate(0 0)" fill="#fff"/>
  </g>
  <g id="Group_734" data-name="Group 734" transform="translate(90.617 13.882)">
    <path id="Path_11995" data-name="Path 11995" d="M504.536,364.718h1.226V331.233h-1.226Zm6.824,5.6H498.938V325.638H511.36Z" transform="translate(-498.938 -325.638)" fill="#73797a"/>
  </g>
  <g id="Group_735" data-name="Group 735" transform="translate(27.41 2.798)">
    <path id="Path_11996" data-name="Path 11996" d="M440.309,321.477h-6.363a2.8,2.8,0,0,1-2.794-2.8V314.9a.437.437,0,0,0-.437-.435H379.451a.436.436,0,0,0-.435.435v3.78a2.8,2.8,0,0,1-2.8,2.8h-6.361a2.8,2.8,0,0,1-2.8-2.8V314.9a12.387,12.387,0,0,1,12.388-12.388h51.264A12.387,12.387,0,0,1,443.1,314.9v3.78A2.8,2.8,0,0,1,440.309,321.477Z" transform="translate(-367.063 -302.513)" fill="#6dc5ed"/>
  </g>
  <g id="Group_736" data-name="Group 736" transform="translate(24.612 0)">
    <path id="Path_11997" data-name="Path 11997" d="M376.411,308.626h51.265a3.24,3.24,0,0,1,3.235,3.235v3.78l6.363,0-.008-3.778a9.6,9.6,0,0,0-9.59-9.588H376.411a9.6,9.6,0,0,0-9.59,9.588v3.78l6.361,0,0-3.778A3.238,3.238,0,0,1,376.411,308.626Zm60.858,12.609h-6.361a5.6,5.6,0,0,1-5.594-5.594v-1.418H378.775v1.418a5.6,5.6,0,0,1-5.594,5.594h-6.363a5.6,5.6,0,0,1-5.594-5.594v-3.78a15.2,15.2,0,0,1,15.186-15.186h51.265a15.2,15.2,0,0,1,15.188,15.186v3.78A5.6,5.6,0,0,1,437.269,321.235Z" transform="translate(-361.225 -296.675)" fill="#6dc5ed"/>
  </g>
</svg>
