<svg xmlns="http://www.w3.org/2000/svg" width="134.261" height="319.536" viewBox="0 0 134.261 319.536">
  <g id="Group_671" data-name="Group 671" transform="translate(0)">
    <path id="Path_10575" data-name="Path 10575" d="M61.763,165.13v1.592c2.018,1.473,1.883,2.627,1.592,5.728-.542,5.753.686,6.972,6.129,8.586,3.775,1.12,2.6.812,4.848,2.846-1.224,2.635-5.055,3.565-1.95,7.231l5.254,5.869c.907,1.02,2.04,1.886,2.94,2.924l10.975,11.569c3.133,3.154,4.733,6.554,9.756,6.911,3.7.263,5.977-1.32,8-3.092,1.762-1.542,4.457-3.542,5.437-5.618a7.3,7.3,0,0,1,2.817,5.43c.156,2.769.513,10.417-.352,13.325-.618,2.075-1.094,3.965-1.7,6.021-4.945,16.861-10.086,33.877-11.125,51.254-.183,3.059-1.158,12.692.081,15.055,1.226,2.338,6.291,4.552,10.1,5.373l2.009,19.216c.691,6.554,0,3.153-.469,5.795l1.089,6.011c.681,1.525,1.539,16.907,1.716,19.26l3.465,46.322c.19,2.725-.293,3.4,1.666,4.932-.2,1.92-.842,4.278-1.28,6.331-.7,3.279-.445,3.2-2.183,5.531-1.394,1.871-2.9,3.234-2.49,4.985a16.378,16.378,0,0,0,1.384,2.65c.571.937,1.127,1.105,2,1.808h14.213c.578-1.532.911-9.35,1.1-11.726.7-8.9,1.282-3.012-.826-11.122,1.373-1.84,1.765-1.216,1.591-4.63l-1.521-65.657a10.719,10.719,0,0,0,.656-2.578,39.693,39.693,0,0,1-.517-5.869l1.055-18.405,1.923.1c-1.084-2.33-1.847-3.157-1.806-6.176,2.763-.478,4.862-1.559,7.309-2.122.411,4.03,1.528,9.01,2.226,13.14l1.616,10.115c.056,1.29-.34,2.067.041,3.385.468,1.62.65.761.867,2.746l11.153,71.072c.866,5.609.438,3.679,2.675,5.5l-2.053,10.141c-.653,2.773-4.756,5.11-4.075,7.56a17.353,17.353,0,0,0,1.347,2.683c.915,1.428.878.8,2.092,1.846h14.107c.373-.709,2-17.2,1.431-19.154a37.253,37.253,0,0,1-1.584-5.547c2.089-1.791,1.777-1.049,1.327-5.629l-6.551-70.016c-.2-2.152.2-4.831-.452-6.649-.674-1.881-.039-.965-.188-2.878-.123-1.584-.457-1.307-.228-3.428a42.415,42.415,0,0,0,.073-7.142c-.27-4.7-.9-10.287-.766-14.793.1-.232,7.465-7.27,9.083-9.453,1.373-1.851,2.7-3.162,2.9-6.3.379-6.091-3.86-16.21-5.969-21.736-.893-2.339-5.273-11.793-5.394-13.226l17.1-17.424c2.72-3.079,3.7-9.131,2.176-14.108-.853-2.781-8.406-20.168-10.183-24.4-7.174-17.073-4.746-14.579-15.643-18.948A10.209,10.209,0,0,1,158.8,166.8c-1.434-1.266-3.588-1.792-6.154-2.524-2.224-.634-1.379.015-3.155.826-.83-.5-1.456-.716-1.734-1.656.8-.764,2.572-1.181,3.621-1.824,19.826-12.15,11.824-50.524-12.153-52.113-13.516-.9-26.472,7.006-23.518,21.338.6,2.931,1.582,6.126,2.423,9,.5,1.718,1.191,2.879.776,4.431-1.355,5.06,2.28,5.618,2.875,7.988.264,1.057.561,3.885.686,5.192.287,3,.1,7.681.257,11.087-8.011,1.983-8.615,4.961-11.819,11.9-1.352,2.932-6.831,14.392-7.413,16.425-2.727-1.587-13.815-13.653-17.117-16.343a29.426,29.426,0,0,1-2.82-2.737c-1.585-1.669-1.963-1.064-3.662-.16-2.537-2.129-2.491-4.134-4.134-8.722-.751-2.1-3.79-5.371-7.273-5.715-.054-2.158.531-4.738-1.778-4.784-2.5-.049-1.964,2.959-1.964,5.011C63.892,163.938,62.59,164.568,61.763,165.13Zm8.1,2.893a13.707,13.707,0,0,1-2.991-1.638,2.579,2.579,0,0,1,1.773.346C69.676,167.232,69.446,167,69.86,168.023ZM163.68,198.3c1.282,1.475,6.174,10.42,7.565,12.876,1.608,2.841,1.431,4.688-1.355,6.621-1.935,1.342-3.915,2.654-5.875,4.008-1.556,1.075-3.661,3.18-5.06,2.308-.705-.438-.231.024-.465-.76-.994-3.341.191-6.308.957-9.2C160.865,208.8,162.234,203.418,163.68,198.3Z" transform="translate(-54.059 -109.437)" fill="#cec5c8" fill-rule="evenodd"/>
    <path id="Path_10587" data-name="Path 10587" d="M167.857,468.709h14.25a.558.558,0,0,1-.033.093H167.967Zm-39.073,0h14.363q-.016.049-.032.093H128.9Z" transform="translate(-61.488 -149.266)" fill="#cec5c8" fill-rule="evenodd"/>
    <path id="Path_10834" data-name="Path 10834" d="M162.765,148.509a.244.244,0,1,1,.487.007c0,.053-.164,18.627-16.368,20.7a.243.243,0,0,1-.06-.483C162.6,166.714,162.764,148.561,162.765,148.509Z" transform="translate(-63.465 -113.742)" fill="#262262" fill-rule="evenodd"/>
    <path id="Path_10835" data-name="Path 10835" d="M144.428,111.43c20.488,9.082,21.835,46.409-.093,52-20.23,5.156-23.3-2.189-23.3-2.189l-2.186-16.772-1.166.131c-1.376-4.136-2.557-8.6-3.621-12.624C109,112.821,132.043,105.94,144.428,111.43Z" transform="translate(-59.777 -109.455)" fill="#262262" fill-rule="evenodd"/>
    <path id="Path_10837" data-name="Path 10837" d="M140.668,146.582a7.079,7.079,0,0,1,7.058,7.058v22.812a7.058,7.058,0,1,1-14.116,0V153.64A7.079,7.079,0,0,1,140.668,146.582Z" transform="translate(-62.024 -113.555)" fill="#ee8b83" fill-rule="evenodd"/>
    <path id="Path_10838" data-name="Path 10838" d="M74.152,187.4l-4.981-4.9s-2.342-6.933-2.5-7.457a30.749,30.749,0,0,0-3.661-3.985c-.727-.672-3.7-1.131-4.321-1.4s-1.185,1.454-.445,2.517a4.054,4.054,0,0,0,2.41,1.319l1.279,1.993-4.415-2.53a2.39,2.39,0,0,0,.094-2.424,1.392,1.392,0,0,0-1.037-.269,10.981,10.981,0,0,0-2.76,1.159,1.338,1.338,0,0,0-.365,2.073,26.22,26.22,0,0,0,2.693,2.691l-.566,6.542.162,2.182s1.264,1.265,1.7,1.561,6.112,1.857,6.112,1.857l4.847,4.9S74.138,187.382,74.152,187.4Z" transform="translate(-53.098 -116.109)" fill="#f2ba95" fill-rule="evenodd"/>
    <path id="Path_10839" data-name="Path 10839" d="M73.631,187.288l-1.349-1.327-6.365,5.14,3.572,3.611s3.008-3.058,4.678-4.744C73.981,189.258,73.789,188.219,73.631,187.288Z" transform="translate(-54.519 -117.92)" fill="#ee8b83" fill-rule="evenodd"/>
    <path id="Path_10840" data-name="Path 10840" d="M62.1,175.811l-4.265-2.444L56.2,174.791l2.141,4.1L56,184.6l.053.718s.907.908,1.447,1.366l6.494-3.3a7,7,0,0,1,1.885-4.415s.188-.108.028-.35-.449-.161-2.211.521S62.1,175.811,62.1,175.811Z" transform="translate(-53.42 -116.524)" fill="#ee8b83" fill-rule="evenodd"/>
    <path id="Path_10841" data-name="Path 10841" d="M62.851,177.708a18.127,18.127,0,0,0-1.671-1.255,23.832,23.832,0,0,0-4.268-1.709,2.045,2.045,0,0,0-1.817,1.239,9.641,9.641,0,0,0,.148,2.517,5,5,0,0,0-.122,3.352s-.215,1.48-.256,1.993,1.064,1.629,1.064,1.629a1.887,1.887,0,0,0,1.561-1.077s.417-.068.471-.324c1.346.186,3.807.911,3.7-1.2,1.918.543,2.337-1.282,1.575-1.9a10.16,10.16,0,0,0-1.01-.727C63.842,180.249,63.972,178.64,62.851,177.708Z" transform="translate(-53.294 -116.675)" fill="#f2ba95" fill-rule="evenodd"/>
    <path id="Path_10842" data-name="Path 10842" d="M60.828,174.184a.244.244,0,0,1,.038-.486l1.2.1a.244.244,0,0,1-.038.486Zm1.339,1.99a.244.244,0,1,1-.084-.48,4.446,4.446,0,0,1,3.191.806.243.243,0,1,1-.271.4A3.954,3.954,0,0,0,62.167,176.174Zm.2,3.757a.244.244,0,0,1-.268.407l-1.287-.85c-.19-.085-2.4-1.078-3.175-1.373a1.9,1.9,0,0,0-1.056-.063,3.2,3.2,0,0,0-1.193.531.243.243,0,1,1-.282-.4,3.707,3.707,0,0,1,1.38-.612,2.388,2.388,0,0,1,1.325.084c.81.31,3.212,1.391,3.22,1.394h0a.186.186,0,0,1,.032.018Zm-7.123,2.019a.244.244,0,0,1-.238-.426l1.467-.821.011-.006a1.677,1.677,0,0,1,1.1-.168c.557.114,4.188,2.009,4.2,2.015a.243.243,0,0,1-.225.431c-.01-.005-3.577-1.868-4.07-1.969a1.151,1.151,0,0,0-.758.113l-.016.01Z" transform="translate(-53.296 -116.561)" fill="#ee8b83" fill-rule="evenodd"/>
    <path id="Path_10843" data-name="Path 10843" d="M57.084,185.27a.243.243,0,0,1-.28-.4,1.288,1.288,0,0,0,.28-.264,1.185,1.185,0,0,0,.176-.324.242.242,0,0,1,.181-.157s.262-.048.281-.133A.243.243,0,0,1,58,183.8c.178.025.363.057.558.09a8.363,8.363,0,0,0,1.7.174c.675-.034,1.2-.309,1.159-1.211a.243.243,0,0,1,.232-.254.24.24,0,0,1,.076.009h0a1.511,1.511,0,0,0,1.181-.05.871.871,0,0,0,.337-.355.981.981,0,0,0,.108-.463.794.794,0,0,0-.269-.605h0a9.907,9.907,0,0,0-.981-.708.243.243,0,0,1,.124-.452h0a1.332,1.332,0,0,0,.758-.2l.014-.008a.785.785,0,0,0,.3-.426,1.106,1.106,0,0,0-.012-.607,1.811,1.811,0,0,0-.6-.873h0c-.221-.184-.5-.409-.781-.625s-.591-.44-.864-.613a13.288,13.288,0,0,0-1.813-.844,22.648,22.648,0,0,0-2.376-.833,1.344,1.344,0,0,0-.878.3,1.588,1.588,0,0,0-.654.761.244.244,0,1,1-.471-.125,2.067,2.067,0,0,1,.85-1.038,1.814,1.814,0,0,1,1.254-.376,23.373,23.373,0,0,1,2.456.858,13.522,13.522,0,0,1,1.891.885c.288.182.6.41.9.637s.581.458.8.637h0a2.294,2.294,0,0,1,.755,1.114,1.585,1.585,0,0,1,.011.875,1.26,1.26,0,0,1-.493.69l-.02.014a1.509,1.509,0,0,1-.376.183c.15.108.324.239.509.389a1.275,1.275,0,0,1,.447.975,1.454,1.454,0,0,1-.159.7,1.355,1.355,0,0,1-.527.553,1.817,1.817,0,0,1-1.248.169c-.066,1.031-.757,1.36-1.62,1.4a8.656,8.656,0,0,1-1.8-.18c-.134-.023-.264-.045-.383-.064a.893.893,0,0,1-.427.264,1.627,1.627,0,0,1-.2.332A1.731,1.731,0,0,1,57.084,185.27Z" transform="translate(-53.292 -116.645)" fill="#ee8b83" fill-rule="evenodd"/>
    <path id="Path_10844" data-name="Path 10844" d="M177.865,449.229l-1.226,1.065s1.071-.02,1.071,1.466-5.5,14.333-5.5,14.333-.02.456.533.456h5.824s.731.049.731-1.007,1.2-15.756,1.2-15.756Z" transform="translate(-66.302 -147.106)" fill="#262262" fill-rule="evenodd"/>
    <path id="Path_10845" data-name="Path 10845" d="M164.16,454.383l-2.946,3.934a2.488,2.488,0,0,0-.714,2.948c.858,1.659,1.43,2.58,1.43,2.58A3.726,3.726,0,0,0,165,465.354h5.683c1.5,0,6.324-.126,6.425-3.965s.537-11.234.537-11.234.086-.909.635-1.035,1.322-.292,1.108-1.4-2.52-8.292-2.52-8.292a1.394,1.394,0,0,0-1.3-.98,9.018,9.018,0,0,0-2.916.581Z" transform="translate(-64.976 -145.911)" fill="#26377f" fill-rule="evenodd"/>
    <path id="Path_10846" data-name="Path 10846" d="M175.625,455.424c0-.986,1.127-12.738.861-15.34a6.36,6.36,0,0,0-.212-1.132l-.324-1.58c.5-2.78,1.021-5.679,1.564-8.662h-9.623c0,4.155-.1,7.7-.365,10.453-.146,1.494-2.9,13.936-2.9,13.936s-.774,2.827-.915,3.334a.668.668,0,0,0,.124.718c1.694,1.4,6.209.932,8.4.411S175.625,456.411,175.625,455.424Z" transform="translate(-65.357 -144.832)" fill="#f2ba95" fill-rule="evenodd"/>
    <path id="Path_10847" data-name="Path 10847" d="M163.129,461.53l-.143-.967.649-.166s.191.35.646.1.59-.691,1.305-.691h6.121c1.287,0,1.359.781,2.556.524s-.018,1.541-.018,1.541-5,.614-5.165.645S163.129,461.53,163.129,461.53Z" transform="translate(-65.281 -148.279)" fill="#26377f" fill-rule="evenodd"/>
    <path id="Path_10848" data-name="Path 10848" d="M134,449.229l-1.225,1.065s1.069-.02,1.069,1.466-5.5,14.333-5.5,14.333-.02.456.535.456h5.823s.732.049.732-1.007,1.2-15.756,1.2-15.756Z" transform="translate(-61.439 -147.106)" fill="#262262" fill-rule="evenodd"/>
    <path id="Path_10849" data-name="Path 10849" d="M120.291,454.383l-2.946,3.934a2.488,2.488,0,0,0-.715,2.948c.858,1.659,1.43,2.58,1.43,2.58a3.726,3.726,0,0,0,3.074,1.507h5.683c1.5,0,6.324-.126,6.425-3.965s.538-11.234.538-11.234.085-.909.634-1.035,1.322-.292,1.108-1.4-2.52-8.292-2.52-8.292a1.392,1.392,0,0,0-1.3-.98,9.018,9.018,0,0,0-2.916.581Z" transform="translate(-60.113 -145.911)" fill="#26377f" fill-rule="evenodd"/>
    <path id="Path_10850" data-name="Path 10850" d="M131.755,455.424c0-.986,1.127-12.738.861-15.34a6.282,6.282,0,0,0-.212-1.132l-.323-1.58c.5-2.78,1.02-5.679,1.564-8.662h-9.623c-.005,4.155-.1,7.7-.366,10.453-.146,1.494-2.9,13.936-2.9,13.936s-.774,2.827-.914,3.334a.666.666,0,0,0,.124.718c1.694,1.4,6.209.932,8.4.411S131.755,456.411,131.755,455.424Z" transform="translate(-60.493 -144.832)" fill="#f2ba95" fill-rule="evenodd"/>
    <path id="Path_10851" data-name="Path 10851" d="M119.26,461.53l-.144-.967.649-.166s.191.35.647.1.589-.691,1.305-.691h6.12c1.287,0,1.359.781,2.556.524s-.018,1.541-.018,1.541-5,.614-5.165.645S119.26,461.53,119.26,461.53Z" transform="translate(-60.417 -148.279)" fill="#26377f" fill-rule="evenodd"/>
    <path id="Path_10852" data-name="Path 10852" d="M116.6,313.757s8.4,20.462,39.416-1.723-16.369-36.186-25.2-27.354S116.6,313.757,116.6,313.757Z" transform="translate(-60.137 -128.567)" fill="#bcb0bf" fill-rule="evenodd"/>
    <path id="Path_10853" data-name="Path 10853" d="M111.02,267.983l-3.837,6.57,7.206,70.324s-2.086,2.262-.16,4.415c0,0-.8,2.477.642,3.446l5.134,68.6a1.877,1.877,0,0,0,.8,1.292c.742.512,5.034.916,7.321.808s5.737-2.531,6.258-3.339c0,0,.4-.592.242-2.746s-1.564-66.341-1.564-66.341,1.565-1.884,0-4.847a1.863,1.863,0,0,0,.121-2.208l3.436-67.9-8.589-26.633Z" transform="translate(-59.094 -124.956)" fill="#26377f" fill-rule="evenodd"/>
    <path id="Path_10854" data-name="Path 10854" d="M111.223,267.983l-2.205,3.775.663,25.187,2.673,26.083,21.878,4.269.681-13.462a52.669,52.669,0,0,1-5.763-14.3s-.323-15.724-.053-18.578,1.561-2.638,1.561-2.638l5.445,11.97.721-14.234-8.589-26.633Z" transform="translate(-59.297 -124.956)" fill="#262262" fill-rule="evenodd"/>
    <path id="Path_10855" data-name="Path 10855" d="M133.194,260.587l-3.6-11.163-8.323,9.081C125.063,259.2,129.138,259.922,133.194,260.587Z" transform="translate(-60.656 -124.956)" fill="#262262" fill-rule="evenodd"/>
    <path id="Path_10856" data-name="Path 10856" d="M129.841,250.524c8.533,32.942,13.327,55.025,18.675,89.045a4.555,4.555,0,0,0,.882,4.632s-.521,1.776.4,2.746l11.271,73.232a5.682,5.682,0,0,0,3.17,1.509c2.006.269,4.975.376,6.339-.325s4.974-3.392,4.974-3.392a.789.789,0,0,0,.212-.659c-.06-.4-7.15-76.3-7.15-76.3s.723-3.5-.721-4.792c0,0,.962-2.209-.161-3.5a37.051,37.051,0,0,0,.482-6.73c-.161-2.908-3.049-52.88-3.209-54.279s.721-9.351.721-9.351l-9.466-17.736Z" transform="translate(-61.606 -124.423)" fill="#26377f" fill-rule="evenodd"/>
    <path id="Path_10857" data-name="Path 10857" d="M170.742,321.958l-.535-9.209-7.715,2.425-1.077,4.523-2.771,7.5Z" transform="translate(-64.799 -131.976)" fill="#262262" fill-rule="evenodd"/>
    <path id="Path_10858" data-name="Path 10858" d="M129.841,250.829q1.23,4.743,2.359,9.207c10.934,1.836,22.065,3.36,27.368,3.034,10.259-.63-4.821-12.311-14.267-15.7Z" transform="translate(-61.606 -124.729)" fill="#262262" fill-rule="evenodd"/>
    <path id="Path_10859" data-name="Path 10859" d="M131.513,174.119c0,1.317,1.139,2.6,2.795,3.372l.72-1.008.727-.052,1.777.659.915,1.077-.009.028c2.759-.268,5.642-2.034,7.191-6.414l8.761,2.663-7.863,64.51L140.5,240.89s-10.47,1.783-17.123,0l-2.747-.915-1.83-22.886-3.554-6.785s-1.186-1.131-.055-5.115S119.6,192.8,119.6,192.8l1.831-15.94,10.08-3.877Z" transform="translate(-59.927 -116.348)" fill="#e7477b" fill-rule="evenodd"/>
    <path id="Path_10860" data-name="Path 10860" d="M142.2,240.51l-1.706.549s-10.47,1.783-17.123,0l-2.747-.915-1.83-22.886-3.554-6.785s-1.186-1.131-.055-5.115,4.415-12.386,4.415-12.386l1.831-15.94,9.7-3.729c-1.286,7.246-4.555,24.948-4.76,27.488-.242,3.015,1.4,2.719,1.4,2.719h14.27l-1.1,10.554H129.952c-2.37,0-2.21,1.722-2.21,1.722s1.186,14.271,1.294,17.609,2.047,3.715,2.047,3.715l8.508,2.1S140.787,239.781,142.2,240.51Z" transform="translate(-59.927 -116.517)" fill="#d33967" fill-rule="evenodd"/>
    <path id="Path_10861" data-name="Path 10861" d="M111.206,177.613a12.143,12.143,0,0,0-5.228,5.006C104.416,185.9,95.8,204.858,95.8,204.858L74.907,184.5s-.646-.539-1.561.215-9.37,10.5-9.37,10.5A2.506,2.506,0,0,0,64.3,197.8c.969,1.508,24.877,26.493,24.877,26.493a9.9,9.9,0,0,0,11.524-.753,44.666,44.666,0,0,0,9.046-9.693Z" transform="translate(-54.281 -116.995)" fill="#fff" fill-rule="evenodd"/>
    <path id="Path_10862" data-name="Path 10862" d="M103.383,227.766a11.325,11.325,0,0,0,1.709-1.13,44.666,44.666,0,0,0,9.046-9.693l.278-6.9-1.552-4.524-3.7,4.452Z" transform="translate(-58.672 -120.088)" fill="#deeefa" fill-rule="evenodd"/>
    <path id="Path_10863" data-name="Path 10863" d="M171.642,178.477a10.282,10.282,0,0,1,3.838,4.376c1.4,3.016,15.372,36.474,15.372,36.474s2.154,9.047-2.046,13.57-19.816,20.462-19.816,20.462l-7.012-19.989,13.2-9.089a1.3,1.3,0,0,1,.862-1.831,1.2,1.2,0,0,1-.108-1.562l-8.955-15.629S160.458,182.8,171.642,178.477Z" transform="translate(-65.168 -117.091)" fill="#fff" fill-rule="evenodd"/>
    <path id="Path_10864" data-name="Path 10864" d="M190.248,238.584a7.691,7.691,0,0,1-.767.977c-4.2,4.524-19.816,20.462-19.816,20.462l-1.607-4.581,4.648-7.271Z" transform="translate(-65.843 -123.754)" fill="#deeefa" fill-rule="evenodd"/>
    <path id="Path_10865" data-name="Path 10865" d="M170.042,259.1l-.732.749a1.25,1.25,0,0,1-.445-.094l-6.739-19.212a7.323,7.323,0,0,1,.422-.755C175.825,239.529,171.943,250.01,170.042,259.1Z" transform="translate(-65.185 -123.887)" fill="#abd3ec" fill-rule="evenodd"/>
    <path id="Path_10866" data-name="Path 10866" d="M165.7,239.933c5.116.639,6.663,3.509,6.724,7.29l-3.889,2.927.021,1.369s-1.228-2.426-.963-2.562-2.1-1.076-2.261-1.615S165.7,239.943,165.7,239.933Z" transform="translate(-65.536 -123.904)" fill="#d77174" fill-rule="evenodd"/>
    <path id="Path_10867" data-name="Path 10867" d="M120.474,251.015a39.507,39.507,0,0,0,23.047.862c12.17-3.446-.216-3.985-.216-3.985a35.452,35.452,0,0,1-17.07.916Z" transform="translate(-60.568 -124.786)" fill="#e0dcdc" fill-rule="evenodd"/>
    <path id="Path_10868" data-name="Path 10868" d="M153.282,171.66l-12.869,37.853a22.247,22.247,0,0,0-.97,6.57,37.1,37.1,0,0,0,1.939,7.323l.323,3.77a1.671,1.671,0,0,0-.215,1.831,2,2,0,0,0-.377,2.639,79.28,79.28,0,0,0-.216,8.506c.215,2.8,15.616,71.4,15.616,71.4s21.323-18.954,23.263-23.909-1.078-13.354-6.031-26.062S158.881,231,158.881,231a1.74,1.74,0,0,0-.108-2.153s.377-1.239-.269-1.777l5.977-22.564s-4.171-19.46,4.66-26.783Z" transform="translate(-62.668 -116.335)" fill="#fff" fill-rule="evenodd"/>
    <path id="Path_10869" data-name="Path 10869" d="M172.768,262.279c-2.293-5.041-4.871-10.19-7.015-14.333-1.769-.878-3.068-1.487-3.068-1.487l-2.871,4.763Z" transform="translate(-64.928 -124.627)" fill="#deeefa" fill-rule="evenodd"/>
    <path id="Path_10870" data-name="Path 10870" d="M139.715,221.352c.05.243.1.488.163.737,2.422.054,11.437-.048,13.847-.048a3.157,3.157,0,0,1,3.284,2.477l1.528,6.24,5.977-22.564s-.268-1.253-.525-3.24l-8.542,12.509h-6.193c-3.068,0-1.992-2.692-1.992-2.692l1.095-4.707-6.588,4.922S140.483,219.577,139.715,221.352Z" transform="translate(-62.7 -120.026)" fill="#deeefa" fill-rule="evenodd"/>
    <path id="Path_10871" data-name="Path 10871" d="M128.714,173.291l-7.442,34.461s-.431,3.446.538,5.385,3.339,5.708,3.339,5.708l.215,2.262a.954.954,0,0,1,.162,1.238,1.749,1.749,0,0,1,.108,2.1l1.022,12.708a25.515,25.515,0,0,1-.053,5.331c-.323,3.339-.161,42.431.053,47.6s4.74,17.662,8.833,25.847c0,0-12.493-1.293-20.894-2.37s-13.138-4.523-13.784-6.677.429-23.693,2.369-32.093,11.2-41.14,11.2-41.14a2.005,2.005,0,0,1,.431-2.476s-1.023-1.347-.215-2.316l-.485-8.669s-5.062-7.431-5.6-10.555,4.738-17.878,4.953-19.063S115.292,177,115.292,177l13.422-4.9Z" transform="translate(-58.366 -116.384)" fill="#fff" fill-rule="evenodd"/>
    <path id="Path_10872" data-name="Path 10872" d="M122.166,213.285a9.617,9.617,0,0,0,.622,4.234c.969,1.939,3.339,5.708,3.339,5.708h-8.982a2.285,2.285,0,0,0-2.058,1.345s-5.062-7.431-5.6-10.555a8.007,8.007,0,0,1,.16-2.384c.008.039.325,1.516,2.813,1.616C113.831,213.306,118.336,213.3,122.166,213.285Z" transform="translate(-59.345 -120.766)" fill="#deeefa" fill-rule="evenodd"/>
    <path id="Path_10873" data-name="Path 10873" d="M150.308,172.269l1.9-1.38,6.516,2.073,4.685,10.823s-17.553,25.415-19.493,29.938a39.729,39.729,0,0,0-2.537,9.6l-.063-.171A35.614,35.614,0,0,1,139.443,216a22.247,22.247,0,0,1,.97-6.57l12.377-36.4Z" transform="translate(-62.668 -116.25)" fill="#fff" fill-rule="evenodd"/>
    <path id="Path_10874" data-name="Path 10874" d="M122.056,175.315l-2.1,4.346.053,27.193a15.861,15.861,0,0,0,7.122,11.729c-.551-.886-2.282-3.661-3.174-5.447s-.538-5.385-.538-5.385l7.394-34.235,1.135-.437-1.087-.979Z" transform="translate(-60.509 -116.384)" fill="#fff" fill-rule="evenodd"/>
    <path id="Path_10875" data-name="Path 10875" d="M161.015,238.4l3.87.811a1.935,1.935,0,0,1,1.448,1.045,6.373,6.373,0,0,1,.34,2.326,3.237,3.237,0,0,1,1.139,3.437,3.292,3.292,0,0,1,.4,2.894,2.086,2.086,0,0,1,.552,1.656,29.145,29.145,0,0,1-1.077,3.043,2.619,2.619,0,0,1-1.44.794c-.982.216-1.13-1.682-.781-2.274,0,0-1.535.942-2.558.552s-.693-2-.191-2.636c0,0-2.258,1.062-3.033.286a2,2,0,0,1,.06-2.859s-1.158-.674-1.077-1.562.413-1.807,2.557-2.476l.982-1.8Z" transform="translate(-64.801 -123.733)" fill="#f2ba95" fill-rule="evenodd"/>
    <path id="Path_10876" data-name="Path 10876" d="M165.348,249.555l0,0Zm-2.437.944,2.411-.932.026-.012a3.129,3.129,0,0,0,1.176-.986c.415-.606,1.584-2.177,1.587-2.181a.244.244,0,1,0-.393-.288s-1.173,1.575-1.6,2.194a2.646,2.646,0,0,1-.977.82l-2.409.931a.243.243,0,1,0,.175.454Zm-3-2.565a.244.244,0,0,1-.124-.472l3.984-1.061h0a1.3,1.3,0,0,0,.837-.656c.329-.659,1.956-3.067,1.961-3.074a.243.243,0,0,1,.4.273c0,.007-1.612,2.386-1.928,3.019a1.8,1.8,0,0,1-1.154.911Zm2.622-5.977a.243.243,0,1,1-.445-.2,2.811,2.811,0,0,1,1.895-1.284.243.243,0,1,1,.13.469C162.827,241.306,162.537,241.955,162.536,241.957Zm3.132,10.623a.243.243,0,1,1-.189-.448l1.184-.5a2.391,2.391,0,0,0,.532-.538,13.9,13.9,0,0,0,.894-2.035.244.244,0,0,1,.461.161,14.339,14.339,0,0,1-.965,2.166,2.806,2.806,0,0,1-.665.663h0a.3.3,0,0,1-.04.022Z" transform="translate(-64.906 -123.963)" fill="#ee8b83" fill-rule="evenodd"/>
    <path id="Path_10877" data-name="Path 10877" d="M158.654,173.3a.3.3,0,0,1,.558-.241l4.685,10.823a.3.3,0,0,1-.028.293h0c-.051.073-17.536,25.391-19.463,29.885a39.348,39.348,0,0,0-2.514,9.513.3.3,0,0,1-.605-.068,39.974,39.974,0,0,1,2.561-9.683c1.87-4.365,18.05-27.859,19.426-29.854Z" transform="translate(-62.874 -116.47)" fill="#abd3ec" fill-rule="evenodd"/>
    <path id="Path_10878" data-name="Path 10878" d="M121.743,175.545a.3.3,0,1,1,.549.265l-2.073,4.284.053,27.105a15.507,15.507,0,0,0,6.982,11.489.3.3,0,1,1-.327.513,16.154,16.154,0,0,1-7.263-11.969v-.017l-.053-27.174a.3.3,0,0,1,.029-.151Z" transform="translate(-60.471 -116.746)" fill="#abd3ec" fill-rule="evenodd"/>
    <path id="Path_10879" data-name="Path 10879" d="M167.743,205.16a.3.3,0,1,1-.6.124c-.012-.056-4.21-19.638,4.763-27.081a.305.305,0,0,1,.389.47C163.611,185.878,167.732,205.105,167.743,205.16Z" transform="translate(-65.632 -117.053)" fill="#abd3ec" fill-rule="evenodd"/>
    <path id="Path_10880" data-name="Path 10880" d="M112.777,216.611a.3.3,0,0,1-.522.31c-.684-1.15-1.389-2.4-1.951-3.557a12.892,12.892,0,0,1-1.156-3.1c-.417-2.424,2.485-11.407,4.039-16.216.505-1.564.866-2.682.916-2.952.213-1.178,1.824-13.52,1.828-13.556a.3.3,0,1,1,.6.079c0,.035-1.616,12.394-1.833,13.584-.058.316-.423,1.448-.934,3.031-1.537,4.759-4.41,13.65-4.018,15.926a12.358,12.358,0,0,0,1.1,2.94C111.417,214.257,112.11,215.49,112.777,216.611Z" transform="translate(-59.307 -116.957)" fill="#abd3ec" fill-rule="evenodd"/>
    <path id="Path_10881" data-name="Path 10881" d="M133.471,173.058l4.242,3.444-2.5,2.826-2.855-5.839,1.118-1.067Z" transform="translate(-61.884 -116.419)" fill="#262262" fill-rule="evenodd"/>
    <path id="Path_10882" data-name="Path 10882" d="M138.381,176.313l9.874-4.651v-.936l1.938,1.525-8.38,7.683Z" transform="translate(-62.553 -116.231)" fill="#262262" fill-rule="evenodd"/>
    <path id="Path_10885" data-name="Path 10885" d="M177.787,228.027a5.869,5.869,0,0,1,4.457-.384.244.244,0,0,0,.133-.469,6.381,6.381,0,0,0-4.844.437.244.244,0,1,0,.253.416Zm-.886,1.844a.244.244,0,0,1-.2-.443,9.491,9.491,0,0,1,7.846.4.244.244,0,0,1-.212.439A8.98,8.98,0,0,0,176.9,229.871Z" transform="translate(-66.785 -122.459)" fill="#abd3ec" fill-rule="evenodd"/>
    <path id="Path_10886" data-name="Path 10886" d="M99.536,208.427a.3.3,0,0,1,.442-.42l2.522,2.655a.3.3,0,0,1-.441.421Z" transform="translate(-58.237 -120.354)" fill="#abd3ec" fill-rule="evenodd"/>
    <path id="Path_10887" data-name="Path 10887" d="M124.914,447.884a23.434,23.434,0,0,0,7.92-1.458c.051-.884.091-1.714.112-2.442a8.065,8.065,0,0,1-3.109,1.026,28.267,28.267,0,0,1-3.284-.085,22.977,22.977,0,0,1-3.268-.445c-.213,1.036-.457,2.194-.7,3.349C123.328,447.876,124.109,447.9,124.914,447.884Z" transform="translate(-60.801 -146.525)" fill="#ee8b83" fill-rule="evenodd"/>
    <path id="Path_10888" data-name="Path 10888" d="M167.375,443.336c-.17.844-.371,1.811-.583,2.817a22.968,22.968,0,0,0,2.738.215,19.879,19.879,0,0,0,7.267-1.209c.068-1.39.1-2.576.057-3.315a23.891,23.891,0,0,1-2.177,1.384,8.692,8.692,0,0,1-3.7.526,23.508,23.508,0,0,1-2.638-.2A5.753,5.753,0,0,1,167.375,443.336Z" transform="translate(-65.702 -146.288)" fill="#ee8b83" fill-rule="evenodd"/>
    <path id="Path_10889" data-name="Path 10889" d="M120.554,153.854a42.171,42.171,0,0,1,.821,9.894c-.38,14.6,1.9,17.922,6.42,20.326s11.186-1.139,10.3-7.983c-.714-5.512-11.052-8.4-12.356-20.043C123.636,157.518,121.766,155.808,120.554,153.854Z" transform="translate(-60.576 -114.361)" fill="#262262" fill-rule="evenodd"/>
    <path id="Path_10890" data-name="Path 10890" d="M156.5,143.441s1.225-1.789,2.234-1.849,2.569,1.88,2.676,3.511-.92,7.509-4.516,5.885S156.5,143.441,156.5,143.441Z" transform="translate(-64.416 -113.001)" fill="#f2ba95" fill-rule="evenodd"/>
    <path id="Path_10891" data-name="Path 10891" d="M155.561,145.627a.367.367,0,0,0-.008.432.2.2,0,0,0,.31.005s1.641,4.819,2.258,3.934a6.084,6.084,0,0,0,1.391-3.051c.117-1.3-1.177-2.286-.823-2.675.337-.372.824.054.869.1l0,0h0a3.31,3.31,0,0,1,.618.854.2.2,0,0,0,.33.069.374.374,0,0,0,.086-.428c0-.005-.854-1.8-2.226-1.527C157.058,143.6,155.565,145.622,155.561,145.627Z" transform="translate(-64.449 -113.192)" fill="#ee8b83" fill-rule="evenodd"/>
    <path id="Path_10892" data-name="Path 10892" d="M121.268,148.1s-1.714-1.327-2.692-1.074-1.869,2.577-1.471,4.162,3.18,6.865,6.1,4.216S121.268,148.1,121.268,148.1Z" transform="translate(-60.183 -113.601)" fill="#f2ba95" fill-rule="evenodd"/>
    <path id="Path_10893" data-name="Path 10893" d="M122.9,149.876a.367.367,0,0,1,.14.409.2.2,0,0,1-.294.1h0s-.084,5.089-.942,4.437a6.084,6.084,0,0,1-2.26-2.476c-.511-1.2.419-2.537-.037-2.8-.434-.25-.767.3-.8.357v0h0a3.3,3.3,0,0,0-.325,1,.2.2,0,0,1-.293.167.377.377,0,0,1-.214-.381c0-.005.262-1.975,1.651-2.136C120.853,148.407,122.894,149.872,122.9,149.876Z" transform="translate(-60.279 -113.773)" fill="#ee8b83" fill-rule="evenodd"/>
    <path id="Path_10894" data-name="Path 10894" d="M133.62,120.9c20.534-2.747,19.892,13.65,20,26.779a17.081,17.081,0,0,1-2.474,9.167s-5.02,5.93-6.858,7.289a9.864,9.864,0,0,1-8.292,1.232c-2.153-.766-8.681-4.978-8.681-4.978a17.085,17.085,0,0,1-5.033-8.051C118.559,139.745,113.174,124.243,133.62,120.9Z" transform="translate(-60.376 -110.674)" fill="#f2ba95" fill-rule="evenodd"/>
    <path id="Path_10895" data-name="Path 10895" d="M119.953,144.844c-.208-.877-.4-1.752-.558-2.622,2.688-4.459,16.971-12.044,21.061-12.162,5.6-.162,10.877,2.907,11.523,3.715s1,5.514,1,5.514-5.145.087-11.661-4.6c0,0-6.946,11.632-19.062,10.663A6.759,6.759,0,0,1,119.953,144.844Z" transform="translate(-60.448 -111.722)" fill="#ee8b83" fill-rule="evenodd"/>
    <path id="Path_10904" data-name="Path 10904" d="M118.172,140.9s11.377,5.97,23.194-9.459c0,0,5.887,7.389,13.976,6.65l-3.156-8.982a7.6,7.6,0,0,1-.158-.977c-2.972-13.926-34.428-11.466-33.506,4.635a7.928,7.928,0,0,1,.088.928Z" transform="translate(-60.312 -110.5)" fill="#262262" fill-rule="evenodd"/>
    <path id="Path_10905" data-name="Path 10905" d="M152.188,128.747l-.323-2.875c-1.712-15.285-35.835-12.723-33.577,4.586l.232,1.779C117.814,115.925,150.512,113.791,152.188,128.747Z" transform="translate(-60.314 -110.142)" fill="#e7477b" fill-rule="evenodd"/>
    <path id="Path_10906" data-name="Path 10906" d="M122.129,143.02s2.25,5.065-.706,9.156l-2.242-4.7s-.71-.862-1.331-.29l.5-1.662.337-3.446Z" transform="translate(-60.276 -113.055)" fill="#262262" fill-rule="evenodd"/>
    <path id="Path_10907" data-name="Path 10907" d="M155.386,138.867s-.733,5.466,2.259,7.4l.811-3.689s.542-1.512,1.672-.514l-.191-2.623Z" transform="translate(-64.429 -112.699)" fill="#262262" fill-rule="evenodd"/>
    <path id="Path_10908" data-name="Path 10908" d="M140.34,132.691a.243.243,0,1,1,.461.155c-.012.037-4.37,13.327-19.052,11.581a.244.244,0,0,1,.057-.485C136.094,145.642,140.328,132.728,140.34,132.691Z" transform="translate(-60.685 -111.996)" fill="#262262" fill-rule="evenodd"/>
    <path id="Path_10909" data-name="Path 10909" d="M121.441,166.27a.244.244,0,1,1,.473.118c-.011.044-3.942,15.413,4.711,19.686a.244.244,0,1,1-.215.437C117.4,182.063,121.43,166.315,121.441,166.27Z" transform="translate(-60.574 -115.717)" fill="#262262" fill-rule="evenodd"/>
    <path id="Path_10910" data-name="Path 10910" d="M159.395,151.593a.4.4,0,1,0-.4-.4A.405.405,0,0,0,159.395,151.593Z" transform="translate(-64.837 -114.021)" fill="#fff" fill-rule="evenodd"/>
    <path id="Path_10911" data-name="Path 10911" d="M159.395,155.471a.4.4,0,1,0-.4-.4A.4.4,0,0,0,159.395,155.471Z" transform="translate(-64.837 -114.451)" fill="#fff" fill-rule="evenodd"/>
    <path id="Path_10912" data-name="Path 10912" d="M159.395,159.2a.4.4,0,1,0-.4-.4A.405.405,0,0,0,159.395,159.2Z" transform="translate(-64.837 -114.863)" fill="#fff" fill-rule="evenodd"/>
    <path id="Path_10913" data-name="Path 10913" d="M159.334,157.8a.888.888,0,1,0-.888-.888A.89.89,0,0,0,159.334,157.8Z" transform="translate(-64.777 -114.602)" fill="#fff" fill-rule="evenodd"/>
    <path id="Path_10914" data-name="Path 10914" d="M159.341,151.228a.093.093,0,1,1,.186,0v6.76a.093.093,0,0,1-.186,0Z" transform="translate(-64.876 -114.06)" fill="#fff" fill-rule="evenodd"/>
    <path id="Path_10915" data-name="Path 10915" d="M121.611,156.722a.4.4,0,1,0-.4-.4A.4.4,0,0,0,121.611,156.722Z" transform="translate(-60.649 -114.589)" fill="#fff" fill-rule="evenodd"/>
    <path id="Path_10916" data-name="Path 10916" d="M121.611,160.6a.4.4,0,1,0-.4-.4A.4.4,0,0,0,121.611,160.6Z" transform="translate(-60.649 -115.019)" fill="#fff" fill-rule="evenodd"/>
    <path id="Path_10917" data-name="Path 10917" d="M121.611,164.325a.4.4,0,1,0-.4-.4A.4.4,0,0,0,121.611,164.325Z" transform="translate(-60.649 -115.432)" fill="#fff" fill-rule="evenodd"/>
    <path id="Path_10918" data-name="Path 10918" d="M121.55,162.932a.889.889,0,1,0-.888-.888A.89.89,0,0,0,121.55,162.932Z" transform="translate(-60.588 -115.17)" fill="#fff" fill-rule="evenodd"/>
    <path id="Path_10919" data-name="Path 10919" d="M121.556,156.357a.093.093,0,0,1,.187,0v6.76a.093.093,0,1,1-.187,0Z" transform="translate(-60.687 -114.628)" fill="#fff" fill-rule="evenodd"/>
    <path id="Path_10920" data-name="Path 10920" d="M128.9,170.843c-2.872,6.556-4.977,14.124-6.959,21.258-.6,2.143-1.182,4.248-1.781,6.3a.3.3,0,1,1-.584-.17c.589-2.015,1.178-4.135,1.778-6.294,2.039-7.332,4.2-15.122,7.2-21.828Z" transform="translate(-60.466 -116.163)" fill="#262262" fill-rule="evenodd"/>
    <path id="Path_10921" data-name="Path 10921" d="M120.226,200.132c-.969-.337-2.154.541-2.646,1.96s-.1,2.842.864,3.178,2.154-.541,2.646-1.961S121.2,200.468,120.226,200.132Z" transform="translate(-60.223 -119.483)" fill="#262262" fill-rule="evenodd"/>
    <path id="Path_10922" data-name="Path 10922" d="M119.7,201.043c-.6-.206-1.324.333-1.627,1.206s-.064,1.746.532,1.953,1.324-.333,1.626-1.206S120.295,201.251,119.7,201.043Z" transform="translate(-60.286 -119.587)" fill="#2a54a8" fill-rule="evenodd"/>
    <path id="Path_10923" data-name="Path 10923" d="M159.945,211.931a.608.608,0,1,1-.07-1.214c.013,0,4.882-.267,5.5-2.382.27-.92-.037-4.155-.549-7.845-.776-5.6-2.025-12.178-2.452-13.5-.575-1.777-4.706-2.751-5.241-2.871-.525,0-4.272.056-5.6,2.037a39.551,39.551,0,0,0-2.53,6.476c-1.7,5.121-3.483,11.363-3.692,12.341-.141.661.243,1.554,1.383,2.436a12.854,12.854,0,0,0,4.925,2.072.608.608,0,1,1-.275,1.185,14.018,14.018,0,0,1-5.4-2.294c-1.565-1.209-2.061-2.571-1.83-3.655.213-.993,2.014-7.305,3.727-12.468a39.366,39.366,0,0,1,2.677-6.77c1.749-2.612,6.4-2.579,6.669-2.576a.676.676,0,0,1,.132.013c.015,0,5.378,1.13,6.208,3.7.439,1.357,1.713,8.038,2.5,13.707.532,3.838.837,7.253.512,8.357C165.684,211.622,159.961,211.93,159.945,211.931Z" transform="translate(-63.184 -117.582)" fill="#262262" fill-rule="evenodd"/>
    <path id="Path_10924" data-name="Path 10924" d="M158.471,181.747a.3.3,0,0,1-.6-.1c.691-4.211-.042-8.772-1.753-11.674a6.278,6.278,0,0,0-2.506-2.537,3.987,3.987,0,0,0-.5-.2l-.333-.715a4.364,4.364,0,0,1,1.1.373,6.883,6.883,0,0,1,2.761,2.776C158.419,172.682,159.184,177.4,158.471,181.747Z" transform="translate(-64.149 -115.765)" fill="#262262" fill-rule="evenodd"/>
    <path id="Path_10925" data-name="Path 10925" d="M152.887,214.968a1.542,1.542,0,1,0-1.542-1.542A1.545,1.545,0,0,0,152.887,214.968Z" transform="translate(-63.99 -120.794)" fill="#26377f" fill-rule="evenodd"/>
    <path id="Path_10926" data-name="Path 10926" d="M161.01,216.256a1.541,1.541,0,1,0-1.541-1.542A1.545,1.545,0,0,0,161.01,216.256Z" transform="translate(-64.89 -120.937)" fill="#26377f" fill-rule="evenodd"/>
  </g>
</svg>
