<svg xmlns="http://www.w3.org/2000/svg" width="272" height="143" viewBox="0 0 272 143">
  <g id="Group_1915" data-name="Group 1915" transform="translate(-49 -1073)">
    <rect id="Rectangle_1172" data-name="Rectangle 1172" width="272" height="143" rx="10" transform="translate(49 1073)" fill="#f2f3f6"/>
    <g id="Outline" transform="translate(71.944 1091.118)">
      <path id="Path_11901" data-name="Path 11901" d="M136.363,18.215h-1.107v-.554a1.661,1.661,0,1,0-3.322,0v.554h-2.215v-.554a1.661,1.661,0,1,0-3.322,0v.554h-2.215v-.554a1.661,1.661,0,1,0-3.322,0v.554h-2.215v-.554a1.661,1.661,0,0,0-3.322,0v.554h-1.107A2.217,2.217,0,0,0,112,20.43V30.4h1.107V25.413H137.47v9.967h-3.322a2.217,2.217,0,0,0-2.215,2.215v3.322h-7.752v1.107h12.181a2.2,2.2,0,0,0,1.107-.3v.3a1.109,1.109,0,0,1-1.107,1.107H123.628v1.107h12.735a2.2,2.2,0,0,0,1.107-.3v.3a1.109,1.109,0,0,1-1.107,1.107H122.52v1.107h13.842a2.217,2.217,0,0,0,2.215-2.215V20.43A2.217,2.217,0,0,0,136.363,18.215Zm-3.322-.554a.554.554,0,1,1,1.107,0v2.215a.554.554,0,1,1-1.107,0Zm-5.537,0a.554.554,0,1,1,1.107,0v2.215a.554.554,0,1,1-1.107,0Zm-5.537,0a.554.554,0,1,1,1.107,0v2.215a.554.554,0,1,1-1.107,0Zm-5.537,0a.554.554,0,1,1,1.107,0v2.215a.554.554,0,1,1-1.107,0Zm-3.322,6.644V20.43a1.109,1.109,0,0,1,1.107-1.107h1.107v.554a1.661,1.661,0,0,0,3.322,0v-.554h2.215v.554a1.661,1.661,0,1,0,3.322,0v-.554H126.4v.554a1.661,1.661,0,1,0,3.322,0v-.554h2.215v.554a1.661,1.661,0,1,0,3.322,0v-.554h1.107a1.109,1.109,0,0,1,1.107,1.107v3.876Zm19.933,13.289a1.109,1.109,0,0,1,1.107-1.107h2.539l-3.647,3.647Zm3.322,3.322h-2.539l3.647-3.647v2.539A1.109,1.109,0,0,1,136.363,40.916Z" transform="translate(-105.36 -16)" fill="#03a9f4"/>
      <path id="Path_11902" data-name="Path 11902" d="M33.209,245.731l1.6-2.684a.554.554,0,0,0-.584-.826l-2.848.568A8.86,8.86,0,0,0,19.6,241.768l.665.885a7.752,7.752,0,0,1,10.492,1.105.554.554,0,0,0,.525.179l1.935-.386-1.1,1.848a.554.554,0,0,0-.036.495,7.753,7.753,0,1,1-12.85-2.309l-.812-.753a8.857,8.857,0,1,0,14.789,2.9Z" transform="translate(-16.062 -224.492)" fill="#03a9f4"/>
      <path id="Path_11903" data-name="Path 11903" d="M64.554,295.752h2.769v2.769a.554.554,0,0,0,.554.554H71.2a.554.554,0,0,0,.554-.554v-2.769H74.52a.554.554,0,0,0,.554-.554v-3.322a.554.554,0,0,0-.554-.554H71.752v-2.769A.554.554,0,0,0,71.2,288H67.876a.554.554,0,0,0-.554.554v2.769H64.554a.554.554,0,0,0-.554.554V295.2A.554.554,0,0,0,64.554,295.752Zm.554-3.322h2.768a.554.554,0,0,0,.554-.554v-2.768h2.215v2.768a.554.554,0,0,0,.554.554h2.768v2.215H71.2a.554.554,0,0,0-.554.554v2.768H68.43V295.2a.554.554,0,0,0-.554-.554H65.107Z" transform="translate(-60.682 -269.174)" fill="#03a9f4"/>
      <path id="Path_11904" data-name="Path 11904" d="M232,184h1.107v1.107H232Z" transform="translate(-217.054 -172.372)" fill="#03a9f4"/>
      <path id="Path_11905" data-name="Path 11905" d="M168,184h1.107v1.107H168Z" transform="translate(-157.484 -172.372)" fill="#03a9f4"/>
      <path id="Path_11906" data-name="Path 11906" d="M360,184h1.107v1.107H360Z" transform="translate(-336.195 -172.372)" fill="#03a9f4"/>
      <path id="Path_11907" data-name="Path 11907" d="M424,184h1.107v1.107H424Z" transform="translate(-395.766 -172.372)" fill="#03a9f4"/>
      <path id="Path_11908" data-name="Path 11908" d="M296,184h1.107v1.107H296Z" transform="translate(-276.625 -172.372)" fill="#03a9f4"/>
      <path id="Path_11909" data-name="Path 11909" d="M232,248h1.107v1.107H232Z" transform="translate(-217.054 -231.943)" fill="#03a9f4"/>
      <path id="Path_11910" data-name="Path 11910" d="M360,248h1.107v1.107H360Z" transform="translate(-336.195 -231.943)" fill="#03a9f4"/>
      <path id="Path_11911" data-name="Path 11911" d="M424,248h1.107v1.107H424Z" transform="translate(-395.766 -231.943)" fill="#03a9f4"/>
      <path id="Path_11912" data-name="Path 11912" d="M296,248h1.107v1.107H296Z" transform="translate(-276.625 -231.943)" fill="#03a9f4"/>
      <path id="Path_11913" data-name="Path 11913" d="M360,312h1.107v1.107H360Z" transform="translate(-336.195 -291.513)" fill="#03a9f4"/>
      <path id="Path_11914" data-name="Path 11914" d="M296,312h1.107v1.107H296Z" transform="translate(-276.625 -291.513)" fill="#03a9f4"/>
    </g>
    <g id="Group_1742" data-name="Group 1742" transform="translate(255.997 1100.452)">
      <g id="medicine" transform="translate(0 0)">
        <g id="Group_144" data-name="Group 144" transform="translate(0)">
          <g id="Group_143" data-name="Group 143">
            <path id="Path_151" data-name="Path 151" d="M48.635,5.434a.957.957,0,0,0-.823-.172L43.258,6.42a9.1,9.1,0,0,1-2.239.28H34.337a4.331,4.331,0,0,0-4.305,3.7,2.427,2.427,0,0,1-2.413,2.073h-.245v-2a5.631,5.631,0,1,0-5.743,0v2h-.245A2.427,2.427,0,0,1,18.974,10.4a4.331,4.331,0,0,0-4.305-3.7H7.986a9.092,9.092,0,0,1-2.238-.28L1.194,5.262A.957.957,0,0,0,0,6.19,7.706,7.706,0,0,0,2.053,11.43a7.408,7.408,0,0,0,2.829,5.733l.9,1.2a10.981,10.981,0,0,0,8.752,4.382,10.856,10.856,0,0,0,7.1-2.617v3.413h-.858a6.191,6.191,0,0,0-5.424,9.172.957.957,0,0,0,1.677-.924,4.277,4.277,0,0,1,3.748-6.334h.858v8.55H19.382a4.578,4.578,0,0,0,0,9.156h2.661a24.754,24.754,0,0,0,1.592,5.258.957.957,0,0,0,.88.58h0a.957.957,0,0,0,.879-.584l.019-.045a24.756,24.756,0,0,0,1.557-5.21H28.06a1.962,1.962,0,1,1,0,3.924h-.065a.957.957,0,0,0,0,1.914h.065a3.876,3.876,0,0,0,0-7.752h-.815a24.991,24.991,0,0,0,.129-2.539V35.923h.638a6.189,6.189,0,0,0,0-12.378h-.638V20.132a10.856,10.856,0,0,0,7.1,2.617,10.981,10.981,0,0,0,8.752-4.382l.9-1.2a7.408,7.408,0,0,0,2.829-5.733A7.705,7.705,0,0,0,49,6.19.957.957,0,0,0,48.635,5.434ZM20.874,18.229a8.961,8.961,0,0,1-6.34,2.606A9.06,9.06,0,0,1,8.74,18.723c.24.024.484.036.73.036h1.6a.957.957,0,0,0,0-1.914H9.47a5.513,5.513,0,0,1-5.217-3.752,7.686,7.686,0,0,0,3.483.832h1.98a.957.957,0,0,0,0-1.914H7.736A5.832,5.832,0,0,1,2.054,7.456l3.222.819a11,11,0,0,0,2.71.339h6.682a2.427,2.427,0,0,1,2.413,2.073,4.331,4.331,0,0,0,4.305,3.7h.245v3.094ZM19.382,41.251a2.664,2.664,0,0,1,0-5.328h2.249v2.731a25,25,0,0,0,.135,2.6H19.382Zm6.078-2.539a22.781,22.781,0,0,1-.949,6.529,22.772,22.772,0,0,1-.966-6.586V35.923H25.46Zm0-4.7H23.546V11.179a5.555,5.555,0,0,0,1.914,0Zm2.552-8.55a4.275,4.275,0,0,1,0,8.55h-.638v-8.55h.638ZM24.5,9.347a3.717,3.717,0,1,1,3.717-3.717A3.721,3.721,0,0,1,24.5,9.347Zm16.767,2.664H39.29a.957.957,0,1,0,0,1.914h1.98a7.685,7.685,0,0,0,3.483-.832,5.514,5.514,0,0,1-5.217,3.752h-1.6a.957.957,0,1,0,0,1.914h1.6c.246,0,.49-.013.73-.036a9.061,9.061,0,0,1-5.794,2.112,8.962,8.962,0,0,1-6.34-2.606l-.758-.75V14.385h.245a4.331,4.331,0,0,0,4.305-3.7,2.427,2.427,0,0,1,2.413-2.073h6.682a11,11,0,0,0,2.71-.339l3.222-.819A5.832,5.832,0,0,1,41.269,12.011Z" transform="translate(-0.001 0)" fill="#e0e1e9"/>
          </g>
        </g>
        <g id="Group_146" data-name="Group 146" transform="translate(19.716 47.089)">
          <g id="Group_145" data-name="Group 145">
            <path id="Path_152" data-name="Path 152" d="M207.635,492.281a.956.956,0,1,0,.281.677A.963.963,0,0,0,207.635,492.281Z" transform="translate(-206.001 -492.001)" fill="#e0e1e9"/>
          </g>
        </g>
      </g>
    </g>
  </g>
</svg>
