<svg xmlns="http://www.w3.org/2000/svg" width="180" height="213" viewBox="0 0 180 213">
  <g id="Group_1916" data-name="Group 1916" transform="translate(-1380.532 -275)">
    <g id="Group_1915" data-name="Group 1915" transform="translate(35 44)">
      <g id="Group_1726" data-name="Group 1726" transform="translate(-54.468 -7)">
        <rect id="Rectangle_1081" data-name="Rectangle 1081" width="180" height="213" rx="30" transform="translate(1400 238)" fill="#f2f3f6"/>
        <g id="Group_677" data-name="Group 677" transform="translate(1544.434 389.153)">
          <rect id="Rectangle_645" data-name="Rectangle 645" width="23" height="6" rx="3" transform="translate(-0.434 7.847)" fill="#e0e1e9"/>
          <rect id="Rectangle_646" data-name="Rectangle 646" width="22" height="7" rx="3.5" transform="translate(14.566 -0.153) rotate(90)" fill="#e0e1e9"/>
        </g>
        <g id="Group_679" data-name="Group 679" transform="translate(1406.723 261.6)">
          <g id="Group_133" data-name="Group 133" transform="translate(0 0)">
            <rect id="Rectangle_629" data-name="Rectangle 629" width="3.55" height="9.129" rx="1.775" transform="translate(25.368 6.593)" fill="#e0e1e9"/>
            <path id="Union_2" data-name="Union 2" d="M1.522,4.122v-.5H1.037a1.037,1.037,0,1,1,0-2.074h.485V1.022a1.022,1.022,0,1,1,2.044,0v.521h.469a1.037,1.037,0,1,1,0,2.074H3.566v.5a1.022,1.022,0,1,1-2.044,0Z" transform="translate(24.861 0)" fill="#e0e1e9"/>
            <path id="Union_1" data-name="Union 1" d="M18.748,13.993,14.369,6.41l-.788.788A2.655,2.655,0,0,1,9.9,7.2L9.111,6.41,4.732,13.993A2.536,2.536,0,1,1,.34,11.458l5.832-10.1A2.534,2.534,0,0,1,8.117.1a2.535,2.535,0,0,1,2.5.642L11.74,1.866,12.864.743A2.535,2.535,0,0,1,15.363.1a2.531,2.531,0,0,1,1.944,1.255l5.833,10.1a2.536,2.536,0,1,1-4.392,2.535Z" transform="translate(0 0.305)" fill="#e0e1e9"/>
          </g>
        </g>
        <g id="Group_690" data-name="Group 690" transform="translate(1413.732 372.259)">
          <rect id="Rectangle_645-2" data-name="Rectangle 645" width="23" height="6" rx="3" transform="translate(0.268 7.741)" fill="#e0e1e9"/>
          <rect id="Rectangle_646-2" data-name="Rectangle 646" width="22" height="7" rx="3.5" transform="translate(15.268 -0.259) rotate(90)" fill="#e0e1e9"/>
        </g>
        <g id="Group_691" data-name="Group 691" transform="translate(1514.097 251.491)">
          <g id="Group_38" data-name="Group 38" transform="translate(35.759 26.809)">
            <path id="Path_59" data-name="Path 59" d="M490.089,102.555a1.853,1.853,0,0,0-1.167.415l-10.454,8.535a2.352,2.352,0,0,0-.853,1.569l-.7,6.281a1.531,1.531,0,0,0,1.38,1.689l6.292.575a2.367,2.367,0,0,0,1.711-.522l10.454-8.535a1.85,1.85,0,0,0,.263-2.6l-5.495-6.73A1.844,1.844,0,0,0,490.089,102.555ZM484.811,123.6c-.133,0-.267-.006-.4-.019l-6.292-.575a3.5,3.5,0,0,1-3.16-3.868l.7-6.281a4.308,4.308,0,0,1,1.567-2.879l10.454-8.535a3.824,3.824,0,0,1,5.372.544l5.495,6.73a3.818,3.818,0,0,1-.544,5.372l-10.454,8.534A4.3,4.3,0,0,1,484.811,123.6Z" transform="translate(-474.936 -100.586)" fill="#03a9f4"/>
          </g>
          <g id="Group_39" data-name="Group 39" transform="translate(39.739 38.982)">
            <path id="Path_60" data-name="Path 60" d="M481.805,112.96a1.521,1.521,0,1,0,.154.009A1.4,1.4,0,0,0,481.805,112.96Zm.01,4.969a3.335,3.335,0,0,1-.357-.019,3.446,3.446,0,1,1,.357.019Z" transform="translate(-478.338 -110.989)" fill="#03a9f4"/>
          </g>
          <g id="Group_40" data-name="Group 40" transform="translate(7.914 7.916)">
            <path id="Path_61" data-name="Path 61" d="M473.3,119.961h-8.8a.985.985,0,0,1-.984-.986V107.587h-11.39a.987.987,0,0,1-.986-.986V97.8a.987.987,0,0,1,.986-.986h11.39V85.424a.985.985,0,0,1,.984-.984h8.8a.985.985,0,0,1,.986.984v11.39h11.39a.987.987,0,0,1,.987.986v4.236a.986.986,0,0,1-1.972,0v-3.25H473.3a.985.985,0,0,1-.984-.986V86.41h-6.83V97.8a.986.986,0,0,1-.986.986H453.112v6.829H464.5a.986.986,0,0,1,.986.986v11.39h6.83V106.6a.985.985,0,0,1,.984-.986h8.29a.986.986,0,0,1,0,1.972h-7.3v11.389A.985.985,0,0,1,473.3,119.961Z" transform="translate(-451.14 -84.44)" fill="#03a9f4"/>
          </g>
          <g id="Group_41" data-name="Group 41" transform="translate(0 0)">
            <path id="Path_62" data-name="Path 62" d="M470.051,129.028a25.676,25.676,0,1,1,25.368-29.679.986.986,0,0,1-1.949.305,23.7,23.7,0,1,0-12.176,24.572.985.985,0,1,1,.936,1.734A25.7,25.7,0,0,1,470.051,129.028Z" transform="translate(-444.376 -77.675)" fill="#03a9f4"/>
          </g>
        </g>
      </g>
    </g>
  </g>
</svg>
