<svg xmlns="http://www.w3.org/2000/svg" width="272" height="143" viewBox="0 0 272 143">
  <g id="Group_1915" data-name="Group 1915" transform="translate(-49 -1537)">
    <rect id="Rectangle_1171" data-name="Rectangle 1171" width="272" height="143" rx="10" transform="translate(49 1537)" fill="#f2f3f6"/>
    <g id="Group_1740" data-name="Group 1740" transform="translate(69.816 1551.916)">
      <path id="Path_11941" data-name="Path 11941" d="M233.731,309.663a3.927,3.927,0,0,0-3.922,3.922v28.72a3.926,3.926,0,0,0,3.922,3.922h43.249a3.925,3.925,0,0,0,3.921-3.922v-28.72a3.926,3.926,0,0,0-3.921-3.922Zm43.249,38.427H233.731a5.79,5.79,0,0,1-5.784-5.784v-28.72a5.792,5.792,0,0,1,5.784-5.786h43.249a5.792,5.792,0,0,1,5.785,5.786v28.72A5.79,5.79,0,0,1,276.979,348.09Z" transform="translate(-227.946 -307.799)" fill="#03a9f4"/>
      <path id="Path_11942" data-name="Path 11942" d="M245.77,342.325H235.687a.932.932,0,1,1,0-1.864H245.77a1.987,1.987,0,0,0,0-3.974.931.931,0,1,1,0-1.862,3.85,3.85,0,0,1,0,7.7Z" transform="translate(-225.002 -296.197)" fill="#03a9f4"/>
      <path id="Path_11943" data-name="Path 11943" d="M262.961,342.325H252.877a3.85,3.85,0,0,1,0-7.7.931.931,0,1,1,0,1.862,1.987,1.987,0,1,0,0,3.974h10.083a.932.932,0,1,1,0,1.864Z" transform="translate(-218.828 -296.197)" fill="#03a9f4"/>
      <path id="Path_11945" data-name="Path 11945" d="M268.473,313.875H243.048a.932.932,0,1,1,0-1.864h25.426a.932.932,0,0,1,0,1.864Z" transform="translate(-221.818 -305.977)" fill="#03a9f4"/>
      <path id="Path_11946" data-name="Path 11946" d="M268.473,316.813H243.048a.932.932,0,1,1,0-1.864h25.426a.932.932,0,0,1,0,1.864Z" transform="translate(-221.818 -304.707)" fill="#03a9f4"/>
      <path id="Path_11947" data-name="Path 11947" d="M253.7,319.75H243.048a.932.932,0,1,1,0-1.864H253.7a.932.932,0,1,1,0,1.864Z" transform="translate(-221.818 -303.436)" fill="#03a9f4"/>
      <path id="Path_11948" data-name="Path 11948" d="M234.72,325.813H233.3a.932.932,0,1,1,0-1.864h1.422a.932.932,0,0,1,0,1.864Z" transform="translate(-226.035 -300.814)" fill="#03a9f4"/>
      <path id="Path_11949" data-name="Path 11949" d="M238.112,325.813h-1.424a.932.932,0,0,1,0-1.864h1.424a.932.932,0,0,1,0,1.864Z" transform="translate(-224.568 -300.814)" fill="#03a9f4"/>
      <path id="Path_11950" data-name="Path 11950" d="M241.5,325.813h-1.421a.932.932,0,0,1,0-1.864H241.5a.932.932,0,1,1,0,1.864Z" transform="translate(-223.1 -300.814)" fill="#03a9f4"/>
      <path id="Path_11951" data-name="Path 11951" d="M244.895,325.813h-1.421a.932.932,0,1,1,0-1.864h1.421a.932.932,0,0,1,0,1.864Z" transform="translate(-221.634 -300.814)" fill="#03a9f4"/>
      <path id="Path_11952" data-name="Path 11952" d="M248.285,325.813h-1.421a.932.932,0,0,1,0-1.864h1.421a.932.932,0,1,1,0,1.864Z" transform="translate(-220.167 -300.814)" fill="#03a9f4"/>
      <path id="Path_11953" data-name="Path 11953" d="M255.07,325.813h-1.422a.932.932,0,0,1,0-1.864h1.422a.932.932,0,0,1,0,1.864Z" transform="translate(-217.233 -300.814)" fill="#03a9f4"/>
      <path id="Path_11954" data-name="Path 11954" d="M258.46,325.813h-1.421a.932.932,0,0,1,0-1.864h1.421a.932.932,0,1,1,0,1.864Z" transform="translate(-215.766 -300.814)" fill="#03a9f4"/>
      <path id="Path_11955" data-name="Path 11955" d="M261.853,325.813h-1.421a.932.932,0,1,1,0-1.864h1.421a.932.932,0,0,1,0,1.864Z" transform="translate(-214.299 -300.814)" fill="#03a9f4"/>
      <path id="Path_11956" data-name="Path 11956" d="M251.678,325.813h-1.421a.932.932,0,1,1,0-1.864h1.421a.932.932,0,0,1,0,1.864Z" transform="translate(-218.7 -300.814)" fill="#03a9f4"/>
      <path id="Path_11957" data-name="Path 11957" d="M263.316,334.768c-1.037,0-1.64-.963-2.176-1.816-.491-.785-1-1.6-1.66-1.653-.244-.027-.421.067-.844.352a3.545,3.545,0,0,1-2.471.784,4.773,4.773,0,0,1-1.65-.433,2.053,2.053,0,0,0-1.258-.234,1.723,1.723,0,0,0-.58.195,1.81,1.81,0,0,1-1.219.219c-1.236-.222-1.731-1.438-2.093-2.325-.036-.086-.076-.186-.119-.286-.179.317-.381.742-.534,1.067-.663,1.4-1.417,2.987-2.815,2.993a2.419,2.419,0,0,1-1.908-1.318c-.384-.531-.642-.859-1-.9-.206-.021-.311.037-.666.281a2.771,2.771,0,0,1-1.95.616,3.248,3.248,0,0,1-2.144-1.294c-.388-.431-.573-.607-.828-.613-.087,0-.1,0-.423.192a8.214,8.214,0,0,1-1.361.7,10.066,10.066,0,0,1-2.634.659.932.932,0,1,1-.2-1.852,8.124,8.124,0,0,0,2.143-.534,6.623,6.623,0,0,0,1.083-.554,2.429,2.429,0,0,1,1.384-.468,2.967,2.967,0,0,1,2.225,1.231c.374.415.6.652.934.683.232.027.367-.053.72-.3a2.7,2.7,0,0,1,1.918-.6,3.305,3.305,0,0,1,2.312,1.662,2.841,2.841,0,0,0,.466.557,10.476,10.476,0,0,0,1.064-1.944c.635-1.336,1.259-2.6,2.417-2.482.947.09,1.318,1,1.645,1.8.152.372.47,1.152.7,1.195-.029-.006.011-.03.057-.054a3.572,3.572,0,0,1,1.125-.368,3.821,3.821,0,0,1,2.259.355,3.045,3.045,0,0,0,1.044.294,1.952,1.952,0,0,0,1.316-.466,2.994,2.994,0,0,1,2.051-.668c1.583.136,2.447,1.513,3.077,2.518a6.992,6.992,0,0,0,.613.882,11.857,11.857,0,0,0,1.266-3.067c.55-1.753.915-2.914,2-2.778.839.1,1.018.953,1.136,1.514a2.815,2.815,0,0,0,.3.937c-.026-.039.125-.128.236-.195a3.307,3.307,0,0,1,2.1-.589,3.492,3.492,0,0,1,1.6.583,3.047,3.047,0,0,0,1.3.5,3.709,3.709,0,0,0,.958,0,.931.931,0,0,1,.233,1.846,5.577,5.577,0,0,1-1.433,0,4.875,4.875,0,0,1-2.013-.741,1.77,1.77,0,0,0-.808-.329,1.579,1.579,0,0,0-1,.332,2.009,2.009,0,0,1-1.91.317,1.916,1.916,0,0,1-.943-.857c-.669,2.13-1.357,4.313-2.919,4.447C263.41,334.765,263.363,334.768,263.316,334.768Z" transform="translate(-226.215 -299.499)" fill="#03a9f4"/>
      <g id="Group_704" data-name="Group 704" transform="translate(7.404 6.034)">
        <path id="Path_11970" data-name="Path 11970" d="M200.2,508.5a1.315,1.315,0,0,1,.576-.26l-.006.078Zm4.286.015-.006.035-.726-.233-.008-.1A1.7,1.7,0,0,1,204.487,508.52Zm-5.051,3.955a.268.268,0,1,1,.269-.268A.268.268,0,0,1,199.436,512.475Zm1.391-4.824a2.044,2.044,0,0,0-1.6,1.168l-1.311.422a1.743,1.743,0,0,0-1.221,1.652l-.286,2.82a.288.288,0,0,0,.258.317l.03,0a.291.291,0,0,0,.288-.261l.288-2.834c0-.009,0-.02,0-.029a1.167,1.167,0,0,1,.817-1.116l1.06-.341v1.96a.847.847,0,1,0,.579,0v-2.146l1.4-.451a.289.289,0,0,0,.2-.251l.107-1.256a.292.292,0,0,0,0-.052.289.289,0,0,0-.053-.271,2.01,2.01,0,0,1-.409-.739l-.034-.266a1.7,1.7,0,0,0-.167-.552l-.033-.066a1.146,1.146,0,0,1-.12-.509v-1.1a1.685,1.685,0,1,1,3.37,0V504.8a1.141,1.141,0,0,1-.155.575,1.707,1.707,0,0,0-.22.65l-.028.218a1.968,1.968,0,0,1-.432.765.292.292,0,0,0-.068.229.289.289,0,0,0,0,.067l.107,1.256a.289.289,0,0,0,.2.251l.989.318L204,511.351l0,.009a1.122,1.122,0,0,0,.486,1.087.29.29,0,0,0,.4-.077.289.289,0,0,0-.078-.4.55.55,0,0,1-.237-.525l.365-2.132.22.071.624,2.019a.482.482,0,0,1-.237.547l-.026.016a.29.29,0,0,0,.158.532.285.285,0,0,0,.158-.047l.025-.016a1.051,1.051,0,0,0,.474-1.2l-.5-1.633.6.2a1.165,1.165,0,0,1,.817,1.115.27.27,0,0,0,0,.029l.288,2.834a.291.291,0,0,0,.288.261l.029,0a.289.289,0,0,0,.259-.317l-.287-2.82a1.742,1.742,0,0,0-1.219-1.652l-1-.319-.005-.011a2.561,2.561,0,0,0-1.919-1.274l-.029-.333a2.328,2.328,0,0,0,.5-.984l.028-.218a1.14,1.14,0,0,1,.146-.431,1.714,1.714,0,0,0,.235-.867v-1.051a2.265,2.265,0,1,0-4.529,0v1.1a1.727,1.727,0,0,0,.182.769l.032.066a1.129,1.129,0,0,1,.112.366l.034.265a2.327,2.327,0,0,0,.46.937h0Z" transform="translate(-196.402 -501.487)" fill="#03a9f4" stroke="#03a9f4" stroke-width="1.5"/>
      </g>
    </g>
    <g id="_322632" data-name="322632" transform="translate(249.989 1551.916)">
      <g id="Group_740" data-name="Group 740" transform="translate(7.306 27.358)">
        <path id="Path_12001" data-name="Path 12001" d="M905.729,1042.075l-2.749,2.749L897.153,1039a1.944,1.944,0,0,1,2.749-2.749Z" transform="translate(-896.583 -1035.679)" fill="#f2f3f6"/>
      </g>
      <g id="Group_741" data-name="Group 741" transform="translate(6.385 26.438)">
        <path id="Path_12002" data-name="Path 12002" d="M893.612,1031.692a1.022,1.022,0,0,0-.722,1.745l5.175,5.175,1.446-1.446-5.175-5.175A1.019,1.019,0,0,0,893.612,1031.692Zm4.453,9.527-6.478-6.479a2.866,2.866,0,1,1,4.052-4.053l6.479,6.478Z" transform="translate(-890.746 -1029.849)" fill="#e0e1e9"/>
      </g>
      <g id="Group_742" data-name="Group 742" transform="translate(4.39 37.476)">
        <path id="Path_12003" data-name="Path 12003" d="M887.254,1106.171l-2.749,2.749-5.827-5.827a1.944,1.944,0,0,1,2.749-2.749Z" transform="translate(-878.108 -1099.775)" fill="#f2f3f6"/>
      </g>
      <g id="Group_743" data-name="Group 743" transform="translate(3.468 36.554)">
        <path id="Path_12004" data-name="Path 12004" d="M875.136,1095.781a1.022,1.022,0,0,0-.722,1.745l5.175,5.175,1.446-1.446-5.175-5.175A1.017,1.017,0,0,0,875.136,1095.781Zm4.453,9.528-6.479-6.479a2.866,2.866,0,0,1,4.052-4.053l6.479,6.479Z" transform="translate(-872.271 -1093.938)" fill="#e0e1e9"/>
      </g>
      <g id="Group_744" data-name="Group 744" transform="translate(6.196 19.283)">
        <path id="Path_12005" data-name="Path 12005" d="M909.485,995.674l-15.5,23.625a1.406,1.406,0,0,1-2.17.224l-1.855-1.855a1.405,1.405,0,0,1-.362-1.367l8.66-31.552a.3.3,0,0,1,.5-.133l10.681,10.68A.3.3,0,0,1,909.485,995.674Z" transform="translate(-889.552 -984.527)" fill="#f2f3f6"/>
      </g>
      <g id="Group_745" data-name="Group 745" transform="translate(5.275 18.362)">
        <path id="Path_12006" data-name="Path 12006" d="M903.8,990.253h0v0Zm-9.845-9.147-8.377,30.522a.486.486,0,0,0,.125.471l1.855,1.855a.485.485,0,0,0,.748-.077l15.217-23.2ZM887.9,1015.94a2.319,2.319,0,0,1-1.643-.681L884.4,1013.4a2.334,2.334,0,0,1-.6-2.263l8.66-31.551a1.223,1.223,0,0,1,2.043-.541l10.681,10.681a1.227,1.227,0,0,1,.158,1.534h0l-15.495,23.625a2.32,2.32,0,0,1-1.709,1.039C888.058,1015.936,887.978,1015.94,887.9,1015.94Z" transform="translate(-883.718 -978.69)" fill="#e0e1e9"/>
      </g>
      <g id="Group_746" data-name="Group 746" transform="translate(28.868 5.795)">
        <path id="Path_12007" data-name="Path 12007" d="M1039.577,908.225l2.75-2.749-5.826-5.827a1.944,1.944,0,0,0-2.75,2.749Z" transform="translate(-1033.182 -899.079)" fill="#f2f3f6"/>
      </g>
      <g id="Group_747" data-name="Group 747" transform="translate(27.948 4.875)">
        <path id="Path_12008" data-name="Path 12008" d="M1030.214,895.092a1.022,1.022,0,0,0-.723,1.745l5.174,5.175,1.447-1.446-5.175-5.175A1.02,1.02,0,0,0,1030.214,895.092Zm4.451,9.527-6.478-6.479a2.866,2.866,0,0,1,4.053-4.053l6.479,6.479Z" transform="translate(-1027.35 -893.25)" fill="#e0e1e9"/>
      </g>
      <g id="Group_748" data-name="Group 748" transform="translate(38.986 2.879)">
        <path id="Path_12009" data-name="Path 12009" d="M1103.675,889.75l2.749-2.749-5.827-5.827a1.944,1.944,0,1,0-2.749,2.749Z" transform="translate(-1097.279 -880.604)" fill="#f2f3f6"/>
      </g>
      <g id="Group_749" data-name="Group 749" transform="translate(38.066 1.959)">
        <path id="Path_12010" data-name="Path 12010" d="M1094.314,876.617a1.022,1.022,0,0,0-.724,1.745l5.176,5.175,1.446-1.446-5.175-5.175A1.019,1.019,0,0,0,1094.314,876.617Zm4.452,9.526-6.478-6.478a2.866,2.866,0,1,1,4.053-4.053l6.479,6.478Z" transform="translate(-1091.45 -874.775)" fill="#e0e1e9"/>
      </g>
      <g id="Group_750" data-name="Group 750" transform="translate(20.794 4.685)">
        <path id="Path_12011" data-name="Path 12011" d="M993.176,911.981l23.625-15.5a1.406,1.406,0,0,0,.224-2.17l-1.856-1.855a1.4,1.4,0,0,0-1.367-.362l-31.552,8.66a.3.3,0,0,0-.133.5L992.8,911.942A.3.3,0,0,0,993.176,911.981Z" transform="translate(-982.029 -892.048)" fill="#f2f3f6"/>
      </g>
      <g id="Group_751" data-name="Group 751" transform="translate(19.873 3.764)">
        <path id="Path_12012" data-name="Path 12012" d="M978.611,896.448l9.568,9.568,23.2-15.218a.484.484,0,0,0,.077-.747L1009.6,888.2a.488.488,0,0,0-.472-.125Zm9.147,9.844h0Zm.34,1.741a1.225,1.225,0,0,1-.867-.358L976.553,897a1.221,1.221,0,0,1,.542-2.043l31.549-8.66a2.333,2.333,0,0,1,2.263.6l1.855,1.855a2.329,2.329,0,0,1-.37,3.592l-23.627,15.5A1.217,1.217,0,0,1,988.1,908.034Z" transform="translate(-976.194 -886.21)" fill="#e0e1e9"/>
      </g>
      <g id="Group_752" data-name="Group 752" transform="translate(0.921 0.922)">
        <path id="Path_12013" data-name="Path 12013" d="M860.742,868.44a3.381,3.381,0,0,0-4.373,4.373,38.915,38.915,0,0,0,9.846,15.121l5.917,5.917,25.214,21.06a16.548,16.548,0,0,0,6.543,3.341,1.885,1.885,0,0,0,2.291-2.291,16.55,16.55,0,0,0-3.341-6.543L881.78,884.2l-5.917-5.918A38.912,38.912,0,0,0,860.742,868.44Z" transform="translate(-856.134 -868.205)" fill="#f2f3f6"/>
      </g>
      <g id="Group_753" data-name="Group 753" transform="translate(0 0)">
        <path id="Path_12014" data-name="Path 12014" d="M867.842,888.253l25.184,21.034a15.734,15.734,0,0,0,6.178,3.155.964.964,0,0,0,1.171-1.171,15.719,15.719,0,0,0-3.155-6.179l-21.033-25.183-5.887-5.888a38.165,38.165,0,0,0-14.8-9.637,2.458,2.458,0,0,0-3.181,3.181,38.152,38.152,0,0,0,9.638,14.8Zm31.609,26.063a2.868,2.868,0,0,1-.7-.088,17.6,17.6,0,0,1-6.908-3.527l-25.275-21.116-5.917-5.917A39.806,39.806,0,0,1,850.6,868.228a4.3,4.3,0,0,1,5.564-5.564A39.8,39.8,0,0,1,871.6,872.718l5.973,5.978,21.06,25.214a17.582,17.582,0,0,1,3.527,6.907,2.81,2.81,0,0,1-2.711,3.5Z" transform="translate(-850.3 -862.366)" fill="#e0e1e9"/>
      </g>
      <g id="Group_754" data-name="Group 754" transform="translate(37.193 37.194)">
        <path id="Path_12015" data-name="Path 12015" d="M1104.551,1102.3l-8.087,5.828a1.783,1.783,0,0,0-.411.411l-5.828,8.086a.737.737,0,0,1-1.119.09l-2.151-2.151a3.548,3.548,0,0,1-.905-3.478l2.6-9.191a1.69,1.69,0,0,1,1.165-1.165l9.191-2.6a3.55,3.55,0,0,1,3.479.905l2.151,2.151A.737.737,0,0,1,1104.551,1102.3Z" transform="translate(-1085.916 -1097.988)" fill="#f2f3f6"/>
      </g>
      <g id="Group_755" data-name="Group 755" transform="translate(36.271 36.273)">
        <path id="Path_12016" data-name="Path 12016" d="M1095.063,1094a2.613,2.613,0,0,0-.715.1l-9.191,2.6a.764.764,0,0,0-.531.531l-2.6,9.19a2.63,2.63,0,0,0,.671,2.576l2,2,5.7-7.91a2.736,2.736,0,0,1,.62-.619l7.91-5.7-2-2A2.631,2.631,0,0,0,1095.063,1094Zm-10.351,18.94a1.657,1.657,0,0,1-1.172-.485l-2.15-2.151a4.474,4.474,0,0,1-1.141-4.381l2.6-9.191a2.6,2.6,0,0,1,1.8-1.8l9.191-2.6a4.482,4.482,0,0,1,4.382,1.141l2.151,2.151a1.659,1.659,0,0,1-.2,2.518l-8.086,5.828a.884.884,0,0,0-.2.2l-5.827,8.086a1.652,1.652,0,0,1-1.211.683C1084.8,1112.936,1084.756,1112.938,1084.711,1112.938Z" transform="translate(-1080.079 -1092.156)" fill="#e0e1e9"/>
      </g>
    </g>
  </g>
</svg>
