<svg xmlns="http://www.w3.org/2000/svg" width="112.568" height="322.46" viewBox="0 0 112.568 322.46">
  <g id="Group_1915" data-name="Group 1915" transform="translate(-162.156 -254.331)">
    <g id="Group_670" data-name="Group 670" transform="translate(162.156 254.331)">
      <path id="Path_11821" data-name="Path 11821" d="M343.66,401.374h24.022c1.08-2.1.293-3.426.055-5.2-.348-2.6.379-7.307-.4-9.394-.433-1.159-.946-1.041-.69-2.163,1.745-7.662,5.3-60.229,6.012-62.4.466-1.423.938-.5.451-2.388-.185-.718-.346.257-.1-.986.244-1.216.3.185.343-1.3a31.143,31.143,0,0,1,.944-8.592c5-.828,9.271-3.1,13.556-4.322.188,3.375.224,6.967.384,10.354a8.11,8.11,0,0,1-.084,2.407c-.293,1.035-.639.4-.59,2.033l.039.624c-.006.057-.021.137-.031.194-.178.972-1,.917.524,2.982,1.125,1.524,2,16.888,2.261,19.86l2.726,30.222c.27,2.844.146,8.129,1.428,9.977l-.776.5c-2.371,1.745-2.5,4.43-2.49,7.254a41.058,41.058,0,0,1-.08,5.4c-.34,1.864-.824,2.925.105,4.934h24.022a7.04,7.04,0,0,0,.438-3.174c-.031-2.329-.182-1.28-.9-2.658-.466-.892-.209-1.444-.86-2.543a5.872,5.872,0,0,1-1.111-2.056c-1.772-5.765-1.08-7.388-4.617-8.471a4.034,4.034,0,0,0,.978-1.842l.141-53.918c0-.922-.016-1.824.057-2.736a10.364,10.364,0,0,1,.542-2.312c.206-1.106-.29-.762-.185-2.01.133-1.6.519-.48-.149-2.137-.781-1.942.3-18.18.478-21.562l3.463.385c.632,2.7,1.108,5.339,1.667,8.1.507,2.492.6,6.59,3.6,5.69,6.117-1.832,12.014-8.926,14.788-14.263.98-1.886-.016-3.385-1.073-7.02L419.4,244c-1.407-4.958-2.919-9.915-4.363-14.886-1.081-3.721-3.273-8.881-2.864-12.672.076-.7.323-.424.5-1.422-.8-1-1.1-.494-1.176-1.514l.4-8.3c21.786-1.3,15-21.211,12.317-34.369-1.349-6.624-2.75-15.225-4.787-21.636-1.569-4.935-6.633-7.195-11.01-8.807-5.716-2.105-1.925-2.348-4.09-3.05l-.665-.209c-.285-.092-.6-.2-.881-.293-.617-.211-1.207-.411-1.931-.652-1.235-.411-2.319-.8-3.635-1.256-2.353-.819-5.414-1.667-7.44-2.616-.172-4.2,3.349-2.134,6.477-9.32.455-1.043.815-3.532,1.54-3.874l1.219-.537a3.078,3.078,0,0,0,1.09-.932,7.35,7.35,0,0,0,1.459-2.559c1.079-3.089.382-3.82-.995-5.9s2.9-8.864,2.787-12.2c-.083-2.5-1.75-4.082-2.943-5.162-3.185-2.886-2.413.045-3.445-4.579a11.18,11.18,0,0,0-2.785-5.274c-1.918-1.96-2.919-1.543-5.049-2.782h-5.853c-2.3,1.1-10.642,1.378-18.348,8.759a12.438,12.438,0,0,0-4.213,9.326c-.131,2.753.6,9.672,1.417,12-.041.8-3.109,2.033-1.62,6.346.776,2.25,1.77,3.99,4.484,4.095,1.81,8.665,7.171,8.871,7.466,11.476.227,2.011-1.494,3.089-2.506,3.965-3.036-.5-.719-1.666-5.807.551A40.086,40.086,0,0,1,358.471,138c-.688,1.4.238.921-1,1.646l-9.932,4.429c-1.445.861-2.281,1.088-3.226,2.51-3.99,6-4.112,21.537-4.181,29.651-.025,2.893-.538,8.528-.06,10.935,1.195,6.014,6.14,9.308,12.638,10.319.293,2.594,2.091,15.685,1.76,17.133-.026.109-.12.14-.154.182s-.245.284-.294.356c-.811,1.191-.183,3.911-.863,6.027-5.183,16.1-10.5,34.317-15.453,50.609-2.9,9.528-5.939,19.24-8.789,28.812-1.023,3.436,1.024,4.629,2.81,6.036a51.957,51.957,0,0,0,19.252,9.135c0,7.165-.539,15.425-.879,22.71l-1.309,33.879c-.054,1.843-.143,3.85-.217,5.522-.473,10.579.619,1.882-1.562,9.736-1.685,6.069-1.937,4.4-2.472,6.427-.485,1.841.009.812-.83,2.035C342.958,397.183,343.058,400.148,343.66,401.374Z" transform="translate(-321.458 -78.913)" fill="#cec5c8" fill-rule="evenodd"/>
      <path id="Path_11825" data-name="Path 11825" d="M394.368,468.709l.04.087H418.43l.044-.087ZM346.8,468.8h24.022l.044-.087H346.754Z" transform="translate(-324.593 -146.335)" fill="#cec5c8" fill-rule="evenodd"/>
      <path id="Path_11826" data-name="Path 11826" d="M360.77,111.783s-3.138-12.208-1.421-18.216S372.4,79.831,383.73,79.315s11.462,10.6,11.462,10.6c12.053,6.6,2.112,12.227,2.653,20.728C398.02,113.4,360.878,112.02,360.77,111.783Z" transform="translate(-326.684 -78.931)" fill="#262262" fill-rule="evenodd"/>
      <path id="Path_11827" data-name="Path 11827" d="M362.884,444.639c.051.351-.4,8.614-.4,8.614s-9.164-3.105-8.363-3.806S362.884,444.639,362.884,444.639Z" transform="translate(-325.859 -142.169)" fill="#262262" fill-rule="evenodd"/>
      <path id="Path_11828" data-name="Path 11828" d="M400.2,444.388a41.143,41.143,0,0,0-1.252,5.158c.1.551,8.313,3.405,9.566,2.8s4.507-3.306,4.507-3.706-.151-5.458-.151-5.458Z" transform="translate(-333.626 -141.917)" fill="#262262" fill-rule="evenodd"/>
      <path id="Path_11829" data-name="Path 11829" d="M418.54,335.265s-5.809-12.219-21.634-4.607-28.445,13.221-44.87,11.618,11.217-75.119,20.833-76.32S416.938,261.95,418.54,335.265Z" transform="translate(-324.624 -111.173)" fill="#bcb0bf" fill-rule="evenodd"/>
      <path id="Path_11830" data-name="Path 11830" d="M346.763,343.347l-2.8,72.916a1.692,1.692,0,0,0,1.252,1.7c1.4.551,7.261,2.254,15.725,1.052a1.892,1.892,0,0,0,1.4-1.752c.151-1.5,5.51-61.3,5.51-61.3a2.228,2.228,0,0,0,.751-1.253c.175-.826-.4-.976-.6-1.426s.827-1.2.752-1.679a6.14,6.14,0,0,0-.426-1.226l10.267-64.728a1.359,1.359,0,0,1,1.4-1.152l3.356-9.341H356A173.35,173.35,0,0,0,351.6,298.2C349.593,313.022,346.763,343.347,346.763,343.347Z" transform="translate(-324.108 -112.834)" fill="#26377f" fill-rule="evenodd"/>
      <path id="Path_11831" data-name="Path 11831" d="M347.273,343.347l-.37,9.618,13.436-1.746,1.769-3.873,4.248-57.186s.1-4.808,4.006-4.457c3.1.279,5.57.619,8.56,1.074l.178-1.122a1.359,1.359,0,0,1,1.4-1.152l3.307-9.205-1.052-.136H356.515s-.856,2.923-1.97,8.428l-1.923,11q-.259,1.733-.514,3.6C350.1,313.022,347.273,343.347,347.273,343.347Z" transform="translate(-324.618 -112.834)" fill="#262262" fill-rule="evenodd"/>
      <path id="Path_11832" data-name="Path 11832" d="M387.535,284.6s1.253.274,1.553,3.028,2.3,64.05,2.3,64.05-.951.952-.951,1.4.7.952.7.952a1.825,1.825,0,0,0-.9,1.5c.049.953,1.452,2.1,1.452,2.1L397,416.476a1.686,1.686,0,0,0,1.4.853c.951,0,7.261.349,12.67-1.253,0,0,.9-.251.951-1.653s.2-57.791.2-57.791a1.671,1.671,0,0,0,0-2.6s1.452-1.8-.2-2.654l2.154-54.037,1.2-17.027-2.2-4.607-22.919,1.316h-2.321Z" transform="translate(-331.652 -112.927)" fill="#26377f" fill-rule="evenodd"/>
      <path id="Path_11833" data-name="Path 11833" d="M387.535,284.763s1.253.274,1.553,3.028c.136,1.249.623,14.555,1.115,28.718l2.767-26.139s-.3-3.205,5.009-3.005,8.513,1.8,9.315,7.713,4.971,50.345,4.975,50.377l1.911-47.952,1.2-17.027-.83-1.736c-4.34-.624-9.662-1.345-15.213-2.077l-9.079.522h-2.321Z" transform="translate(-331.652 -113.093)" fill="#262262" fill-rule="evenodd"/>
      <path id="Path_11834" data-name="Path 11834" d="M367.437,146.736l6.886-1.33,13.044-.288.515-.364,2.4.839,3.494,3.692,15.375,31.951-6.01,50.079,1.8,25.841a65.862,65.862,0,0,1-41.265-3.606l-6.01-95.05,6.11-11.518Z" transform="translate(-326.482 -90.261)" fill="#4a75cc" fill-rule="evenodd"/>
      <path id="Path_11835" data-name="Path 11835" d="M382.464,161.4h1.691s2.494-3.695,2.223-3.851-3.914-.8-3.914-.8-3.644.646-3.915.8,2.224,3.851,2.224,3.851Z" transform="translate(-330.093 -92.336)" fill="#e7477b" fill-rule="evenodd"/>
      <path id="Path_11836" data-name="Path 11836" d="M367.948,147.011l3.461-.668.533,4.24s-3.291,2.918-3.542,4.07-.9,11.468-.9,11.468l5.208,26.041,19.632-2.5,4.454-22.111,4.059,1.479s-5.323,32.5-5.108,33.553-34.479-10.253-34.479-10.253l-.638-38.157h0l3.667-6.912Z" transform="translate(-326.994 -90.536)" fill="#2a54a8" fill-rule="evenodd"/>
      <path id="Path_11837" data-name="Path 11837" d="M406.809,216.864l-1.951,16.256-3.953-1.113,2.966,13.4,1.623,23.271a52.2,52.2,0,0,1-8.778,1.477,7.018,7.018,0,0,0,2.294-5.874c-.047-.822-2.3-22.411-2.654-22.761S395,240.4,395.178,240.1s1.053-1.578,1.053-1.578-.6-4.382-.827-6.285a2.7,2.7,0,0,0-1.894-2.306l-.013,0-.011,0-.007,0-.006,0h-.006l-25.138-7.073s-1.452-.6-5.458.251c-.377.08-.807.19-1.275.325l-.763-12.078c9.809.608,21.653,1.188,21.468.434C382.1,210.964,396.32,214.3,406.809,216.864Z" transform="translate(-327.03 -101.787)" fill="#2a54a8" fill-rule="evenodd"/>
      <path id="Path_11838" data-name="Path 11838" d="M381.591,237.869l8.107-8.107-6.416-67.613-1-1.052H380.9l-1,1.052-6.416,67.613Z" transform="translate(-329.22 -93.09)" fill="#e7477b" fill-rule="evenodd"/>
      <path id="Path_11839" data-name="Path 11839" d="M388.988,228.024l-13.852-3.9,1.143-12.045c4.952.184,8.6.179,8.5-.242-.054-.221.967-.132,2.692.163Z" transform="translate(-329.506 -101.852)" fill="#a9255e" fill-rule="evenodd"/>
      <path id="Path_11840" data-name="Path 11840" d="M397.141,181.027h13.631a1.176,1.176,0,0,1,1.173,1.172v5.123a1.176,1.176,0,0,1-1.173,1.173H397.141a1.175,1.175,0,0,1-1.172-1.173V182.2A1.175,1.175,0,0,1,397.141,181.027Z" transform="translate(-333.111 -96.539)" fill="#26377f" fill-rule="evenodd"/>
      <path id="Path_11841" data-name="Path 11841" d="M398.689,183.244h10.842a.966.966,0,0,1,.963.963h0a.966.966,0,0,1-.963.963H398.689a.966.966,0,0,1-.964-.963h0A.966.966,0,0,1,398.689,183.244Z" transform="translate(-333.415 -96.923)" fill="#fff" fill-rule="evenodd"/>
      <path id="Path_11842" data-name="Path 11842" d="M411.409,186.71h.89a.482.482,0,0,1,0,.964h-.89a.482.482,0,0,1,0-.964Z" transform="translate(-335.701 -97.523)" fill="#abd3ec" fill-rule="evenodd"/>
      <path id="Path_11843" data-name="Path 11843" d="M398.207,186.71h8.9a.482.482,0,0,1,0,.964h-8.9a.482.482,0,1,1,0-.964Z" transform="translate(-333.415 -97.523)" fill="#abd3ec" fill-rule="evenodd"/>
      <path id="Path_11844" data-name="Path 11844" d="M381.506,115.211a8.538,8.538,0,0,1,8.513,8.512v17.318a8.513,8.513,0,1,1-17.026,0V123.723A8.538,8.538,0,0,1,381.506,115.211Z" transform="translate(-329.134 -85.147)" fill="#ee8b83" fill-rule="evenodd"/>
      <path id="Path_11845" data-name="Path 11845" d="M398.306,147.757l-1.452-1.665,18.279,6.859L418.488,172l-2.6,53.855s2.654.51.2,2.133c0,0,1.353.324.15,1.76l22.385,76.379s-5.208,11.864-15.223,15.386a1.65,1.65,0,0,1-2.3-.648c-.9-1.484-13.221-66.554-15.223-88.8a3.926,3.926,0,0,1-.7-1.761,1.642,1.642,0,0,1,.9-1.483s-1.5-.557-1.6-1.437.851-1.206.851-1.206l-3.856-23.634,5.158-31.334Z" transform="translate(-333.265 -90.493)" fill="#fff" fill-rule="evenodd"/>
      <path id="Path_11846" data-name="Path 11846" d="M418.934,193.82l-.465,9.6-14.379-4.1,1.773-10.77L417.136,175.8S414.1,188.211,418.934,193.82Z" transform="translate(-334.517 -95.634)" fill="#deeefa" fill-rule="evenodd"/>
      <path id="Path_11847" data-name="Path 11847" d="M417.793,218.374l-.808,16.71-11.716-3.3-2.79-17.093C407.65,215.885,413.4,217.287,417.793,218.374Z" transform="translate(-334.238 -102.367)" fill="#deeefa" fill-rule="evenodd"/>
      <path id="Path_11848" data-name="Path 11848" d="M393.583,143.683l14.973,5.1,6.762,21.457L400.9,202.125l1.6-35.039-6.209-21.412-2.7-.742Z" transform="translate(-332.699 -90.076)" fill="#fff" fill-rule="evenodd"/>
      <path id="Path_11849" data-name="Path 11849" d="M351.817,150.875l-11.067,4.681s6.109,5.81,5.108,25.275l-.4,5.405-2.4,14.645,3,26.325a1.493,1.493,0,0,0-.7,2.5s-1.2.69-.3,2.243l-24.939,81.728a3.377,3.377,0,0,0,.8,3.405c1.5,1.5,13.722,12.419,34.756,12.62a2.2,2.2,0,0,0,1.7-2.1c.1-1.8,3.105-94.049,3.105-94.049s1.6-.4.7-1.6c0,0,1.3-1.653,0-2.9l2.479-24.431Z" transform="translate(-319.954 -91.32)" fill="#fff" fill-rule="evenodd"/>
      <path id="Path_11850" data-name="Path 11850" d="M351.285,182.511q-.026,1.275-.1,2.638l-.4,5.405-.027.169,9.566,7.294s5.036-16.67-1.8-21.634l-5.556-.566Z" transform="translate(-325.286 -95.638)" fill="#deeefa" fill-rule="evenodd"/>
      <path id="Path_11851" data-name="Path 11851" d="M348.005,210.485l-.117.715,1.784,15.633a86.578,86.578,0,0,1,10.957-3.887c4.006-.852,5.458-.251,5.458-.251l1.576.444.833-8.205-.711-3.227C360.5,211.357,351.952,210.768,348.005,210.485Z" transform="translate(-324.789 -101.639)" fill="#deeefa" fill-rule="evenodd"/>
      <path id="Path_11852" data-name="Path 11852" d="M366.7,146.957l-2.154-.927-8.914,3.8-2.2,17.52,16.025,36.428L364.248,164.2l.852-16.755Z" transform="translate(-325.748 -90.482)" fill="#fff" fill-rule="evenodd"/>
      <path id="Path_11853" data-name="Path 11853" d="M410.678,154.387s7.026,2.512,8.729,7.92,7.913,37.46,7.913,37.46,1.4,9.915-4.206,14.423S410.092,218.4,402.98,217.9s-31.4-7.161-31.4-7.161-.276-.126-.4-.727-.025-6.285-.025-6.285l14.724-3.605,26.994-2.7.5-24.046Z" transform="translate(-328.81 -91.928)" fill="#fff" fill-rule="evenodd"/>
      <path id="Path_11854" data-name="Path 11854" d="M378.823,221.711c-4.221-1.095-7.242-1.923-7.242-1.923s-.276-.126-.4-.727-.025-6.285-.025-6.285l14.724-3.605,24.772-2.475-13.35,5.683-.642,2.136Z" transform="translate(-328.81 -100.983)" fill="#deeefa" fill-rule="evenodd"/>
      <path id="Path_11855" data-name="Path 11855" d="M401.916,199.07s5.909.2,7.912.552,6.155,5.754,6.155,5.754-10.985,2.042-11.336,1.992-1.259-2.033-1.259-2.033Z" transform="translate(-334.141 -99.663)" fill="#f2ba95" fill-rule="evenodd"/>
      <path id="Path_11856" data-name="Path 11856" d="M349.969,189.8l6.46,1.152a4.287,4.287,0,0,1,2.754,1.652c1.152,1.5,4.157,4.457,4.157,4.457l-11.969,1.753-3.356-4.307Z" transform="translate(-324.811 -98.059)" fill="#f2ba95" fill-rule="evenodd"/>
      <path id="Path_11857" data-name="Path 11857" d="M351.616,210.991s37.083-4.883,38.56-5.158a2.581,2.581,0,0,0,1.928-1.3,59.484,59.484,0,0,0,.9-6.561,72.981,72.981,0,0,0-1.628-7.85.939.939,0,0,0-1.015-.7l-40.264,1.8a1.994,1.994,0,0,0-1.687-2.067s.189-4.023.62-6.944,1.072-19.384-5.909-25.675c0,0-2.974,1.645-4.077,2.4s-3.08,4.532-3.982,9.54-1.4,30.749-1.4,30.749S333.914,211.49,351.616,210.991Z" transform="translate(-322.327 -92.3)" fill="#fff" fill-rule="evenodd"/>
      <path id="Path_11858" data-name="Path 11858" d="M362.824,117.717s-1.53-1.629-2.567-1.531-2.319,2.32-2.171,4,2.123,7.5,5.528,5.281S362.824,117.717,362.824,117.717Z" transform="translate(-326.552 -85.315)" fill="#f2ba95" fill-rule="evenodd"/>
      <path id="Path_11859" data-name="Path 11859" d="M364.294,119.914a.379.379,0,0,1,.076.44.208.208,0,0,1-.315.054s-.911,5.167-1.679,4.363a6.265,6.265,0,0,1-1.9-2.887c-.325-1.309.838-2.514.417-2.854-.4-.325-.831.185-.871.233l0,0h0a3.43,3.43,0,0,0-.495.968.209.209,0,0,1-.325.122.388.388,0,0,1-.155-.423s.587-1.967,2.027-1.905C362.449,118.087,364.288,119.909,364.294,119.914Z" transform="translate(-326.718 -85.635)" fill="#ee8b83" fill-rule="evenodd"/>
      <path id="Path_11860" data-name="Path 11860" d="M402.322,116.806s1.537-1.622,2.573-1.519,2.31,2.33,2.153,4.007-2.155,7.493-5.551,5.257S402.322,116.806,402.322,116.806Z" transform="translate(-333.84 -85.159)" fill="#f2ba95" fill-rule="evenodd"/>
      <path id="Path_11861" data-name="Path 11861" d="M401.16,119a.378.378,0,0,0-.079.438.208.208,0,0,0,.315.055s.889,5.171,1.66,4.37a6.261,6.261,0,0,0,1.911-2.878c.331-1.308-.827-2.518-.4-2.857.4-.323.83.189.869.237l0,0a3.409,3.409,0,0,1,.49.97.209.209,0,0,0,.325.125.389.389,0,0,0,.156-.423s-.578-1.97-2.018-1.915C403.012,117.179,401.165,118.992,401.16,119Z" transform="translate(-333.989 -85.478)" fill="#ee8b83" fill-rule="evenodd"/>
      <path id="Path_11862" data-name="Path 11862" d="M379.484,89.546c-21.346.442-18.1,17.041-16.139,30.428a17.605,17.605,0,0,0,3.966,8.946s6.049,5.246,8.133,6.341a10.169,10.169,0,0,0,8.64-.053c2.071-1.12,8.056-6.44,8.056-6.44A17.614,17.614,0,0,0,396,119.774C397.8,106.363,400.834,89.725,379.484,89.546Z" transform="translate(-327.217 -80.705)" fill="#f2ba95" fill-rule="evenodd"/>
      <path id="Path_11863" data-name="Path 11863" d="M361.86,102.707a39.452,39.452,0,0,0,.062,9.106,10.294,10.294,0,0,0,.963.562c11.718,6.06,23.913-8.538,26.241-9.239s2.811,2.067,2.811,2.067l4.951-.848a20.813,20.813,0,0,0-1.068-5.451C390.428,97.394,376.7,94.45,375,94.047,373.781,93.756,365.92,97.952,361.86,102.707Z" transform="translate(-327.166 -81.481)" fill="#ee8b83" fill-rule="evenodd"/>
      <path id="Path_11872" data-name="Path 11872" d="M400.514,449.47s-1.24.9-1.24-.794-1.021-1.53-1.922-.131-1.564,1.726-1.564,4.591v8.691c0,2.214,6.132.293,6.132.293l2.794-8.04Z" transform="translate(-333.08 -142.656)" fill="#fff" fill-rule="evenodd"/>
      <path id="Path_11873" data-name="Path 11873" d="M401.5,449.263l.862-1.575s.9-1.432,3.726-1.432h7.752a2.98,2.98,0,0,1,2.524,2.279c.722,2.213,2.584,9.179,2.584,9.179l-5.588,1.106-8.714-.39Z" transform="translate(-334.07 -142.449)" fill="#e0dcdc" fill-rule="evenodd"/>
      <path id="Path_11874" data-name="Path 11874" d="M400.733,463.347s1.855-7.278,7.632-7.278h6.7c1.676,0,4.708.9,4.708,5.243Z" transform="translate(-333.936 -144.147)" fill="#fff" fill-rule="evenodd"/>
      <path id="Path_11875" data-name="Path 11875" d="M403.856,466.284l-.074.241-.461,1.517h16.914l.417-.552-.356-2.242-9.13-.38Z" transform="translate(-334.384 -145.671)" fill="#aca8bc" fill-rule="evenodd"/>
      <path id="Path_11876" data-name="Path 11876" d="M395.683,463.03s.016.848,2.706.848a3.362,3.362,0,0,0,.753-.055c1.64-.345,4.173-1.724,8.167-1.724h10.948a1.46,1.46,0,0,1,1.623,1.586V466.6a.961.961,0,0,1-1.053.965s.471-1.53-1.581-1.53h-7.981c-2.54,0-3.722,1.53-7.6,1.53h-5.541c-.646,0-.936-.774-.936-1.485v-2.242A1.035,1.035,0,0,1,395.683,463.03Z" transform="translate(-332.977 -145.191)" fill="#e0dcdc" fill-rule="evenodd"/>
      <path id="Path_11877" data-name="Path 11877" d="M360.314,449.47s1.241.9,1.241-.794,1.021-1.53,1.923-.131,1.563,1.726,1.563,4.591v8.691c0,2.214-6.131.293-6.131.293l-2.795-8.04Z" transform="translate(-326.213 -142.656)" fill="#fff" fill-rule="evenodd"/>
      <path id="Path_11878" data-name="Path 11878" d="M357.541,449.263l-.862-1.575s-.9-1.432-3.726-1.432H345.2a2.98,2.98,0,0,0-2.524,2.279c-.722,2.213-2.585,9.179-2.585,9.179l5.589,1.106,8.714-.39Z" transform="translate(-323.439 -142.449)" fill="#e0dcdc" fill-rule="evenodd"/>
      <path id="Path_11879" data-name="Path 11879" d="M357.977,463.347s-1.854-7.278-7.632-7.278h-6.7c-1.675,0-4.707.9-4.707,5.243Z" transform="translate(-323.239 -144.147)" fill="#fff" fill-rule="evenodd"/>
      <path id="Path_11880" data-name="Path 11880" d="M355.213,466.284l.073.241.461,1.517H338.833l-.417-.552.356-2.242,9.13-.38Z" transform="translate(-323.149 -145.671)" fill="#aca8bc" fill-rule="evenodd"/>
      <path id="Path_11881" data-name="Path 11881" d="M361.844,463.03s-.015.848-2.7.848a3.362,3.362,0,0,1-.753-.055c-1.641-.345-4.173-1.724-8.167-1.724H339.27a1.46,1.46,0,0,0-1.623,1.586V466.6a.961.961,0,0,0,1.053.965s-.471-1.53,1.582-1.53h7.98c2.541,0,3.723,1.53,7.6,1.53h5.54c.647,0,.936-.774.936-1.485v-2.242A1.035,1.035,0,0,0,361.844,463.03Z" transform="translate(-323.016 -145.191)" fill="#e0dcdc" fill-rule="evenodd"/>
      <path id="Path_11882" data-name="Path 11882" d="M410.958,149.872a.284.284,0,0,1,.542-.168l6.761,21.457a.284.284,0,0,1-.012.2l-8.685,19.2a.284.284,0,1,1-.517-.233l8.64-19.1Z" transform="translate(-335.371 -91.083)" fill="#c1e2f6" fill-rule="evenodd"/>
      <path id="Path_11883" data-name="Path 11883" d="M355.3,150.532a.282.282,0,1,1,.561.069l-2.194,17.44,5.654,12.852a.284.284,0,0,1-.519.229L353.112,168.2h0a.286.286,0,0,1-.021-.148Z" transform="translate(-325.689 -91.218)" fill="#c1e2f6" fill-rule="evenodd"/>
      <path id="Path_11884" data-name="Path 11884" d="M421.875,173.275a.283.283,0,0,1-.561.078l-2.694-18.987a.283.283,0,0,1,.562-.078Z" transform="translate(-337.032 -91.869)" fill="#deeefa" fill-rule="evenodd"/>
      <path id="Path_11885" data-name="Path 11885" d="M351.233,182.194a.283.283,0,1,1-.561-.082,51.478,51.478,0,0,0-.9-15.675c-.883-3.839-2.4-7.479-4.914-9.748a.284.284,0,1,1,.38-.422c2.618,2.359,4.181,6.106,5.087,10.044A52.17,52.17,0,0,1,351.233,182.194Z" transform="translate(-324.248 -92.241)" fill="#deeefa" fill-rule="evenodd"/>
      <path id="Path_11886" data-name="Path 11886" d="M350.825,195.639a.283.283,0,1,1-.053.563,5.375,5.375,0,0,0-2.845.53.283.283,0,0,1-.275-.495A5.966,5.966,0,0,1,350.825,195.639Zm1.661,2.064a.284.284,0,0,1,0,.568,6.207,6.207,0,0,0-4.522,2.594.284.284,0,1,1-.448-.348A6.815,6.815,0,0,1,352.486,197.7Z" transform="translate(-324.714 -99.065)" fill="#c1e2f6" fill-rule="evenodd"/>
      <path id="Path_11887" data-name="Path 11887" d="M372.506,145.712l8.513,8.853-7.209,5.019-3.633-13.062,2.329-2.363Z" transform="translate(-328.647 -90.158)" fill="#7097ce" fill-rule="evenodd"/>
      <path id="Path_11888" data-name="Path 11888" d="M383.288,154.429l8.513-9.2v-1.853l2.7,2.249s-2.952,12.324-3.2,12.324S383.288,154.429,383.288,154.429Z" transform="translate(-330.917 -90.022)" fill="#7097ce" fill-rule="evenodd"/>
      <path id="Path_11889" data-name="Path 11889" d="M396.2,115.675s-3.485-.973-3.828-6.3-.773-8.328-3.949-8.157-12.3,13.843-23.979,7.576c0,0-.051,6.631-1.972,6.752,0,0-.483-3.75-1.839-4.431-.021-.011-.007-.049-.011-.073a40.892,40.892,0,0,1,.156-12.1c.772-3.176,7.071-10.222,11.277-11.6s18.491.732,21.062,2.89c2.319,1.947,6.739,8.422,5.174,19.9-.014.1.059.3-.042.3C396.534,110.516,396.483,114.419,396.2,115.675Z" transform="translate(-326.93 -80.249)" fill="#262262" fill-rule="evenodd"/>
      <path id="Path_11890" data-name="Path 11890" d="M360.243,99.453a14.062,14.062,0,0,0,1.114.859q.146.1.294.2a14.374,14.374,0,0,0,4.543,1.953c8.093,1.961,17.324-2.574,20.1-4.426a20.932,20.932,0,0,1,6.329-2.4c.769-.194,1.5-.372,2.137-.554a8.539,8.539,0,0,0,1.81-.678,1.23,1.23,0,0,0,.691-.779c.315-1.753-2.071-3.714-2.071-3.714s-.1-8.581-7.808-10.316a13.782,13.782,0,0,0-3.653-.286c-11.332.515-22.664,8.242-24.381,14.252a16.994,16.994,0,0,0-.514,4.512A14.935,14.935,0,0,0,360.243,99.453Z" transform="translate(-326.684 -78.931)" fill="#26377f" fill-rule="evenodd"/>
      <path id="Path_11891" data-name="Path 11891" d="M390.6,100.252a.226.226,0,0,1,.184.413c-.011,0-3.844,1.734-7.86,3.038a37.439,37.439,0,0,1-7.216,1.692,17.75,17.75,0,0,1-8.276-.8.226.226,0,1,1,.158-.424,17.3,17.3,0,0,0,8.066.776,37.067,37.067,0,0,0,7.128-1.672C386.78,101.973,390.587,100.257,390.6,100.252Z" transform="translate(-328.146 -82.555)" fill="#262262" fill-rule="evenodd"/>
      <path id="Path_11892" data-name="Path 11892" d="M401.216,89.425a.283.283,0,1,1-.556-.107c0-.022,1.539-7.552-6.084-9.911a.283.283,0,0,1,.166-.541C402.857,81.378,401.22,89.4,401.216,89.425Z" transform="translate(-332.836 -78.854)" fill="#26377f" fill-rule="evenodd"/>
      <path id="Path_11893" data-name="Path 11893" d="M383.115,108.038a.226.226,0,0,1,.353.284c-.024.031-8.633,10.918-19.319,4.813a.227.227,0,0,1,.225-.394C374.721,118.653,383.091,108.068,383.115,108.038Z" transform="translate(-327.584 -83.891)" fill="#262262" fill-rule="evenodd"/>
    </g>
  </g>
</svg>
