<svg xmlns="http://www.w3.org/2000/svg" width="272" height="116" viewBox="0 0 272 116">
  <g id="Group_1915" data-name="Group 1915" transform="translate(-49 -588)">
    <rect id="Rectangle_1175" data-name="Rectangle 1175" width="272" height="116" rx="10" transform="translate(49 588)" fill="#f2f3f6"/>
    <g id="Group_691" data-name="Group 691" transform="translate(251 610.229)">
      <g id="Group_38" data-name="Group 38" transform="translate(31.067 23.291)">
        <path id="Path_59" data-name="Path 59" d="M488.1,102.3a1.61,1.61,0,0,0-1.014.361L478,110.073a2.043,2.043,0,0,0-.741,1.364l-.606,5.457a1.33,1.33,0,0,0,1.2,1.468l5.467.5a2.056,2.056,0,0,0,1.486-.454l9.082-7.415a1.607,1.607,0,0,0,.228-2.257l-4.774-5.847A1.6,1.6,0,0,0,488.1,102.3Zm-4.585,18.284c-.115,0-.232,0-.348-.016l-5.467-.5a3.038,3.038,0,0,1-2.746-3.36l.606-5.457a3.742,3.742,0,0,1,1.361-2.5L486,101.331a3.322,3.322,0,0,1,4.667.472l4.774,5.847a3.317,3.317,0,0,1-.472,4.667l-9.082,7.414A3.733,3.733,0,0,1,483.515,120.58Z" transform="translate(-474.936 -100.586)" fill="#03a9f4"/>
      </g>
      <g id="Group_39" data-name="Group 39" transform="translate(34.525 33.867)">
        <path id="Path_60" data-name="Path 60" d="M481.35,112.7a1.321,1.321,0,1,0,.134.007A1.212,1.212,0,0,0,481.35,112.7Zm.009,4.317a2.9,2.9,0,0,1-.31-.016,2.994,2.994,0,1,1,.31.016Z" transform="translate(-478.338 -110.989)" fill="#03a9f4"/>
      </g>
      <g id="Group_40" data-name="Group 40" transform="translate(6.875 6.877)">
        <path id="Path_61" data-name="Path 61" d="M470.393,115.3h-7.646a.856.856,0,0,1-.855-.857v-9.894H452a.858.858,0,0,1-.857-.857V96.047a.858.858,0,0,1,.857-.857h9.9V85.3a.855.855,0,0,1,.855-.855h7.646a.856.856,0,0,1,.857.855v9.9h9.9a.858.858,0,0,1,.858.857v3.68a.857.857,0,0,1-1.713,0V96.9h-9.9a.856.856,0,0,1-.855-.857v-9.9H463.6v9.9a.857.857,0,0,1-.857.857h-9.894v5.933h9.894a.857.857,0,0,1,.857.857v9.9h5.934v-9.9a.856.856,0,0,1,.855-.857h7.2a.857.857,0,0,1,0,1.713h-6.345v9.894A.856.856,0,0,1,470.393,115.3Z" transform="translate(-451.14 -84.44)" fill="#03a9f4"/>
      </g>
      <g id="Group_41" data-name="Group 41" transform="translate(0 0)">
        <path id="Path_62" data-name="Path 62" d="M466.682,122.29a22.307,22.307,0,1,1,22.04-25.784.857.857,0,0,1-1.693.265,20.587,20.587,0,1,0-10.578,21.348.856.856,0,1,1,.813,1.506A22.324,22.324,0,0,1,466.682,122.29Z" transform="translate(-444.376 -77.675)" fill="#03a9f4"/>
      </g>
    </g>
    <g id="Group_679" data-name="Group 679" transform="translate(77.723 607.6)">
      <g id="Group_133" data-name="Group 133" transform="translate(0 0)">
        <rect id="Rectangle_629" data-name="Rectangle 629" width="5.37" height="13.809" rx="2.685" transform="translate(38.373 9.973)" fill="#e0e1e9"/>
        <path id="Union_2" data-name="Union 2" d="M2.3,6.235V5.471H1.569a1.568,1.568,0,1,1,0-3.137H2.3V1.546a1.546,1.546,0,0,1,3.092,0v.788H6.1a1.568,1.568,0,0,1,0,3.137h-.71v.764a1.546,1.546,0,1,1-3.092,0Z" transform="translate(37.605 0)" fill="#e0e1e9"/>
        <path id="Union_1" data-name="Union 1" d="M28.358,21.167,21.735,9.7l-1.192,1.192a4.014,4.014,0,0,1-5.568,0L13.781,9.7,7.159,21.167A3.836,3.836,0,0,1,.514,17.331L9.337,2.05A3.831,3.831,0,0,1,12.28.151a3.835,3.835,0,0,1,3.779.973l1.7,1.7,1.7-1.7A3.835,3.835,0,0,1,23.237.151a3.828,3.828,0,0,1,2.942,1.9L35,17.331a3.836,3.836,0,1,1-6.644,3.836Z" transform="translate(0 0.461)" fill="#e0e1e9"/>
      </g>
    </g>
    <g id="Group_690" data-name="Group 690" transform="translate(106.732 656.259)">
      <rect id="Rectangle_645" data-name="Rectangle 645" width="23" height="6" rx="3" transform="translate(0.268 7.741)" fill="#e0e1e9"/>
      <rect id="Rectangle_646" data-name="Rectangle 646" width="22" height="7" rx="3.5" transform="translate(15.268 -0.259) rotate(90)" fill="#e0e1e9"/>
    </g>
    <g id="Group_677" data-name="Group 677" transform="translate(235.435 661.153)">
      <rect id="Rectangle_645-2" data-name="Rectangle 645" width="23" height="6" rx="3" transform="translate(-0.434 7.847)" fill="#e0e1e9"/>
      <rect id="Rectangle_646-2" data-name="Rectangle 646" width="22" height="7" rx="3.5" transform="translate(14.566 -0.153) rotate(90)" fill="#e0e1e9"/>
    </g>
  </g>
</svg>
