<svg xmlns="http://www.w3.org/2000/svg" width="182" height="214" viewBox="0 0 182 214">
  <g id="Group_1915" data-name="Group 1915" transform="translate(-331 -238)">
    <rect id="Rectangle_1080" data-name="Rectangle 1080" width="182" height="214" rx="30" transform="translate(331 238)" fill="#f2f3f6"/>
    <g id="add" transform="translate(340.997 364.445)">
      <g id="Group_673" data-name="Group 673">
        <g id="Group_672" data-name="Group 672">
          <path id="Path_11894" data-name="Path 11894" d="M18.824,0A18.824,18.824,0,1,0,37.649,18.824,18.845,18.845,0,0,0,18.824,0Zm0,34.732A15.908,15.908,0,1,1,34.732,18.824,15.927,15.927,0,0,1,18.824,34.732Z" fill="#e0e1e9"/>
        </g>
      </g>
      <g id="Group_675" data-name="Group 675" transform="translate(10.076 9.944)">
        <g id="Group_674" data-name="Group 674">
          <path id="Path_11895" data-name="Path 11895" d="M153.061,142.529h-5.832V136.7a1.458,1.458,0,1,0-2.916,0v5.832H138.48a1.458,1.458,0,0,0,0,2.916h5.832v5.832a1.458,1.458,0,1,0,2.916,0v-5.832h5.832a1.458,1.458,0,0,0,0-2.916Z" transform="translate(-137.022 -135.238)" fill="#e0e1e9"/>
        </g>
      </g>
    </g>
    <g id="Group_678" data-name="Group 678" transform="translate(340.997 254.452)">
      <g id="medicine" transform="translate(0 0)">
        <g id="Group_144" data-name="Group 144" transform="translate(0)">
          <g id="Group_143" data-name="Group 143" transform="translate(0)">
            <path id="Path_151" data-name="Path 151" d="M37.366,4.175a.735.735,0,0,0-.633-.132l-3.5.89a6.99,6.99,0,0,1-1.72.215H26.381a3.327,3.327,0,0,0-3.308,2.842,1.865,1.865,0,0,1-1.854,1.593h-.188V8.046a4.326,4.326,0,1,0-4.412,0V9.582h-.188a1.865,1.865,0,0,1-1.854-1.593A3.327,3.327,0,0,0,11.27,5.147H6.136a6.986,6.986,0,0,1-1.72-.215l-3.5-.889A.735.735,0,0,0,0,4.755,5.921,5.921,0,0,0,1.578,8.782a5.691,5.691,0,0,0,2.173,4.4l.692.924a8.436,8.436,0,0,0,6.724,3.367,8.341,8.341,0,0,0,5.453-2.011v2.622h-.66a4.756,4.756,0,0,0-4.167,7.047.735.735,0,0,0,1.288-.71A3.286,3.286,0,0,1,15.96,19.56h.66v6.569H14.892a3.517,3.517,0,0,0,0,7.035h2.045a19.019,19.019,0,0,0,1.223,4.04.735.735,0,0,0,.676.446h0a.735.735,0,0,0,.676-.448l.014-.034a19.02,19.02,0,0,0,1.2-4h.836a1.507,1.507,0,1,1,0,3.015h-.05a.735.735,0,0,0,0,1.471h.05a2.978,2.978,0,1,0,0-5.956h-.626a19.2,19.2,0,0,0,.1-1.951V27.6h.49a4.755,4.755,0,0,0,0-9.51h-.49V15.467a8.34,8.34,0,0,0,5.453,2.011,8.437,8.437,0,0,0,6.724-3.367l.692-.924a5.691,5.691,0,0,0,2.173-4.4A5.92,5.92,0,0,0,37.65,4.755.736.736,0,0,0,37.366,4.175Zm-21.329,9.83a6.885,6.885,0,0,1-4.871,2,6.961,6.961,0,0,1-4.451-1.623c.185.018.372.028.561.028H8.507a.735.735,0,0,0,0-1.471H7.276a4.236,4.236,0,0,1-4.008-2.883,5.905,5.905,0,0,0,2.676.639H7.465a.735.735,0,0,0,0-1.471H5.944a4.481,4.481,0,0,1-4.366-3.5l2.476.629a8.454,8.454,0,0,0,2.082.261H11.27a1.865,1.865,0,0,1,1.854,1.593,3.327,3.327,0,0,0,3.308,2.842h.188v2.377ZM14.892,31.693a2.047,2.047,0,0,1,0-4.093H16.62v2.1a19.211,19.211,0,0,0,.1,1.995H14.892Zm4.669-1.951a17.5,17.5,0,0,1-.729,5.016,17.5,17.5,0,0,1-.742-5.06V27.6h1.471Zm0-3.613H18.09V8.588a4.268,4.268,0,0,0,1.471,0Zm1.961-6.569a3.284,3.284,0,0,1,0,6.569h-.49V19.56h.49Zm-2.7-12.378a2.855,2.855,0,1,1,2.855-2.855A2.859,2.859,0,0,1,18.826,7.182ZM31.707,9.228H30.186a.735.735,0,1,0,0,1.471h1.521a5.9,5.9,0,0,0,2.676-.639,4.236,4.236,0,0,1-4.008,2.883H29.144a.735.735,0,1,0,0,1.471h1.231c.189,0,.376-.01.561-.028a6.961,6.961,0,0,1-4.451,1.623,6.885,6.885,0,0,1-4.871-2l-.582-.576V11.052h.188a3.327,3.327,0,0,0,3.308-2.842,1.865,1.865,0,0,1,1.854-1.593h5.134A8.455,8.455,0,0,0,33.6,6.358l2.475-.629A4.481,4.481,0,0,1,31.707,9.228Z" transform="translate(-0.001 0)" fill="#e0e1e9"/>
          </g>
        </g>
        <g id="Group_146" data-name="Group 146" transform="translate(15.148 36.179)">
          <g id="Group_145" data-name="Group 145">
            <path id="Path_152" data-name="Path 152" d="M207.256,492.216a.735.735,0,1,0,.216.52A.74.74,0,0,0,207.256,492.216Z" transform="translate(-206.001 -492.001)" fill="#e0e1e9"/>
          </g>
        </g>
      </g>
    </g>
    <g id="Group_116" data-name="Group 116" transform="translate(448.037 254.452)">
      <g id="Group_80" data-name="Group 80" transform="translate(29.026 30.904)">
        <path id="Path_101" data-name="Path 101" d="M196.871,435.877a2.1,2.1,0,0,0-2.1,2.1v4.507l9.907-6.6Zm-2.914,8.944a.807.807,0,0,1-.384-.1.816.816,0,0,1-.431-.72v-6.033a3.734,3.734,0,0,1,3.729-3.729h10.505a.817.817,0,0,1,.453,1.5l-13.418,8.944A.821.821,0,0,1,193.957,444.821Z" transform="translate(-193.142 -434.244)" fill="#03a9f4"/>
      </g>
      <g id="Group_81" data-name="Group 81" transform="translate(23.018 4.547)">
        <path id="Path_102" data-name="Path 102" d="M200.655,409.52h-10.5a.817.817,0,1,1,0-1.633h9.685v-1.464H187.244a.816.816,0,0,1,0-1.632h13.411a.817.817,0,0,1,.817.816v3.1A.816.816,0,0,1,200.655,409.52Z" transform="translate(-186.428 -404.791)" fill="#03a9f4"/>
      </g>
      <g id="Group_82" data-name="Group 82" transform="translate(24.444 11.53)">
        <path id="Path_103" data-name="Path 103" d="M194.155,414.226h-5.318a.816.816,0,0,1,0-1.632h5.318a.816.816,0,0,1,0,1.632Z" transform="translate(-188.022 -412.594)" fill="#03a9f4"/>
      </g>
      <g id="Group_83" data-name="Group 83" transform="translate(21.584 15.415)">
        <path id="Path_104" data-name="Path 104" d="M200.658,418.568H185.643a.816.816,0,1,1,0-1.632h15.015a.816.816,0,0,1,0,1.632Z" transform="translate(-184.826 -416.936)" fill="#03a9f4"/>
      </g>
      <g id="Group_84" data-name="Group 84" transform="translate(24.444 19.301)">
        <path id="Path_105" data-name="Path 105" d="M197.213,422.911h-8.376a.817.817,0,0,1,0-1.633h8.376a.817.817,0,1,1,0,1.633Z" transform="translate(-188.022 -421.278)" fill="#03a9f4"/>
      </g>
      <g id="Group_85" data-name="Group 85" transform="translate(23.304 23.185)">
        <path id="Path_106" data-name="Path 106" d="M193.023,427.251h-5.458a.817.817,0,1,1,0-1.633h5.458a.817.817,0,1,1,0,1.633Z" transform="translate(-186.748 -425.618)" fill="#03a9f4"/>
      </g>
      <g id="Group_86" data-name="Group 86" transform="translate(22.949 9.4)">
        <path id="Path_107" data-name="Path 107" d="M188.323,430.8l1.822,1.822,18.615-18.616-1.822-1.822Zm1.822,3.793a.821.821,0,0,1-.578-.24l-2.975-2.977a.815.815,0,0,1,0-1.155l19.77-19.77a.816.816,0,0,1,1.155,0l2.977,2.977a.813.813,0,0,1,.239.577.821.821,0,0,1-.239.577l-19.771,19.771A.818.818,0,0,1,190.145,434.594Z" transform="translate(-186.352 -410.214)" fill="#03a9f4"/>
      </g>
      <g id="Group_87" data-name="Group 87" transform="translate(42.72 7.517)">
        <path id="Path_108" data-name="Path 108" d="M210.415,410.809l1.822,1.822.729-.728-1.822-1.823Zm1.822,3.792a.813.813,0,0,1-.577-.239l-2.977-2.975a.817.817,0,0,1,0-1.155l1.884-1.884a.816.816,0,0,1,1.153,0l2.977,2.978a.813.813,0,0,1,0,1.153l-1.882,1.882A.816.816,0,0,1,212.237,414.6Z" transform="translate(-208.445 -408.11)" fill="#03a9f4"/>
      </g>
      <g id="Group_88" data-name="Group 88" transform="translate(44.97 6.44)">
        <path id="Path_109" data-name="Path 109" d="M212.929,409.166l1.09,1.09.471-.473a.568.568,0,0,0,.154-.434.883.883,0,0,0-.809-.809.585.585,0,0,0-.433.155Zm1.09,3.059a.814.814,0,0,1-.578-.239l-2.243-2.244a.816.816,0,0,1,0-1.153l1.049-1.049a2.182,2.182,0,0,1,1.665-.631,2.517,2.517,0,0,1,2.363,2.362,2.181,2.181,0,0,1-.631,1.666l-1.049,1.049A.814.814,0,0,1,214.019,412.226Z" transform="translate(-210.959 -406.906)" fill="#03a9f4"/>
      </g>
      <g id="Group_89" data-name="Group 89" transform="translate(21.584 29.17)">
        <path id="Path_110" data-name="Path 110" d="M187.382,434.652l-.492,1.565,1.563-.493Zm-1.739,3.629a.817.817,0,0,1-.78-1.061l1.366-4.342a.816.816,0,0,1,1.355-.333l2.977,2.977a.816.816,0,0,1-.332,1.355l-4.342,1.367A.83.83,0,0,1,185.643,438.281Z" transform="translate(-184.826 -432.307)" fill="#03a9f4"/>
      </g>
      <g id="Group_90" data-name="Group 90" transform="translate(11.258 20.79)">
        <path id="Path_111" data-name="Path 111" d="M191.87,443.633H177.017a3.734,3.734,0,0,1-3.731-3.729v-4.7a.816.816,0,0,1,1.632,0v4.7a2.1,2.1,0,0,0,2.1,2.1h14.606l12.85-8.566v-9.677a.817.817,0,1,1,1.633,0v10.114a.818.818,0,0,1-.364.68L192.324,443.5A.816.816,0,0,1,191.87,443.633Z" transform="translate(-173.287 -422.942)" fill="#03a9f4"/>
      </g>
      <g id="Group_91" data-name="Group 91" transform="translate(11.655 0)">
        <path id="Path_112" data-name="Path 112" d="M205.336,407.438a.817.817,0,0,1-.817-.817v-3.182a2.1,2.1,0,0,0-2.1-2.1H177.064a2.11,2.11,0,0,0-1.813,1.039.816.816,0,1,1-1.409-.825,3.745,3.745,0,0,1,3.221-1.846h25.358a3.734,3.734,0,0,1,3.731,3.729v3.182A.816.816,0,0,1,205.336,407.438Z" transform="translate(-173.73 -399.71)" fill="#03a9f4"/>
      </g>
      <g id="Group_92" data-name="Group 92" transform="translate(0 3.697)">
        <path id="Path_113" data-name="Path 113" d="M170.244,422.826a.814.814,0,0,1,.815.816v5.113a.561.561,0,0,0,.559.559h4.507a.56.56,0,0,0,.56-.559v-5.142a.816.816,0,0,1,1.224-.707l4.41,2.548a.563.563,0,0,0,.765-.206l2.252-3.9a.558.558,0,0,0-.2-.763l-4.386-2.532a.816.816,0,0,1,0-1.414l4.363-2.519a.56.56,0,0,0,.2-.765l-2.252-3.9a.557.557,0,0,0-.765-.206l-4.386,2.531a.815.815,0,0,1-1.224-.705v-5.039a.56.56,0,0,0-.56-.559h-4.507a.56.56,0,0,0-.559.559v5.01a.817.817,0,0,1-1.225.708l-4.379-2.529a.55.55,0,0,0-.424-.056.557.557,0,0,0-.339.26l-2.253,3.9a.559.559,0,0,0,.2.763l4.4,2.543a.817.817,0,0,1,0,1.414l-4.428,2.556a.56.56,0,0,0-.2.765l2.253,3.9a.554.554,0,0,0,.339.261.566.566,0,0,0,.424-.056l4.4-2.543A.806.806,0,0,1,170.244,422.826Zm5.881,8.122h-4.507a2.194,2.194,0,0,1-2.192-2.192v-3.7l-3.179,1.836a2.193,2.193,0,0,1-2.994-.8l-2.252-3.9a2.193,2.193,0,0,1,.8-2.993l3.2-1.851-3.18-1.835a2.194,2.194,0,0,1-.8-2.993l2.252-3.9a2.193,2.193,0,0,1,2.994-.8l3.155,1.821v-3.6a2.194,2.194,0,0,1,2.192-2.191h4.507a2.194,2.194,0,0,1,2.192,2.191v3.625l3.162-1.826a2.191,2.191,0,0,1,2.994.8l2.253,3.9a2.193,2.193,0,0,1-.8,2.993l-3.139,1.813,3.162,1.826a2.2,2.2,0,0,1,.8,3l-2.253,3.9a2.2,2.2,0,0,1-2.993.8l-3.187-1.84v3.727A2.194,2.194,0,0,1,176.125,430.948Z" transform="translate(-160.707 -403.842)" fill="#03a9f4"/>
      </g>
    </g>
  </g>
</svg>
