<svg xmlns="http://www.w3.org/2000/svg" width="180" height="141" viewBox="0 0 180 141">
  <g id="Group_1915" data-name="Group 1915" transform="translate(-333 -774)">
    <rect id="Rectangle_1086" data-name="Rectangle 1086" width="180" height="141" rx="30" transform="translate(333 774)" fill="#f2f3f6"/>
    <g id="Outline" transform="translate(346.944 795.118)">
      <path id="Path_11901" data-name="Path 11901" d="M149.924,19.448H148.2v-.862a2.586,2.586,0,1,0-5.171,0v.862h-3.448v-.862a2.586,2.586,0,1,0-5.171,0v.862h-3.448v-.862a2.586,2.586,0,1,0-5.171,0v.862h-3.448v-.862a2.586,2.586,0,0,0-5.171,0v.862h-1.724A3.452,3.452,0,0,0,112,22.9V38.41h1.724V30.652h37.924V46.167h-5.171a3.452,3.452,0,0,0-3.448,3.448v5.171H130.962V56.51h18.962a3.426,3.426,0,0,0,1.724-.464v.464a1.726,1.726,0,0,1-1.724,1.724H130.1v1.724h19.824a3.425,3.425,0,0,0,1.724-.464v.464a1.726,1.726,0,0,1-1.724,1.724H128.376V63.4h21.548a3.452,3.452,0,0,0,3.448-3.448V22.9A3.452,3.452,0,0,0,149.924,19.448Zm-5.171-.862a.862.862,0,0,1,1.724,0v3.448a.862.862,0,0,1-1.724,0Zm-8.619,0a.862.862,0,1,1,1.724,0v3.448a.862.862,0,1,1-1.724,0Zm-8.619,0a.862.862,0,0,1,1.724,0v3.448a.862.862,0,0,1-1.724,0Zm-8.619,0a.862.862,0,1,1,1.724,0v3.448a.862.862,0,1,1-1.724,0Zm-5.171,10.343V22.9a1.726,1.726,0,0,1,1.724-1.724h1.724v.862a2.586,2.586,0,0,0,5.171,0v-.862h3.448v.862a2.586,2.586,0,0,0,5.171,0v-.862h3.448v.862a2.586,2.586,0,0,0,5.171,0v-.862h3.448v.862a2.586,2.586,0,0,0,5.171,0v-.862h1.724a1.726,1.726,0,0,1,1.724,1.724v6.033Zm31.029,20.686a1.726,1.726,0,0,1,1.724-1.724h3.953l-5.676,5.676Zm5.171,5.171h-3.953l5.676-5.676v3.953a1.726,1.726,0,0,1-1.724,1.724Z" transform="translate(-101.664 -16)" fill="#03a9f4"/>
      <path id="Path_11902" data-name="Path 11902" d="M42.753,248.924l2.485-4.178a.862.862,0,0,0-.909-1.286l-4.433.885a13.791,13.791,0,0,0-18.327-1.591l1.035,1.378a12.067,12.067,0,0,1,16.332,1.72.862.862,0,0,0,.818.278l3.012-.6-1.711,2.877a.862.862,0,0,0-.056.77,12.068,12.068,0,1,1-20-3.594l-1.264-1.172a13.787,13.787,0,1,0,23.021,4.513Z" transform="translate(-16.062 -215.863)" fill="#03a9f4"/>
      <path id="Path_11903" data-name="Path 11903" d="M64.862,300.067h4.31v4.31a.862.862,0,0,0,.862.862H75.2a.862.862,0,0,0,.862-.862v-4.31h4.31a.862.862,0,0,0,.862-.862v-5.171a.862.862,0,0,0-.862-.862h-4.31v-4.31A.862.862,0,0,0,75.2,288H70.033a.862.862,0,0,0-.862.862v4.31h-4.31a.862.862,0,0,0-.862.862V299.2A.862.862,0,0,0,64.862,300.067Zm.862-5.171h4.31a.862.862,0,0,0,.862-.862v-4.31h3.448v4.31a.862.862,0,0,0,.862.862h4.31v3.448H75.2a.862.862,0,0,0-.862.862v4.309H70.9V299.2a.862.862,0,0,0-.862-.862h-4.31Z" transform="translate(-58.835 -258.695)" fill="#03a9f4"/>
      <path id="Path_11904" data-name="Path 11904" d="M232,184h1.724v1.724H232Z" transform="translate(-208.735 -165.9)" fill="#03a9f4"/>
      <path id="Path_11905" data-name="Path 11905" d="M168,184h1.724v1.724H168Z" transform="translate(-151.63 -165.9)" fill="#03a9f4"/>
      <path id="Path_11906" data-name="Path 11906" d="M360,184h1.724v1.724H360Z" transform="translate(-322.945 -165.9)" fill="#03a9f4"/>
      <path id="Path_11907" data-name="Path 11907" d="M424,184h1.724v1.724H424Z" transform="translate(-380.049 -165.9)" fill="#03a9f4"/>
      <path id="Path_11908" data-name="Path 11908" d="M296,184h1.724v1.724H296Z" transform="translate(-265.84 -165.9)" fill="#03a9f4"/>
      <path id="Path_11909" data-name="Path 11909" d="M232,248h1.724v1.724H232Z" transform="translate(-208.735 -223.005)" fill="#03a9f4"/>
      <path id="Path_11910" data-name="Path 11910" d="M360,248h1.724v1.724H360Z" transform="translate(-322.945 -223.005)" fill="#03a9f4"/>
      <path id="Path_11911" data-name="Path 11911" d="M424,248h1.724v1.724H424Z" transform="translate(-380.049 -223.005)" fill="#03a9f4"/>
      <path id="Path_11912" data-name="Path 11912" d="M296,248h1.724v1.724H296Z" transform="translate(-265.84 -223.005)" fill="#03a9f4"/>
      <path id="Path_11913" data-name="Path 11913" d="M360,312h1.724v1.724H360Z" transform="translate(-322.945 -280.11)" fill="#03a9f4"/>
      <path id="Path_11914" data-name="Path 11914" d="M296,312h1.724v1.724H296Z" transform="translate(-265.84 -280.11)" fill="#03a9f4"/>
    </g>
  </g>
</svg>
