<svg xmlns="http://www.w3.org/2000/svg" width="272" height="116" viewBox="0 0 272 116">
  <g id="Group_1915" data-name="Group 1915" transform="translate(-61 -108)">
    <rect id="Rectangle_1174" data-name="Rectangle 1174" width="272" height="116" rx="10" transform="translate(61 108)" fill="#f2f3f6"/>
    <g id="add" transform="translate(214.997 177.091)">
      <g id="Group_673" data-name="Group 673">
        <g id="Group_672" data-name="Group 672">
          <path id="Path_11894" data-name="Path 11894" d="M13.5,0A13.5,13.5,0,1,0,27,13.5,13.516,13.516,0,0,0,13.5,0Zm0,24.911A11.41,11.41,0,1,1,24.911,13.5,11.423,11.423,0,0,1,13.5,24.911Z" fill="#e0e1e9"/>
        </g>
      </g>
      <g id="Group_675" data-name="Group 675" transform="translate(7.227 7.132)">
        <g id="Group_674" data-name="Group 674">
          <path id="Path_11895" data-name="Path 11895" d="M148.526,140.467h-4.183v-4.183a1.046,1.046,0,0,0-2.092,0v4.183h-4.183a1.046,1.046,0,1,0,0,2.092h4.183v4.183a1.046,1.046,0,1,0,2.092,0v-4.183h4.183a1.046,1.046,0,0,0,0-2.092Z" transform="translate(-137.022 -135.238)" fill="#e0e1e9"/>
        </g>
      </g>
    </g>
    <g id="Group_1744" data-name="Group 1744" transform="translate(84.997 144.452)">
      <g id="medicine" transform="translate(0 0)">
        <g id="Group_144" data-name="Group 144" transform="translate(0)">
          <g id="Group_143" data-name="Group 143" transform="translate(0)">
            <path id="Path_151" data-name="Path 151" d="M58.208,6.5a1.145,1.145,0,0,0-.985-.206l-5.45,1.386a10.889,10.889,0,0,1-2.679.335h-8a5.183,5.183,0,0,0-5.153,4.427,2.905,2.905,0,0,1-2.888,2.481h-.293V12.533a6.739,6.739,0,1,0-6.873,0v2.393H25.6a2.905,2.905,0,0,1-2.888-2.481,5.183,5.183,0,0,0-5.153-4.427h-8a10.882,10.882,0,0,1-2.679-.335L1.429,6.3A1.145,1.145,0,0,0,0,7.408,9.223,9.223,0,0,0,2.457,13.68a8.866,8.866,0,0,0,3.385,6.862l1.078,1.44a13.142,13.142,0,0,0,10.474,5.245,12.993,12.993,0,0,0,8.495-3.133v4.085H24.862A7.409,7.409,0,0,0,18.37,39.157a1.145,1.145,0,1,0,2.007-1.105,5.118,5.118,0,0,1,4.485-7.581h1.027V40.7H23.2a5.479,5.479,0,0,0,0,10.959h3.185a29.627,29.627,0,0,0,1.905,6.293,1.145,1.145,0,0,0,1.053.695h0a1.145,1.145,0,0,0,1.053-.7l.023-.053a29.629,29.629,0,0,0,1.864-6.236h1.3a2.348,2.348,0,1,1,0,4.7h-.078a1.145,1.145,0,0,0,0,2.291h.078a4.639,4.639,0,1,0,0-9.278h-.976a29.91,29.91,0,0,0,.155-3.039V42.994h.764a7.407,7.407,0,0,0,0-14.815h-.764V24.094a12.992,12.992,0,0,0,8.495,3.133,13.142,13.142,0,0,0,10.474-5.245l1.078-1.44a8.866,8.866,0,0,0,3.385-6.862A9.222,9.222,0,0,0,58.65,7.408,1.146,1.146,0,0,0,58.208,6.5ZM24.982,21.817a10.725,10.725,0,0,1-7.588,3.119,10.844,10.844,0,0,1-6.934-2.528c.288.028.579.043.874.043h1.918a1.145,1.145,0,0,0,0-2.291H11.334A6.6,6.6,0,0,1,5.09,15.67a9.2,9.2,0,0,0,4.168,1h2.369a1.145,1.145,0,0,0,0-2.291H9.259a6.98,6.98,0,0,1-6.8-5.452l3.856.98a13.169,13.169,0,0,0,3.243.406h8a2.9,2.9,0,0,1,2.888,2.481A5.183,5.183,0,0,0,25.6,17.217h.293v3.7ZM23.2,49.371a3.188,3.188,0,0,1,0-6.377h2.692v3.269a29.926,29.926,0,0,0,.162,3.107H23.2Zm7.274-3.039a27.265,27.265,0,0,1-1.135,7.814,27.255,27.255,0,0,1-1.156-7.882V42.994h2.291Zm0-5.628H28.18V13.379a6.648,6.648,0,0,0,2.291,0ZM33.526,30.47a5.116,5.116,0,0,1,0,10.233h-.764V30.47h.764Zm-4.2-19.283a4.448,4.448,0,1,1,4.448-4.448A4.453,4.453,0,0,1,29.326,11.187Zm20.067,3.188H47.023a1.145,1.145,0,1,0,0,2.291h2.369a9.2,9.2,0,0,0,4.168-1,6.6,6.6,0,0,1-6.244,4.49H45.4a1.145,1.145,0,1,0,0,2.291h1.918c.295,0,.586-.015.874-.043a10.844,10.844,0,0,1-6.934,2.528,10.726,10.726,0,0,1-7.588-3.119l-.907-.9v-3.7h.293a5.183,5.183,0,0,0,5.153-4.427A2.9,2.9,0,0,1,41.1,10.31h8A13.17,13.17,0,0,0,52.337,9.9l3.856-.98A6.98,6.98,0,0,1,49.392,14.376Z" transform="translate(-0.001 0)" fill="#e0e1e9"/>
          </g>
        </g>
        <g id="Group_146" data-name="Group 146" transform="translate(23.597 56.358)">
          <g id="Group_145" data-name="Group 145">
            <path id="Path_152" data-name="Path 152" d="M207.956,492.337a1.144,1.144,0,1,0,.336.81A1.153,1.153,0,0,0,207.956,492.337Z" transform="translate(-206.001 -492.001)" fill="#e0e1e9"/>
          </g>
        </g>
      </g>
    </g>
    <g id="Group_1745" data-name="Group 1745" transform="translate(255.037 135.452)">
      <g id="Group_80" data-name="Group 80" transform="translate(29.026 30.904)">
        <path id="Path_101" data-name="Path 101" d="M196.871,435.877a2.1,2.1,0,0,0-2.1,2.1v4.507l9.907-6.6Zm-2.914,8.944a.807.807,0,0,1-.384-.1.816.816,0,0,1-.431-.72v-6.033a3.734,3.734,0,0,1,3.729-3.729h10.505a.817.817,0,0,1,.453,1.5l-13.418,8.944A.821.821,0,0,1,193.957,444.821Z" transform="translate(-193.142 -434.244)" fill="#03a9f4"/>
      </g>
      <g id="Group_81" data-name="Group 81" transform="translate(23.018 4.547)">
        <path id="Path_102" data-name="Path 102" d="M200.655,409.52h-10.5a.817.817,0,1,1,0-1.633h9.685v-1.464H187.244a.816.816,0,0,1,0-1.632h13.411a.817.817,0,0,1,.817.816v3.1A.816.816,0,0,1,200.655,409.52Z" transform="translate(-186.428 -404.791)" fill="#03a9f4"/>
      </g>
      <g id="Group_82" data-name="Group 82" transform="translate(24.444 11.53)">
        <path id="Path_103" data-name="Path 103" d="M194.155,414.226h-5.318a.816.816,0,0,1,0-1.632h5.318a.816.816,0,0,1,0,1.632Z" transform="translate(-188.022 -412.594)" fill="#03a9f4"/>
      </g>
      <g id="Group_83" data-name="Group 83" transform="translate(21.584 15.415)">
        <path id="Path_104" data-name="Path 104" d="M200.658,418.568H185.643a.816.816,0,1,1,0-1.632h15.015a.816.816,0,0,1,0,1.632Z" transform="translate(-184.826 -416.936)" fill="#03a9f4"/>
      </g>
      <g id="Group_84" data-name="Group 84" transform="translate(24.444 19.301)">
        <path id="Path_105" data-name="Path 105" d="M197.213,422.911h-8.376a.817.817,0,0,1,0-1.633h8.376a.817.817,0,1,1,0,1.633Z" transform="translate(-188.022 -421.278)" fill="#03a9f4"/>
      </g>
      <g id="Group_85" data-name="Group 85" transform="translate(23.304 23.185)">
        <path id="Path_106" data-name="Path 106" d="M193.023,427.251h-5.458a.817.817,0,1,1,0-1.633h5.458a.817.817,0,1,1,0,1.633Z" transform="translate(-186.748 -425.618)" fill="#03a9f4"/>
      </g>
      <g id="Group_86" data-name="Group 86" transform="translate(22.949 9.4)">
        <path id="Path_107" data-name="Path 107" d="M188.323,430.8l1.822,1.822,18.615-18.616-1.822-1.822Zm1.822,3.793a.821.821,0,0,1-.578-.24l-2.975-2.977a.815.815,0,0,1,0-1.155l19.77-19.77a.816.816,0,0,1,1.155,0l2.977,2.977a.813.813,0,0,1,.239.577.821.821,0,0,1-.239.577l-19.771,19.771A.818.818,0,0,1,190.145,434.594Z" transform="translate(-186.352 -410.214)" fill="#03a9f4"/>
      </g>
      <g id="Group_87" data-name="Group 87" transform="translate(42.72 7.517)">
        <path id="Path_108" data-name="Path 108" d="M210.415,410.809l1.822,1.822.729-.728-1.822-1.823Zm1.822,3.792a.813.813,0,0,1-.577-.239l-2.977-2.975a.817.817,0,0,1,0-1.155l1.884-1.884a.816.816,0,0,1,1.153,0l2.977,2.978a.813.813,0,0,1,0,1.153l-1.882,1.882A.816.816,0,0,1,212.237,414.6Z" transform="translate(-208.445 -408.11)" fill="#03a9f4"/>
      </g>
      <g id="Group_88" data-name="Group 88" transform="translate(44.97 6.44)">
        <path id="Path_109" data-name="Path 109" d="M212.929,409.166l1.09,1.09.471-.473a.568.568,0,0,0,.154-.434.883.883,0,0,0-.809-.809.585.585,0,0,0-.433.155Zm1.09,3.059a.814.814,0,0,1-.578-.239l-2.243-2.244a.816.816,0,0,1,0-1.153l1.049-1.049a2.182,2.182,0,0,1,1.665-.631,2.517,2.517,0,0,1,2.363,2.362,2.181,2.181,0,0,1-.631,1.666l-1.049,1.049A.814.814,0,0,1,214.019,412.226Z" transform="translate(-210.959 -406.906)" fill="#03a9f4"/>
      </g>
      <g id="Group_89" data-name="Group 89" transform="translate(21.584 29.17)">
        <path id="Path_110" data-name="Path 110" d="M187.382,434.652l-.492,1.565,1.563-.493Zm-1.739,3.629a.817.817,0,0,1-.78-1.061l1.366-4.342a.816.816,0,0,1,1.355-.333l2.977,2.977a.816.816,0,0,1-.332,1.355l-4.342,1.367A.83.83,0,0,1,185.643,438.281Z" transform="translate(-184.826 -432.307)" fill="#03a9f4"/>
      </g>
      <g id="Group_90" data-name="Group 90" transform="translate(11.258 20.79)">
        <path id="Path_111" data-name="Path 111" d="M191.87,443.633H177.017a3.734,3.734,0,0,1-3.731-3.729v-4.7a.816.816,0,0,1,1.632,0v4.7a2.1,2.1,0,0,0,2.1,2.1h14.606l12.85-8.566v-9.677a.817.817,0,1,1,1.633,0v10.114a.818.818,0,0,1-.364.68L192.324,443.5A.816.816,0,0,1,191.87,443.633Z" transform="translate(-173.287 -422.942)" fill="#03a9f4"/>
      </g>
      <g id="Group_91" data-name="Group 91" transform="translate(11.655 0)">
        <path id="Path_112" data-name="Path 112" d="M205.336,407.438a.817.817,0,0,1-.817-.817v-3.182a2.1,2.1,0,0,0-2.1-2.1H177.064a2.11,2.11,0,0,0-1.813,1.039.816.816,0,1,1-1.409-.825,3.745,3.745,0,0,1,3.221-1.846h25.358a3.734,3.734,0,0,1,3.731,3.729v3.182A.816.816,0,0,1,205.336,407.438Z" transform="translate(-173.73 -399.71)" fill="#03a9f4"/>
      </g>
      <g id="Group_92" data-name="Group 92" transform="translate(0 3.697)">
        <path id="Path_113" data-name="Path 113" d="M170.244,422.826a.814.814,0,0,1,.815.816v5.113a.561.561,0,0,0,.559.559h4.507a.56.56,0,0,0,.56-.559v-5.142a.816.816,0,0,1,1.224-.707l4.41,2.548a.563.563,0,0,0,.765-.206l2.252-3.9a.558.558,0,0,0-.2-.763l-4.386-2.532a.816.816,0,0,1,0-1.414l4.363-2.519a.56.56,0,0,0,.2-.765l-2.252-3.9a.557.557,0,0,0-.765-.206l-4.386,2.531a.815.815,0,0,1-1.224-.705v-5.039a.56.56,0,0,0-.56-.559h-4.507a.56.56,0,0,0-.559.559v5.01a.817.817,0,0,1-1.225.708l-4.379-2.529a.55.55,0,0,0-.424-.056.557.557,0,0,0-.339.26l-2.253,3.9a.559.559,0,0,0,.2.763l4.4,2.543a.817.817,0,0,1,0,1.414l-4.428,2.556a.56.56,0,0,0-.2.765l2.253,3.9a.554.554,0,0,0,.339.261.566.566,0,0,0,.424-.056l4.4-2.543A.806.806,0,0,1,170.244,422.826Zm5.881,8.122h-4.507a2.194,2.194,0,0,1-2.192-2.192v-3.7l-3.179,1.836a2.193,2.193,0,0,1-2.994-.8l-2.252-3.9a2.193,2.193,0,0,1,.8-2.993l3.2-1.851-3.18-1.835a2.194,2.194,0,0,1-.8-2.993l2.252-3.9a2.193,2.193,0,0,1,2.994-.8l3.155,1.821v-3.6a2.194,2.194,0,0,1,2.192-2.191h4.507a2.194,2.194,0,0,1,2.192,2.191v3.625l3.162-1.826a2.191,2.191,0,0,1,2.994.8l2.253,3.9a2.193,2.193,0,0,1-.8,2.993l-3.139,1.813,3.162,1.826a2.2,2.2,0,0,1,.8,3l-2.253,3.9a2.2,2.2,0,0,1-2.993.8l-3.187-1.84v3.727A2.194,2.194,0,0,1,176.125,430.948Z" transform="translate(-160.707 -403.842)" fill="#03a9f4"/>
      </g>
    </g>
  </g>
</svg>
