<svg xmlns="http://www.w3.org/2000/svg" xmlns:xlink="http://www.w3.org/1999/xlink" width="241.144" height="295.455" viewBox="0 0 241.144 295.455">
  <defs>
    <clipPath id="clip-path">
      <path id="Path_13324" data-name="Path 13324" d="M96.471,0C33.528,0-17.5,65.387-17.5,146.046S51.185,291.338,96.471,292.093c17.978.3,94.333,10.756,113.969-6.793,29.715-26.557,0-90.616,0-139.253C210.44,65.387,159.414,0,96.471,0Z" transform="translate(17.498 0)" fill="#03a9f4"/>
    </clipPath>
  </defs>
  <g id="Group_1916" data-name="Group 1916" transform="translate(-643.856 -243)">
    <g id="Group_1722" data-name="Group 1722" transform="translate(643.856 243)" clip-path="url(#clip-path)">
      <g id="Group_1721" data-name="Group 1721" transform="translate(79.154 47.689)">
        <path id="Path_13273" data-name="Path 13273" d="M226.477,568.331c-31.911,0-39.573-26.49-29.3-65.947q1.552-5.967,3.648-12.32c5.624-17.07-6.026-43.3-14.63-45.937,4.612-7.915-4.967-22.4-4.967-22.4s74.405-48.37,64.806,58.631a101.436,101.436,0,0,0-.284,13.9C248.183,544.537,286.525,568.331,226.477,568.331Z" transform="translate(-111.258 -395.635)" fill="#6b2310"/>
        <path id="Path_13274" data-name="Path 13274" d="M214.8,686.131c-31.911,0-39.573-26.49-29.3-65.947,17.65,7.234,34.615,1.407,48.574-8.127C236.51,662.337,274.852,686.131,214.8,686.131Z" transform="translate(-99.586 -513.435)" fill="#501a0c"/>
        <path id="Path_13275" data-name="Path 13275" d="M288.639,427.2c1.888,5.124.6,10.317-2.882,11.6s-7.826-1.835-9.715-6.959-.6-10.318,2.882-11.6S286.753,422.072,288.639,427.2Z" transform="translate(-179.676 -400.98)" fill="#be1e2d"/>
        <path id="Path_13276" data-name="Path 13276" d="M385.586,1269.395l1.855,17.493,4.109,38.8,11.774,111.144.149.054,10.863,4.063.042.017s8.544-67.708,7.3-118.839c-.348-14.3-1.46-27.315-3.741-37.179h0c-1.695-7.343-4.038-12.945-7.195-16.038C406.253,1264.5,385.586,1269.395,385.586,1269.395Z" transform="translate(-357.752 -896.864)" fill="#fcae88"/>
        <path id="Path_13277" data-name="Path 13277" d="M427.737,1738.478l-3.811-24.649a16.339,16.339,0,0,1-1.482,2.367c-.66.854-1.309,1.634-1.967,2.38l-8.717,19.9h-21.7c-.253-2.334-.578-9.715,4.5-15.478,3.077-3.483,10.437-5.817,14.307-6.854l.006,0,.012-.008.053-.017.028-.079,12.308-13.964a3.284,3.284,0,0,1,2.911.348c.943.767,1.465,2.45,1.487,4.5l3.019,31.545Z" transform="translate(-366.446 -1151.412)" fill="#414042"/>
        <path id="Path_13278" data-name="Path 13278" d="M418.807,1752.845a.524.524,0,0,0,.4-.178L428,1742.645a.527.527,0,0,0-.049-.746.532.532,0,0,0-.744.05l-8.794,10.021a.53.53,0,0,0,.048.746A.523.523,0,0,0,418.807,1752.845Z" transform="translate(-377.634 -1174.743)" fill="#909091"/>
        <path id="Path_13279" data-name="Path 13279" d="M411.7,1669.185c.009-.191.013-.394.021-.605h9.824c.155,3.835,1.425,14.085,1.425,14.085v.016l.14,1.41s-10.854,19.964-17.575,20.37c-1.386.083-4.089-2.355-4.131-3.748a9.468,9.468,0,0,1,.278-2.023C403.353,1691.1,411.356,1676.968,411.7,1669.185Z" transform="translate(-365.611 -1131.9)" fill="#fcae88"/>
        <path id="Path_13280" data-name="Path 13280" d="M287.778,1269.395l1.578,14.926,3.884,36.628,12.276,115.879.149.054,10.862,4.063.042.017s9.092-72.045,7.152-123.62c-.509-13.654-1.795-25.877-4.223-34.945-1.634-6.095-3.787-10.764-6.567-13.492C308.441,1264.5,287.778,1269.395,287.778,1269.395Z" transform="translate(-219.387 -896.864)" fill="#fcae88"/>
        <path id="Path_13281" data-name="Path 13281" d="M329.925,1738.478l-3.81-24.649a16.449,16.449,0,0,1-1.483,2.367c-.661.854-1.309,1.634-1.969,2.38l-8.718,19.9h-21.7c-.254-2.334-.579-9.715,4.5-15.478,3.076-3.483,10.437-5.817,14.307-6.854l0,0,.013-.008.053-.017.027-.079,12.308-13.964a3.283,3.283,0,0,1,2.911.348c.943.767,1.465,2.45,1.487,4.5l3.019,31.545Z" transform="translate(-228.079 -1151.412)" fill="#414042"/>
        <path id="Path_13282" data-name="Path 13282" d="M320.994,1752.845a.522.522,0,0,0,.4-.178l8.795-10.021a.529.529,0,0,0-.051-.746.531.531,0,0,0-.743.05L320.6,1751.97a.53.53,0,0,0,.049.746A.522.522,0,0,0,320.994,1752.845Z" transform="translate(-239.267 -1174.743)" fill="#909091"/>
        <path id="Path_13283" data-name="Path 13283" d="M313.881,1669.185c.01-.191.015-.394.022-.605h9.824c.155,3.835,1.425,14.085,1.425,14.085v.016l.141,1.41s-10.855,19.964-17.575,20.37c-1.388.083-4.089-2.355-4.132-3.748a9.45,9.45,0,0,1,.278-2.023C305.538,1691.1,313.541,1676.968,313.881,1669.185Z" transform="translate(-227.241 -1131.9)" fill="#fcae88"/>
        <path id="Path_13284" data-name="Path 13284" d="M289.027,1389.106l30.481-3.607c-.025-.667-.052-1.335-.081-2H288.433Z" transform="translate(-215.174 -965.02)" fill="#f89a87"/>
        <path id="Path_13285" data-name="Path 13285" d="M386.977,1393.841l30.132-3.562q-.084-3.445-.228-6.779h-31Z" transform="translate(-353.179 -965.02)" fill="#f89a87"/>
        <path id="Path_13286" data-name="Path 13286" d="M242.722,1147.654H348.6c3.9-14.168,4.215-32.909,2.593-52.707-2.852-34.849-11.685-72.978-17.467-95.222-3.064-11.794-5.272-19.121-5.272-19.121h-65.6s-1.316,4.38-3.328,11.811c-.67,2.471-1.421,5.286-2.223,8.388-1.435,5.577-3.047,12.086-4.7,19.251-5.952,25.686-12.429,59.776-13.3,89.26C238.872,1123.689,239.776,1136.977,242.722,1147.654Z" transform="translate(-227.368 -729.174)" fill="#4e4e4e"/>
        <path id="Path_13287" data-name="Path 13287" d="M241.424,1136.309l111.891-14.367c-2.852-34.849-11.685-72.978-17.467-95.222l-76.419,1.078c-1.435,5.577-3.047,12.086-4.7,19.251C248.775,1072.735,242.3,1106.825,241.424,1136.309Z" transform="translate(-229.49 -756.169)" fill="#3b3b3b"/>
        <path id="Path_13288" data-name="Path 13288" d="M230.844,893.075l36.979-.2,8.12-15.13,3.54,15.072,47.412-.253,21.359-.116C368.878,770.176,295.44,751.8,337.172,667.193c5.993-12.152-35.143-29.613-35.143-29.613s-48.691,5.272-54.866,16.226c-1.928,3.421-12.942,43.69-14.321,68.831-.447,8.187,2.045,20.73,3.581,24.51C246.894,772.9,230.844,893.075,230.844,893.075Z" transform="translate(-223.778 -528.376)" fill="#f1f2f2"/>
        <rect id="Rectangle_1145" data-name="Rectangle 1145" width="29.271" height="12.732" transform="translate(63.613 162.603)" fill="#deeff8"/>
        <path id="Path_13289" data-name="Path 13289" d="M376.352,637.579l-7.9,14.671-14.841,27.564-1.468-26.074-.8-14.144Z" transform="translate(-298.102 -528.375)" fill="#fcae88"/>
        <path id="Path_13290" data-name="Path 13290" d="M351.346,593.993l.637,15.48.211,5.129,24.976-2.534-3.841-14.1-.486-1.77Z" transform="translate(-298.922 -502.861)" fill="#fcae88"/>
        <path id="Path_13291" data-name="Path 13291" d="M393.441,646.445l7.376-4.606-7.543.765Z" transform="translate(-339.952 -530.869)" fill="#f89a87"/>
        <path id="Path_13292" data-name="Path 13292" d="M357.424,629.377l7.543-.765,15-9.369a31.745,31.745,0,0,1-14.748,3.354h-.27a36.042,36.042,0,0,1-7.862-.881Z" transform="translate(-304.102 -517.642)" fill="#f89a87"/>
        <path id="Path_13293" data-name="Path 13293" d="M386.7,672.962l-14.841,27.564L370.4,674.453C373.779,677.056,379.111,678.432,386.7,672.962Z" transform="translate(-316.353 -549.088)" fill="#85d5d0"/>
        <path id="Path_13294" data-name="Path 13294" d="M450.93,802.73l-9.429-4.255c-8.345-6.874-15.9-34.1-16.217-35.253l1.14-.548c.077.277,7.669,27.638,15.595,34.276l9.23,4.144Z" transform="translate(-403.657 -601.603)" fill="#5e5f60"/>
        <path id="Path_13295" data-name="Path 13295" d="M422.477,856.3a.827.827,0,0,1-.4-.071l-3.006-1.3a1.406,1.406,0,0,1-.7-.792,2.225,2.225,0,0,1-.121-1.225c.153-.821.8-1.309,1.391-1.054l3.006,1.3a1.4,1.4,0,0,1,.7.79,2.216,2.216,0,0,1,.123,1.224A1.243,1.243,0,0,1,422.477,856.3Z" transform="translate(-372.975 -653.771)" fill="#bcbec0"/>
        <path id="Path_13296" data-name="Path 13296" d="M416.626,801.007l-.553-1.573,8.518-5.456c6.868-7.736,10.352-35.912,10.386-36.2l1.211.374c-.146,1.19-3.616,29.228-10.859,37.255l-.118.1Z" transform="translate(-384.776 -598.739)" fill="#5e5f60"/>
        <path id="Path_13297" data-name="Path 13297" d="M460.145,859.2a1.234,1.234,0,0,1-1.142-.967,2.2,2.2,0,0,1-.061-1.226,1.429,1.429,0,0,1,.577-.886l2.78-1.729c.546-.338,1.26.048,1.534.837a2.228,2.228,0,0,1,.058,1.231,1.412,1.412,0,0,1-.574.886l-2.783,1.726A.829.829,0,0,1,460.145,859.2Z" transform="translate(-430.288 -655.222)" fill="#bcbec0"/>
        <path id="Path_13298" data-name="Path 13298" d="M444.647,729.986c-.675.05-1.276-.673-1.349-1.619-.478-6.109-2.872-10.941-6.747-13.607a11.911,11.911,0,0,0-15.112,1.191c-2.367,2.266-5.061,6.591-4.457,14.335.075.951-.414,1.763-1.084,1.82h-.008c-.672.05-1.274-.675-1.347-1.62-.571-7.323,1.362-13.505,5.443-17.413a13.83,13.83,0,0,1,17.552-1.394c4.708,3.241,7.622,9.1,8.2,16.485.07.95-.415,1.766-1.085,1.819Z" transform="translate(-393.658 -570.289)" fill="#231f20"/>
        <path id="Path_13299" data-name="Path 13299" d="M432.332,675.262c.011.887.042,1.417.046,1.454l-2.7.171c0-.037-.033-.549-.042-1.418-.05-3.891.332-14.938,5.683-22.477,1.25-.466,4.5-1.27,6.559-1.763C432.937,656.668,432.3,670.7,432.332,675.262Z" transform="translate(-396.082 -536.366)" fill="#231f20"/>
        <path id="Path_13300" data-name="Path 13300" d="M316.738,720.243c-.042.231-.087.462-.129.692q-.181.928-.36,1.869-.1.493-.193.984l-2.66-.526c.078-.4.157-.8.236-1.2.116-.6.231-1.2.346-1.791q.062-.34.124-.679c8.559-45.544,4.081-65.468-1.634-74.175,1.192.559,3.379,1.6,4.247,2.115C321.659,658.191,324.471,679.125,316.738,720.243Z" transform="translate(-227.17 -532.964)" fill="#231f20"/>
        <path id="Path_13301" data-name="Path 13301" d="M328.086,832.121a6.529,6.529,0,1,1-5.116-7.686A6.528,6.528,0,0,1,328.086,832.121Z" transform="translate(-234.961 -637.681)" fill="#8d8f90"/>
        <path id="Path_13302" data-name="Path 13302" d="M328.376,832.943a5.85,5.85,0,1,1-4.584-6.889A5.851,5.851,0,0,1,328.376,832.943Z" transform="translate(-235.916 -638.636)" fill="#bcbec0"/>
        <path id="Path_13303" data-name="Path 13303" d="M329.15,835.114a4.063,4.063,0,1,1-3.184-4.785A4.064,4.064,0,0,1,329.15,835.114Z" transform="translate(-238.442 -641.16)" fill="#58595b"/>
        <path id="Path_13304" data-name="Path 13304" d="M439.181,901.432s-3.268-10.56-5.1-9.6c-2.474,1.3-1.529,4.788-1.529,4.788l3.054,6.034Z" transform="translate(-394.527 -677.173)" fill="#fcae88"/>
        <path id="Path_13305" data-name="Path 13305" d="M513.527,819.831s-2.523-10.762-.456-10.862c2.791-.133,3.741,3.357,3.741,3.357l.418,6.75Z" transform="translate(-505.699 -628.701)" fill="#fcae88"/>
        <path id="Path_13306" data-name="Path 13306" d="M254.991,998.933h0a250.221,250.221,0,0,0,3.721-44.468A250.113,250.113,0,0,1,254.991,998.933Zm3.722-44.485c0-.033,0-.075,0-.108C258.712,954.374,258.713,954.411,258.713,954.448Zm0-.153c0-.033,0-.062,0-.091C258.711,954.237,258.711,954.258,258.711,954.3Zm0-.133c0-.033,0-.066,0-.1C258.709,954.092,258.709,954.133,258.71,954.162Zm0-.174c0-.021,0-.054,0-.075C258.707,953.938,258.707,953.963,258.708,953.988Zm0-.149c0-.012,0-.037,0-.05C258.705,953.806,258.705,953.822,258.706,953.839Zm0-.133c0-.008,0-.021,0-.029C258.7,953.69,258.7,953.694,258.7,953.706ZM247.659,890.19a.029.029,0,0,1,0-.008Zm-.018-.056c-8.208-25.488-17.8-45.769-16.707-70.636l0,0C229.843,844.364,239.432,864.644,247.641,890.134Z" transform="translate(-130.514 -634.865)" fill="#e8e9e9"/>
        <path id="Path_13307" data-name="Path 13307" d="M334.3,1252.851l13.232-.071-13.231.071Z" transform="translate(-262.217 -888.5)" fill="#868788"/>
        <path id="Path_13308" data-name="Path 13308" d="M230.845,997.681l13.231-.07,17.8-.1,21.358-.116a250.111,250.111,0,0,0,3.722-44.468v-.017c0-.037,0-.075,0-.108,0-.017,0-.033,0-.046,0-.037,0-.058,0-.091,0-.017,0-.029,0-.041,0-.029,0-.071,0-.1s0-.05,0-.075,0-.05,0-.075,0-.046,0-.075,0-.033,0-.05,0-.054,0-.083c0-.012,0-.017,0-.029-.376-25.8-5.379-45.886-11.044-63.487a.057.057,0,0,1,0-.008l-.016-.048c-8.209-25.49-17.8-45.77-16.712-70.639l-1.887-1.087s9.592,131.512-26.443,180.807" transform="translate(-158.76 -633.331)" fill="#e1e2e3"/>
        <path id="Path_13309" data-name="Path 13309" d="M402.786,862.516l-75.875,4.221-4.855-110.677,75.872-4.218Z" transform="translate(-312.392 -595.262)" fill="#414042"/>
        <path id="Path_13310" data-name="Path 13310" d="M424.928,758.018l-28.888,1.694-.448-7.6,28.89-1.693Z" transform="translate(-365.025 -594.427)" fill="#bcbec0"/>
        <path id="Path_13311" data-name="Path 13311" d="M479.2,823.769a5.946,5.946,0,0,0-1.732,2.48c-.484,1.5-.131,2.193-.02,3.771.071,1.018-1.144,2.974-.935,3.972.154.738,1.655,1.676,1.81,2.414.209,1-1.417,3.074-.934,3.972,1.257,2.336,8.578,3.66,8.578,3.66s9.8,1.909,11.687-.32c.315-.373-.266-1.934-.266-1.934s4.513.428,5.335-.634a1.875,1.875,0,0,0-.239-1.741c-.917-.9-5.112-.629-5.112-.629s4.163-.084,4.874-1.112a2.016,2.016,0,0,0-.239-1.741c-1.258-1.449-7.383-2.093-7.383-2.093s2.83.11,3.482-.477c.51-.458.972-1.033.508-1.536-1.229-1.335-11.074-3.771-11.074-3.771l-.318-7.231Z" transform="translate(-476.49 -635.639)" fill="#fcae88"/>
        <path id="Path_13312" data-name="Path 13312" d="M437.851,916.242l-28.859,3.946-6.612-6.234s-11.419-7.546-12.39-6.778c-.691.546.109,2.672.714,4.036.5,1.119,3.91,2.283,3.9,2.871-.012.893-10.542,1.143-10.542,1.143l-.494-7s-3.649,3.155-4.008,4.342c-.967,3.212,1.78,14.613,4.271,16.859,4.392,3.958,53.946,1.017,53.946,1.017Z" transform="translate(-371.219 -686.159)" fill="#fcae88"/>
        <path id="Path_13313" data-name="Path 13313" d="M397.565,943.53h3.957V927.874L396.5,928.99Z" transform="translate(-341.997 -698.307)" fill="#85d5d0"/>
        <path id="Path_13314" data-name="Path 13314" d="M232.7,675.4c24.939,10.881,46.177,105.714,40.519,111.52-12.92,13.256-88.958,8.985-88.958,8.985l-1.177-16.619,53.818-12.33S205.813,663.675,232.7,675.4Z" transform="translate(-126.124 -549.973)" fill="#f1f2f2"/>
        <path id="Path_13315" data-name="Path 13315" d="M368.073,416.478a42.28,42.28,0,1,1-42.28-42.28A42.28,42.28,0,0,1,368.073,416.478Z" transform="translate(-261.699 -374.198)" fill="#8e2e15"/>
        <path id="Path_13316" data-name="Path 13316" d="M369.981,447.468a10.588,10.588,0,0,1-.3,2.289,8.65,8.65,0,0,1-4.458,6.029,4.545,4.545,0,0,1-2.2.395c-3.321,19.986-14.035,34.507-33.917,34.375a31.874,31.874,0,0,1-15.791-3.94c-13.13-7.45-18.729-24.7-18.6-44.732a66.531,66.531,0,0,1,.789-9.865c3.416-21.989,17.5-38.452,34.242-38.341,18.69.118,33.784,20.809,34.375,46.618a4.182,4.182,0,0,1,1.863.087,3.235,3.235,0,0,1,.612.229C368.765,441.573,370.072,444.323,369.981,447.468Z" transform="translate(-268.258 -385.6)" fill="#fcae88"/>
        <path id="Path_13317" data-name="Path 13317" d="M356.46,594.272l.009-.005Zm.036-.022c6.09-3.568,10.6-9.294,13.656-16.45C367.09,584.956,362.584,590.681,356.5,594.25Zm-34.383-1.271q-.6-.418-1.17-.865A4.477,4.477,0,0,0,322.113,592.979Z" transform="translate(-279.297 -493.382)" fill="#f9bbb6"/>
        <path id="Path_13318" data-name="Path 13318" d="M331.011,578.8a31.248,31.248,0,0,0,16.035-4.062l.009-.005.027-.016c6.088-3.569,10.594-9.295,13.656-16.45a60.333,60.333,0,0,0,3.905-13.839c-8.4,26.861-22.752,33.191-34.428,33.191a39.706,39.706,0,0,1-18.691-5.044l.005.006q.573.447,1.17.865a9.483,9.483,0,0,1,2.243,1.416,31.879,31.879,0,0,0,15.792,3.937Z" transform="translate(-269.883 -473.843)" fill="#f89a87"/>
        <path id="Path_13319" data-name="Path 13319" d="M308.644,392.755s32.124,34.385,55.644,38.209C365.52,426.253,356.134,347.221,308.644,392.755Z" transform="translate(-268.437 -376.816)" fill="#8e2e15"/>
        <path id="Path_13320" data-name="Path 13320" d="M454.361,413.122s-9.234,30.715-17.391,40.586C437.065,450.419,438.823,393.414,454.361,413.122Z" transform="translate(-411.614 -394.564)" fill="#8e2e15"/>
        <path id="Path_13321" data-name="Path 13321" d="M402.995,508.341s2.058,10.14,3.515,17.332c-16.038,4.765-3.775-16.87-3.521-17.321Z" transform="translate(-347.715 -452.722)" fill="#fcae88"/>
        <path id="Path_13322" data-name="Path 13322" d="M360.814,491.5c0-.014,0-.028,0-.043h-.069Z" transform="translate(-286.462 -442.841)" fill="#bd8c7f"/>
        <path id="Path_13323" data-name="Path 13323" d="M459.1,492.575l.352-.226-.355.01C459.1,492.429,459.1,492.5,459.1,492.575Z" transform="translate(-425.876 -443.361)" fill="#bd8c7f"/>
      </g>
    </g>
  </g>
</svg>
