<svg xmlns="http://www.w3.org/2000/svg" width="101.816" height="18.581" viewBox="0 0 101.816 18.581">
  <g id="up-arrow" transform="translate(101.816) rotate(90)">
    <path id="Path_155" data-name="Path 155" d="M18.536,17.2c-1.259-6.3-4.5-11.693-8.455-16.55a2.224,2.224,0,0,0-3.418.36C3.425,6.768.727,13.064.008,19.72c-.18,1.979,2.878,2.159,3.238.36a66.489,66.489,0,0,1,5.4-14.031,31.681,31.681,0,0,1,2.519,4.137C9.9,8.927,7.023,9.466,7.023,11.8,6.843,41.126.188,71.347,5.4,100.309c.36,2.339,4.317,1.8,4.137-.54C7.2,70.268,11.7,41.307,11.88,11.8v-.36a27.867,27.867,0,0,1,2.339,6.836C14.579,21.159,19.076,20.08,18.536,17.2Z" transform="translate(0 0)" fill="#03a9f4"/>
  </g>
</svg>
