<svg id="Group_185" data-name="Group 185" xmlns="http://www.w3.org/2000/svg" width="166.759" height="321.55" viewBox="0 0 166.759 321.55">
  <path id="Path_3492" data-name="Path 3492" d="M1121.984,1788.163c0,3.933-25.425,7.123-56.791,7.123s-56.793-3.19-56.793-7.123,25.428-7.123,56.793-7.123S1121.984,1784.23,1121.984,1788.163Z" transform="translate(-1002.771 -1473.736)" fill="#bce7e4"/>
  <g id="Group_181" data-name="Group 181" transform="translate(0 0)">
    <path id="Path_3238" data-name="Path 3238" d="M2479.27,960.537h0l3.21-5.472Z" transform="translate(-2321.648 -826.522)" fill="#e7e8e8"/>
    <path id="Path_3253" data-name="Path 3253" d="M2145.22,1705.881l.586-14.151h-7.617l-.588,14.151Z" transform="translate(-2056.081 -1399.106)" fill="#0e131a"/>
    <path id="Path_3254" data-name="Path 3254" d="M2149.7,1738.609h-34.587a12.691,12.691,0,0,1-.405-4.74,1.669,1.669,0,0,1,1.121-1.439c0-2.259,1.069-6.894,4.394-7.488l0,0c-.022.161-.608,4.8,6.54,0,1.777-1.194,11.852,9.021,19.251,8.909,1.733-.024,2.718,1.722,3.225,3.1A10.433,10.433,0,0,1,2149.7,1738.609Z" transform="translate(-2038.2 -1424.845)" fill="#866c57"/>
    <path id="Path_3255" data-name="Path 3255" d="M2120.6,1725.285c-.1.138-3.918,5.508-2.276,9.56a9.644,9.644,0,0,1-3.237-.637,1.668,1.668,0,0,1,1.12-1.439c0-2.259,1.069-6.894,4.395-7.489Z" transform="translate(-2038.585 -1425.183)" fill="#9e8979"/>
    <rect id="Rectangle_753" data-name="Rectangle 753" width="34.586" height="0.771" transform="translate(76.911 313.764)" fill="#474849"/>
    <path id="Path_3256" data-name="Path 3256" d="M2149.7,1765.079H2115.11s-1.546-5.584.715-6.179c0,0,21.127,8.444,33.408,4.526A10.414,10.414,0,0,1,2149.7,1765.079Z" transform="translate(-2038.199 -1451.315)" fill="#655141"/>
    <path id="Path_3257" data-name="Path 3257" d="M2184.793,1741.853a.772.772,0,1,1-.771-.773A.773.773,0,0,1,2184.793,1741.853Z" transform="translate(-2091.563 -1437.464)" fill="#43362c"/>
    <path id="Path_3258" data-name="Path 3258" d="M2196.086,1747.993a.773.773,0,1,1-.773-.773A.772.772,0,0,1,2196.086,1747.993Z" transform="translate(-2100.338 -1442.237)" fill="#43362c"/>
    <path id="Path_3259" data-name="Path 3259" d="M2207.386,1754.131a.773.773,0,1,1-.773-.771A.775.775,0,0,1,2207.386,1754.131Z" transform="translate(-2109.121 -1447.009)" fill="#43362c"/>
    <path id="Path_3260" data-name="Path 3260" d="M2250.155,1767.72c0,.292-.586.53-1.308.53s-1.307-.238-1.307-.53.586-.53,1.307-.53S2250.155,1767.428,2250.155,1767.72Z" transform="translate(-2141.533 -1457.759)" fill="#b6a79a"/>
    <path id="Path_3261" data-name="Path 3261" d="M1950.678,1705.881l-.588-14.151h7.618l.588,14.151Z" transform="translate(-1910.336 -1399.106)" fill="#0e131a"/>
    <path id="Path_3262" data-name="Path 3262" d="M1852.35,1738.609h34.584a12.687,12.687,0,0,0,.405-4.74,1.67,1.67,0,0,0-1.118-1.439c0-2.259-1.069-6.894-4.4-7.488l0,0c.022.161.608,4.8-6.54,0-1.775-1.194-11.85,9.021-19.251,8.909-1.731-.024-2.717,1.722-3.225,3.1A10.26,10.26,0,0,0,1852.35,1738.609Z" transform="translate(-1834.366 -1424.845)" fill="#866c57"/>
    <path id="Path_3263" data-name="Path 3263" d="M1984.682,1725.285c.1.138,3.918,5.508,2.276,9.56a9.634,9.634,0,0,0,3.236-.637,1.67,1.67,0,0,0-1.118-1.439c0-2.259-1.069-6.894-4.4-7.489Z" transform="translate(-1937.222 -1425.183)" fill="#9e8979"/>
    <rect id="Rectangle_754" data-name="Rectangle 754" width="34.586" height="0.771" transform="translate(17.984 313.764)" fill="#474849"/>
    <path id="Path_3264" data-name="Path 3264" d="M1852.35,1765.079h34.584s1.546-5.584-.713-6.179c0,0-21.129,8.444-33.41,4.526A10.26,10.26,0,0,0,1852.35,1765.079Z" transform="translate(-1834.366 -1451.315)" fill="#655141"/>
    <path id="Path_3265" data-name="Path 3265" d="M1934.35,1741.853a.773.773,0,1,0,.773-.773A.774.774,0,0,0,1934.35,1741.853Z" transform="translate(-1898.102 -1437.464)" fill="#43362c"/>
    <path id="Path_3266" data-name="Path 3266" d="M1923.05,1747.993a.773.773,0,1,0,.773-.773A.773.773,0,0,0,1923.05,1747.993Z" transform="translate(-1889.319 -1442.237)" fill="#43362c"/>
    <path id="Path_3267" data-name="Path 3267" d="M1911.75,1754.131a.773.773,0,1,0,.773-.771A.775.775,0,0,0,1911.75,1754.131Z" transform="translate(-1880.536 -1447.009)" fill="#43362c"/>
    <rect id="Rectangle_755" data-name="Rectangle 755" width="36.097" height="99.697" transform="translate(46.496 149.839)" fill="#b5b6b6"/>
    <path id="Path_3268" data-name="Path 3268" d="M1965.514,1225.415h18.843V1082.378l-12.516-.042v-.056h-35.484v.06l-11.146.038,0,143.037h18.846l9.31-114.633h2.835Z" transform="translate(-1890.998 -925.403)" fill="#414042"/>
    <path id="Path_3269" data-name="Path 3269" d="M1984.357,1082.378v98.068a100.424,100.424,0,0,1-22.224,3.379l-5.932-73.044h-2.835l-5.911,72.777a132.418,132.418,0,0,1-22.245-3.642l0-97.538,11.146-.038v-.06h35.484v.056Z" transform="translate(-1890.998 -925.403)" fill="#313032"/>
    <path id="Path_3270" data-name="Path 3270" d="M1981.968,643.009l13.13,18.7,1.2,34.3-7.624,48.6H1948.3l-5.894-54.678,2.118-25.125,11.166-20.777Z" transform="translate(-1904.367 -583.973)" fill="#7bc8c1"/>
    <path id="Path_3271" data-name="Path 3271" d="M2045.484,743.979l-6.353,7.506-6.691-7.2,5.468-64.117.027-.258-.042-.1-4.072-9.3h10.366l-4.065,9.3-.042.1.027.258Z" transform="translate(-1974.344 -605.346)" fill="#407c76"/>
    <path id="Path_3272" data-name="Path 3272" d="M2056.92,712.28h2.23l-.042.1.027.258h-2.2Z" transform="translate(-1993.371 -637.815)" fill="#3e6461"/>
    <rect id="Rectangle_756" data-name="Rectangle 756" width="22.804" height="4.751" transform="translate(52.869 156.133)" fill="#a97c50"/>
    <rect id="Rectangle_757" data-name="Rectangle 757" width="11.172" height="7.377" transform="translate(58.707 154.81)" fill="#f2d97f"/>
    <path id="Path_3273" data-name="Path 3273" d="M2046.353,1080.4H2035.18v-.011q1.126-.444,2.183-.971h1.107a.432.432,0,0,0,.394-.252.442.442,0,0,0,.04-.18v-.383a38.967,38.967,0,0,0,7.448-5.573Z" transform="translate(-1976.473 -918.213)" fill="#d3bd6e"/>
    <rect id="Rectangle_758" data-name="Rectangle 758" width="14.112" height="17.006" transform="translate(57.68 48.086)" fill="#fcae88"/>
    <path id="Path_3274" data-name="Path 3274" d="M2037.626,616.438a12.459,12.459,0,0,1-7.056-2.3v-2.864a11.186,11.186,0,0,0,6.709,2.361,10.362,10.362,0,0,0,3.766-.718,13.016,13.016,0,0,0,3.637-2.194v3.415A12.437,12.437,0,0,1,2037.626,616.438Z" transform="translate(-1972.89 -558.883)" fill="#e49975"/>
    <path id="Path_3275" data-name="Path 3275" d="M2061.93,642.573l4.606,7.441,8.33-13.565-5.608-1.88Z" transform="translate(-1997.265 -577.413)" fill="#b0deda"/>
    <path id="Path_3276" data-name="Path 3276" d="M2009.877,642.773l-4.439,7.392-10.478-13.251,7.676-2.088Z" transform="translate(-1945.212 -577.613)" fill="#b0deda"/>
    <path id="Path_3277" data-name="Path 3277" d="M1930.542,687.485l-.009,1v.013l-.621,151.82s-4.17,1.924-15.095.764c-1.1-.107-2.27-.256-3.515-.443-.372-.056-.744-.114-1.125-.176-2.352-.374-4.938-.88-7.787-1.541,2.807-52.209-.39-112.384.855-154.009V684.9c.063-2.108.138-4.287.225-6.557.225-5.963.548-12.523.973-19.849l10.373-6.1,3.308-1.945.334-.193.633-.375,2.009-1.178,9.032,37.111.4,1.634Z" transform="translate(-1873.261 -588.398)" fill="#f1f2f2"/>
    <path id="Path_3278" data-name="Path 3278" d="M2028.747,827.269l-.007-.009v-.024Z" transform="translate(-1971.468 -727.166)" fill="#a6d3cf"/>
    <path id="Path_3279" data-name="Path 3279" d="M1980.426,649.581l-1.047-4.3-2.009,1.178a2.491,2.491,0,0,1,.269-.451c.682-.857,2.726-1.464,3.669-1.705l.684.866.22,1.085Z" transform="translate(-1931.54 -584.981)" fill="#f2f3f3"/>
    <path id="Path_3280" data-name="Path 3280" d="M1999.082,689.228l-.007-.025-7.985-32.814,1.786-3.325,2.956,14.54Z" transform="translate(-1942.204 -591.788)" fill="#a6d3cf"/>
    <path id="Path_3281" data-name="Path 3281" d="M1995.734,644.765l-.684-.866c.3-.076.483-.117.483-.117Z" transform="translate(-1945.282 -584.574)" fill="#c5e0dd"/>
    <path id="Path_3282" data-name="Path 3282" d="M1982.205,688.491l-12.01-21.384,4.388-5.337-5.713-.524s.644-8.755,1.893-11.368l2.009-1.178,1.047,4.3,7.985,32.814.007.025.394,2.63Z" transform="translate(-1924.933 -588.398)" fill="#eaebeb"/>
    <path id="Path_3283" data-name="Path 3283" d="M1971.033,637.855c-1.426,1.8-2.163,12.531-2.163,12.531l5.713.524-4.388,5.336,12.017,21.393-3.651-24.288-3.377-17.317S1971.931,636.727,1971.033,637.855Z" transform="translate(-1924.933 -578.552)" fill="#fff"/>
    <path id="Path_3284" data-name="Path 3284" d="M2119.592,838.92a101.913,101.913,0,0,1-11.614,2.074c-.274.038-.548.067-.811.087a47.092,47.092,0,0,1-11.995,0,13.006,13.006,0,0,1-3.1-.764l-.51-133.409-.038-5.74-.073-12.678v-.028l-.009-.977.4-1.639,9.041-37.145,2.011,1.182.633.371.332.193,1.475.864,1.838,1.081,6.156,3.621,4.214,2.478c.214,3.638.394,7.087.557,10.372.376,7.644.615,14.381.757,20.461C2119.752,727.422,2116.892,788.606,2119.592,838.92Z" transform="translate(-2020.202 -588.398)" fill="#f1f2f2"/>
    <path id="Path_3285" data-name="Path 3285" d="M2091.44,827.211l.009-.049v.036Z" transform="translate(-2020.202 -727.108)" fill="#a6d3cf"/>
    <path id="Path_3286" data-name="Path 3286" d="M2124.411,647.188l-1.971-2.81.12-.6s3.259.695,4.152,1.822a2.511,2.511,0,0,1,.274.455l-2.011-1.182Z" transform="translate(-2044.297 -584.574)" fill="#f2f3f3"/>
    <path id="Path_3287" data-name="Path 3287" d="M2093.24,684.1l3.25-21.63,3.254-16.011,1.971,2.81Z" transform="translate(-2021.601 -586.656)" fill="#a6d3cf"/>
    <path id="Path_3288" data-name="Path 3288" d="M2091.48,688.487v-.036l.392-2.608,8.475-34.831.563-2.31,2.011,1.182c1.252,2.618,1.9,11.364,1.9,11.364l-5.715.524,4.385,5.337Z" transform="translate(-2020.233 -588.398)" fill="#eaebeb"/>
    <path id="Path_3289" data-name="Path 3289" d="M2102.617,637.855c1.432,1.8,2.17,12.531,2.17,12.531l-5.716.524,4.386,5.336-12.017,21.393,3.651-24.288,3.375-17.317S2101.724,636.727,2102.617,637.855Z" transform="translate(-2020.202 -578.552)" fill="#fff"/>
    <rect id="Rectangle_759" data-name="Rectangle 759" width="17.195" height="9.297" transform="translate(76.503 93.435)" fill="#fff"/>
    <rect id="Rectangle_760" data-name="Rectangle 760" width="4.838" height="4.148" transform="translate(77.697 96.01)" fill="#d1d3d4"/>
    <rect id="Rectangle_761" data-name="Rectangle 761" width="8.68" height="0.606" transform="translate(83.831 96.311)" fill="#d1d3d4"/>
    <rect id="Rectangle_762" data-name="Rectangle 762" width="8.68" height="0.604" transform="translate(83.831 97.781)" fill="#d1d3d4"/>
    <rect id="Rectangle_763" data-name="Rectangle 763" width="8.68" height="0.605" transform="translate(83.831 99.25)" fill="#d1d3d4"/>
    <rect id="Rectangle_764" data-name="Rectangle 764" width="1.815" height="2.494" transform="translate(84.194 91.788)" fill="#f1f2f2"/>
    <path id="Path_3290" data-name="Path 3290" d="M1960.927,764.8l-4.766-2.591c-4.1-3.917-7-18.449-7.121-19.066l.617-.243c.031.148,2.943,14.754,6.834,18.532l4.666,2.524Z" transform="translate(-1909.52 -661.617)" fill="#5e5f60"/>
    <path id="Path_3291" data-name="Path 3291" d="M1999.995,836.245a.453.453,0,0,1-.207-.053l-1.521-.8a.733.733,0,0,1-.337-.44,1.18,1.18,0,0,1-.018-.647c.114-.423.47-.654.771-.5l1.521.8a.734.734,0,0,1,.336.44,1.175,1.175,0,0,1,.018.645A.654.654,0,0,1,1999.995,836.245Z" transform="translate(-1947.478 -732.24)" fill="#bcbec0"/>
    <path id="Path_3292" data-name="Path 3292" d="M1965.189,764.8l-.229-.844,4.668-2.524c3.891-3.781,6.8-18.384,6.831-18.532l.619.243c-.123.617-3.023,15.149-7.121,19.066l-.065.048Z" transform="translate(-1921.894 -661.617)" fill="#5e5f60"/>
    <path id="Path_3293" data-name="Path 3293" d="M1958.927,836.245a.646.646,0,0,1-.561-.55,1.151,1.151,0,0,1,.016-.644.734.734,0,0,1,.336-.44l1.521-.8c.3-.156.657.075.768.5a1.158,1.158,0,0,1-.018.647.737.737,0,0,1-.334.44l-1.523.8A.431.431,0,0,1,1958.927,836.245Z" transform="translate(-1916.739 -732.24)" fill="#bcbec0"/>
    <path id="Path_3294" data-name="Path 3294" d="M1963.313,704.5c-.352,0-.639-.4-.641-.9-.013-3.214-1.08-5.834-3-7.379a6.246,6.246,0,0,0-7.949.039c-1.328,1.093-2.9,3.252-2.887,7.326,0,.5-.283.907-.637.91h0c-.354,0-.639-.4-.641-.9-.016-3.852,1.234-7.012,3.521-8.9a7.254,7.254,0,0,1,9.235-.051c2.337,1.878,3.633,5.054,3.651,8.94,0,.5-.287.907-.639.91Z" transform="translate(-1908.361 -622.844)" fill="#231f20"/>
    <path id="Path_3295" data-name="Path 3295" d="M1982.221,641.927l-1.421-.017c0-.152.194-15.651,11.086-15.651v1.851C1982.381,628.111,1982.223,641.789,1982.221,641.927Z" transform="translate(-1934.206 -570.955)" fill="#231f20"/>
    <path id="Path_3296" data-name="Path 3296" d="M2106.688,669.9c-.094-26.719-4.929-36.7-8.967-40.362-2.165-1.965-3.72-1.9-3.791-1.9v-1.777a9.242,9.242,0,0,1,4.637,2.526c4.3,3.806,9.444,14.1,9.542,41.5Z" transform="translate(-2022.138 -570.647)" fill="#231f20"/>
    <path id="Path_3297" data-name="Path 3297" d="M2145.159,817.98a3.425,3.425,0,1,1-3.426-3.423A3.424,3.424,0,0,1,2145.159,817.98Z" transform="translate(-2056.633 -717.311)" fill="#8d8f90"/>
    <path id="Path_3298" data-name="Path 3298" d="M2146.046,819.219a3.068,3.068,0,1,1-3.069-3.068A3.069,3.069,0,0,1,2146.046,819.219Z" transform="translate(-2057.876 -718.55)" fill="#bcbec0"/>
    <path id="Path_3299" data-name="Path 3299" d="M2148.381,822.489a2.13,2.13,0,1,1-2.131-2.131A2.131,2.131,0,0,1,2148.381,822.489Z" transform="translate(-2061.149 -721.82)" fill="#58595b"/>
    <path id="Path_3300" data-name="Path 3300" d="M2113.668,983.209a36.171,36.171,0,0,1-5.468-.372c16.823-35.161,23.679-151.757,23.679-151.757.132,5.581.183,11.657.183,18.122,0,22.712-.637,50.222-.635,77.9,0,18.224.276,36.522,1.192,53.572a101.886,101.886,0,0,1-11.614,2.074c-.274.038-.548.067-.811.087A61.634,61.634,0,0,1,2113.668,983.209Z" transform="translate(-2033.229 -730.154)" fill="#e5e6e6"/>
    <path id="Path_3301" data-name="Path 3301" d="M1804.945,746.226c1.406,11.342,27.922,35.429,27.922,35.429h12.072l1.791-.294-20.062-35.135,1.967-53.574S1803.183,731.995,1804.945,746.226Z" transform="translate(-1797.452 -622.559)" fill="#f1f2f2"/>
    <rect id="Rectangle_765" data-name="Rectangle 765" width="22.153" height="24.165" transform="translate(32.127 163.887)" fill="#fff"/>
    <rect id="Rectangle_766" data-name="Rectangle 766" width="22.151" height="24.165" transform="translate(74.385 163.887)" fill="#fff"/>
    <path id="Path_3302" data-name="Path 3302" d="M2374.34,832.693s6.112-5.679,6.423-6.976c.51-2.125,1.738-4.5,7.028-5.2,2.138-.419,3.283-2.226,4.412-2.956.67-.433,2.679.608,1.339,2.434-1.339,1.339-3.528,3.043-3.528,3.043s5.166.79,12.64-3.858c1.619-1.005,1.107,2.872,3.3,2.763,2.724-.135-.908,4.461-9.306,5.679.916,1.406,7.724-2.393,7.479-.689-.835.712-4.493,7.2-17.759,5.492-.243.73-10.328,11.342-10.328,11.342Z" transform="translate(-2240.09 -719.572)" fill="#fcae88"/>
    <path id="Path_3303" data-name="Path 3303" d="M2200.568,692.652l20,52.069,19.324-14.443,10.455,9.086s-19.4,33.1-31.368,36.272c-7.8,2.069-20-19.578-20-19.578S2196.579,697.643,2200.568,692.652Z" transform="translate(-2103.232 -622.559)" fill="#f1f2f2"/>
    <path id="Path_3304" data-name="Path 3304" d="M1772.042,950.617a.433.433,0,0,1-.432-.432V907.752a.433.433,0,0,1,.432-.433h61.564a.433.433,0,0,1,.434.433v42.433a.433.433,0,0,1-.434.432Z" transform="translate(-1771.61 -789.412)" fill="#d1d3d4"/>
    <path id="Path_3305" data-name="Path 3305" d="M1896.675,983.379a6.057,6.057,0,1,1-6.058-6.058A6.059,6.059,0,0,1,1896.675,983.379Z" transform="translate(-1859.402 -843.822)" fill="#dadcdd"/>
    <path id="Path_3306" data-name="Path 3306" d="M2050.96,1100.769a.424.424,0,0,0,.169-.189A.424.424,0,0,1,2050.96,1100.769Z" transform="translate(-1988.739 -939.627)" fill="#cdbd85"/>
    <path id="Path_3307" data-name="Path 3307" d="M2037.6,907.316h0Z" transform="translate(-1977.709 -789.409)" fill="#8dc5c1"/>
    <path id="Path_3308" data-name="Path 3308" d="M2043.03,907.666a.432.432,0,0,0-.425-.35h0A.432.432,0,0,1,2043.03,907.666Z" transform="translate(-1980.608 -789.409)" fill="#638e8b"/>
    <path id="Path_3309" data-name="Path 3309" d="M1833.606,950.617h-61.564a.433.433,0,0,1-.432-.432v-.109A109.134,109.134,0,0,0,1802.285,935v0c.178.016.359.025.539.025a6.061,6.061,0,0,0,5.949-4.909,127.873,127.873,0,0,0,21.9-22.8h2.936a.432.432,0,0,1,.425.35.48.48,0,0,1,.009.081v42.434a.443.443,0,0,1-.04.18.432.432,0,0,1-.394.252Z" transform="translate(-1771.61 -789.412)" fill="#cbcdce"/>
    <path id="Path_3310" data-name="Path 3310" d="M1909.869,1014.579c-.181,0-.361-.009-.539-.025,2.274-1.588,4.437-3.225,6.486-4.882l0,0A6.061,6.061,0,0,1,1909.869,1014.579Z" transform="translate(-1878.655 -868.966)" fill="#d2d4d5"/>
    <path id="Path_3311" data-name="Path 3311" d="M1868.273,1065.41a4.487,4.487,0,0,0,1.858,1.328,6.078,6.078,0,0,0,2.846.047c.769-.045,2.234.889,2.989.74.559-.111,1.279-1.236,1.838-1.347.755-.149,2.307,1.1,2.991.737,1.773-.929,2.833-6.444,2.833-6.444s1.521-7.379-.145-8.825c-.281-.241-1.463.185-1.463.185s.361-3.4-.434-4.031a1.415,1.415,0,0,0-1.316.167c-.691.684-.517,3.853-.517,3.853s-.029-3.143-.8-3.688a1.526,1.526,0,0,0-1.316.165c-1.1.938-1.639,5.557-1.639,5.557s.1-2.136-.332-2.633c-.343-.39-.773-.741-1.156-.4-1.018.918-3.078,8.905-3.078,8.905h-5.321Z" transform="translate(-1845.062 -898.523)" fill="#fcae88"/>
    <path id="Path_3312" data-name="Path 3312" d="M1967.049,490.288a3.67,3.67,0,0,0,6.856-2.622l-1.9-4.951a3.669,3.669,0,0,0-6.854,2.621Z" transform="translate(-1921.858 -457.549)" fill="#fcae88"/>
    <path id="Path_3314" data-name="Path 3314" d="M2122.1,490.288a3.67,3.67,0,0,1-6.856-2.622l1.893-4.951a3.67,3.67,0,0,1,6.856,2.621Z" transform="translate(-2038.517 -457.549)" fill="#fcae88"/>
    <path id="Path_3316" data-name="Path 3316" d="M1980.948,407.489s-7.37.962-8.537,2.89c-2.5,4.139,3.018,19.113,3.018,19.113Z" transform="translate(-1927.179 -400.912)" fill="#e6e7e8"/>
    <path id="Path_3317" data-name="Path 3317" d="M2083.364,413.746s4.646-12.99,2.976-16.955c-1.383-3.282-11.758-8.033-11.758-8.033L2069.1,396Z" transform="translate(-2002.838 -386.353)" fill="#e6e7e8"/>
    <path id="Path_3318" data-name="Path 3318" d="M1988.23,414.937a41.057,41.057,0,0,0,1.025,9.2h0c.156.692.334,1.365.526,2.024q.247.838.528,1.634c2.764,7.953,8.021,13.324,14.057,13.324,5.927,0,11.117-5.192,13.917-12.929.238-.659.459-1.333.662-2.029.2-.655.37-1.328.53-2.015v-.009a40.814,40.814,0,0,0,1.029-9.2q0-1.772-.145-3.484c0-.068,0-.105,0-.105-1.08-12.756-7.829-22.582-15.988-22.582-8.188,0-14.954,9.889-16,22.709C1988.279,412.607,1988.23,413.765,1988.23,414.937Z" transform="translate(-1939.981 -386.359)" fill="#fcae88"/>
    <path id="Path_3319" data-name="Path 3319" d="M2093.93,552.276h0a23.373,23.373,0,0,0,6.512-10.017q.244-.672.461-1.367-.217.7-.461,1.367A23.369,23.369,0,0,1,2093.93,552.276Zm7.353-12.669q.11-.4.214-.818Q2101.393,539.2,2101.283,539.607Zm.675-2.933q.107-.569.2-1.149Q2102.064,536.106,2101.958,536.675Z" transform="translate(-2022.138 -500.431)" fill="#f9c8c5"/>
    <path id="Path_3320" data-name="Path 3320" d="M2077.6,612.919a13.007,13.007,0,0,0,3.637-2.2h0A13.013,13.013,0,0,1,2077.6,612.919Z" transform="translate(-2009.445 -558.879)" fill="#eb927c"/>
    <path id="Path_3321" data-name="Path 3321" d="M2130.87,510.763a41.627,41.627,0,0,0,.5-6.1A41.622,41.622,0,0,1,2130.87,510.763Zm.505-6.442v0Zm0-.076c0-.193,0-.386,0-.578,0,.192,0,.385,0,.578Z" transform="translate(-2050.85 -475.668)" fill="#f79d86"/>
    <path id="Path_3330" data-name="Path 3330" d="M2021.205,387.5a8.83,8.83,0,0,1-3.372.768c-.071.009-.145.015-.216.022-2.332.233-5.455.329-8.558.355-.076,0-.149,0-.223,0-3.5.026-6.958-.033-9.206-.088l-.223-.007c-1.434-.035-2.319-.066-2.319-.066l-2.622-3.183s-1.9-8.417,8.23-7.231q.755.089,1.5.164c.234.024.463.046.693.068,2.891.281,5.693.452,8.275.68l.593.053a42.064,42.064,0,0,1,6.9,1.083c.091.026.185.05.274.077a9.578,9.578,0,0,1,4.882,2.808C2027.375,384.865,2023.664,385.75,2021.205,387.5Z" transform="translate(-1944.72 -377.962)" fill="#d1d3d4"/>
    <path id="Path_3331" data-name="Path 3331" d="M2102.207,387.747a5.418,5.418,0,0,0-.494.377c-2.3,1.982-2.642,5.543-2.613,7.694-.071.009-.145.015-.216.022-.031-2.191.312-5.839,2.686-7.882.118-.1.239-.2.363-.287C2102.024,387.7,2102.118,387.72,2102.207,387.747Z" transform="translate(-2025.987 -385.508)" fill="#9d9e9f"/>
    <path id="Path_3332" data-name="Path 3332" d="M2063.477,382.625a6.454,6.454,0,0,0-3.653,2.313c-1.608,2.153-1.452,5.177-1.049,7.295-.076,0-.149,0-.223,0-.4-2.16-.548-5.229,1.1-7.428a6.445,6.445,0,0,1,3.237-2.234Z" transform="translate(-1994.436 -381.545)" fill="#9d9e9f"/>
    <path id="Path_3333" data-name="Path 3333" d="M2021.37,379.282a6.744,6.744,0,0,0-4.31,2.464c-1.74,2.326-1.414,5.67-.953,7.791l-.223-.007c-.465-2.164-.771-5.545,1-7.915a6.666,6.666,0,0,1,3.8-2.4C2020.911,379.238,2021.14,379.26,2021.37,379.282Z" transform="translate(-1961.195 -378.935)" fill="#9d9e9f"/>
    <path id="Path_3334" data-name="Path 3334" d="M2128.512,547.56v.009l0,0Z" transform="translate(-2049.015 -509.784)" fill="#fcae88"/>
    <path id="Path_3353" data-name="Path 3353" d="M1988.552,487.335a.018.018,0,0,1,0-.01h0Zm.178-2.138h-.1a.92.92,0,0,1,.113-.084C1988.737,485.141,1988.735,485.169,1988.73,485.2Z" transform="translate(-1940.23 -461.247)" fill="#ebeced"/>
    <path id="Path_3357" data-name="Path 3357" d="M2015.724,505.811a7.872,7.872,0,0,1-1.924-.726,8.447,8.447,0,0,0,1.915.713A.054.054,0,0,0,2015.724,505.811Zm4.473-.251a9.3,9.3,0,0,0,1.223-.53A6.912,6.912,0,0,1,2020.2,505.561Z" transform="translate(-1959.856 -476.728)" fill="#d6b8a9"/>
    <path id="Path_3372" data-name="Path 3372" d="M2080.1,505.756s.007-.009.009-.014a8.519,8.519,0,0,0,1.691-.656A7.947,7.947,0,0,1,2080.1,505.756Zm-4.7-.2a6.932,6.932,0,0,1-1.22-.529A9.138,9.138,0,0,0,2075.4,505.56Z" transform="translate(-2006.787 -476.728)" fill="#d6b8a9"/>
  </g>
</svg>
