<svg id="Group_183" data-name="Group 183" xmlns="http://www.w3.org/2000/svg" width="114.586" height="324.657" viewBox="0 0 114.586 324.657">
  <path id="Path_12018" data-name="Path 12018" d="M1505.062,420.493a5.879,5.879,0,0,1-.132,1.141,4.291,4.291,0,0,1-1.975,3.005,45.909,45.909,0,0,1-4.12,2.388c-1.472,9.964-3.075,15.012-11.887,14.946a12.907,12.907,0,0,1-7-1.964c-5.819-3.714-9.616-18.732-7.89-27.219,1.512-10.962,7.754-19.17,15.173-19.114a17.091,17.091,0,0,1,16.058,12.726c.716,2.492-.891,7.285-.825,10.515a1.651,1.651,0,0,1,.825.044,1.365,1.365,0,0,1,.272.114A3.643,3.643,0,0,1,1505.062,420.493Z" transform="translate(-1438.459 -385.632)" fill="#fcae88"/>
  <path id="Path_158" data-name="Path 158" d="M1697.837,1788.163c0,3.933-25.428,7.123-56.793,7.123s-56.793-3.19-56.793-7.123,25.427-7.123,56.793-7.123S1697.837,1784.23,1697.837,1788.163Z" transform="translate(-1584.25 -1470.63)" fill="#bce7e4"/>
  <path id="Path_215" data-name="Path 215" d="M1902.025,1731.73l.6-14.5h-7.807l-.6,14.5Z" transform="translate(-1825.178 -1421.032)" fill="#0e131a"/>
  <path id="Path_216" data-name="Path 216" d="M1906.611,1765.275h-35.44a13.029,13.029,0,0,1-.414-4.858,1.714,1.714,0,0,1,1.147-1.475c0-2.314,1.1-7.063,4.5-7.671l0,0c-.022.165-.621,4.918,6.7,0,1.82-1.225,12.144,9.241,19.728,9.13,1.773-.029,2.782,1.762,3.3,3.178A10.427,10.427,0,0,1,1906.611,1765.275Z" transform="translate(-1806.854 -1447.414)" fill="#856c57"/>
  <path id="Path_217" data-name="Path 217" d="M1876.8,1751.622c-.1.14-4.014,5.646-2.332,9.8a9.889,9.889,0,0,1-3.316-.653,1.714,1.714,0,0,1,1.147-1.474c0-2.314,1.1-7.063,4.5-7.671Z" transform="translate(-1807.247 -1447.762)" fill="#9d8879"/>
  <rect id="Rectangle_671" data-name="Rectangle 671" width="35.44" height="0.788" transform="translate(64.317 317.861)" fill="#474849"/>
  <path id="Path_218" data-name="Path 218" d="M1906.606,1792.392h-35.44s-1.584-5.724.733-6.332c0,0,21.65,8.653,34.235,4.637A10.425,10.425,0,0,1,1906.606,1792.392Z" transform="translate(-1806.849 -1474.531)" fill="#655141"/>
  <path id="Path_219" data-name="Path 219" d="M1942.574,1768.593a.792.792,0,1,1-.791-.793A.791.791,0,0,1,1942.574,1768.593Z" transform="translate(-1861.531 -1460.339)" fill="#43362c"/>
  <path id="Path_220" data-name="Path 220" d="M1954.154,1774.883a.792.792,0,1,1-.793-.793A.795.795,0,0,1,1954.154,1774.883Z" transform="translate(-1870.532 -1465.227)" fill="#43362c"/>
  <path id="Path_221" data-name="Path 221" d="M1965.724,1781.171a.792.792,0,1,1-.791-.791A.793.793,0,0,1,1965.724,1781.171Z" transform="translate(-1879.525 -1470.117)" fill="#43362c"/>
  <path id="Path_222" data-name="Path 222" d="M2009.557,1795.1c0,.3-.6.543-1.338.543s-1.339-.245-1.339-.543.6-.546,1.339-.546S2009.557,1794.8,2009.557,1795.1Z" transform="translate(-1912.745 -1481.13)" fill="#b5a699"/>
  <path id="Path_223" data-name="Path 223" d="M1742.263,1731.73l-.6-14.5h7.807l.6,14.5Z" transform="translate(-1706.599 -1421.032)" fill="#0e131a"/>
  <path id="Path_224" data-name="Path 224" d="M1641.51,1765.275h35.44a13.029,13.029,0,0,0,.414-4.858,1.711,1.711,0,0,0-1.147-1.475c0-2.314-1.094-7.063-4.5-7.671l0,0c.022.165.624,4.918-6.7,0-1.82-1.225-12.144,9.241-19.728,9.13-1.773-.029-2.782,1.762-3.3,3.178A10.4,10.4,0,0,0,1641.51,1765.275Z" transform="translate(-1628.756 -1447.414)" fill="#856c57"/>
  <path id="Path_225" data-name="Path 225" d="M1777.112,1751.622c.1.14,4.016,5.646,2.332,9.8a9.89,9.89,0,0,0,3.316-.653,1.711,1.711,0,0,0-1.147-1.474c0-2.314-1.094-7.063-4.5-7.671Z" transform="translate(-1734.153 -1447.762)" fill="#9d8879"/>
  <rect id="Rectangle_672" data-name="Rectangle 672" width="35.44" height="0.788" transform="translate(12.754 317.861)" fill="#474849"/>
  <path id="Path_226" data-name="Path 226" d="M1641.51,1792.392h35.44s1.581-5.724-.733-6.332c0,0-21.65,8.653-34.234,4.637A10.394,10.394,0,0,0,1641.51,1792.392Z" transform="translate(-1628.756 -1474.531)" fill="#655141"/>
  <path id="Path_227" data-name="Path 227" d="M1725.53,1768.593a.792.792,0,1,0,.791-.793A.791.791,0,0,0,1725.53,1768.593Z" transform="translate(-1694.062 -1460.339)" fill="#43362c"/>
  <path id="Path_228" data-name="Path 228" d="M1713.96,1774.883a.792.792,0,1,0,.791-.793A.793.793,0,0,0,1713.96,1774.883Z" transform="translate(-1685.069 -1465.227)" fill="#43362c"/>
  <path id="Path_229" data-name="Path 229" d="M1702.38,1781.171a.792.792,0,1,0,.791-.791A.793.793,0,0,0,1702.38,1781.171Z" transform="translate(-1676.068 -1470.117)" fill="#43362c"/>
  <path id="Path_230" data-name="Path 230" d="M1654.73,1795.1c0,.3.6.543,1.339.543s1.341-.245,1.341-.543-.6-.546-1.341-.546S1654.73,1794.8,1654.73,1795.1Z" transform="translate(-1639.032 -1481.13)" fill="#b5a699"/>
  <path id="Path_231" data-name="Path 231" d="M1706.64,1071.88l4.149,151.456h16.6c2.918-63.905,6.214-126.024,6.214-126.024s1.078,51.287,10.44,126.024h15.487l1.924-151.456Z" transform="translate(-1679.38 -919.425)" fill="#414042"/>
  <path id="Path_232" data-name="Path 232" d="M1761.463,1071.87l-.991,77.915a86.946,86.946,0,0,1-23.6,3.773c-2.811-35.034-3.259-56.256-3.259-56.256s-1.241,23.383-2.873,56.212a107.312,107.312,0,0,1-21.94-3.2l-2.149-78.446Z" transform="translate(-1679.387 -919.417)" fill="#313032"/>
  <path id="Path_233" data-name="Path 233" d="M1970.353,717.181l21.942,57.227-29.455,20.7Z" transform="translate(-1878.514 -643.73)" fill="#e5e6e7"/>
  <path id="Path_234" data-name="Path 234" d="M1750.256,653.331,1762.66,671l1.132,32.4-7.2,45.911h-38.135l-5.566-51.65,2-23.735,10.3-20.592Z" transform="translate(-1684.237 -594.102)" fill="#aae1fb"/>
  <rect id="Rectangle_673" data-name="Rectangle 673" width="13.594" height="17.226" transform="translate(46.628 49.204)" fill="#fbad87"/>
  <path id="Path_235" data-name="Path 235" d="M1809.333,732.537l-.049.637-6.217,12.117-6.188-12.679,5.163-45.768.022-.244-.038-.09-3.847-8.789h9.792l-3.84,8.789-.04.09.027.244Z" transform="translate(-1749.52 -613.06)" fill="#243444"/>
  <path id="Path_236" data-name="Path 236" d="M1819.99,717.181h2.1l-.04.09.027.244h-2.076Z" transform="translate(-1767.482 -643.73)" fill="#505d69"/>
  <rect id="Rectangle_674" data-name="Rectangle 674" width="21.541" height="4.488" transform="translate(42.656 150.949)" fill="#a87c50"/>
  <rect id="Rectangle_675" data-name="Rectangle 675" width="10.555" height="6.967" transform="translate(48.169 149.7)" fill="#f1d87f"/>
  <path id="Path_237" data-name="Path 237" d="M1825.24,648.58l5.085,6.876,7.4-12.647-5.838-2.562Z" transform="translate(-1771.563 -583.932)" fill="#ccedfc"/>
  <path id="Path_238" data-name="Path 238" d="M1776.98,649.859l-4.232,6.831-9.6-12.352,6.664-2.445Z" transform="translate(-1723.302 -585.212)" fill="#ccedfc"/>
  <path id="Path_239" data-name="Path 239" d="M1667.16,808.477a158.112,158.112,0,0,0,31.481,4.833l4.154-10.377,3.492,10.567a112.893,112.893,0,0,0,34.244-5.023c-2.651-49.318.4-138.884,0-145.805l-26.546-15.62-11.426,41.955-12.112-41.955-21.65,12.516C1668.394,666.488,1669.811,759.159,1667.16,808.477Z" transform="translate(-1648.693 -589.222)" fill="#f0f1f1"/>
  <rect id="Rectangle_676" data-name="Rectangle 676" width="16.244" height="8.78" transform="translate(66.943 90.543)" fill="#fff"/>
  <rect id="Rectangle_677" data-name="Rectangle 677" width="4.573" height="3.918" transform="translate(68.071 92.975)" fill="#d0d2d3"/>
  <rect id="Rectangle_678" data-name="Rectangle 678" width="8.199" height="0.572" transform="translate(73.866 93.26)" fill="#d0d2d3"/>
  <rect id="Rectangle_679" data-name="Rectangle 679" width="8.199" height="0.572" transform="translate(73.866 94.647)" fill="#d0d2d3"/>
  <rect id="Rectangle_680" data-name="Rectangle 680" width="8.199" height="0.571" transform="translate(73.866 96.036)" fill="#d0d2d3"/>
  <rect id="Rectangle_681" data-name="Rectangle 681" width="1.715" height="2.355" transform="translate(74.209 88.987)" fill="#f0f1f1"/>
  <path id="Path_240" data-name="Path 240" d="M1826.09,736.074l12.72-22.614,1,1.788Zm11.783-24.289-3.027-3.683,5.4-.495-4.031,1.208Z" transform="translate(-1772.224 -636.289)" fill="#dddede"/>
  <path id="Path_241" data-name="Path 241" d="M1840.49,641.618c1.35,1.7-.247,12.732-.247,12.732l-5.4.495,4.143,5.041-12.9,22.932,9.466-43.728S1839.644,640.552,1840.49,641.618Z" transform="translate(-1772.224 -583.032)" fill="#fff"/>
  <path id="Path_242" data-name="Path 242" d="M1792.786,720.056,1787.2,700.7l1.6,2.291,4.094,16.079Z" transform="translate(-1741.996 -630.921)" fill="#add3e4"/>
  <path id="Path_243" data-name="Path 243" d="M1815.356,794.81l-3.076-10.65.111-.985Z" transform="translate(-1761.49 -695.024)" fill="#525d68"/>
  <path id="Path_244" data-name="Path 244" d="M1776.827,730.7l-13.253-21.449,4.372-4.552-5.236-2.467,5.453-1.54,0,0,5.586,19.355Z" transform="translate(-1722.961 -630.913)" fill="#dddede"/>
  <path id="Path_245" data-name="Path 245" d="M1755.917,642.776c-1.35,1.7,1.207,12.474,1.207,12.474l5.4.495-4.143,5.041,12.863,22.932-10.391-43.471S1756.764,641.71,1755.917,642.776Z" transform="translate(-1717.375 -583.932)" fill="#fff"/>
  <path id="Path_247" data-name="Path 247" d="M1874.456,836.021a3.125,3.125,0,1,1-1.78-4.045A3.123,3.123,0,0,1,1874.456,836.021Z" transform="translate(-1805.122 -732.79)" fill="#8c8e8f"/>
  <path id="Path_248" data-name="Path 248" d="M1875.292,837.033a2.8,2.8,0,1,1-1.6-3.626A2.8,2.8,0,0,1,1875.292,837.033Z" transform="translate(-1806.259 -733.92)" fill="#bbbdbf"/>
  <path id="Path_249" data-name="Path 249" d="M1877.477,839.708a1.944,1.944,0,1,1-1.107-2.519A1.945,1.945,0,0,1,1877.477,839.708Z" transform="translate(-1809.244 -736.905)" fill="#58595b"/>
  <rect id="Rectangle_682" data-name="Rectangle 682" width="22.601" height="24.652" transform="translate(22.626 164.959)" fill="#fff"/>
  <rect id="Rectangle_683" data-name="Rectangle 683" width="22.599" height="24.652" transform="translate(62.446 164.959)" fill="#fff"/>
  <path id="Path_256" data-name="Path 256" d="M1800.326,930.952l45.627-2.675-3.446-58.781-45.627,2.674Z" transform="translate(-1749.52 -762.119)" fill="#58595b"/>
  <path id="Path_257" data-name="Path 257" d="M1855.718,871.839l17.977-.817-.2-4.387-17.977.817Z" transform="translate(-1795.098 -759.896)" fill="#bbbdbf"/>
  <path id="Path_258" data-name="Path 258" d="M1860.471,1015.92s-3.818,6.673.575,13.193C1861.912,1028.306,1865.269,1020.8,1860.471,1015.92Z" transform="translate(-1797.751 -875.929)" fill="#b4b5b5"/>
  <path id="Path_259" data-name="Path 259" d="M1815.291,1009.919l-7.976.927-3.555-.695s-6.64-3.25-7.228-2.833c-.419.294-.02,1.555.29,2.365.252.666,2.2,1.448,2.176,1.791-.033.517-5.553.35-5.553.35l-.269-4.633s-2.622,2.252-2.867,2.931c-.664,1.835-.236,9.972,1.141,11.355,2.428,2.435,21.245-1.129,21.245-1.129Z" transform="translate(-1744.174 -869.144)" fill="#fbad87"/>
  <path id="Path_260" data-name="Path 260" d="M1916.186,976.784c-8.088,18.781-49.782,14.144-49.782,14.144s1.316-7.923-.575-13.195C1888.977,975.342,1925.59,954.948,1916.186,976.784Z" transform="translate(-1803.112 -837.742)" fill="#f0f1f1"/>
  <path id="Path_261" data-name="Path 261" d="M1866.4,1029.115s1.316-7.923-.575-13.195C1865.83,1015.92,1869.848,1019.58,1866.4,1029.115Z" transform="translate(-1803.112 -875.929)" fill="#aae1fb"/>
  <path id="Path_262" data-name="Path 262" d="M1626.4,755.5c-.784,6.525-2.488,9.655-2.488,9.655l-24.078-.052,16.634-61.857c7.359,17.609,10.2,35.364,10.313,44.73A57.3,57.3,0,0,1,1626.4,755.5Z" transform="translate(-1596.36 -632.896)" fill="#f0f1f1"/>
  <path id="Path_263" data-name="Path 263" d="M1654.55,914.32l14.759-10.258c0,.247,0,.492,0,.734q0,.764-.016,1.491c-5.152,2.74-10.326,5.577-14.745,8.032Z" transform="translate(-1638.892 -788.986)" fill="#c9caca" fill-rule="evenodd"/>
  <path id="Path_264" data-name="Path 264" d="M1823.073,864.251s3.677,9.736.4,15.723C1822.516,878.517,1822.139,864.825,1823.073,864.251Z" transform="translate(-1769.46 -758.042)" fill="#b4b5b5"/>
  <path id="Path_265" data-name="Path 265" d="M1829.756,806.349c-.318.483-.911.625-1.31,1.016a3.2,3.2,0,0,1,.824.835c.43,1.064-.889,2.068-1.595,2.515-.283.175-.617.286-.891.475-4.591,3.14-11.368,2.986-13.892,3.494a4.854,4.854,0,0,0-1.691,1.01,44.341,44.341,0,0,0-4.138,4.033l-3.564-9.068s2.1-2.052,4.693-4.628c1.584-1.579,3.352-3.35,4.934-4.971,1.4-1.428,2.786-4.581,3.639-7.118.619-1.845,2.539-3.358,3.5-5.044.3-.532.724-2.328,1.622-1.962.746.3.942,2.11,1.071,2.754a4.742,4.742,0,0,1-.541,2.223c-.332.9-1.232,1.8-1,2.831a3.986,3.986,0,0,0,1.722,2.319c1.336.763,5.687,1.848,5.916,2.514a1.344,1.344,0,0,1,.02.778c-.083.268-.51,1.035-.82,1.046.8.59,2.272,1.079,1,2.4a.881.881,0,0,0-.289.646c.033.272.334.379.5.565C1829.825,805.418,1830.1,805.831,1829.756,806.349Z" transform="translate(-1754.665 -697.91)" fill="#fbad87"/>
  <path id="Path_266" data-name="Path 266" d="M1824.623,885c-.125-1.392-.285-3.577-.356-6.2-.049-1.816-.053-3.839.029-5.955a.054.054,0,0,1,.011-.012l3.009,9.663A32.656,32.656,0,0,0,1824.623,885Z" transform="translate(-1770.779 -764.716)" fill="#e39874"/>
  <path id="Path_267" data-name="Path 267" d="M1647.845,879.977s-29.319,28.138-43.612,28.248h0c-5.874.044-9.21-4.646-6.927-17.975,0,0,39.273-22.558,50.142-25.994-.176,2.807-.187,5.518-.125,7.878C1647.446,876.726,1647.845,879.977,1647.845,879.977Z" transform="translate(-1593.834 -758.046)" fill="#f0f1f1"/>
  <path id="Path_268" data-name="Path 268" d="M1630.94,935.656c.361-.194,36.42-19.61,42.975-36.108.038,0,.076.01.114.017.125,4.593.523,7.844.523,7.844s-2.185,2.1-5.653,5.148c-6.776,5.961-18.445,15.564-28.285,20.288C1637.041,934.563,1633.708,935.634,1630.94,935.656Z" transform="translate(-1620.54 -785.477)" fill="#dedfdf"/>
  <path id="Path_2132" data-name="Path 2132" d="M2705.634,396.264s1.913-6.282-3.6-8.186c.924.829,3.989,3.62,1.392,7.448C2704.772,396,2705.634,396.264,2705.634,396.264Z" transform="translate(-2636.034 -383.609)" fill="#482b0e"/>
  <path id="Path_2577" data-name="Path 2577" d="M2557.794,539.667l0,.009a33.1,33.1,0,0,0,.624,3.918c1.68,7.562,4.021,12.921,11.184,14.387,6,1.229,15.594-.96,15.6-11.376a6.175,6.175,0,0,1,.487-2.439s-3.639-2.024-4.989-2.1C2574.945,541.763,2565.058,537.751,2557.794,539.667Z" transform="translate(-2523.921 -501.033)" fill="#482b0e"/>
  <path id="Path_2578" data-name="Path 2578" d="M2677.911,412.309c1.969,5.3-12.3,26.825-12.3,26.825l-4.989-2.1s14.792-15.019.615-27.333c-1.688-1.467,5.074-6.272,6.956-5.627C2669.429,404.5,2676.706,409.072,2677.911,412.309Z" transform="translate(-2603.847 -395.999)" fill="#482b0e"/>
  <path id="Path_2579" data-name="Path 2579" d="M2674.508,407.656a20.455,20.455,0,0,1-10.342,4.008,5.35,5.35,0,0,0-1.958-1.947c-1.949-1.1,5.072-6.272,6.954-5.627A34.548,34.548,0,0,1,2674.508,407.656Z" transform="translate(-2604.819 -396.011)" fill="#36200b"/>
  <path id="Path_2580" data-name="Path 2580" d="M2689.582,508.066c-2,3.07-5.056,4.619-6.84,3.462s-1.613-4.587.381-7.657,5.058-4.622,6.84-3.462S2691.577,504.995,2689.582,508.066Z" transform="translate(-2620.082 -470.62)" fill="#fcae88"/>
  <path id="Path_2581" data-name="Path 2581" d="M2699.776,513.271s7.206,0-.726,5.58C2699.208,517.67,2702.3,516.938,2699.776,513.271Z" transform="translate(-2633.718 -480.917)" fill="#f09261"/>
  <path id="Path_2582" data-name="Path 2582" d="M2574.984,384.9s-28.742-2.057-.517-16.884c-2.294,6.018,14.683-7.725,20.93,10.516C2593.077,382.272,2585.061,386.261,2574.984,384.9Z" transform="translate(-2527.237 -368.014)" fill="#482b0e"/>
  <path id="Path_2593" data-name="Path 2593" d="M2629.281,512.346l-1.871-.29h0Zm-5.448-.844-.813-.126h.007l.806.125Z" transform="translate(-2574.622 -479.444)" fill="#fbdcda"/>
  <path id="Path_2594" data-name="Path 2594" d="M2629.775,512.421l-3.1-.481h0l3.1.482Z" transform="translate(-2577.459 -479.882)" fill="#8c5135"/>
  <path id="Path_2595" data-name="Path 2595" d="M2641.082,514.174l-.472-.073h0l.472.073Z" transform="translate(-2588.294 -481.562)" fill="#7b4831"/>
  <path id="Path_2604" data-name="Path 2604" d="M2576.2,502.329l-1.873-.29h0l1.873.29m-5.448-.844-.815-.126h.009l.806.125Z" transform="translate(-2533.365 -471.658)" fill="#fbdcda"/>
  <path id="Path_2605" data-name="Path 2605" d="M2576.705,502.4l-3.1-.481h0l3.1.482Z" transform="translate(-2536.21 -472.096)" fill="#8c5135"/>
  <path id="Path_2606" data-name="Path 2606" d="M2588.01,504.158l-.47-.073h0l.47.073Z" transform="translate(-2547.045 -473.777)" fill="#7b4831"/>
</svg>
