<svg id="Group_194" data-name="Group 194" xmlns="http://www.w3.org/2000/svg" xmlns:xlink="http://www.w3.org/1999/xlink" width="196.919" height="328.771" viewBox="0 0 196.919 328.771">
  <defs>
    <clipPath id="clip-path">
      <path id="Path_3724" data-name="Path 3724" d="M984.848,579.413l-18.467-.858-1.375-21.022,17.216-4.184Z" transform="translate(-965.006 -553.349)" clip-rule="evenodd"/>
    </clipPath>
  </defs>
  <path id="Path_12017" data-name="Path 12017" d="M1503.546,420.493a6.14,6.14,0,0,1-.126,1.141,4.3,4.3,0,0,1-1.885,3.005,1.673,1.673,0,0,1-.931.2c-1.4,9.964-5.937,17.2-14.348,17.137a11.91,11.91,0,0,1-6.679-1.964c-5.554-3.714-7.922-12.314-7.866-22.3a38.938,38.938,0,0,1,.335-4.918c1.443-10.962,7.4-19.17,14.483-19.114,5.953.044,14.687,3.066,17.018,11.726.668,2.477-2.538,8.337-2.477,11.515a1.508,1.508,0,0,1,.788.044,1.268,1.268,0,0,1,.26.114C1503.032,417.555,1503.585,418.926,1503.546,420.493Z" transform="translate(-1348.95 -383.632)" fill="#fcae88"/>
  <path id="Path_3493" data-name="Path 3493" d="M1195.082,1792.463c0,6.308-41.788,11.423-93.339,11.423s-93.343-5.115-93.343-11.423,41.792-11.423,93.343-11.423S1195.082,1786.155,1195.082,1792.463Z" transform="translate(-1008.4 -1475.115)" fill="#bce7e4"/>
  <path id="Path_3497" data-name="Path 3497" d="M1152.18,705.475l14.9,53.164-22.386,24.526Z" transform="translate(-971.004 -629.415)" fill="#e6e7e8"/>
  <path id="Path_3498" data-name="Path 3498" d="M645.249,773.993s-7.991,14.37,0,23.106C649.322,794.764,652.655,785.923,645.249,773.993Z" transform="translate(-581.381 -682.49)" fill="#b5b6b6"/>
  <path id="Path_3499" data-name="Path 3499" d="M563.882,765.388s-6.184-5.746-6.5-7.059c-.516-2.15-1.759-4.557-7.11-5.26-2.166-.424-3.324-2.253-4.467-2.991-.677-.438-2.71.615-1.355,2.463,1.355,1.355,3.572,3.079,3.572,3.079s-5.228.8-12.792-3.9c-1.638-1.018-1.119,2.906-3.341,2.8-2.759-.136.919,4.515,9.416,5.747-.925,1.423-7.815-2.421-7.568-.7.844.721,4.545,7.282,17.97,5.557.245.739,10.451,11.478,10.451,11.478Z" transform="translate(-495.623 -663.888)" fill="#fcae88"/>
  <path id="Path_3500" data-name="Path 3500" d="M659.216,730.527a7.672,7.672,0,0,1-1.763,2.856s6.807,7.358,14.752,15.5c9.837,10.082,21.082,15.278,23.638,15.278,2.586,0,5.208-2.984,7.492-6.758a89.2,89.2,0,0,0,6.853-15.327s.022-2.357.008-6.048c-.05-13.412-6.954-44.29-6.954-44.29L688.4,737.724l-30.946-27.444,0,0a59.479,59.479,0,0,1,1.923,7.621C660.124,722.013,660.529,726.963,659.216,730.527Z" transform="translate(-593.585 -618.774)" fill="#f1f2f2"/>
  <path id="Path_3501" data-name="Path 3501" d="M856.277,836.117a89.2,89.2,0,0,1-6.854,15.326,25.187,25.187,0,0,1-3.373,4.541l8.492-42.841a126.175,126.175,0,0,1,1.745,16.926C856.3,833.76,856.277,836.117,856.277,836.117Z" transform="translate(-739.674 -712.816)" fill="#b5b6b6"/>
  <path id="Path_3502" data-name="Path 3502" d="M917.464,1703.861l-.611-14.691h7.908l.612,14.691Z" transform="translate(-794.52 -1391.396)" fill="#0e131a"/>
  <path id="Path_3503" data-name="Path 3503" d="M816.573,1737.442H852.48a13.168,13.168,0,0,0,.42-4.922,1.741,1.741,0,0,0-1.161-1.494c0-2.344-1.11-7.156-4.564-7.771l0,0c.023.167.63,4.983-6.79,0-1.844-1.24-12.3,9.365-19.987,9.25-1.8-.027-2.82,1.785-3.348,3.223A10.644,10.644,0,0,0,816.573,1737.442Z" transform="translate(-716.841 -1417.72)" fill="#866c57"/>
  <path id="Path_3504" data-name="Path 3504" d="M952.35,1723.6c.1.144,4.068,5.72,2.363,9.926a9.976,9.976,0,0,0,3.36-.663,1.741,1.741,0,0,0-1.161-1.494c0-2.344-1.11-7.156-4.564-7.771Z" transform="translate(-822.014 -1418.066)" fill="#9e8979"/>
  <rect id="Rectangle_772" data-name="Rectangle 772" width="35.908" height="0.8" transform="translate(99.732 319.722)" fill="#474849"/>
  <path id="Path_3505" data-name="Path 3505" d="M816.573,1764.5H852.48s1.6-5.8-.741-6.417c0,0-21.936,8.77-34.687,4.7A10.641,10.641,0,0,0,816.573,1764.5Z" transform="translate(-716.841 -1444.775)" fill="#655141"/>
  <path id="Path_3506" data-name="Path 3506" d="M900.7,1740.61a.8.8,0,1,0,.8-.8A.8.8,0,0,0,900.7,1740.61Z" transform="translate(-782.01 -1430.623)" fill="#43362c"/>
  <path id="Path_3507" data-name="Path 3507" d="M889.113,1746.9a.8.8,0,1,0,.8-.8A.8.8,0,0,0,889.113,1746.9Z" transform="translate(-773.032 -1435.495)" fill="#43362c"/>
  <path id="Path_3508" data-name="Path 3508" d="M877.521,1753.2a.8.8,0,1,0,.8-.8A.8.8,0,0,0,877.521,1753.2Z" transform="translate(-764.052 -1440.375)" fill="#43362c"/>
  <path id="Path_3509" data-name="Path 3509" d="M829.814,1767.14c0,.3.607.552,1.356.552s1.357-.248,1.357-.552-.608-.55-1.357-.55S829.814,1766.838,829.814,1767.14Z" transform="translate(-727.098 -1451.367)" fill="#b6a79a"/>
  <path id="Path_3510" data-name="Path 3510" d="M1101.955,1702.288l-.845-15.148h7.909l.845,15.148Z" transform="translate(-937.248 -1389.824)" fill="#0e131a"/>
  <path id="Path_3511" data-name="Path 3511" d="M1082.981,1733.76s-13.027.962-21.691,0l.009-.009c.018-.02.054-.059.106-.117a25.949,25.949,0,0,0,4.648-4.9c2.628-3.635,4.321-12.978,9.266-9.27a27.2,27.2,0,0,0,5.024,3.453l1.945,8Z" transform="translate(-906.401 -1414.201)" fill="#866c57"/>
  <path id="Path_3512" data-name="Path 3512" d="M1082.981,1771.591s-13.027.963-21.691,0l.009-.009.106-.117c.938-.947,7.611-7.129,18.764-2.013a10.227,10.227,0,0,0,2.119-.7Z" transform="translate(-906.401 -1452.032)" fill="#655141"/>
  <rect id="Rectangle_773" data-name="Rectangle 773" width="21.691" height="0.962" transform="translate(154.889 319.559)" fill="#474849"/>
  <path id="Path_3513" data-name="Path 3513" d="M1130.31,1747.536c0,.487.228.884.512.884s.51-.4.51-.884-.228-.886-.51-.886S1130.31,1747.047,1130.31,1747.536Z" transform="translate(-959.866 -1435.921)" fill="#43362c"/>
  <path id="Path_3514" data-name="Path 3514" d="M1136.2,1738.936c0,.489.228.886.512.886s.512-.4.512-.886-.23-.886-.512-.886S1136.2,1738.447,1136.2,1738.936Z" transform="translate(-964.428 -1429.26)" fill="#43362c"/>
  <path id="Path_3515" data-name="Path 3515" d="M939.627,1043l7.221,153.3-19.638.158c-8.5-64.847-14.9-127.687-14.9-127.687s-4.221,86.171-7.106,127.687H886.038L884.089,1043Z" transform="translate(-769.14 -890.866)" fill="#414042"/>
  <path id="Path_3516" data-name="Path 3516" d="M884.19,1049.285l.994,78.264a98.451,98.451,0,0,0,24.362.935c1.6-29.819,2.838-55.159,2.838-55.159s2.279,22.361,5.921,54.165a158.46,158.46,0,0,0,24.887-5.865l-3.119-66.257-30.381-6.482S897.671,1048.84,884.19,1049.285Z" transform="translate(-769.218 -895.424)" fill="#313032"/>
  <path id="Path_3517" data-name="Path 3517" d="M935.675,642.563l12.367,17.612,1.127,32.3-7.181,45.773H903.97l-5.549-51.494,2-23.663,10.265-20.531Z" transform="translate(-780.242 -580.683)" fill="#abe2fc"/>
  <g id="Group_187" data-name="Group 187" transform="translate(133.187 41.773)">
    <g id="Group_186" data-name="Group 186" transform="translate(0 0)" clip-path="url(#clip-path)">
      <path id="Path_3518" data-name="Path 3518" d="M962.981,532.967l2.351,9.583-24.748,6.075-2.353-9.583Z" transform="translate(-944.266 -537.561)" fill="#f47b54"/>
      <path id="Path_3519" data-name="Path 3519" d="M973.417,575.486l.027.1-24.75,6.076-.025-.1Z" transform="translate(-952.351 -570.497)" fill="#f47b54"/>
      <path id="Path_3520" data-name="Path 3520" d="M973.531,575.944l.025.1-24.749,6.075-.025-.1Z" transform="translate(-952.438 -570.851)" fill="#f47b54"/>
      <path id="Path_3521" data-name="Path 3521" d="M973.642,576.4l.025.1-24.749,6.075-.025-.1Z" transform="translate(-952.525 -571.207)" fill="#f47b54"/>
      <path id="Path_3522" data-name="Path 3522" d="M973.755,576.861l.025.1-24.748,6.075-.025-.1Z" transform="translate(-952.612 -571.562)" fill="#f47c55"/>
      <path id="Path_3523" data-name="Path 3523" d="M973.866,577.319l.027.1-24.75,6.076-.026-.1Z" transform="translate(-952.699 -571.916)" fill="#f47c55"/>
      <path id="Path_3524" data-name="Path 3524" d="M973.981,577.777l.025.1-24.749,6.075-.025-.1Z" transform="translate(-952.787 -572.271)" fill="#f47c55"/>
      <path id="Path_3525" data-name="Path 3525" d="M974.093,578.236l.025.1-24.749,6.075-.025-.1Z" transform="translate(-952.874 -572.627)" fill="#f47d56"/>
      <path id="Path_3526" data-name="Path 3526" d="M974.2,578.694l.025.1-24.748,6.075-.025-.1Z" transform="translate(-952.961 -572.982)" fill="#f47d56"/>
      <path id="Path_3527" data-name="Path 3527" d="M974.317,579.152l.027.1-24.75,6.075-.025-.1Z" transform="translate(-953.048 -573.336)" fill="#f47e57"/>
      <path id="Path_3528" data-name="Path 3528" d="M974.431,579.61l.025.1-24.749,6.076-.025-.1Z" transform="translate(-953.135 -573.691)" fill="#f47e57"/>
      <path id="Path_3529" data-name="Path 3529" d="M974.542,580.068l.025.1-24.749,6.075-.026-.1Z" transform="translate(-953.222 -574.046)" fill="#f47e57"/>
      <path id="Path_3530" data-name="Path 3530" d="M974.655,580.527l.025.1-24.748,6.075-.025-.1Z" transform="translate(-953.309 -574.401)" fill="#f47f58"/>
      <path id="Path_3531" data-name="Path 3531" d="M974.766,580.985l.027.1-24.75,6.076-.025-.1Z" transform="translate(-953.396 -574.756)" fill="#f47f58"/>
      <path id="Path_3532" data-name="Path 3532" d="M974.881,581.443l.025.1-24.749,6.076-.025-.1Z" transform="translate(-953.484 -575.111)" fill="#f48059"/>
      <path id="Path_3533" data-name="Path 3533" d="M974.992,581.9l.025.1-24.749,6.076-.025-.1Z" transform="translate(-953.57 -575.466)" fill="#f48059"/>
      <path id="Path_3534" data-name="Path 3534" d="M975.1,582.36l.025.1-24.748,6.075-.025-.1Z" transform="translate(-953.658 -575.821)" fill="#f48059"/>
      <path id="Path_3535" data-name="Path 3535" d="M975.216,582.818l.027.1L950.493,589l-.025-.1Z" transform="translate(-953.745 -576.176)" fill="#f4815a"/>
      <path id="Path_3536" data-name="Path 3536" d="M975.331,583.276l.025.1-24.749,6.076-.025-.1Z" transform="translate(-953.832 -576.531)" fill="#f5815a"/>
      <path id="Path_3537" data-name="Path 3537" d="M975.442,583.734l.025.1-24.749,6.076-.025-.1Z" transform="translate(-953.919 -576.886)" fill="#f5815a"/>
      <path id="Path_3538" data-name="Path 3538" d="M975.555,584.192l.025.1-24.748,6.075-.025-.1Z" transform="translate(-954.007 -577.24)" fill="#f5825b"/>
      <path id="Path_3539" data-name="Path 3539" d="M975.666,584.651l.027.1-24.75,6.075-.026-.1Z" transform="translate(-954.093 -577.596)" fill="#f5825b"/>
      <path id="Path_3540" data-name="Path 3540" d="M975.781,585.109l.025.1-24.749,6.075-.025-.1Z" transform="translate(-954.181 -577.951)" fill="#f5825c"/>
      <path id="Path_3541" data-name="Path 3541" d="M975.892,585.567l.025.1-24.749,6.076-.026-.1Z" transform="translate(-954.267 -578.305)" fill="#f5835c"/>
      <path id="Path_3542" data-name="Path 3542" d="M976,586.025l.025.1L951.281,592.2l-.025-.1Z" transform="translate(-954.355 -578.66)" fill="#f5835c"/>
      <path id="Path_3543" data-name="Path 3543" d="M976.116,586.484l.027.1-24.75,6.075-.025-.1Z" transform="translate(-954.442 -579.016)" fill="#f5845d"/>
      <path id="Path_3544" data-name="Path 3544" d="M976.231,586.942l.025.1-24.749,6.075-.025-.1Z" transform="translate(-954.529 -579.371)" fill="#f5845d"/>
      <path id="Path_3545" data-name="Path 3545" d="M976.342,587.4l.025.1-24.749,6.076-.025-.1Z" transform="translate(-954.616 -579.725)" fill="#f5845d"/>
      <path id="Path_3546" data-name="Path 3546" d="M976.454,587.858l.025.1-24.748,6.076-.025-.1Z" transform="translate(-954.703 -580.08)" fill="#f5855e"/>
      <path id="Path_3547" data-name="Path 3547" d="M976.566,588.316l.027.1-24.75,6.075-.026-.1Z" transform="translate(-954.79 -580.435)" fill="#f5855e"/>
      <path id="Path_3548" data-name="Path 3548" d="M976.68,588.775l.025.1-24.749,6.075-.026-.1Z" transform="translate(-954.877 -580.79)" fill="#f5855f"/>
      <path id="Path_3549" data-name="Path 3549" d="M976.792,589.233l.025.1-24.749,6.075-.025-.1Z" transform="translate(-954.965 -581.145)" fill="#f5865f"/>
      <path id="Path_3550" data-name="Path 3550" d="M976.9,589.691l.025.1-24.748,6.076-.025-.1Z" transform="translate(-955.052 -581.5)" fill="#f5865f"/>
      <path id="Path_3551" data-name="Path 3551" d="M977.016,590.149l.027.1-24.75,6.076-.026-.1Z" transform="translate(-955.139 -581.855)" fill="#f58660"/>
      <path id="Path_3552" data-name="Path 3552" d="M977.13,590.608l.025.1-24.749,6.075-.025-.1Z" transform="translate(-955.226 -582.21)" fill="#f58760"/>
      <path id="Path_3553" data-name="Path 3553" d="M977.242,591.066l.025.1-24.749,6.075-.025-.1Z" transform="translate(-955.313 -582.565)" fill="#f58760"/>
      <path id="Path_3554" data-name="Path 3554" d="M977.355,591.524l.025.1L952.631,597.7l-.025-.1Z" transform="translate(-955.401 -582.92)" fill="#f68761"/>
      <path id="Path_3555" data-name="Path 3555" d="M977.466,591.982l.027.1-24.75,6.076-.025-.1Z" transform="translate(-955.488 -583.275)" fill="#f68861"/>
      <path id="Path_3556" data-name="Path 3556" d="M977.58,592.44l.025.1-24.749,6.075-.025-.1Z" transform="translate(-955.574 -583.629)" fill="#f68861"/>
      <path id="Path_3557" data-name="Path 3557" d="M977.692,592.9l.025.1-24.749,6.075-.025-.1Z" transform="translate(-955.662 -583.985)" fill="#f68862"/>
      <path id="Path_3558" data-name="Path 3558" d="M977.8,593.357l.025.1-24.748,6.075-.026-.1Z" transform="translate(-955.749 -584.34)" fill="#f68962"/>
      <path id="Path_3559" data-name="Path 3559" d="M977.916,593.815l.027.1-24.75,6.076-.025-.1Z" transform="translate(-955.836 -584.694)" fill="#f68962"/>
      <path id="Path_3560" data-name="Path 3560" d="M978.03,594.273l.025.1-24.749,6.075-.026-.1Z" transform="translate(-955.923 -585.049)" fill="#f68963"/>
      <path id="Path_3561" data-name="Path 3561" d="M978.142,594.732l.025.1-24.749,6.075-.025-.1Z" transform="translate(-956.011 -585.405)" fill="#f68a63"/>
      <path id="Path_3562" data-name="Path 3562" d="M978.254,595.19l.025.1-24.748,6.075-.025-.1Z" transform="translate(-956.097 -585.76)" fill="#f68a63"/>
      <path id="Path_3563" data-name="Path 3563" d="M978.366,595.648l.027.1-24.75,6.076-.025-.1Z" transform="translate(-956.185 -586.114)" fill="#f68a64"/>
      <path id="Path_3564" data-name="Path 3564" d="M978.48,596.106l.025.1-24.749,6.075-.025-.1Z" transform="translate(-956.271 -586.469)" fill="#f68b64"/>
      <path id="Path_3565" data-name="Path 3565" d="M978.592,596.564l.025.1-24.749,6.075-.025-.1Z" transform="translate(-956.359 -586.824)" fill="#f68b64"/>
      <path id="Path_3566" data-name="Path 3566" d="M978.7,597.023l.025.1L953.98,603.2l-.025-.1Z" transform="translate(-956.446 -587.179)" fill="#f68b65"/>
      <path id="Path_3567" data-name="Path 3567" d="M978.816,597.481l.027.1-24.75,6.075-.025-.1Z" transform="translate(-956.533 -587.534)" fill="#f68c65"/>
      <path id="Path_3568" data-name="Path 3568" d="M978.93,597.939l.025.1-24.749,6.076-.025-.1Z" transform="translate(-956.62 -587.889)" fill="#f68c65"/>
      <path id="Path_3569" data-name="Path 3569" d="M979.042,598.4l.025.1-24.749,6.076-.025-.1Z" transform="translate(-956.707 -588.244)" fill="#f68c66"/>
      <path id="Path_3570" data-name="Path 3570" d="M979.154,598.856l.025.1-24.748,6.075-.025-.1Z" transform="translate(-956.794 -588.599)" fill="#f68d66"/>
      <path id="Path_3571" data-name="Path 3571" d="M979.266,599.314l.025.1-24.748,6.075-.025-.1Z" transform="translate(-956.882 -588.954)" fill="#f68d66"/>
      <path id="Path_3572" data-name="Path 3572" d="M979.38,599.772l.025.1-24.749,6.076-.025-.1Z" transform="translate(-956.969 -589.309)" fill="#f68d67"/>
      <path id="Path_3573" data-name="Path 3573" d="M979.492,600.23l.025.1-24.749,6.075-.025-.1Z" transform="translate(-957.056 -589.664)" fill="#f68e67"/>
      <path id="Path_3574" data-name="Path 3574" d="M979.6,600.688l.025.1-24.748,6.075-.025-.1Z" transform="translate(-957.143 -590.018)" fill="#f78e67"/>
      <path id="Path_3575" data-name="Path 3575" d="M979.716,601.147l.025.1-24.748,6.075-.025-.1Z" transform="translate(-957.23 -590.374)" fill="#f78e68"/>
      <path id="Path_3576" data-name="Path 3576" d="M979.828,601.6l.027.1-24.749,6.075-.026-.1Z" transform="translate(-957.317 -590.729)" fill="#f78f68"/>
      <path id="Path_3577" data-name="Path 3577" d="M979.942,602.063l.025.1-24.749,6.075-.025-.1Z" transform="translate(-957.405 -591.083)" fill="#f78f68"/>
      <path id="Path_3578" data-name="Path 3578" d="M980.054,602.521l.025.1L955.33,608.7l-.026-.1Z" transform="translate(-957.491 -591.438)" fill="#f78f69"/>
      <path id="Path_3579" data-name="Path 3579" d="M980.166,602.98l.027.1-24.75,6.075-.025-.1Z" transform="translate(-957.579 -591.794)" fill="#f78f69"/>
      <path id="Path_3580" data-name="Path 3580" d="M980.28,603.438l.025.1-24.749,6.075-.026-.1Z" transform="translate(-957.666 -592.148)" fill="#f79069"/>
      <path id="Path_3581" data-name="Path 3581" d="M980.392,603.9l.025.1-24.749,6.075-.025-.1Z" transform="translate(-957.753 -592.503)" fill="#f79069"/>
      <path id="Path_3582" data-name="Path 3582" d="M980.5,604.354l.025.1-24.748,6.075-.025-.1Z" transform="translate(-957.84 -592.858)" fill="#f7906a"/>
      <path id="Path_3583" data-name="Path 3583" d="M980.615,604.812l.027.1-24.75,6.075-.026-.1Z" transform="translate(-957.927 -593.213)" fill="#f7916a"/>
      <path id="Path_3584" data-name="Path 3584" d="M980.73,605.271l.025.1-24.749,6.075-.025-.1Z" transform="translate(-958.014 -593.568)" fill="#f7916a"/>
      <path id="Path_3585" data-name="Path 3585" d="M980.842,605.729l.025.1-24.749,6.075-.025-.1Z" transform="translate(-958.102 -593.923)" fill="#f7916b"/>
      <path id="Path_3586" data-name="Path 3586" d="M980.954,606.187l.025.1-24.748,6.076-.026-.1Z" transform="translate(-958.189 -594.278)" fill="#f7926b"/>
      <path id="Path_3587" data-name="Path 3587" d="M981.066,606.645l.027.1-24.75,6.076-.025-.1Z" transform="translate(-958.276 -594.633)" fill="#f7926b"/>
      <path id="Path_3588" data-name="Path 3588" d="M981.18,607.1l.025.1-24.749,6.075-.025-.1Z" transform="translate(-958.363 -594.988)" fill="#f7926c"/>
      <path id="Path_3589" data-name="Path 3589" d="M981.291,607.562l.025.1-24.749,6.075-.026-.1Z" transform="translate(-958.45 -595.343)" fill="#f7926c"/>
      <path id="Path_3590" data-name="Path 3590" d="M981.4,608.02l.025.1L956.68,614.2l-.025-.1Z" transform="translate(-958.537 -595.698)" fill="#f7936c"/>
      <path id="Path_3591" data-name="Path 3591" d="M981.515,608.478l.025.1-24.748,6.075-.025-.1Z" transform="translate(-958.624 -596.053)" fill="#f7936c"/>
      <path id="Path_3592" data-name="Path 3592" d="M981.628,608.936l.027.1-24.75,6.075-.025-.1Z" transform="translate(-958.711 -596.407)" fill="#f7936d"/>
      <path id="Path_3593" data-name="Path 3593" d="M981.742,609.4l.025.1-24.749,6.075-.025-.1Z" transform="translate(-958.799 -596.763)" fill="#f7946d"/>
      <path id="Path_3594" data-name="Path 3594" d="M981.854,609.853l.025.1-24.748,6.076-.025-.1Z" transform="translate(-958.886 -597.118)" fill="#f7946d"/>
      <path id="Path_3595" data-name="Path 3595" d="M981.966,610.311l.025.1-24.748,6.076-.025-.1Z" transform="translate(-958.973 -597.472)" fill="#f8946e"/>
      <path id="Path_3596" data-name="Path 3596" d="M982.078,610.769l.027.1-24.749,6.075-.025-.1Z" transform="translate(-959.06 -597.827)" fill="#f8946e"/>
      <path id="Path_3597" data-name="Path 3597" d="M982.191,611.228l.025.1-24.749,6.075-.025-.1Z" transform="translate(-959.147 -598.183)" fill="#f8956e"/>
      <path id="Path_3598" data-name="Path 3598" d="M982.3,611.686l.025.1-24.748,6.075-.025-.1Z" transform="translate(-959.234 -598.537)" fill="#f8956e"/>
      <path id="Path_3599" data-name="Path 3599" d="M982.415,612.144l.027.1-24.75,6.076-.025-.1Z" transform="translate(-959.321 -598.892)" fill="#f8956f"/>
      <path id="Path_3600" data-name="Path 3600" d="M982.53,612.6l.025.1-24.749,6.075-.025-.1Z" transform="translate(-959.409 -599.247)" fill="#f8956f"/>
      <path id="Path_3601" data-name="Path 3601" d="M982.641,613.06l.025.1-24.749,6.075-.025-.1Z" transform="translate(-959.495 -599.602)" fill="#f8966f"/>
      <path id="Path_3602" data-name="Path 3602" d="M982.754,613.519l.025.1L958.03,619.7l-.025-.1Z" transform="translate(-959.583 -599.957)" fill="#f89670"/>
      <path id="Path_3603" data-name="Path 3603" d="M982.865,613.977l.027.1-24.75,6.075-.025-.1Z" transform="translate(-959.67 -600.312)" fill="#f89670"/>
      <path id="Path_3604" data-name="Path 3604" d="M982.98,614.435l.025.1-24.75,6.076-.025-.1Z" transform="translate(-959.757 -600.667)" fill="#f89770"/>
      <path id="Path_3605" data-name="Path 3605" d="M983.092,614.893l.025.1-24.749,6.075-.025-.1Z" transform="translate(-959.844 -601.022)" fill="#f89770"/>
      <path id="Path_3606" data-name="Path 3606" d="M983.2,615.352l.025.1-24.748,6.075-.025-.1Z" transform="translate(-959.932 -601.377)" fill="#f89771"/>
      <path id="Path_3607" data-name="Path 3607" d="M983.315,615.81l.027.1-24.75,6.075-.025-.1Z" transform="translate(-960.018 -601.732)" fill="#f89771"/>
      <path id="Path_3608" data-name="Path 3608" d="M983.43,616.268l.025.1-24.75,6.076-.025-.1Z" transform="translate(-960.106 -602.087)" fill="#f89871"/>
      <path id="Path_3609" data-name="Path 3609" d="M983.541,616.726l.025.1L958.818,622.9l-.026-.1Z" transform="translate(-960.193 -602.442)" fill="#f89871"/>
      <path id="Path_3610" data-name="Path 3610" d="M983.654,617.184l.025.1-24.748,6.075-.025-.1Z" transform="translate(-960.28 -602.796)" fill="#f89872"/>
      <path id="Path_3611" data-name="Path 3611" d="M983.765,617.643l.025.1-24.748,6.075-.026-.1Z" transform="translate(-960.367 -603.152)" fill="#f89872"/>
      <path id="Path_3612" data-name="Path 3612" d="M983.878,618.1l.027.1-24.75,6.075-.025-.1Z" transform="translate(-960.454 -603.507)" fill="#f89972"/>
      <path id="Path_3613" data-name="Path 3613" d="M983.991,618.559l.025.1-24.749,6.076-.025-.1Z" transform="translate(-960.541 -603.861)" fill="#f89972"/>
      <path id="Path_3614" data-name="Path 3614" d="M984.1,619.017l.025.1L959.38,625.2l-.025-.1Z" transform="translate(-960.629 -604.216)" fill="#f89973"/>
      <path id="Path_3615" data-name="Path 3615" d="M984.215,619.476l.025.1-24.748,6.075-.026-.1Z" transform="translate(-960.715 -604.572)" fill="#f89973"/>
      <path id="Path_3616" data-name="Path 3616" d="M984.328,619.934l.027.1-24.75,6.075-.025-.1Z" transform="translate(-960.803 -604.927)" fill="#f89a73"/>
      <path id="Path_3617" data-name="Path 3617" d="M984.441,620.392l.025.1-24.749,6.076-.026-.1Z" transform="translate(-960.89 -605.281)" fill="#f89a74"/>
      <path id="Path_3618" data-name="Path 3618" d="M984.554,620.85l.025.1-24.748,6.075-.025-.1Z" transform="translate(-960.977 -605.636)" fill="#f89a74"/>
      <path id="Path_3619" data-name="Path 3619" d="M984.665,621.308l.027.1-24.75,6.075-.025-.1Z" transform="translate(-961.064 -605.991)" fill="#f99a74"/>
      <path id="Path_3620" data-name="Path 3620" d="M984.78,621.767l.025.1-24.75,6.075-.025-.1Z" transform="translate(-961.152 -606.346)" fill="#f99b74"/>
      <path id="Path_3621" data-name="Path 3621" d="M984.891,622.225l.025.1L960.167,628.4l-.026-.1Z" transform="translate(-961.238 -606.701)" fill="#f99b75"/>
      <path id="Path_3622" data-name="Path 3622" d="M985,622.683l.025.1-24.748,6.076-.025-.1Z" transform="translate(-961.326 -607.056)" fill="#f99b75"/>
      <path id="Path_3623" data-name="Path 3623" d="M985.115,623.141l.027.1-24.75,6.075-.025-.1Z" transform="translate(-961.412 -607.411)" fill="#f99b75"/>
      <path id="Path_3624" data-name="Path 3624" d="M985.23,623.6l.025.1-24.749,6.075-.025-.1Z" transform="translate(-961.5 -607.766)" fill="#f99c75"/>
      <path id="Path_3625" data-name="Path 3625" d="M985.341,624.058l.025.1-24.749,6.075-.025-.1Z" transform="translate(-961.587 -608.121)" fill="#f99c75"/>
      <path id="Path_3626" data-name="Path 3626" d="M985.453,624.516l.025.1-24.748,6.076-.025-.1Z" transform="translate(-961.674 -608.476)" fill="#f99c76"/>
      <path id="Path_3627" data-name="Path 3627" d="M985.565,624.974l.027.1-24.75,6.076-.025-.1Z" transform="translate(-961.761 -608.831)" fill="#f99c76"/>
      <path id="Path_3628" data-name="Path 3628" d="M985.679,625.432l.025.1-24.749,6.075-.026-.1Z" transform="translate(-961.848 -609.185)" fill="#f99d76"/>
      <path id="Path_3629" data-name="Path 3629" d="M985.791,625.891l.025.1-24.749,6.075-.025-.1Z" transform="translate(-961.935 -609.541)" fill="#f99d76"/>
      <path id="Path_3630" data-name="Path 3630" d="M985.9,626.349l.025.1-24.748,6.075-.025-.1Z" transform="translate(-962.022 -609.896)" fill="#f99d77"/>
      <path id="Path_3631" data-name="Path 3631" d="M986.015,626.807l.025.1-24.748,6.076-.025-.1Z" transform="translate(-962.11 -610.25)" fill="#f99d77"/>
      <path id="Path_3632" data-name="Path 3632" d="M986.128,627.265l.027.1-24.75,6.075-.025-.1Z" transform="translate(-962.197 -610.605)" fill="#f99d77"/>
      <path id="Path_3633" data-name="Path 3633" d="M986.241,627.724l.025.1L961.517,633.9l-.025-.1Z" transform="translate(-962.284 -610.961)" fill="#f99e77"/>
      <path id="Path_3634" data-name="Path 3634" d="M986.353,628.182l.025.1-24.748,6.075-.026-.1Z" transform="translate(-962.371 -611.315)" fill="#f99e78"/>
      <path id="Path_3635" data-name="Path 3635" d="M986.465,628.64l.025.1-24.748,6.076-.025-.1Z" transform="translate(-962.458 -611.67)" fill="#f99e78"/>
      <path id="Path_3636" data-name="Path 3636" d="M986.577,629.1l.027.1-24.75,6.075-.025-.1Z" transform="translate(-962.545 -612.025)" fill="#f99e78"/>
      <path id="Path_3637" data-name="Path 3637" d="M986.691,629.557l.025.1-24.749,6.075-.025-.1Z" transform="translate(-962.633 -612.381)" fill="#f99f78"/>
      <path id="Path_3638" data-name="Path 3638" d="M986.8,630.015l.025.1-24.748,6.075-.025-.1Z" transform="translate(-962.719 -612.735)" fill="#f99f78"/>
      <path id="Path_3639" data-name="Path 3639" d="M986.915,630.473l.027.1-24.75,6.075-.025-.1Z" transform="translate(-962.807 -613.09)" fill="#f99f79"/>
      <path id="Path_3640" data-name="Path 3640" d="M987.029,630.931l.025.1L962.3,637.11l-.026-.1Z" transform="translate(-962.894 -613.445)" fill="#f99f79"/>
      <path id="Path_3641" data-name="Path 3641" d="M987.141,631.389l.025.1-24.749,6.075-.025-.1Z" transform="translate(-962.981 -613.8)" fill="#f99f79"/>
      <path id="Path_3642" data-name="Path 3642" d="M987.253,631.848l.025.1-24.748,6.075-.025-.1Z" transform="translate(-963.068 -614.155)" fill="#f9a079"/>
      <path id="Path_3643" data-name="Path 3643" d="M987.365,632.306l.027.1-24.75,6.075-.025-.1Z" transform="translate(-963.155 -614.51)" fill="#f9a07a"/>
      <path id="Path_3644" data-name="Path 3644" d="M987.477,632.764l.027.1-24.75,6.075-.025-.1Z" transform="translate(-963.242 -614.865)" fill="#f9a07a"/>
      <path id="Path_3645" data-name="Path 3645" d="M987.591,633.222l.025.1L962.867,639.4l-.025-.1Z" transform="translate(-963.33 -615.22)" fill="#f9a07a"/>
      <path id="Path_3646" data-name="Path 3646" d="M987.7,633.681l.025.1-24.748,6.075-.026-.1Z" transform="translate(-963.416 -615.575)" fill="#f9a07a"/>
      <path id="Path_3647" data-name="Path 3647" d="M987.815,634.139l.025.1-24.748,6.075-.025-.1Z" transform="translate(-963.504 -615.93)" fill="#f9a17a"/>
      <path id="Path_3648" data-name="Path 3648" d="M987.927,634.6l.027.1-24.75,6.075-.025-.1Z" transform="translate(-963.591 -616.285)" fill="#faa17b"/>
      <path id="Path_3649" data-name="Path 3649" d="M988.042,635.055l.025.1-24.749,6.076-.025-.1Z" transform="translate(-963.678 -616.639)" fill="#faa17b"/>
      <path id="Path_3650" data-name="Path 3650" d="M988.153,635.513l.025.1-24.748,6.075-.025-.1Z" transform="translate(-963.765 -616.994)" fill="#faa17b"/>
      <path id="Path_3651" data-name="Path 3651" d="M988.265,635.972l.025.1-24.748,6.075-.025-.1Z" transform="translate(-963.853 -617.35)" fill="#faa17b"/>
      <path id="Path_3652" data-name="Path 3652" d="M988.377,636.43l.027.1-24.75,6.075-.025-.1Z" transform="translate(-963.939 -617.704)" fill="#faa27b"/>
      <path id="Path_3653" data-name="Path 3653" d="M988.491,636.888l.025.1-24.749,6.075-.025-.1Z" transform="translate(-964.027 -618.059)" fill="#faa27c"/>
      <path id="Path_3654" data-name="Path 3654" d="M988.6,637.346l.025.1-24.748,6.075-.025-.1Z" transform="translate(-964.114 -618.414)" fill="#faa27c"/>
      <path id="Path_3655" data-name="Path 3655" d="M988.715,637.8l.025.1-24.748,6.075-.025-.1Z" transform="translate(-964.201 -618.77)" fill="#faa27c"/>
      <path id="Path_3656" data-name="Path 3656" d="M988.827,638.263l.027.1L964.1,644.442l-.026-.1Z" transform="translate(-964.288 -619.124)" fill="#faa27c"/>
      <path id="Path_3657" data-name="Path 3657" d="M988.941,638.721l.025.1L964.216,644.9l-.025-.1Z" transform="translate(-964.375 -619.479)" fill="#faa37c"/>
      <path id="Path_3658" data-name="Path 3658" d="M989.053,639.179l.025.1-24.748,6.076-.025-.1Z" transform="translate(-964.462 -619.834)" fill="#faa37c"/>
      <path id="Path_3659" data-name="Path 3659" d="M989.165,639.637l.025.1-24.748,6.075-.025-.1Z" transform="translate(-964.55 -620.189)" fill="#faa37d"/>
      <path id="Path_3660" data-name="Path 3660" d="M989.277,640.1l.027.1-24.75,6.075-.025-.1Z" transform="translate(-964.636 -620.544)" fill="#faa37d"/>
      <path id="Path_3661" data-name="Path 3661" d="M989.391,640.554l.025.1-24.749,6.075-.025-.1Z" transform="translate(-964.723 -620.899)" fill="#faa37d"/>
      <path id="Path_3662" data-name="Path 3662" d="M989.5,641.012l.025.1-24.749,6.075-.025-.1Z" transform="translate(-964.811 -621.254)" fill="#faa37d"/>
      <path id="Path_3663" data-name="Path 3663" d="M989.615,641.47l.025.1-24.748,6.076-.025-.1Z" transform="translate(-964.898 -621.609)" fill="#faa47d"/>
      <path id="Path_3664" data-name="Path 3664" d="M989.727,641.929l.027.1L965,648.108l-.025-.1Z" transform="translate(-964.985 -621.964)" fill="#faa47e"/>
      <path id="Path_3665" data-name="Path 3665" d="M989.842,642.387l.025.1-24.749,6.075-.025-.1Z" transform="translate(-965.073 -622.319)" fill="#faa47e"/>
      <path id="Path_3666" data-name="Path 3666" d="M989.953,642.845l.025.1-24.749,6.075-.025-.1Z" transform="translate(-965.159 -622.674)" fill="#faa47e"/>
      <path id="Path_3667" data-name="Path 3667" d="M990.065,643.3l.025.1-24.748,6.076-.025-.1Z" transform="translate(-965.246 -623.028)" fill="#faa47e"/>
      <path id="Path_3668" data-name="Path 3668" d="M990.177,643.761l.027.1-24.75,6.075-.025-.1Z" transform="translate(-965.334 -623.383)" fill="#faa47e"/>
      <path id="Path_3669" data-name="Path 3669" d="M990.291,644.22l.025.1L965.567,650.4l-.025-.1Z" transform="translate(-965.421 -623.739)" fill="#faa57e"/>
      <path id="Path_3670" data-name="Path 3670" d="M990.4,644.678l.025.1-24.748,6.075-.025-.1Z" transform="translate(-965.508 -624.093)" fill="#faa57f"/>
      <path id="Path_3671" data-name="Path 3671" d="M990.515,645.136l.025.1-24.748,6.076-.026-.1Z" transform="translate(-965.595 -624.448)" fill="#faa57f"/>
      <path id="Path_3672" data-name="Path 3672" d="M990.627,645.594l.027.1-24.75,6.075-.025-.1Z" transform="translate(-965.682 -624.803)" fill="#faa57f"/>
      <path id="Path_3673" data-name="Path 3673" d="M990.741,646.053l.025.1-24.749,6.075-.025-.1Z" transform="translate(-965.769 -625.159)" fill="#faa57f"/>
      <path id="Path_3674" data-name="Path 3674" d="M990.853,646.511l.025.1-24.749,6.075-.025-.1Z" transform="translate(-965.856 -625.513)" fill="#faa57f"/>
      <path id="Path_3675" data-name="Path 3675" d="M990.964,646.969l.025.1-24.748,6.075-.026-.1Z" transform="translate(-965.943 -625.868)" fill="#faa67f"/>
      <path id="Path_3676" data-name="Path 3676" d="M991.077,647.427l.027.1-24.75,6.076-.025-.1Z" transform="translate(-966.031 -626.223)" fill="#faa680"/>
      <path id="Path_3677" data-name="Path 3677" d="M991.191,647.885l.025.1-24.749,6.075-.025-.1Z" transform="translate(-966.117 -626.578)" fill="#faa680"/>
      <path id="Path_3678" data-name="Path 3678" d="M991.3,648.344l.025.1-24.749,6.075-.025-.1Z" transform="translate(-966.205 -626.933)" fill="#faa680"/>
      <path id="Path_3679" data-name="Path 3679" d="M991.415,648.8l.025.1-24.748,6.075-.025-.1Z" transform="translate(-966.292 -627.288)" fill="#faa680"/>
      <path id="Path_3680" data-name="Path 3680" d="M991.527,649.26l.027.1-24.75,6.076-.025-.1Z" transform="translate(-966.379 -627.643)" fill="#faa680"/>
      <path id="Path_3681" data-name="Path 3681" d="M991.641,649.718l.025.1L966.916,655.9l-.026-.1Z" transform="translate(-966.466 -627.998)" fill="#faa680"/>
      <path id="Path_3682" data-name="Path 3682" d="M991.753,650.177l.025.1-24.749,6.075-.025-.1Z" transform="translate(-966.554 -628.353)" fill="#faa781"/>
      <path id="Path_3683" data-name="Path 3683" d="M991.865,650.635l.025.1-24.748,6.075-.025-.1Z" transform="translate(-966.64 -628.708)" fill="#faa781"/>
      <path id="Path_3684" data-name="Path 3684" d="M991.977,651.093l.027.1-24.75,6.075-.025-.1Z" transform="translate(-966.728 -629.063)" fill="#faa781"/>
      <path id="Path_3685" data-name="Path 3685" d="M992.091,651.551l.025.1-24.749,6.076-.026-.1Z" transform="translate(-966.815 -629.417)" fill="#faa781"/>
      <path id="Path_3686" data-name="Path 3686" d="M992.2,652.009l.025.1-24.749,6.075-.025-.1Z" transform="translate(-966.902 -629.772)" fill="#fba781"/>
      <path id="Path_3687" data-name="Path 3687" d="M992.315,652.468l.025.1-24.748,6.075-.025-.1Z" transform="translate(-966.989 -630.128)" fill="#fba781"/>
      <path id="Path_3688" data-name="Path 3688" d="M992.427,652.926l.027.1L967.7,659.1l-.025-.1Z" transform="translate(-967.076 -630.483)" fill="#fba781"/>
      <path id="Path_3689" data-name="Path 3689" d="M992.541,653.384l.025.1-24.749,6.075-.025-.1Z" transform="translate(-967.163 -630.837)" fill="#fba882"/>
      <path id="Path_3690" data-name="Path 3690" d="M992.653,653.842l.025.1-24.749,6.075-.025-.1Z" transform="translate(-967.251 -631.192)" fill="#fba882"/>
      <path id="Path_3691" data-name="Path 3691" d="M992.765,654.3l.025.1-24.748,6.075-.025-.1Z" transform="translate(-967.337 -631.548)" fill="#fba882"/>
      <path id="Path_3692" data-name="Path 3692" d="M992.876,654.759l.027.1-24.75,6.075-.026-.1Z" transform="translate(-967.424 -631.902)" fill="#fba882"/>
      <path id="Path_3693" data-name="Path 3693" d="M992.991,655.217l.025.1L968.266,661.4l-.025-.1Z" transform="translate(-967.512 -632.257)" fill="#fba882"/>
      <path id="Path_3694" data-name="Path 3694" d="M993.1,655.675l.025.1-24.749,6.076-.025-.1Z" transform="translate(-967.599 -632.612)" fill="#fba882"/>
      <path id="Path_3695" data-name="Path 3695" d="M993.215,656.133l.025.1-24.748,6.075-.025-.1Z" transform="translate(-967.686 -632.967)" fill="#fba882"/>
      <path id="Path_3696" data-name="Path 3696" d="M993.326,656.592l.027.1-24.75,6.075-.025-.1Z" transform="translate(-967.773 -633.322)" fill="#fba982"/>
      <path id="Path_3697" data-name="Path 3697" d="M993.441,657.05l.025.1-24.749,6.075-.025-.1Z" transform="translate(-967.86 -633.677)" fill="#fba983"/>
      <path id="Path_3698" data-name="Path 3698" d="M993.552,657.508l.025.1-24.749,6.075-.026-.1Z" transform="translate(-967.947 -634.032)" fill="#fba983"/>
      <path id="Path_3699" data-name="Path 3699" d="M993.665,657.966l.025.1-24.748,6.076-.025-.1Z" transform="translate(-968.035 -634.386)" fill="#fba983"/>
      <path id="Path_3700" data-name="Path 3700" d="M993.776,658.425l.027.1-24.75,6.075-.025-.1Z" transform="translate(-968.122 -634.742)" fill="#fba983"/>
      <path id="Path_3701" data-name="Path 3701" d="M993.891,658.883l.025.1-24.749,6.075-.025-.1Z" transform="translate(-968.209 -635.097)" fill="#fba983"/>
      <path id="Path_3702" data-name="Path 3702" d="M994,659.341l.025.1-24.749,6.076-.025-.1Z" transform="translate(-968.296 -635.451)" fill="#fba983"/>
      <path id="Path_3703" data-name="Path 3703" d="M994.115,659.8l.025.1-24.748,6.076-.025-.1Z" transform="translate(-968.383 -635.806)" fill="#fba983"/>
      <path id="Path_3704" data-name="Path 3704" d="M994.226,660.257l.027.1-24.75,6.075-.025-.1Z" transform="translate(-968.47 -636.161)" fill="#fba983"/>
      <path id="Path_3705" data-name="Path 3705" d="M994.341,660.716l.025.1-24.749,6.075-.025-.1Z" transform="translate(-968.558 -636.517)" fill="#fbaa84"/>
      <path id="Path_3706" data-name="Path 3706" d="M994.452,661.174l.025.1-24.749,6.075-.025-.1Z" transform="translate(-968.644 -636.871)" fill="#fbaa84"/>
      <path id="Path_3707" data-name="Path 3707" d="M994.565,661.632l.025.1-24.748,6.076-.025-.1Z" transform="translate(-968.732 -637.226)" fill="#fbaa84"/>
      <path id="Path_3708" data-name="Path 3708" d="M994.676,662.09l.027.1-24.75,6.075-.026-.1Z" transform="translate(-968.819 -637.581)" fill="#fbaa84"/>
      <path id="Path_3709" data-name="Path 3709" d="M994.791,662.549l.025.1-24.749,6.075-.025-.1Z" transform="translate(-968.906 -637.937)" fill="#fbaa84"/>
      <path id="Path_3710" data-name="Path 3710" d="M994.9,663.007l.025.1-24.749,6.075-.026-.1Z" transform="translate(-968.993 -638.291)" fill="#fbaa84"/>
      <path id="Path_3711" data-name="Path 3711" d="M995.015,663.465l.025.1-24.748,6.075-.025-.1Z" transform="translate(-969.08 -638.646)" fill="#fbaa84"/>
      <path id="Path_3712" data-name="Path 3712" d="M995.126,663.923l.027.1L970.4,670.1l-.025-.1Z" transform="translate(-969.167 -639.001)" fill="#fbaa84"/>
      <path id="Path_3713" data-name="Path 3713" d="M995.241,664.381l.025.1-24.749,6.075-.026-.1Z" transform="translate(-969.255 -639.356)" fill="#fbaa84"/>
      <path id="Path_3714" data-name="Path 3714" d="M995.353,664.84l.025.1-24.749,6.075-.025-.1Z" transform="translate(-969.342 -639.711)" fill="#fbab84"/>
      <path id="Path_3715" data-name="Path 3715" d="M995.465,665.3l.025.1-24.748,6.075-.025-.1Z" transform="translate(-969.429 -640.066)" fill="#fbab85"/>
      <path id="Path_3716" data-name="Path 3716" d="M995.576,665.756l.027.1-24.75,6.076-.026-.1Z" transform="translate(-969.516 -640.421)" fill="#fbab85"/>
      <path id="Path_3717" data-name="Path 3717" d="M995.69,666.214l.025.1-24.749,6.075-.026-.1Z" transform="translate(-969.602 -640.776)" fill="#fbab85"/>
      <path id="Path_3718" data-name="Path 3718" d="M995.8,666.673l.025.1-24.749,6.075-.025-.1Z" transform="translate(-969.69 -641.131)" fill="#fbab85"/>
      <path id="Path_3719" data-name="Path 3719" d="M995.915,667.131l.025.1-24.748,6.075-.025-.1Z" transform="translate(-969.777 -641.486)" fill="#fbab85"/>
      <path id="Path_3720" data-name="Path 3720" d="M996.026,667.589l.027.1-24.75,6.075-.026-.1Z" transform="translate(-969.864 -641.841)" fill="#fbab85"/>
      <path id="Path_3721" data-name="Path 3721" d="M996.141,668.047l.025.1-24.749,6.076-.025-.1Z" transform="translate(-969.952 -642.195)" fill="#fbab85"/>
      <path id="Path_3722" data-name="Path 3722" d="M996.252,668.505l.025.1-24.749,6.075-.025-.1Z" transform="translate(-970.039 -642.55)" fill="#fbab85"/>
      <path id="Path_3723" data-name="Path 3723" d="M996.365,668.964l.025.1-24.748,6.075-.025-.1Z" transform="translate(-970.126 -642.906)" fill="#fbab85"/>
    </g>
  </g>
  <path id="Path_3725" data-name="Path 3725" d="M1066.627,396.362s1.936-6.357-3.647-8.284c.933.839,4.037,3.663,1.406,7.537C1065.755,396.091,1066.627,396.362,1066.627,396.362Z" transform="translate(-907.711 -383.556)" fill="#482b0e"/>
  <path id="Path_4170" data-name="Path 4170" d="M918.74,539.674l0,.009a33.7,33.7,0,0,0,.631,3.965c1.7,7.652,4.067,13.075,11.316,14.559,6.073,1.243,15.778-.971,15.783-11.511a6.286,6.286,0,0,1,.494-2.468s-3.683-2.048-5.049-2.121C936.094,541.795,926.091,537.734,918.74,539.674Z" transform="translate(-795.978 -500.579)" fill="#482b0e"/>
  <path id="Path_4171" data-name="Path 4171" d="M1039.057,412.407c1.992,5.361-12.448,27.145-12.448,27.145l-5.049-2.122s14.968-15.2.624-27.658c-1.708-1.484,5.132-6.346,7.039-5.694C1030.476,404.5,1037.84,409.132,1039.057,412.407Z" transform="translate(-875.627 -395.903)" fill="#482b0e"/>
  <path id="Path_4172" data-name="Path 4172" d="M1035.6,407.7a20.707,20.707,0,0,1-10.465,4.056,5.42,5.42,0,0,0-1.983-1.97c-1.97-1.114,5.132-6.347,7.039-5.694A34.949,34.949,0,0,1,1035.6,407.7Z" transform="translate(-876.597 -395.916)" fill="#36200b"/>
  <path id="Path_4173" data-name="Path 4173" d="M1050.625,508.161c-2.019,3.107-5.119,4.674-6.922,3.5s-1.634-4.641.385-7.748,5.116-4.678,6.922-3.5S1052.642,505.054,1050.625,508.161Z" transform="translate(-891.811 -470.27)" fill="#fcae88"/>
  <path id="Path_4174" data-name="Path 4174" d="M1060.733,513.271s7.291,0-.733,5.647C1060.16,517.723,1063.286,516.981,1060.733,513.271Z" transform="translate(-905.403 -480.532)" fill="#f09261"/>
  <path id="Path_4175" data-name="Path 4175" d="M936.08,385.1s-29.084-2.082-.523-17.085c-2.32,6.09,14.857-7.817,21.182,10.641C954.39,382.442,946.278,386.479,936.08,385.1Z" transform="translate(-799.279 -368.014)" fill="#482b0e"/>
  <path id="Path_4186" data-name="Path 4186" d="M990.3,512.358l-1.893-.294h0l1.893.294Zm-5.511-.855-.822-.127h.005l.816.126Z" transform="translate(-846.51 -479.064)" fill="#fbdcda"/>
  <path id="Path_4187" data-name="Path 4187" d="M990.757,512.427l-3.14-.487h0l3.141.487Z" transform="translate(-849.333 -479.5)" fill="#8c5135"/>
  <path id="Path_4188" data-name="Path 4188" d="M1002.028,514.175l-.478-.074h0l.478.074Z" transform="translate(-860.126 -481.175)" fill="#7b4831"/>
  <path id="Path_4197" data-name="Path 4197" d="M937.2,502.336l-1.867-.289h0Zm-5.485-.85-.824-.128h.008l.816.126Z" transform="translate(-805.391 -471.304)" fill="#fbdcda"/>
  <path id="Path_4198" data-name="Path 4198" d="M937.686,502.41l-3.141-.487h0l3.142.488Z" transform="translate(-808.223 -471.741)" fill="#8c5135"/>
  <path id="Path_4199" data-name="Path 4199" d="M948.96,504.159l-.477-.074h0l.477.074Z" transform="translate(-819.021 -473.416)" fill="#7b4831"/>
  <path id="Path_4460" data-name="Path 4460" d="M993.59,721.247l-.052.635-6.2,12.081-6.168-12.641,5.147-45.631.023-.243-.038-.089L982.47,666.6h9.762l-3.827,8.763-.041.089.027.243Z" transform="translate(-844.342 -599.299)" fill="#243444"/>
  <path id="Path_4461" data-name="Path 4461" d="M1003.94,705.475h2.1l-.041.089.027.243h-2.071Z" transform="translate(-861.978 -629.415)" fill="#505d69"/>
  <rect id="Rectangle_774" data-name="Rectangle 774" width="21.475" height="4.471" transform="translate(132.141 153.326)" fill="#a97c50"/>
  <rect id="Rectangle_775" data-name="Rectangle 775" width="10.524" height="6.946" transform="translate(137.638 152.08)" fill="#f2d97f"/>
  <path id="Path_4462" data-name="Path 4462" d="M1009.11,638.563l5.069,6.856,7.377-12.61-3.421-2.384Z" transform="translate(-865.982 -571.281)" fill="#cdeefd"/>
  <path id="Path_4463" data-name="Path 4463" d="M961.732,640.545l-4.218,6.81-9.568-12.314,4.745-2.058Z" transform="translate(-818.605 -573.262)" fill="#cdeefd"/>
  <path id="Path_4464" data-name="Path 4464" d="M853.365,797.318a157.687,157.687,0,0,0,31.388,4.821l4.139-10.345,3.482,10.532a112.442,112.442,0,0,0,34.142-5.008c-2.644-49.168.4-138.466,0-145.365l-26.465-15.573-11.393,41.828-12.076-41.828L855,648.856C854.6,655.756,856.008,748.15,853.365,797.318Z" transform="translate(-745.341 -575.893)" fill="#f1f2f2"/>
  <rect id="Rectangle_776" data-name="Rectangle 776" width="16.196" height="8.754" transform="translate(156.355 93.1)" fill="#fff"/>
  <rect id="Rectangle_777" data-name="Rectangle 777" width="4.557" height="3.906" transform="translate(157.48 95.524)" fill="#d1d3d4"/>
  <rect id="Rectangle_778" data-name="Rectangle 778" width="8.17" height="0.57" transform="translate(163.259 95.808)" fill="#d1d3d4"/>
  <rect id="Rectangle_779" data-name="Rectangle 779" width="8.17" height="0.569" transform="translate(163.259 97.193)" fill="#d1d3d4"/>
  <rect id="Rectangle_780" data-name="Rectangle 780" width="8.17" height="0.57" transform="translate(163.259 98.576)" fill="#d1d3d4"/>
  <rect id="Rectangle_781" data-name="Rectangle 781" width="1.708" height="2.348" transform="translate(163.599 91.549)" fill="#f1f2f2"/>
  <path id="Path_4465" data-name="Path 4465" d="M1009.95,724.422l12.682-22.546,1,1.783-13.679,20.763M1021.7,700.2l-3.018-3.671,5.382-.493-4.021,1.2Z" transform="translate(-866.634 -622.108)" fill="#dedfdf"/>
  <path id="Path_4466" data-name="Path 4466" d="M1024.307,631.054c1.345,1.7-.246,12.694-.246,12.694l-5.382.493,4.131,5.025-12.861,22.863,9.437-43.6S1023.464,629.991,1024.307,631.054Z" transform="translate(-866.634 -569.814)" fill="#fff"/>
  <path id="Path_4467" data-name="Path 4467" d="M977.2,708.534l-5.571-19.3,1.6,2.283,4.083,16.03Z" transform="translate(-836.953 -616.838)" fill="#aed4e5"/>
  <path id="Path_4468" data-name="Path 4468" d="M999.416,782.092l-3.065-10.618.111-.983Z" transform="translate(-856.099 -679.777)" fill="#535e69"/>
  <path id="Path_4469" data-name="Path 4469" d="M961.579,719.143l-13.212-21.384,4.359-4.539-5.222-2.459,5.437-1.536,0,0,5.571,19.3,3.065,10.618" transform="translate(-818.263 -616.829)" fill="#dedfdf"/>
  <path id="Path_4470" data-name="Path 4470" d="M940.819,632.195c-1.346,1.7,1.2,12.437,1.2,12.437l5.382.493-4.13,5.025L956.1,673.013l-10.359-43.34S941.662,631.132,940.819,632.195Z" transform="translate(-812.78 -570.698)" fill="#fff"/>
  <path id="Path_4471" data-name="Path 4471" d="M1065.49,687.58c8.74-22.69,7.934-32.749,5.718-37.191a6.573,6.573,0,0,0-2.667-3.1s2.207.141,2.633.567c.092.092,8.912,7.995-4.476,40.189Z" transform="translate(-909.656 -584.344)" fill="#231f20"/>
  <path id="Path_4472" data-name="Path 4472" d="M1057.677,822.61a3.116,3.116,0,1,1-1.774-4.033A3.115,3.115,0,0,1,1057.677,822.61Z" transform="translate(-898.939 -716.861)" fill="#8d8f90"/>
  <path id="Path_4473" data-name="Path 4473" d="M1058.495,823.6a2.792,2.792,0,1,1-1.591-3.615A2.8,2.8,0,0,1,1058.495,823.6Z" transform="translate(-900.057 -717.97)" fill="#bcbec0"/>
  <path id="Path_4474" data-name="Path 4474" d="M1060.628,826.226a1.94,1.94,0,1,1-1.1-2.511A1.942,1.942,0,0,1,1060.628,826.226Z" transform="translate(-902.985 -720.903)" fill="#58595b"/>
  <path id="Path_4475" data-name="Path 4475" d="M911.074,751.7l-4.448-2.144c-3.9-3.381-7.175-16.462-7.31-17.017l.549-.248c.034.133,3.325,13.282,7.027,16.545l4.354,2.089Z" transform="translate(-780.935 -650.185)" fill="#5e5f60"/>
  <path id="Path_4476" data-name="Path 4476" d="M949.247,813.973a.4.4,0,0,1-.191-.038l-1.419-.657a.668.668,0,0,1-.325-.385,1.053,1.053,0,0,1-.043-.587c.083-.389.4-.614.677-.485l1.418.656a.674.674,0,0,1,.325.386,1.064,1.064,0,0,1,.044.585A.6.6,0,0,1,949.247,813.973Z" transform="translate(-818.062 -711.764)" fill="#bcbec0"/>
  <path id="Path_4477" data-name="Path 4477" d="M917.929,749.872l-.246-.757,4.132-2.5c3.37-3.608,5.374-17.01,5.393-17.146l.574.194c-.084.566-2.08,13.9-5.632,17.645l-.058.047Z" transform="translate(-795.163 -648)" fill="#5e5f60"/>
  <path id="Path_4478" data-name="Path 4478" d="M912.457,815.533a.589.589,0,0,1-.535-.475,1.057,1.057,0,0,1-.013-.585.673.673,0,0,1,.286-.416l1.348-.792c.264-.156.6.038.721.417a1.073,1.073,0,0,1,.013.589.672.672,0,0,1-.285.415l-1.349.791A.4.4,0,0,1,912.457,815.533Z" transform="translate(-790.662 -712.87)" fill="#bcbec0"/>
  <path id="Path_4479" data-name="Path 4479" d="M912.114,696.145c-.322.016-.6-.336-.624-.789-.154-2.921-1.238-5.256-3.055-6.574a5.686,5.686,0,0,0-7.226.385c-1.156,1.052-2.494,3.084-2.3,6.786.025.455-.219.837-.539.855h0c-.322.015-.6-.338-.623-.79-.184-3.5.815-6.428,2.808-8.242a6.6,6.6,0,0,1,8.393-.453c2.207,1.6,3.526,4.433,3.712,7.966.022.453-.22.836-.54.855Z" transform="translate(-779.701 -614.356)" fill="#231f20"/>
  <path id="Path_4480" data-name="Path 4480" d="M929.576,643.648a1.942,1.942,0,0,0-2.356.965c-1.587,3.093-1.895,9.464-1.892,9.549l1.292-.048C926.616,654.02,926.374,647.4,929.576,643.648Z" transform="translate(-801.084 -581.449)" fill="#231f20"/>
  <rect id="Rectangle_782" data-name="Rectangle 782" width="22.531" height="24.581" transform="translate(112.171 167.292)" fill="#fff"/>
  <path id="Path_4481" data-name="Path 4481" d="M1173.56,967.809c.043-4.594.094-9.119.153-13.521l0,0c-.061,4.4-.113,8.929-.153,13.524Z" transform="translate(-993.368 -822.146)" fill="#cecfcf"/>
  <path id="Path_4482" data-name="Path 4482" d="M1100.03,982.606l16.726-28.3c-.058,4.4-.11,8.927-.153,13.521Z" transform="translate(-936.411 -822.159)" fill="#d4d5d5"/>
  <path id="Path_4483" data-name="Path 4483" d="M1082.651,1087.172l-5.351,11.894h13.422l3.135-12.176Z" transform="translate(-918.804 -924.864)" fill="#fcae88"/>
  <path id="Path_4484" data-name="Path 4484" d="M1141.98,1094.58l1.979-7.69Z" transform="translate(-968.905 -924.864)" fill="#dcc7bd"/>
  <path id="Path_4485" data-name="Path 4485" d="M1106.89,1094.58c-3.917-2.024-7.949-4.073-10.21-5.22l.985-2.189,11.2-.282Z" transform="translate(-933.816 -924.864)" fill="#e49975"/>
  <path id="Path_4486" data-name="Path 4486" d="M1126.625,935.131c-3.077-10.766-33.254,29.786-34.155,34.761a31.463,31.463,0,0,1,13.138,2.867S1132.539,955.832,1126.625,935.131Z" transform="translate(-930.555 -805.907)" fill="#f1f2f2"/>
  <rect id="Rectangle_783" data-name="Rectangle 783" width="22.53" height="24.581" transform="translate(151.872 167.292)" fill="#fff"/>
  <g id="Group_182" data-name="Group 182" transform="translate(7.623 25.018)">
    <path id="Path_3383" data-name="Path 3383" d="M1374.954,489.345c15.91,0,19.728-13.206,14.608-32.877q-.775-2.975-1.819-6.142c-2.8-8.51,3-21.588,7.293-22.9-2.3-3.946,2.476-11.168,2.476-11.168s-37.093-24.114-32.308,29.23a50.661,50.661,0,0,1,.142,6.93C1364.133,477.482,1345.02,489.345,1374.954,489.345Z" transform="translate(-1358.222 -403.25)" fill="#6b2310"/>
    <path id="Path_3384" data-name="Path 3384" d="M1374.954,648.986c15.91,0,19.728-13.206,14.608-32.877-8.8,3.606-17.258.7-24.216-4.051C1364.133,637.123,1345.02,648.986,1374.954,648.986Z" transform="translate(-1358.222 -562.891)" fill="#501a0c"/>
    <path id="Path_3385" data-name="Path 3385" d="M1452.6,423.562c-.94,2.554-.3,5.144,1.437,5.782s3.9-.915,4.843-3.47.3-5.144-1.437-5.782S1453.539,421.008,1452.6,423.562Z" transform="translate(-1432.747 -410.492)" fill="#be1e2d"/>
    <path id="Path_3386" data-name="Path 3386" d="M1605.463,1721s-7.563-3.785-7.714-11.16h-7.863a45.407,45.407,0,0,1,.122,4.738c-.134.817-.928,3.932-.928,3.932S1602.625,1730.486,1605.463,1721Z" transform="translate(-1541.361 -1433.757)" fill="#fcae88"/>
    <path id="Path_3387" data-name="Path 3387" d="M1600.205,1749.687l-1.608,2.251s-7.975-4.039-14.478-5.467c-1.865-.409,0,9.008,0,9.008h4.826v-2.251l6.435,2.251h12.227S1608.684,1748.719,1600.205,1749.687Z" transform="translate(-1536.768 -1462.806)" fill="#414042"/>
    <path id="Path_3388" data-name="Path 3388" d="M1473.939,1746.32h-9.409v4.721h9.8Z" transform="translate(-1442.556 -1462.697)" fill="#b2151b"/>
    <path id="Path_3389" data-name="Path 3389" d="M1473.127,1721.781V1710.39h-7.4s-3.032,9.285-2.007,11.168C1464.842,1723.623,1473.127,1721.781,1473.127,1721.781Z" transform="translate(-1441.743 -1434.193)" fill="#fcae88"/>
    <path id="Path_3390" data-name="Path 3390" d="M1458.561,1746.32v3.741a9.671,9.671,0,0,1,9.409,0v-3.741s3.5,7.842,0,9.05h-9.409C1455.061,1754.162,1458.561,1746.32,1458.561,1746.32Z" transform="translate(-1436.587 -1462.697)" fill="#414042"/>
    <path id="Path_3391" data-name="Path 3391" d="M1440.97,1124.89l4.547,122.123h12.4l9.366-107.153,1.858,107.153h14.969l10.881-122.123Z" transform="translate(-1423.866 -969.719)" fill="#0072a5"/>
    <path id="Path_3392" data-name="Path 3392" d="M1494.982,1124.89l-.959,10.767-52.867-5.525-.2-5.242Z" transform="translate(-1423.858 -969.719)" fill="#05628d"/>
    <path id="Path_3393" data-name="Path 3393" d="M1670.176,814.432l5.773,12.736-9.918,3.484L1661,818.577Z" transform="translate(-1598.415 -723.434)" fill="#bd8366"/>
    <path id="Path_3394" data-name="Path 3394" d="M1629.183,680.64l12.491,28.511-10.3,3.976S1615.274,691.849,1629.183,680.64Z" transform="translate(-1568.683 -617.297)" fill="#0ca2e6"/>
    <path id="Path_3395" data-name="Path 3395" d="M1490,745.518H1432.33c.3-33.084,9.008-46.506,6.726-68.96-.608-5.98-2.487-12.547-6.259-20.2-2.98-6.039,19.9-14.711,19.9-14.711h10.832s12.559,5.528,13.985,8.06c.957,1.7,3.632,8.295,7.061,20.608,1.093,3.924-1.017,10.3-1.778,12.177C1479.692,690.116,1488.219,727.138,1490,745.518Z" transform="translate(-1417.012 -586.363)" fill="#03a9f4"/>
    <path id="Path_3396" data-name="Path 3396" d="M1682.432,947.311c-1.3-13.394-6.18-36.689-7.532-51.292C1676.252,910.621,1681.132,933.916,1682.432,947.311Z" transform="translate(-1609.442 -788.156)" fill="#e8e9e9"/>
    <path id="Path_3397" data-name="Path 3397" d="M1673.22,859.953q0-.442.019-.858v0q-.016.417-.019.86Z" transform="translate(-1608.108 -758.863)" fill="#c7ab9d"/>
    <path id="Path_3398" data-name="Path 3398" d="M1492.581,918.027h-57c27.366-6.6,41.151-35.748,46.461-50.424,1.137-.322,2.152-.616,3.008-.868C1486.4,881.338,1491.281,904.633,1492.581,918.027Zm-8.092-58.041c.149-.544.223-.85.232-.882q-.016.415-.019.858Z" transform="translate(-1419.59 -758.873)" fill="#0ca2e6"/>
    <path id="Path_3399" data-name="Path 3399" d="M1458.37,817.985q.09-.514.176-1.026Q1458.459,817.471,1458.37,817.985Zm1.2-25.987q-.208-1.591-.539-3.24C1459.253,789.859,1459.43,790.938,1459.569,792Z" transform="translate(-1437.669 -703.067)" fill="#e8e9e9"/>
    <path id="Path_3400" data-name="Path 3400" d="M1458.37,816.752q.09-.514.176-1.026c.387-2.3.726-4.57.988-6.858.488.965.984,1.889,1.484,2.738A17.2,17.2,0,0,1,1458.37,816.752Zm1.292-25.219q-.043-.382-.093-.768c-.139-1.06-.316-2.14-.539-3.24,3.347-.245,6.827-.321,6.827-.321,0,.053-.068.735-.2,1.862Z" transform="translate(-1437.669 -701.833)" fill="#e1e2e3"/>
    <rect id="Rectangle_767" data-name="Rectangle 767" width="12.311" height="6.655" transform="translate(55.868 80.557)" fill="#fff"/>
    <rect id="Rectangle_768" data-name="Rectangle 768" width="3.464" height="2.97" transform="translate(56.721 82.4)" fill="#d1d3d4"/>
    <rect id="Rectangle_769" data-name="Rectangle 769" width="6.211" height="0.433" transform="translate(61.114 82.617)" fill="#d1d3d4"/>
    <rect id="Rectangle_770" data-name="Rectangle 770" width="6.211" height="0.433" transform="translate(61.114 83.668)" fill="#d1d3d4"/>
    <rect id="Rectangle_771" data-name="Rectangle 771" width="6.211" height="0.433" transform="translate(61.114 84.72)" fill="#d1d3d4"/>
    <path id="Path_3411" data-name="Path 3411" d="M1516.354,842.454s-5.164-2.311-8.634,0a35.5,35.5,0,0,1,1.66,7.108l4.87-.478Z" transform="translate(-1476.818 -744.848)" fill="#fcae88"/>
    <path id="Path_3412" data-name="Path 3412" d="M1677.99,849.31s6.65-4,9.182-3.44c1.1.287,4.523,6.879,3.3,8.173-2.015,2.139-11.582,2-11.582,2Z" transform="translate(-1611.893 -748.331)" fill="#fcae88"/>
    <path id="Path_3413" data-name="Path 3413" d="M1434.57,800.484s6.276,18.5,10.928,21.753c5.889,4.124,41.752-7.05,41.752-7.05l-2.365-5.98-31.69,3.553-5.945-17.5Z" transform="translate(-1418.789 -708.227)" fill="#fcae88"/>
    <path id="Path_3414" data-name="Path 3414" d="M1674.9,894.305h0c.575-.169,1.079-.319,1.5-.446h0C1675.979,893.986,1675.475,894.136,1674.9,894.305Z" transform="translate(-1609.442 -786.443)" fill="#f9bbb6" fill-rule="evenodd"/>
    <path id="Path_3415" data-name="Path 3415" d="M1620.94,902.412c3.028-.771,5.841-1.542,8.146-2.2h0C1626.781,900.871,1623.968,901.642,1620.94,902.412Z" transform="translate(-1566.635 -791.487)" fill="#f3b5b1"/>
    <path id="Path_3416" data-name="Path 3416" d="M1674.9,896.018h0Z" transform="translate(-1609.441 -788.156)" fill="#f0b2ae"/>
    <path id="Path_3417" data-name="Path 3417" d="M1660.35,896.886h0c1.137-.322,2.152-.616,3.008-.868h0C1662.5,896.27,1661.487,896.564,1660.35,896.886Z" transform="translate(-1597.899 -788.156)" fill="#edafab"/>
    <path id="Path_3418" data-name="Path 3418" d="M1682.146,877.481h0c.91-.273,1.443-.438,1.5-.455C1683.589,877.042,1683.056,877.208,1682.146,877.481Zm1.5-.456h0Zm0,0h0Zm0,0-1.507-3.811,4.959,1.18Z" transform="translate(-1615.185 -770.064)" fill="#f89a87"/>
    <path id="Path_3419" data-name="Path 3419" d="M1550.408,875.836l-14.548-7.406,23.765-2.665,6.472,1.539,1.507,3.811h0c-.054.017-.587.183-1.5.455-.424.127-.928.277-1.5.446-.856.252-1.871.546-3.008.868-2.3.654-5.118,1.424-8.146,2.2C1552.452,875.335,1551.437,875.588,1550.408,875.836Z" transform="translate(-1499.141 -764.157)" fill="#f89a87"/>
    <path id="Path_3420" data-name="Path 3420" d="M1435.331,812.853c-.448-1.234-.721-2.031-.756-2.136.035.105.308.9.759,2.136Zm-.761-2.148,6.211-2.557h0Z" transform="translate(-1418.789 -718.449)" fill="#f9b6b2"/>
    <path id="Path_3421" data-name="Path 3421" d="M1472.888,800.555l-1.8-5.293-.479.2h0l.479-.2,1.8,5.293Zm-8.268-2.63h0Z" transform="translate(-1442.627 -708.225)" fill="#f4b1ad"/>
    <path id="Path_3422" data-name="Path 3422" d="M1464.62,798.68h0l5.99-2.467h0Z" transform="translate(-1442.627 -708.981)" fill="#eeaca8"/>
    <path id="Path_3423" data-name="Path 3423" d="M1434.574,820.534h0Zm0,0s0,0,0-.007S1434.572,820.529,1434.572,820.531Zm0-.007h0Zm0,0h0Z" transform="translate(-1418.789 -728.266)" fill="#f9b6b2"/>
    <path id="Path_3424" data-name="Path 3424" d="M1435.333,802.631c-.451-1.234-.723-2.031-.759-2.136h0s0,0,0-.007h0l6.211-2.557,5.99-2.467.48-.2,1.8,5.293Z" transform="translate(-1418.789 -708.227)" fill="#f89987"/>
    <path id="Path_3425" data-name="Path 3425" d="M1579.66,854.5l-39.047-8.108-2.313,6.525S1585.819,876.909,1579.66,854.5Z" transform="translate(-1501.077 -748.79)" fill="#fcae88"/>
    <path id="Path_3426" data-name="Path 3426" d="M1438.045,708.264l-17.5,6.157c-2.414-13.1-1.6-26.831,4.725-30.479C1430.434,680.968,1435.111,695.828,1438.045,708.264Z" transform="translate(-1406.672 -619.611)" fill="#03a9f4"/>
    <path id="Path_3427" data-name="Path 3427" d="M1542.118,591.592V616.47L1531.4,602.351V591.592Z" transform="translate(-1495.604 -546.656)" fill="#fcae88"/>
    <path id="Path_3428" data-name="Path 3428" d="M1542.118,591.592v9.014l-10.718-3.193v-5.821Z" transform="translate(-1495.604 -546.656)" fill="#f58d86"/>
    <path id="Path_3429" data-name="Path 3429" d="M1460.51,395.276a21.078,21.078,0,1,0,21.078-21.078A21.078,21.078,0,0,0,1460.51,395.276Z" transform="translate(-1439.367 -374.198)" fill="#8e2e15"/>
    <path id="Path_3430" data-name="Path 3430" d="M1471.711,420.493a5.258,5.258,0,0,0,.149,1.141,4.316,4.316,0,0,0,2.222,3.005,2.272,2.272,0,0,0,1.1.2c1.656,9.964,7,17.2,16.91,17.137a15.89,15.89,0,0,0,7.871-1.964c6.546-3.714,9.337-12.314,9.271-22.3a33.15,33.15,0,0,0-.395-4.918c-1.7-10.962-8.723-19.17-17.07-19.114-9.318.059-16.842,10.374-17.138,23.241a2.081,2.081,0,0,0-.928.044,1.644,1.644,0,0,0-.306.114A3.5,3.5,0,0,0,1471.711,420.493Z" transform="translate(-1448.251 -389.65)" fill="#fcae88"/>
    <path id="Path_3433" data-name="Path 3433" d="M1505.047,586.515a16.733,16.733,0,0,1-6.867-8.147,16.753,16.753,0,0,0,6.867,8.146Z" transform="translate(-1469.25 -536.165)" fill="#f9bbb6"/>
    <path id="Path_3434" data-name="Path 3434" d="M1531.665,617.928c-.089-.049-.178-.1-.265-.149h0C1531.487,617.83,1531.576,617.879,1531.665,617.928Z" transform="translate(-1495.604 -567.43)" fill="#f58d86"/>
    <path id="Path_3435" data-name="Path 3435" d="M1613.79,612.754c.2-.139.395-.283.585-.432A2.234,2.234,0,0,1,1613.79,612.754Z" transform="translate(-1560.963 -563.101)" fill="#f9bbb6"/>
    <path id="Path_3436" data-name="Path 3436" d="M1505.286,561.558a15.718,15.718,0,0,1-7.638-1.824c-.089-.049-.178-.1-.264-.149a16.756,16.756,0,0,1-6.867-8.146,29.922,29.922,0,0,1-2-7.017c4.186,13.391,11.342,16.547,17.163,16.547a19.786,19.786,0,0,0,9.318-2.515s0,0,0,0c-.19.149-.386.293-.585.432a4.749,4.749,0,0,0-1.116.706,15.9,15.9,0,0,1-7.873,1.963Z" transform="translate(-1461.587 -509.236)" fill="#f89a87"/>
    <path id="Path_3437" data-name="Path 3437" d="M1513.426,385.693s-16.016,17.142-27.742,19.048C1485.07,402.392,1489.75,362.992,1513.426,385.693Z" transform="translate(-1459.297 -377.746)" fill="#8e2e15"/>
    <path id="Path_3438" data-name="Path 3438" d="M1613.96,411.05s4.6,15.312,8.671,20.233C1622.584,429.644,1621.707,401.224,1613.96,411.05Z" transform="translate(-1561.098 -401.798)" fill="#8e2e15"/>
    <path id="Path_3461" data-name="Path 3461" d="M1537.74,491.016c0-.049,0-.1,0-.142h.234C1537.9,490.919,1537.818,490.967,1537.74,491.016Z" transform="translate(-1500.633 -466.756)" fill="#bd8c7f"/>
  </g>
</svg>
