<svg xmlns="http://www.w3.org/2000/svg" width="102.073" height="318.834" viewBox="0 0 102.073 318.834">
  <g id="Group_759" data-name="Group 759" transform="translate(0 0)">
    <path id="Path_12021" data-name="Path 12021" d="M459.939,405.613h26.917a5.338,5.338,0,0,0,.5-3.871c-.234-.909-.472-.76-.584-1.959l.112-6.929c.034-1.628-.471-3.2-.372-4.249l10.053-48.518c.573-2.707,3.605-18.578,4.372-20.239,1.062-2.3-.436-.783,1.242-3.7.9-1.559.135-2.413.34-4,.527-4.1,7.148-34.275,8.2-35.457.84,10.639,2.225,21.647,3.24,32.137.158,1.637.589,5.928.086,7.273-1.266,3.391.751.676.416,7.454l-1.9,60.013c.3,2.225,1.176.522.623,3.256-1.025,5.056-2.272-.469-2.191,11.261.026,3.69-.216,2.039-.527,3.776a5.791,5.791,0,0,0,.486,3.755h24.255c1.69-2.686-.34-5.322-.887-7.3a5.614,5.614,0,0,0-.959-1.924c-1.307-2.011-1.732-6.334-3.27-9.032,1.777-1.486,1.52-4.624,1.892-8.4l4.55-45.234c.3-3.058.618-6.023.9-8.993.622-6.505,1.217-1.692,1.329-5.908.038-1.428.145-.55.561-1.5.935-2.131-.757-2.429-.848-3.835-.041-.625.441-3.349.568-4.278l5.988-43.548c.777-5.5,1.341-11.89,2.423-17.283,1.072.113.228.167,1.266.388-.023-3.507-3.747-12.5-3.368-15.512.417-3.307,6.458-28,7.278-30.992a28.856,28.856,0,0,0,.139-16.271c-2.312-9.158-5.018-21.251-8.523-29.723a16.988,16.988,0,0,0-6.643-7.851c-2.591-1.583-12.92-3.22-18.35-5.136l.035-7.982c2.738-2.076,4.771-3.226,6.192-7.128,2.944-.346,4.205-1.023,5.456-4.979,1.721-5.441-1.606-3.689-.371-8.477.2-.769.348-1.41.512-2.1.73-3.075,2.251-1.315,3.274-4.552a5.387,5.387,0,0,0-.447-4.35c-.805-1.269-1.552-1.521-2.621-2.4,1.034-3.433.43-5.738-3.174-6.307-.027-4.023-3.577-7.545-8.911-3.676-1.308-1.734-1.653-2.873-4.3-3.415-2.852-.587-4.028.769-5.562,1.759a10.509,10.509,0,0,0-4.089-2.544,8.713,8.713,0,0,0-5.748.295c-3.693,1.566-4.251,3.307-5.37,7.672a3.986,3.986,0,0,0-3.82,1.1c-1.4,1.336-.94,1.79-1.382,3.815-5.53.7-5.87,6.317-2.915,8.672l3.438,1.274c.363-.583,1.389,5.759,1.428,6.057.3,2.353-4.252,3.32-.432,9.971a5.336,5.336,0,0,0,2.622,2.581c3.044,1.22.112-.515,3.2,4.061,4.743,7.03,5.521,3.441,5.521,10.758l-21.2,8.022c-8.284,5.217-8.529,5.612-11.7,15.248-3.126,9.5-5.792,19.129-8.608,28.776-1.849,6.337-1.749,8.972.673,15.1a109.031,109.031,0,0,0,5.926,12.628c2.307,4.1,4.311,8.1,6.591,11.944A12.661,12.661,0,0,0,476.2,232.9c1.25,1.236.35,3.209,3.743,7.353,1.012,1.236,1.431,7.533,1.3,9.46l-3.222,40.273c-.476,6.394-1.216,9.2-.4,15.25.229,1.708.044.857-.26,2.03-.346,1.333.02,1.207,0,2.191-.02,1.045-.508.946-.74,2.015a8.843,8.843,0,0,0,0,2.57,31.862,31.862,0,0,1-.495,5.071l-7.232,57.662a91.318,91.318,0,0,0-1.145,9.715c-2.343,1.218-2.5.584-3.5,3.61-.519,1.577-1.05,3.88-1.66,5.295-.522,1.209-.784.83-1.355,2.13-.426.971-.37,1.731-.948,2.52-.922,1.259-.782.447-.785,2.665C459.492,404.123,459.32,404.776,459.939,405.613Zm23.113-179.5c-.462-4.113,3.2,1.23-2.414-11.481-1.568-3.551-2.942-7.173-4.562-10.81-.684-1.536-.889-1.333-.539-2.7.821-3.2-1.748.614,2.786-7.924,1.649-3.1,3.519-7.434,5.206-10.1.919,1.311,2.712,8.379,3.344,10.512,3.181,10.72.911,4.43,1.319,10.835.168,2.648-.172,3.095-.829,5.6C486.9,211.83,483.612,225.182,483.052,226.113Z" transform="translate(-451.798 -86.779)" fill="#e0dcdc" fill-rule="evenodd"/>
    <path id="Path_12028" data-name="Path 12028" d="M459.939,405.613h26.917a5.338,5.338,0,0,0,.5-3.871c-.234-.909-.472-.76-.584-1.959l.112-6.929c.034-1.628-.471-3.2-.372-4.249l10.053-48.518c.573-2.707,3.605-18.578,4.372-20.239,1.062-2.3-.436-.783,1.242-3.7.9-1.559.135-2.413.34-4,.527-4.1,7.148-34.275,8.2-35.457.84,10.639,2.225,21.647,3.24,32.137.158,1.637.589,5.928.086,7.273-1.266,3.391.751.676.416,7.454l-1.9,60.013c.3,2.225,1.176.522.623,3.256-1.025,5.056-2.272-.469-2.191,11.261.026,3.69-.216,2.039-.527,3.776a5.791,5.791,0,0,0,.486,3.755h24.255c1.69-2.686-.34-5.322-.887-7.3a5.614,5.614,0,0,0-.959-1.924c-1.307-2.011-1.732-6.334-3.27-9.032,1.777-1.486,1.52-4.624,1.892-8.4l4.55-45.234c.3-3.058.618-6.023.9-8.993.622-6.505,1.217-1.692,1.329-5.908.038-1.428.145-.55.561-1.5.935-2.131-.757-2.429-.848-3.835-.041-.625.441-3.349.568-4.278l5.988-43.548c.777-5.5,1.341-11.89,2.423-17.283,1.072.113.228.167,1.266.388-.023-3.507-3.747-12.5-3.368-15.512.417-3.307,6.458-28,7.278-30.992a28.856,28.856,0,0,0,.139-16.271c-2.312-9.158-5.018-21.251-8.523-29.723a16.988,16.988,0,0,0-6.643-7.851c-2.591-1.583-12.92-3.22-18.35-5.136l.035-7.982c2.738-2.076,4.771-3.226,6.192-7.128,2.944-.346,4.205-1.023,5.456-4.979,1.721-5.441-1.606-3.689-.371-8.477.2-.769.348-1.41.512-2.1.73-3.075,2.251-1.315,3.274-4.552a5.387,5.387,0,0,0-.447-4.35c-.805-1.269-1.552-1.521-2.621-2.4,1.034-3.433.43-5.738-3.174-6.307-.027-4.023-3.577-7.545-8.911-3.676-1.308-1.734-1.653-2.873-4.3-3.415-2.852-.587-4.028.769-5.562,1.759a10.509,10.509,0,0,0-4.089-2.544,8.713,8.713,0,0,0-5.748.295c-3.693,1.566-4.251,3.307-5.37,7.672a3.986,3.986,0,0,0-3.82,1.1c-1.4,1.336-.94,1.79-1.382,3.815-5.53.7-5.87,6.317-2.915,8.672l3.438,1.274c.363-.583,1.389,5.759,1.428,6.057.3,2.353-4.252,3.32-.432,9.971a5.336,5.336,0,0,0,2.622,2.581c3.044,1.22.112-.515,3.2,4.061,4.743,7.03,5.521,3.441,5.521,10.758l-21.2,8.022c-8.284,5.217-8.529,5.612-11.7,15.248-3.126,9.5-5.792,19.129-8.608,28.776-1.849,6.337-1.749,8.972.673,15.1a109.031,109.031,0,0,0,5.926,12.628c2.307,4.1,4.311,8.1,6.591,11.944A12.661,12.661,0,0,0,476.2,232.9c1.25,1.236.35,3.209,3.743,7.353,1.012,1.236,1.431,7.533,1.3,9.46l-3.222,40.273c-.476,6.394-1.216,9.2-.4,15.25.229,1.708.044.857-.26,2.03-.346,1.333.02,1.207,0,2.191-.02,1.045-.508.946-.74,2.015a8.843,8.843,0,0,0,0,2.57,31.862,31.862,0,0,1-.495,5.071l-7.232,57.662a91.318,91.318,0,0,0-1.145,9.715c-2.343,1.218-2.5.584-3.5,3.61-.519,1.577-1.05,3.88-1.66,5.295-.522,1.209-.784.83-1.355,2.13-.426.971-.37,1.731-.948,2.52-.922,1.259-.782.447-.785,2.665C459.492,404.123,459.32,404.776,459.939,405.613Zm23.113-179.5c-.462-4.113,3.2,1.23-2.414-11.481-1.568-3.551-2.942-7.173-4.562-10.81-.684-1.536-.889-1.333-.539-2.7.821-3.2-1.748.614,2.786-7.924,1.649-3.1,3.519-7.434,5.206-10.1.919,1.311,2.712,8.379,3.344,10.512,3.181,10.72.911,4.43,1.319,10.835.168,2.648-.172,3.095-.829,5.6C486.9,211.83,483.612,225.182,483.052,226.113Z" transform="translate(-451.798 -86.779)" fill="#cec5c8" fill-rule="evenodd"/>
    <path id="Path_12033" data-name="Path 12033" d="M511.074,468.709h24.359l-.053.088H511.125Zm-51.025,0h27.039l-.06.088H460.112Z" transform="translate(-451.971 -149.963)" fill="#cec5c8" fill-rule="evenodd"/>
    <path id="Path_12375" data-name="Path 12375" d="M477.945,249.426l-1.863,5.369-8.409,7.111s1.459-7.523,1.03-8.172,5.267-4.408,5.267-4.408Z" transform="translate(-453.231 -113.669)" fill="#b9bbcb" fill-rule="evenodd"/>
    <path id="Path_12376" data-name="Path 12376" d="M465.008,442.3s-1.269,9.584.225,9.644,12.917.869,12.917.869l1.163-3.387-.2-3.589Z" transform="translate(-452.707 -145.593)" fill="#262262" fill-rule="evenodd"/>
    <path id="Path_12377" data-name="Path 12377" d="M518.107,440.6l-2.073.1-1.869,9.5s9.5,2.326,9.6,1.82,1.92-10.209,1.92-10.209Z" transform="translate(-460.923 -145.313)" fill="#262262" fill-rule="evenodd"/>
    <path id="Path_12378" data-name="Path 12378" d="M543.8,272.557l4.835,6.167-9.08,66.008s2.629,2.122.2,4.144c0,0,1.011,2.325-.808,3.235L532.48,416.5a1.711,1.711,0,0,1-1.012,1.213c-.935.48-6.344.859-9.224.757a16.6,16.6,0,0,1-7.884-3.133s-.507-.556-.3-2.577,1.97-62.27,1.97-62.27-1.973-1.769,0-4.549a1.43,1.43,0,0,1-.152-2.071l-4.6-45.541,11.121-25.978Z" transform="translate(-460.445 -117.479)" fill="#0072a5" fill-rule="evenodd"/>
    <path id="Path_12379" data-name="Path 12379" d="M514.912,334.342l-3.638-36.011,11.121-25.978,3.376.033L537.8,285.1l-7.254,3.326s-3.259.01-4.27,1.729C525.5,291.469,518.258,320.725,514.912,334.342Z" transform="translate(-460.445 -117.479)" fill="#05628d" fill-rule="evenodd"/>
    <path id="Path_12380" data-name="Path 12380" d="M545,272.557l4.835,6.167-1.546,11.237a69.953,69.953,0,0,1-29.759-5.781l5.064-11.827Z" transform="translate(-461.645 -117.479)" fill="#05628d" fill-rule="evenodd"/>
    <path id="Path_12381" data-name="Path 12381" d="M542.229,159.922a15.968,15.968,0,0,1,7.783,7.982c2.83,6.066,9.516,33.254,9.516,33.254a30.837,30.837,0,0,1-1.011,13.546c-2.223,7.682-7.435,31.83-7.435,31.83l-10.76-17.679,3.74-6.166.657-10.968a1.369,1.369,0,0,1-.051-1.819l-1.364-6.419Z" transform="translate(-465.25 -98.879)" fill="#03a9f4" fill-rule="evenodd"/>
    <path id="Path_12382" data-name="Path 12382" d="M553.381,252.037c-1.117,5.019-1.928,8.773-1.928,8.773l-8.884-14.6,3.12.131Z" transform="translate(-465.622 -113.155)" fill="#fff" fill-rule="evenodd"/>
    <path id="Path_12383" data-name="Path 12383" d="M516,271.827l-10.715,23.352s.606,3.942,0,5.256a38.218,38.218,0,0,0-2.427,4.65c-.707,2.021-7.683,35.076-7.683,35.076s1.315,2.021-1.112,4.346c0,0,.657,1.667-.5,2.578l-14.2,68.737a8.16,8.16,0,0,1-3.993,1.415c-2.526.252-6.267.353-7.985-.3s-6.268-3.184-6.268-3.184a.656.656,0,0,1-.265-.619c.075-.379,9.008-71.621,9.008-71.621s-.911-3.285.909-4.5c0,0-1.214-2.073.2-3.286a26.2,26.2,0,0,1-.608-6.318c.2-2.729,3.842-49.634,4.043-50.948s-.908-8.776-.908-8.776l2.528-13.089,9.4-3.559Z" transform="translate(-452.101 -113.953)" fill="#0072a5" fill-rule="evenodd"/>
    <path id="Path_12384" data-name="Path 12384" d="M519.955,271.827l-4.518,9.844a81.25,81.25,0,0,1-30.711-21.212l2-8.417,2.651-1Z" transform="translate(-456.053 -113.953)" fill="#05628d" fill-rule="evenodd"/>
    <path id="Path_12385" data-name="Path 12385" d="M510.276,124.3a8.616,8.616,0,0,1,8.592,8.591v17.478a8.591,8.591,0,1,1-17.183,0V132.886A8.616,8.616,0,0,1,510.276,124.3Z" transform="translate(-458.859 -92.985)" fill="#ee8b83" fill-rule="evenodd"/>
    <path id="Path_12386" data-name="Path 12386" d="M497.577,154.709s10.309,3.943,17.183,0l16.969,4.351s7.7,29.918,8.3,33.557-3.235,12.534-3.235,12.534l-.809,18.8a3.719,3.719,0,0,1,.3,4.548s7.581,30.326,7.784,31.236a3.016,3.016,0,0,0-2.375-.507c-1.668.177-12.788,2.224-30.478-2.526s-26.687-17.034-32.551-18.044l5.661-21.936s-1.062-1.466,0-2.426c0,0-.96-2.123.3-2.932l-5.357-17.741s5.458-17.185-2.426-31.134Z" transform="translate(-454.751 -98.017)" fill="#03a9f4" fill-rule="evenodd"/>
    <path id="Path_12387" data-name="Path 12387" d="M501.124,154.709s10.309,3.943,17.183,0l3.653.937c-1.657,1.821-4.429,3.465-9.072,3.941-8.163.838-12.618-1.985-14.594-3.815Z" transform="translate(-458.298 -98.017)" fill="#fff" fill-rule="evenodd"/>
    <path id="Path_12389" data-name="Path 12389" d="M467.794,253.305c1.391,1.922,2.3,3.171,2.3,3.171s1.516,9,4.549,10.816c0,0,5.61-2.375,7.278-7.227a21.9,21.9,0,0,0,3.437,1.213c1.011.152,2.426-.354,2.578-1.213s-1.011-.5-3.842-2.578S479.9,253.9,477.73,253.6c-.61-.085-1.677-2.093-2.9-4.936Z" transform="translate(-453.252 -113.559)" fill="#f2ba95" fill-rule="evenodd"/>
    <path id="Path_12390" data-name="Path 12390" d="M483.2,264.3a9.53,9.53,0,0,0,1.172-2.3l-1.8-1.613Z" transform="translate(-455.696 -115.5)" fill="#ee8b83" fill-rule="evenodd"/>
    <path id="Path_12391" data-name="Path 12391" d="M468.675,254.6c.968,1.336,1.568,2.157,1.568,2.157s.217,1.29.653,2.992c.921-1.723,2.742-5.1,3.079-5.516a13.4,13.4,0,0,1,2.77-1.638c-.343-.583-.725-1.341-1.134-2.227a13.288,13.288,0,0,0-4.062.835l-1.244.821C469.945,252.589,469.3,253.609,468.675,254.6Z" transform="translate(-453.397 -113.842)" fill="#ee8b83" fill-rule="evenodd"/>
    <path id="Path_12392" data-name="Path 12392" d="M529.242,123.946s1.852-1.995,3.137-1.9,2.932,2.727,2.792,4.746-2.432,9.063-6.7,6.482S529.242,123.946,529.242,123.946Z" transform="translate(-463.006 -92.612)" fill="#f2ba95" fill-rule="evenodd"/>
    <path id="Path_12393" data-name="Path 12393" d="M527.835,126.6a.444.444,0,0,0-.083.529.262.262,0,0,0,.391.058s1.262,6.182,2.19,5.2a7.5,7.5,0,0,0,2.276-3.514c.367-1.58-1.1-3-.589-3.418.489-.4,1.032.2,1.083.259l0,0,0,0a4.058,4.058,0,0,1,.636,1.15.262.262,0,0,0,.406.139.459.459,0,0,0,.181-.511c0-.007-.778-2.349-2.558-2.238C530.071,124.36,527.841,126.595,527.835,126.6Z" transform="translate(-463.162 -92.978)" fill="#ee8b83" fill-rule="evenodd"/>
    <path id="Path_12394" data-name="Path 12394" d="M492.071,124.713s-1.936-1.917-3.216-1.773-2.811,2.844-2.585,4.856,2.822,8.957,6.979,6.2S492.071,124.713,492.071,124.713Z" transform="translate(-456.305 -92.76)" fill="#f2ba95" fill-rule="evenodd"/>
    <path id="Path_12395" data-name="Path 12395" d="M493.926,127.3a.445.445,0,0,1,.107.526.262.262,0,0,1-.389.073s-.994,6.228-1.965,5.282a7.527,7.527,0,0,1-2.424-3.418c-.436-1.564.971-3.04.441-3.439-.5-.381-1.023.243-1.071.3l0,0,0,0a4.075,4.075,0,0,0-.587,1.174.26.26,0,0,1-.4.157.46.46,0,0,1-.2-.5c0-.007.675-2.378,2.459-2.34C491.6,125.15,493.919,127.291,493.926,127.3Z" transform="translate(-456.498 -93.12)" fill="#ee8b83" fill-rule="evenodd"/>
    <path id="Path_12396" data-name="Path 12396" d="M506.865,94.192c-21.3.758-17.807,18.021-15.634,31.953a18.716,18.716,0,0,0,4.1,9.274s4.069,5,6.167,6.114a9.764,9.764,0,0,0,8.624-.175c1.556-.909,6.724-4.849,9.128-6.7,3.068-2.36,4.1-5.015,4.574-9.179C525.412,111.473,528.183,94.083,506.865,94.192Z" transform="translate(-456.856 -88.005)" fill="#f2ba95" fill-rule="evenodd"/>
    <path id="Path_12397" data-name="Path 12397" d="M489.678,116.012h0c.009,0,8.573,1.253,11.5-4.86a8.9,8.9,0,0,0,9.552.151s2.279,7.225,9.958,5.257,2.022-9.654-3.084-10.109-24.361,1.264-25.12,2.274S489.686,115.986,489.678,116.012Z" transform="translate(-456.872 -90.021)" fill="#ee8b83" fill-rule="evenodd"/>
    <path id="Path_12406" data-name="Path 12406" d="M476.158,449.7c2.222.931,3.273.275,3.8-.512.947-1.419,1.75.745,1.5,4.213-.211,2.883,0,6.537,0,8.771s-6.87.3-6.87.3l-3.13-8.115Z" transform="translate(-453.858 -146.661)" fill="#725667" fill-rule="evenodd"/>
    <path id="Path_12407" data-name="Path 12407" d="M473.215,449.291l-.966-1.59s-1.01-1.445-4.174-1.445h-8.687a3.3,3.3,0,0,0-2.827,2.3c-.809,2.233-2.9,9.265-2.9,9.265l6.263,1.117,9.764-.394Z" transform="translate(-450.914 -146.248)" fill="#8d6976" fill-rule="evenodd"/>
    <path id="Path_12408" data-name="Path 12408" d="M473.715,463.414s-2.078-7.345-8.551-7.345h-7.513c-1.878,0-5.274.9-5.274,5.291Z" transform="translate(-450.701 -147.872)" fill="#ab787f" fill-rule="evenodd"/>
    <path id="Path_12409" data-name="Path 12409" d="M470.623,466.3l.082.244.517,1.531H452.27l-.467-.557.4-2.263,10.23-.383Z" transform="translate(-450.606 -149.327)" fill="#e57371" fill-rule="evenodd"/>
    <path id="Path_12410" data-name="Path 12410" d="M478.062,463.039s-.018.856-3.031.856a4.173,4.173,0,0,1-.844-.056c-1.839-.348-4.676-1.74-9.151-1.74H452.769c-1.6,0-1.819,1.044-1.819,1.6v2.942s-.02.974,1.178.974c0,0-.527-1.544,1.772-1.544h8.943c2.847,0,4.171,1.544,8.517,1.544h6.207c.724,0,1.049-.781,1.049-1.5v-2.263A1.052,1.052,0,0,0,478.062,463.039Z" transform="translate(-450.466 -148.869)" fill="#f2ba95" fill-rule="evenodd"/>
    <path id="Path_12411" data-name="Path 12411" d="M517.419,449.489s-1.253.907-1.253-.8-1.031-1.544-1.94-.132-1.577,1.742-1.577,4.634v8.771c0,2.235,6.187.3,6.187.3l2.821-8.115Z" transform="translate(-460.672 -146.446)" fill="#725667" fill-rule="evenodd"/>
    <path id="Path_12412" data-name="Path 12412" d="M518.365,449.291l.869-1.59s.911-1.445,3.761-1.445h7.825a3.007,3.007,0,0,1,2.547,2.3c.728,2.233,2.608,9.265,2.608,9.265l-5.641,1.117-8.795-.394Z" transform="translate(-461.617 -146.248)" fill="#8d6976" fill-rule="evenodd"/>
    <path id="Path_12413" data-name="Path 12413" d="M517.594,463.414s1.873-7.345,7.7-7.345h6.767c1.692,0,4.751.9,4.751,5.291Z" transform="translate(-461.49 -147.872)" fill="#ab787f" fill-rule="evenodd"/>
    <path id="Path_12414" data-name="Path 12414" d="M520.722,466.3l-.073.244-.465,1.531h17.071l.421-.557-.361-2.263-9.214-.383Z" transform="translate(-461.919 -149.327)" fill="#e57371" fill-rule="evenodd"/>
    <path id="Path_12415" data-name="Path 12415" d="M512.55,463.039s.016.856,2.731.856a3.4,3.4,0,0,0,.759-.056c1.656-.348,4.212-1.74,8.243-1.74h11.05a1.474,1.474,0,0,1,1.638,1.6v2.942a.969.969,0,0,1-1.062.974s.474-1.544-1.6-1.544h-8.055c-2.565,0-3.757,1.544-7.671,1.544h-5.592c-.653,0-.945-.781-.945-1.5v-2.263A1.045,1.045,0,0,1,512.55,463.039Z" transform="translate(-460.573 -148.869)" fill="#f2ba95" fill-rule="evenodd"/>
    <path id="Path_12416" data-name="Path 12416" d="M472.473,164.035s-6.976,3.841-9.2,7.378-12.636,40.536-12.636,40.536-1.085,3.341,1.111,9.653,7.334,16.065,13.063,26.193l5.779-9.814,4.493-2.665c-3.128-7.292-8.879-20.993-8.879-20.993a1.574,1.574,0,0,0,.2-2.426l8.493-16.728S482.58,173.534,472.473,164.035Z" transform="translate(-450.369 -99.559)" fill="#03a9f4" fill-rule="evenodd"/>
    <path id="Path_12417" data-name="Path 12417" d="M464.469,256.308q1.306,2.367,2.674,4.783l5.779-9.814,4.493-2.665c-.535-1.249-1.148-2.686-1.8-4.21a16.182,16.182,0,0,0-4.008,2.047C470.961,247.18,466.394,253.264,464.469,256.308Z" transform="translate(-452.702 -112.855)" fill="#fff" fill-rule="evenodd"/>
    <path id="Path_12418" data-name="Path 12418" d="M493.235,187.88h13.758a1.186,1.186,0,0,1,1.183,1.183v5.17a1.187,1.187,0,0,1-1.183,1.183H493.235a1.187,1.187,0,0,1-1.183-1.183v-5.17A1.186,1.186,0,0,1,493.235,187.88Z" transform="translate(-457.265 -103.504)" fill="#26377f" fill-rule="evenodd"/>
    <path id="Path_12419" data-name="Path 12419" d="M494.781,190.1h10.943a.973.973,0,0,1,0,1.945H494.781a.973.973,0,1,1,0-1.945Z" transform="translate(-457.555 -103.871)" fill="#fff" fill-rule="evenodd"/>
    <path id="Path_12420" data-name="Path 12420" d="M507.5,193.563h.9a.487.487,0,0,1,0,.973h-.9a.487.487,0,0,1,0-.973Z" transform="translate(-459.739 -104.445)" fill="#abd3ec" fill-rule="evenodd"/>
    <path id="Path_12421" data-name="Path 12421" d="M494.295,193.563h8.984a.487.487,0,1,1,0,.973h-8.984a.487.487,0,1,1,0-.973Z" transform="translate(-457.555 -104.445)" fill="#abd3ec" fill-rule="evenodd"/>
    <path id="Path_12422" data-name="Path 12422" d="M531.395,159.936a.286.286,0,0,1,.555-.141c.023.085,5.37,45.536,5.075,46.227l-.8,18.636a3.976,3.976,0,0,1,.32,4.7c.5,2.02,7.555,30.221,7.756,31.126a.286.286,0,1,1-.558.124c-.195-.88-7.76-31.141-7.782-31.228a.286.286,0,0,1,.037-.224,3.428,3.428,0,0,0-.273-4.2h0a.284.284,0,0,1-.075-.2l.808-18.792a.33.33,0,0,1,.023-.111C536.49,205.82,531.417,160.022,531.395,159.936Zm-51.9,34.579a.285.285,0,1,1-.546-.167c.014-.049,5.421-17.069-2.4-30.911a.285.285,0,1,1,.5-.28C484.991,177.216,479.511,194.466,479.5,194.516Z" transform="translate(-454.693 -98.822)" fill="#0799db" fill-rule="evenodd"/>
    <path id="Path_12423" data-name="Path 12423" d="M468.657,220.962a.286.286,0,1,1-.275.5,5.055,5.055,0,0,0-3.218-.448.286.286,0,1,1-.123-.557A5.693,5.693,0,0,1,468.657,220.962Zm-.238,2.411a.285.285,0,0,1-.2.532,8.475,8.475,0,0,0-4.72-.16.286.286,0,1,1-.127-.557A9.061,9.061,0,0,1,468.419,223.373Z" transform="translate(-452.483 -108.875)" fill="#0799db" fill-rule="evenodd"/>
    <path id="Path_12424" data-name="Path 12424" d="M485.82,228.175a.286.286,0,1,1-.119-.56l2.367-.5a.286.286,0,0,1,.119.559Zm.049-2.442a.286.286,0,1,1-.219-.528l7.093-2.954a.286.286,0,0,1,.219.528Z" transform="translate(-456.177 -109.187)" fill="#0799db" fill-rule="evenodd"/>
    <path id="Path_12425" data-name="Path 12425" d="M524.6,113.789s-1.4,6.032,2.931,8.593c0,0,.939,5.191,2.112,5.35l2.185-6.21s.765-1.15,1.52-.423l1.74-7.158-7.076-2.831Z" transform="translate(-462.614 -90.804)" fill="#2f3242" fill-rule="evenodd"/>
    <path id="Path_12426" data-name="Path 12426" d="M493.71,112.305s-2.78,4.347-3.185,5-.113,9-.113,9l-1.9-5.446-1.622-8.709,3.134-2.678Z" transform="translate(-456.41 -90.533)" fill="#2f3242" fill-rule="evenodd"/>
    <path id="Path_12427" data-name="Path 12427" d="M485.29,100.207c.094,0,.186,0,.28.008a3.943,3.943,0,0,1-.138-1.042,4,4,0,0,1,5.219-3.806v-.049a8.371,8.371,0,0,1,14.941-5.187A5.646,5.646,0,0,1,515.4,91.9a4.844,4.844,0,0,1,8.826,2.758,5.055,5.055,0,0,1-.028.518,3.856,3.856,0,0,1,2.888,6.333,5.126,5.126,0,1,1-5.719,7.809,7.926,7.926,0,0,1-13.936-3.386,5.407,5.407,0,0,1-8.142.352,5.08,5.08,0,0,1-9.947,1.012,4.7,4.7,0,1,1-4.052-7.09Z" transform="translate(-455.368 -86.807)" fill="#2f3242" fill-rule="evenodd"/>
    <path id="Path_12428" data-name="Path 12428" d="M535.168,193.612a.571.571,0,0,1-.263-1.111c.013,0,4.471-1.041,4.7-3.1.1-.895-.71-3.835-1.784-7.163-1.629-5.053-3.854-10.927-4.463-12.077-.821-1.55-4.8-1.778-5.313-1.8-.485.083-3.94.746-4.845,2.794a37.2,37.2,0,0,0-1.284,6.4c-.737,5.011-1.37,11.072-1.4,12.009-.023.633.477,1.4,1.676,2.027a12.05,12.05,0,0,0,4.889,1.113.571.571,0,1,1-.061,1.141,13.192,13.192,0,0,1-5.362-1.243c-1.642-.863-2.323-2.041-2.286-3.082.034-.951.673-7.08,1.416-12.131a37.113,37.113,0,0,1,1.372-6.694c1.193-2.7,5.5-3.425,5.748-3.466a.548.548,0,0,1,.123-.009c.015,0,5.156.169,6.341,2.407.627,1.183,2.892,7.151,4.54,12.264,1.117,3.462,1.955,6.569,1.834,7.642C540.423,192.392,535.183,193.608,535.168,193.612Z" transform="translate(-461.784 -100.086)" fill="#262262" fill-rule="evenodd"/>
    <path id="Path_12429" data-name="Path 12429" d="M528.777,165.334a.286.286,0,1,1-.572.007,17.363,17.363,0,0,0-3.522-10.506,6.215,6.215,0,0,0-2.409-1.83V152.4a6.606,6.606,0,0,1,2.846,2.067A17.965,17.965,0,0,1,528.777,165.334Z" transform="translate(-462.264 -97.634)" fill="#262262" fill-rule="evenodd"/>
    <path id="Path_12430" data-name="Path 12430" d="M493.893,165.334a.286.286,0,1,0,.572.007,17.362,17.362,0,0,1,3.521-10.506A6.216,6.216,0,0,1,500.4,153V152.4a6.606,6.606,0,0,0-2.846,2.067A17.96,17.96,0,0,0,493.893,165.334Z" transform="translate(-457.57 -97.634)" fill="#262262" fill-rule="evenodd"/>
    <path id="Path_12431" data-name="Path 12431" d="M529.218,199.613a1.447,1.447,0,1,0-1.676-1.174A1.447,1.447,0,0,0,529.218,199.613Z" transform="translate(-463.133 -104.97)" fill="#26377f" fill-rule="evenodd"/>
    <path id="Path_12432" data-name="Path 12432" d="M537.442,199.473a1.447,1.447,0,1,0-1.675-1.173A1.446,1.446,0,0,0,537.442,199.473Z" transform="translate(-464.494 -104.947)" fill="#26377f" fill-rule="evenodd"/>
    <path id="Path_12433" data-name="Path 12433" d="M493.905,166.573c-.962-.039-1.789,1.07-1.847,2.479s.674,2.582,1.637,2.622,1.789-1.071,1.847-2.479S494.868,166.613,493.905,166.573Z" transform="translate(-457.266 -99.979)" fill="#262262" fill-rule="evenodd"/>
    <path id="Path_12434" data-name="Path 12434" d="M493.672,167.635c-.592-.024-1.1.658-1.135,1.523s.415,1.587,1.007,1.612,1.1-.658,1.136-1.524S494.263,167.66,493.672,167.635Z" transform="translate(-457.344 -100.155)" fill="#2a54a8" fill-rule="evenodd"/>
  </g>
</svg>
