<svg xmlns="http://www.w3.org/2000/svg" width="206.992" height="322.117" viewBox="0 0 206.992 322.117">
  <g id="Group_1916" data-name="Group 1916" transform="translate(-1428.685 -741.014)">
    <g id="Group_1736" data-name="Group 1736" transform="translate(1428.685 741.014)">
      <path id="Path_13328" data-name="Path 13328" d="M775.568,1146.514a35.349,35.349,0,0,0,10.407,3.152s4.784-7.015,7.584-12.265c6.678-12.528,8.649-18.388,8.079-23.2-1.024-8.647-18.026-43.233-18.026-43.233l-18.873,7.285,14.448,25.677c1.349,2.631,3.089,6.908,4.886,10.386,2.356,4.558-.48,14.992-2.159,19.35C781.915,1133.668,778.836,1142.108,775.568,1146.514Z" transform="translate(-650.791 -996.136)" fill="#fcae88"/>
      <path id="Path_13329" data-name="Path 13329" d="M626.087,1647.037a12.5,12.5,0,0,1-1.609,7.307c-2.166,4.181-11.87,14.833-11.2,19.206s11.881,3.859,18.923-3.84,17.5-15.7,17.113-17.548-10.946-11.459-14.617-12.735S626.087,1647.037,626.087,1647.037Z" transform="translate(-442.331 -1354.191)" fill="#353a3d"/>
      <path id="Path_13330" data-name="Path 13330" d="M651.689,1635.314l3.966,4.27,8.918-7.6-4.1-4.755Z" transform="translate(-471.805 -1346.586)" fill="#fcae88"/>
      <path id="Path_13331" data-name="Path 13331" d="M743.134,1521.583c-4.351-4.936-39.46-40.858-39.46-40.858-17.907-20.642-24.913-21.186-24.913-21.186a104.193,104.193,0,0,0-10.667.932c-.882.122-3.758.093-4.68.244-11.4,1.846-11.719.548-7.553,9.886,6.855,15.358,75.592,59.672,75.592,59.672Z" transform="translate(-551.003 -1240.94)" fill="#0072a5"/>
      <path id="Path_13332" data-name="Path 13332" d="M1085.266,1677.567a47.632,47.632,0,0,1-10.593,3.13c-4.962.677-16.912-1.291-20.309,1.968s3.922,12.694,14.933,14.1,25.107,3.737,26.48,2.268,2.516-14.667,1.38-18.644S1085.266,1677.567,1085.266,1677.567Z" transform="translate(-1053.528 -1378.202)" fill="#353a3d"/>
      <path id="Path_13333" data-name="Path 13333" d="M1052.294,1662.06l-2.364,5.835,11.891,2.823,1.794-6.245Z" transform="translate(-1018.192 -1368.53)" fill="#fcae88"/>
      <path id="Path_13334" data-name="Path 13334" d="M975.1,1456.065s4.836-18.455-6.527,25.022c0,0-11.98,46.393-13.3,49.031-.311.625,15.018,3.43,15.3,3.319,2.668-1.065,26.531-60.5,32.462-71.482C1008.263,1452.291,975.1,1456.065,975.1,1456.065Z" transform="translate(-923.153 -1236.299)" fill="#0072a5"/>
      <path id="Path_13335" data-name="Path 13335" d="M873.029,1363.216l23.856,13.723s9.385-11.529,15.6-16.235c.639-.477,1.278-.962,1.926-1.465q1.376-1.043,2.754-2.124c.666-.522,1.34-1.054,2-1.583a93.382,93.382,0,0,0,11.131-10c6.758-7.8-8.035-57.134-26.716-35.13C903.58,1310.4,878.538,1333.916,873.029,1363.216Z" transform="translate(-821.086 -1143.45)" fill="#0072a5"/>
      <path id="Path_13336" data-name="Path 13336" d="M803.951,1304.14s11.756,54.015,23.342,72.388c0,0,19.677-6.634,28.715-10.178,0,0,.877-39.034.005-49.234C855.2,1307.6,803.951,1304.14,803.951,1304.14Z" transform="translate(-719.967 -1143.036)" fill="#0072a5"/>
      <path id="Path_13337" data-name="Path 13337" d="M859.221,1137.608s-4.956-48.539-.851-71.123c2.73-15.01-1.22-39.374-10.221-52.52a32.255,32.255,0,0,0-3.392-4.225s-18.171,4.814-19.989,6.083a37.264,37.264,0,0,0-4.712,4.965h0c-5.17,6.342-12.805,17.822-13.548,28.966-.539,8.106-.984,15.551-1.491,23.232-.152,2.338-.313,4.7-.481,7.1-.407,5.779-.871,11.832-1.452,18.5-.323,3.711-2.824,15.484-4.47,26.34Z" transform="translate(-720.812 -957.561)" fill="#03a9f4"/>
      <path id="Path_13338" data-name="Path 13338" d="M911.249,1399.951q1.376-1.043,2.753-2.124c.666-.522,1.34-1.054,2-1.583-.954-3.041-6.138-16.92-8.171-26.824C907.829,1369.42,906.327,1384.852,911.249,1399.951Z" transform="translate(-817.921 -1184.163)" fill="#01557a"/>
      <path id="Path_13339" data-name="Path 13339" d="M912.771,1159.66s10.576,16.072,12.45-23.62l-11.969,16.516C913.1,1154.895,912.938,1157.251,912.771,1159.66Z" transform="translate(-829.05 -1037.131)" fill="#057fb7"/>
      <path id="Path_13340" data-name="Path 13340" d="M855.573,979.155s-1.894-10.5.313-16.6S837.8,972.839,837.8,972.839s0,.849-.034,2.119c-.027.99-.082,2.24-.17,3.55a26.888,26.888,0,0,1-1.134,6.782C835.109,988.726,855.573,979.155,855.573,979.155Z" transform="translate(-731.627 -926.975)" fill="#fcae88"/>
      <path id="Path_13341" data-name="Path 13341" d="M837.114,893.422s-4.276,8.055-2.122,9.289c1.78,1.019-2.018,8.921-2.513,10.211s3.226,2.2,4.02,3.024,3.2,11,6.263,11.285,16.817-4.6,20.545-8.526,6.691-21.579,4.136-29S844.661,879.352,837.114,893.422Z" transform="translate(-742.506 -878.029)" fill="#fcae88"/>
      <path id="Path_13342" data-name="Path 13342" d="M823.172,885.847s-4.476-8.638,3.508-15.121,22.86,4.7,24.531,5.122,11.58,3.581,6.608,18.319c-4.512,13.371-5.091,14.88-5.091,14.88s-2.741-8.887-4.485-10.135c-2.723-1.95-8.663-1.438-8.663-1.438s2.782-7.537-1.65-8.571S827.638,884.156,823.172,885.847Z" transform="translate(-729.416 -868.709)" fill="#3b3b40"/>
      <path id="Path_13343" data-name="Path 13343" d="M845.3,928.452c.383-1.034,1.616-5.474,5.436-2.9s-2.3,10.971-2.959,11.083S842.071,937.151,845.3,928.452Z" transform="translate(-730.449 -904.023)" fill="#fcae88"/>
      <path id="Path_13344" data-name="Path 13344" d="M854.712,993.493C861,991.8,866.39,984.98,866.39,984.98c-1.718,1.677-11.508,4.963-11.508,4.963C854.854,990.933,854.8,992.184,854.712,993.493Z" transform="translate(-748.737 -941.962)" fill="#f58d86"/>
      <path id="Path_13345" data-name="Path 13345" d="M956.9,1150.706l10.238,52.712,33.833-6.571-8.916-52.968Z" transform="translate(-921.122 -1042.07)" fill="#616161"/>
      <path id="Path_13346" data-name="Path 13346" d="M963.36,1158.944l9.091,46.815,30.047-5.838-7.919-47.04Z" transform="translate(-925.043 -1047.741)" fill="#fff"/>
      <path id="Path_13347" data-name="Path 13347" d="M1009.926,1157.922l-.636-3.285,12.147-2.357,1.11,3.193Z" transform="translate(-962.087 -1047.362)" fill="#616161"/>
      <path id="Path_13348" data-name="Path 13348" d="M1015.224,1233.8a7.331,7.331,0,0,0,2.272.581s1.421-.192,2.438-.266a6.155,6.155,0,0,1,.788-.022,13.461,13.461,0,0,0,4.292-.037c1.865-.4,9.457-4.225,9.457-4.225l-.9-4.691-.218-4.51s-11.066-3.763-12.846-3.585c-.174.019-.348.045-.507.078a17.122,17.122,0,0,0-3.245,1.391c-.281.093-3.012,1.191-3.278,2.028a2.872,2.872,0,0,0,.366,2.771,6.866,6.866,0,0,0,.03,3.777,4.274,4.274,0,0,0,.692,3.707S1014.148,1233.008,1015.224,1233.8Z" transform="translate(-975.491 -1088.158)" fill="#fcae88"/>
      <path id="Path_13349" data-name="Path 13349" d="M846.24,1139.9a35.435,35.435,0,0,0,3.667,10.238s8.486-.337,14.371-1.217c14.039-2.094,19.923-4,23.447-7.326,6.333-5.972,23.988-40.233,23.988-40.233l-17.091-10.818-12.02,26.9c-1.31,2.653-3.709,6.6-5.433,10.112-2.259,4.61-12.329,8.547-16.828,9.794C860.341,1137.344,851.727,1139.9,846.24,1139.9Z" transform="translate(-790.926 -1008.465)" fill="#fcae88"/>
      <path id="Path_13350" data-name="Path 13350" d="M836.084,1088.116l19.428,10.1s3.852-7.455,4.98-9.879c3.236-6.948,8.24-17.452,1.947-21.889-13.581-9.575-19.42,6.316-22.756,15.029A46.533,46.533,0,0,1,836.084,1088.116Z" transform="translate(-740.912 -991.419)" fill="#059ee4"/>
    </g>
  </g>
</svg>
