<svg xmlns="http://www.w3.org/2000/svg" width="94.6" height="318.837" viewBox="0 0 94.6 318.837">
  <g id="Group_1915" data-name="Group 1915" transform="translate(-347.05 -283.977)">
    <g id="Group_758" data-name="Group 758" transform="translate(347.05 283.977)">
      <g id="Group_757" data-name="Group 757" transform="translate(8.687 1.086)">
        <path id="Path_3383" data-name="Path 3383" d="M1376.388,496.073c17.273,0,21.418-14.338,15.86-35.694q-.842-3.23-1.975-6.668c-3.043-9.239,3.261-23.438,7.917-24.864-2.5-4.284,2.689-12.125,2.689-12.125s-40.271-26.181-35.076,31.734a55,55,0,0,1,.155,7.524C1364.64,483.194,1343.888,496.073,1376.388,496.073Z" transform="translate(-1358.222 -402.601)" fill="#cec5c8"/>
        <path id="Path_3384" data-name="Path 3384" d="M1376.388,652.15c17.273,0,21.418-14.338,15.86-35.694-9.554,3.915-18.737.761-26.291-4.4C1364.64,639.271,1343.888,652.15,1376.388,652.15Z" transform="translate(-1358.222 -558.678)" fill="#cec5c8"/>
        <path id="Path_3385" data-name="Path 3385" d="M1452.636,423.872c-1.021,2.773-.323,5.584,1.56,6.277s4.237-.993,5.258-3.767.323-5.585-1.56-6.277S1453.657,421.1,1452.636,423.872Z" transform="translate(-1431.083 -409.682)" fill="#cec5c8"/>
        <path id="Path_3386" data-name="Path 3386" d="M1606.867,1721.956s-8.212-4.109-8.375-12.116h-8.536a49.321,49.321,0,0,1,.132,5.143c-.146.887-1.008,4.269-1.008,4.269S1603.786,1732.255,1606.867,1721.956Z" transform="translate(-1537.272 -1410.101)" fill="#cec5c8"/>
        <path id="Path_3387" data-name="Path 3387" d="M1601.655,1749.963l-1.746,2.444s-8.658-4.385-15.718-5.936c-2.024-.444,0,9.78,0,9.78h5.24v-2.444l6.986,2.444h13.275S1610.86,1748.913,1601.655,1749.963Z" transform="translate(-1532.782 -1438.501)" fill="#cec5c8"/>
        <path id="Path_3388" data-name="Path 3388" d="M1474.745,1746.32H1464.53v5.125h10.635Z" transform="translate(-1440.673 -1438.394)" fill="#cec5c8"/>
        <path id="Path_3389" data-name="Path 3389" d="M1473.951,1722.758V1710.39h-8.036s-3.292,10.081-2.179,12.125C1464.956,1724.757,1473.951,1722.758,1473.951,1722.758Z" transform="translate(-1439.879 -1410.528)" fill="#cec5c8"/>
        <path id="Path_3390" data-name="Path 3390" d="M1458.694,1746.32v4.062a10.5,10.5,0,0,1,10.215,0v-4.062s3.8,8.514,0,9.825h-10.215C1454.895,1754.834,1458.694,1746.32,1458.694,1746.32Z" transform="translate(-1434.837 -1438.394)" fill="#cec5c8"/>
        <path id="Path_3391" data-name="Path 3391" d="M1440.97,1124.89l4.937,132.587h13.461l10.168-116.335,2.017,116.335h16.252l11.813-132.587Z" transform="translate(-1422.4 -956.423)" fill="#cec5c8"/>
        <path id="Path_3392" data-name="Path 3392" d="M1499.611,1124.89l-1.041,11.69-57.4-6-.213-5.691Z" transform="translate(-1422.392 -956.423)" fill="#cec5c8"/>
        <path id="Path_3393" data-name="Path 3393" d="M1670.962,814.432l6.268,13.827-10.767,3.783L1661,818.932Z" transform="translate(-1593.052 -715.637)" fill="#cec5c8"/>
        <path id="Path_3394" data-name="Path 3394" d="M1629.668,680.64l13.561,30.954-11.185,4.317S1614.567,692.809,1629.668,680.64Z" transform="translate(-1563.985 -611.87)" fill="#cec5c8"/>
        <path id="Path_3395" data-name="Path 3395" d="M1494.944,754.418H1432.33c.323-35.919,9.78-50.491,7.3-74.868-.66-6.492-2.7-13.622-6.8-21.932-3.236-6.557,21.6-15.972,21.6-15.972h11.76s13.635,6,15.184,8.751c1.039,1.844,3.943,9.006,7.666,22.374,1.187,4.261-1.1,11.182-1.93,13.221C1483.75,694.269,1493.007,734.463,1494.944,754.418Z" transform="translate(-1415.699 -581.626)" fill="#cec5c8"/>
        <path id="Path_3396" data-name="Path 3396" d="M1683.078,951.706c-1.411-14.542-6.71-39.833-8.177-55.687C1676.368,911.872,1681.666,937.164,1683.078,951.706Z" transform="translate(-1603.833 -778.914)" fill="#cec5c8"/>
        <path id="Path_3397" data-name="Path 3397" d="M1673.22,860.027c0-.32.009-.631.02-.931v0q-.017.453-.02.934Z" transform="translate(-1602.529 -750.275)" fill="#cec5c8"/>
        <path id="Path_3398" data-name="Path 3398" d="M1497.465,923.076H1435.58c29.71-7.163,44.677-38.811,50.442-54.744,1.234-.35,2.336-.669,3.265-.943C1490.755,883.243,1496.053,908.534,1497.465,923.076Zm-8.786-63.014c.161-.591.242-.923.251-.957q-.017.451-.02.931Z" transform="translate(-1418.22 -750.284)" fill="#cec5c8"/>
        <path id="Path_3399" data-name="Path 3399" d="M1458.37,820.49q.1-.558.191-1.114Q1458.467,819.931,1458.37,820.49Zm1.3-28.214q-.226-1.727-.586-3.518C1459.328,789.953,1459.521,791.125,1459.672,792.276Z" transform="translate(-1435.896 -695.724)" fill="#cec5c8"/>
        <path id="Path_3400" data-name="Path 3400" d="M1458.37,819.284q.1-.558.191-1.114c.42-2.5.788-4.962,1.073-7.446.53,1.048,1.068,2.051,1.611,2.972A18.669,18.669,0,0,1,1458.37,819.284Zm1.4-27.38q-.047-.415-.1-.833c-.151-1.151-.343-2.323-.586-3.518,3.633-.266,7.412-.349,7.412-.349,0,.058-.074.8-.222,2.022Z" transform="translate(-1435.896 -694.518)" fill="#cec5c8"/>
        <rect id="Rectangle_767" data-name="Rectangle 767" width="13.366" height="7.226" transform="translate(60.655 87.46)" fill="#cec5c8"/>
        <rect id="Rectangle_768" data-name="Rectangle 768" width="3.761" height="3.224" transform="translate(61.581 89.46)" fill="#cec5c8"/>
        <rect id="Rectangle_769" data-name="Rectangle 769" width="6.744" height="0.471" transform="translate(66.35 89.696)" fill="#cec5c8"/>
        <rect id="Rectangle_770" data-name="Rectangle 770" width="6.744" height="0.47" transform="translate(66.35 90.838)" fill="#cec5c8"/>
        <rect id="Rectangle_771" data-name="Rectangle 771" width="6.744" height="0.471" transform="translate(66.35 91.979)" fill="#cec5c8"/>
        <path id="Path_3411" data-name="Path 3411" d="M1517.094,842.542s-5.606-2.509-9.374,0a38.532,38.532,0,0,1,1.8,7.717l5.287-.519Z" transform="translate(-1474.17 -736.573)" fill="#cec5c8"/>
        <path id="Path_3412" data-name="Path 3412" d="M1677.99,849.61s7.22-4.346,9.969-3.734c1.194.311,4.91,7.468,3.586,8.873-2.188,2.322-12.574,2.168-12.574,2.168Z" transform="translate(-1606.229 -739.978)" fill="#cec5c8"/>
        <path id="Path_3413" data-name="Path 3413" d="M1434.57,800.931s6.813,20.08,11.865,23.617c6.394,4.477,45.33-7.654,45.33-7.654L1489.2,810.4l-34.405,3.857-6.454-19Z" transform="translate(-1417.437 -700.769)" fill="#cec5c8"/>
        <path id="Path_3414" data-name="Path 3414" d="M1674.9,894.344h0c.624-.183,1.171-.347,1.631-.484h0C1676.072,894,1675.524,894.16,1674.9,894.344Z" transform="translate(-1603.833 -777.239)" fill="#cec5c8" fill-rule="evenodd"/>
        <path id="Path_3415" data-name="Path 3415" d="M1620.94,902.6c3.288-.837,6.342-1.674,8.844-2.384h0C1627.282,900.928,1624.228,901.764,1620.94,902.6Z" transform="translate(-1561.982 -782.17)" fill="#cec5c8"/>
        <path id="Path_3416" data-name="Path 3416" d="M1674.9,896.018h0Z" transform="translate(-1603.833 -778.913)" fill="#cec5c8"/>
        <path id="Path_3417" data-name="Path 3417" d="M1660.35,896.961h0c1.234-.35,2.336-.669,3.265-.942h0C1662.686,896.292,1661.584,896.611,1660.35,896.961Z" transform="translate(-1592.547 -778.913)" fill="#cec5c8"/>
        <path id="Path_3418" data-name="Path 3418" d="M1682.147,877.846h0c.988-.3,1.567-.476,1.625-.494C1683.713,877.371,1683.134,877.55,1682.147,877.846Zm1.627-.495h0Zm0,0h0Zm0,0-1.636-4.137,5.384,1.281Z" transform="translate(-1609.448 -761.226)" fill="#cec5c8"/>
        <path id="Path_3419" data-name="Path 3419" d="M1551.654,876.7l-15.794-8.04,25.8-2.893,7.026,1.671,1.636,4.138h0c-.058.018-.637.2-1.625.494-.46.138-1.008.3-1.632.484-.929.273-2.031.593-3.265.942-2.5.71-5.557,1.546-8.844,2.384Q1553.334,876.292,1551.654,876.7Z" transform="translate(-1495.995 -755.45)" fill="#cec5c8"/>
        <path id="Path_3420" data-name="Path 3420" d="M1435.4,813.256c-.487-1.34-.783-2.2-.821-2.319.038.114.334.979.823,2.319Zm-.826-2.332,6.744-2.776h0Z" transform="translate(-1417.437 -710.763)" fill="#cec5c8"/>
        <path id="Path_3421" data-name="Path 3421" d="M1473.6,801.008l-1.953-5.747-.521.214h0l.521-.214,1.953,5.747Zm-8.977-2.855h0Z" transform="translate(-1440.742 -700.768)" fill="#cec5c8"/>
        <path id="Path_3422" data-name="Path 3422" d="M1464.62,798.892h0l6.5-2.678h0Z" transform="translate(-1440.742 -701.506)" fill="#cec5c8"/>
        <path id="Path_3423" data-name="Path 3423" d="M1434.575,820.535v0Zm0,0s0-.005,0-.007S1434.572,820.529,1434.572,820.532Zm0-.007h0Zm0,0h0Z" transform="translate(-1417.437 -720.361)" fill="#cec5c8"/>
        <path id="Path_3424" data-name="Path 3424" d="M1435.4,803.263c-.489-1.34-.785-2.2-.823-2.319h0v0h0s0-.005,0-.007h0l6.744-2.776,6.5-2.678.521-.214,1.952,5.747Z" transform="translate(-1417.437 -700.769)" fill="#cec5c8"/>
        <path id="Path_3425" data-name="Path 3425" d="M1583.2,855.2l-42.392-8.8-2.511,7.085S1589.891,879.524,1583.2,855.2Z" transform="translate(-1497.888 -740.427)" fill="#cec5c8"/>
        <path id="Path_3426" data-name="Path 3426" d="M1439.651,710.381l-18.994,6.684c-2.621-14.217-1.737-29.13,5.13-33.091C1431.388,680.746,1436.467,696.88,1439.651,710.381Z" transform="translate(-1405.59 -614.132)" fill="#cec5c8"/>
        <path id="Path_3427" data-name="Path 3427" d="M1543.036,591.592V618.6L1531.4,603.273V591.592Z" transform="translate(-1492.536 -542.805)" fill="#cec5c8"/>
        <path id="Path_3428" data-name="Path 3428" d="M1543.036,591.592v9.787l-11.636-3.467v-6.319Z" transform="translate(-1492.536 -542.805)" fill="#cec5c8"/>
        <path id="Path_3429" data-name="Path 3429" d="M1460.51,397.082a22.884,22.884,0,1,0,22.884-22.884A22.884,22.884,0,0,0,1460.51,397.082Z" transform="translate(-1437.555 -374.198)" fill="#cec5c8"/>
        <path id="Path_3430" data-name="Path 3430" d="M1471.712,422.791a5.715,5.715,0,0,0,.161,1.239,4.686,4.686,0,0,0,2.413,3.263,2.466,2.466,0,0,0,1.192.214c1.8,10.818,7.6,18.677,18.359,18.605a17.251,17.251,0,0,0,8.546-2.132c7.107-4.032,10.137-13.369,10.065-24.211a36.041,36.041,0,0,0-.428-5.339c-1.847-11.9-9.47-20.813-18.532-20.752-10.117.064-18.285,11.263-18.606,25.232a2.259,2.259,0,0,0-1.008.047,1.789,1.789,0,0,0-.332.124A3.8,3.8,0,0,0,1471.712,422.791Z" transform="translate(-1446.241 -389.305)" fill="#cec5c8"/>
        <path id="Path_3433" data-name="Path 3433" d="M1505.635,587.213a18.167,18.167,0,0,1-7.455-8.845,18.189,18.189,0,0,0,7.455,8.844Z" transform="translate(-1466.772 -532.549)" fill="#cec5c8"/>
        <path id="Path_3434" data-name="Path 3434" d="M1531.687,617.941c-.1-.053-.193-.107-.287-.162h0C1531.494,617.834,1531.591,617.888,1531.687,617.941Z" transform="translate(-1492.536 -563.116)" fill="#cec5c8"/>
        <path id="Path_3435" data-name="Path 3435" d="M1613.79,612.791c.216-.151.429-.307.635-.469A2.43,2.43,0,0,1,1613.79,612.791Z" transform="translate(-1556.437 -558.883)" fill="#cec5c8"/>
        <path id="Path_3436" data-name="Path 3436" d="M1506.722,563.027a17.065,17.065,0,0,1-8.292-1.98c-.1-.053-.193-.107-.287-.162a18.191,18.191,0,0,1-7.455-8.844,32.474,32.474,0,0,1-2.168-7.618c4.544,14.539,12.314,17.965,18.633,17.965a21.48,21.48,0,0,0,10.116-2.73s0,0,0,0c-.206.162-.419.318-.635.469a5.16,5.16,0,0,0-1.212.766,17.258,17.258,0,0,1-8.548,2.131Z" transform="translate(-1459.279 -506.221)" fill="#cec5c8"/>
        <path id="Path_3437" data-name="Path 3437" d="M1515.807,386.294s-17.388,18.611-30.119,20.681C1485.022,404.425,1490.1,361.649,1515.807,386.294Z" transform="translate(-1457.04 -377.667)" fill="#cec5c8"/>
        <path id="Path_3438" data-name="Path 3438" d="M1613.96,411.227s5,16.624,9.414,21.967C1623.323,431.414,1622.371,400.559,1613.96,411.227Z" transform="translate(-1556.569 -401.182)" fill="#cec5c8"/>
        <path id="Path_3461" data-name="Path 3461" d="M1537.74,491.028c0-.053,0-.1,0-.155H1538C1537.913,490.923,1537.825,490.975,1537.74,491.028Z" transform="translate(-1497.453 -464.689)" fill="#cec5c8"/>
      </g>
      <path id="Path_3498" data-name="Path 3498" d="M645.554,773.993s-8.676,15.6,0,25.086C649.976,796.544,653.594,786.945,645.554,773.993Z" transform="translate(-584.49 -701.812)" fill="#b5b6b6"/>
      <path id="Path_3499" data-name="Path 3499" d="M566.7,766.708s-6.713-6.239-7.057-7.664c-.561-2.334-1.91-4.948-7.719-5.711-2.351-.46-3.609-2.446-4.85-3.247-.736-.475-2.942.668-1.471,2.674,1.471,1.471,3.878,3.342,3.878,3.342s-5.676.868-13.888-4.239c-1.778-1.1-1.215,3.155-3.628,3.036-2.995-.148,1,4.9,10.223,6.239-1,1.545-8.485-2.629-8.217-.757.917.782,4.935,7.906,19.51,6.033.266.8,11.347,12.461,11.347,12.461Z" transform="translate(-500.869 -683.674)" fill="#fcae88"/>
      <g id="Group_182" data-name="Group 182" transform="translate(0 0)">
        <path id="Path_3383-2" data-name="Path 3383" d="M1376.388,496.073c17.273,0,21.418-14.338,15.86-35.694q-.842-3.23-1.975-6.668c-3.043-9.239,3.261-23.438,7.917-24.864-2.5-4.284,2.689-12.125,2.689-12.125s-40.271-26.181-35.076,31.734a55,55,0,0,1,.155,7.524C1364.64,483.194,1343.888,496.073,1376.388,496.073Z" transform="translate(-1358.222 -402.601)" fill="#6b2310"/>
        <path id="Path_3384-2" data-name="Path 3384" d="M1376.388,652.15c17.273,0,21.418-14.338,15.86-35.694-9.554,3.915-18.737.761-26.291-4.4C1364.64,639.271,1343.888,652.15,1376.388,652.15Z" transform="translate(-1358.222 -558.678)" fill="#501a0c"/>
        <path id="Path_3385-2" data-name="Path 3385" d="M1452.636,423.872c-1.021,2.773-.323,5.584,1.56,6.277s4.237-.993,5.258-3.767.323-5.585-1.56-6.277S1453.657,421.1,1452.636,423.872Z" transform="translate(-1431.083 -409.682)" fill="#be1e2d"/>
        <path id="Path_3386-2" data-name="Path 3386" d="M1606.867,1721.956s-8.212-4.109-8.375-12.116h-8.536a49.321,49.321,0,0,1,.132,5.143c-.146.887-1.008,4.269-1.008,4.269S1603.786,1732.255,1606.867,1721.956Z" transform="translate(-1537.272 -1410.101)" fill="#fcae88"/>
        <path id="Path_3387-2" data-name="Path 3387" d="M1601.655,1749.963l-1.746,2.444s-8.658-4.385-15.718-5.936c-2.024-.444,0,9.78,0,9.78h5.24v-2.444l6.986,2.444h13.275S1610.86,1748.913,1601.655,1749.963Z" transform="translate(-1532.782 -1438.501)" fill="#414042"/>
        <path id="Path_3388-2" data-name="Path 3388" d="M1474.745,1746.32H1464.53v5.125h10.635Z" transform="translate(-1440.673 -1438.394)" fill="#b2151b"/>
        <path id="Path_3389-2" data-name="Path 3389" d="M1473.951,1722.758V1710.39h-8.036s-3.292,10.081-2.179,12.125C1464.956,1724.757,1473.951,1722.758,1473.951,1722.758Z" transform="translate(-1439.879 -1410.528)" fill="#fcae88"/>
        <path id="Path_3390-2" data-name="Path 3390" d="M1458.694,1746.32v4.062a10.5,10.5,0,0,1,10.215,0v-4.062s3.8,8.514,0,9.825h-10.215C1454.895,1754.834,1458.694,1746.32,1458.694,1746.32Z" transform="translate(-1434.837 -1438.394)" fill="#414042"/>
        <path id="Path_3391-2" data-name="Path 3391" d="M1440.97,1124.89l4.937,132.587h13.461l10.168-116.335,2.017,116.335h16.252l11.813-132.587Z" transform="translate(-1422.4 -956.423)" fill="#0072a5"/>
        <path id="Path_3392-2" data-name="Path 3392" d="M1499.611,1124.89l-1.041,11.69-57.4-6-.213-5.691Z" transform="translate(-1422.392 -956.423)" fill="#05628d"/>
        <path id="Path_3393-2" data-name="Path 3393" d="M1670.962,814.432l6.268,13.827-10.767,3.783L1661,818.932Z" transform="translate(-1593.052 -715.637)" fill="#bd8366"/>
        <path id="Path_3394-2" data-name="Path 3394" d="M1629.668,680.64l13.561,30.954-11.185,4.317S1614.567,692.809,1629.668,680.64Z" transform="translate(-1563.985 -611.87)" fill="#0ca2e6"/>
        <path id="Path_3395-2" data-name="Path 3395" d="M1494.944,754.418H1432.33c.323-35.919,9.78-50.491,7.3-74.868-.66-6.492-2.7-13.622-6.8-21.932-3.236-6.557,21.6-15.972,21.6-15.972h11.76s13.635,6,15.184,8.751c1.039,1.844,3.943,9.006,7.666,22.374,1.187,4.261-1.1,11.182-1.93,13.221C1483.75,694.269,1493.007,734.463,1494.944,754.418Z" transform="translate(-1415.699 -581.626)" fill="#03a9f4"/>
        <path id="Path_3396-2" data-name="Path 3396" d="M1683.078,951.706c-1.411-14.542-6.71-39.833-8.177-55.687C1676.368,911.872,1681.666,937.164,1683.078,951.706Z" transform="translate(-1603.833 -778.914)" fill="#e8e9e9"/>
        <path id="Path_3397-2" data-name="Path 3397" d="M1673.22,860.027c0-.32.009-.631.02-.931v0q-.017.453-.02.934Z" transform="translate(-1602.529 -750.275)" fill="#c7ab9d"/>
        <path id="Path_3398-2" data-name="Path 3398" d="M1497.465,923.076H1435.58c29.71-7.163,44.677-38.811,50.442-54.744,1.234-.35,2.336-.669,3.265-.943C1490.755,883.243,1496.053,908.534,1497.465,923.076Zm-8.786-63.014c.161-.591.242-.923.251-.957q-.017.451-.02.931Z" transform="translate(-1418.22 -750.284)" fill="#0ca2e6"/>
        <path id="Path_3399-2" data-name="Path 3399" d="M1458.37,820.49q.1-.558.191-1.114Q1458.467,819.931,1458.37,820.49Zm1.3-28.214q-.226-1.727-.586-3.518C1459.328,789.953,1459.521,791.125,1459.672,792.276Z" transform="translate(-1435.896 -695.724)" fill="#e8e9e9"/>
        <path id="Path_3400-2" data-name="Path 3400" d="M1458.37,819.284q.1-.558.191-1.114c.42-2.5.788-4.962,1.073-7.446.53,1.048,1.068,2.051,1.611,2.972A18.669,18.669,0,0,1,1458.37,819.284Zm1.4-27.38q-.047-.415-.1-.833c-.151-1.151-.343-2.323-.586-3.518,3.633-.266,7.412-.349,7.412-.349,0,.058-.074.8-.222,2.022Z" transform="translate(-1435.896 -694.518)" fill="#e1e2e3"/>
        <rect id="Rectangle_767-2" data-name="Rectangle 767" width="13.366" height="7.226" transform="translate(60.655 87.46)" fill="#fff"/>
        <rect id="Rectangle_768-2" data-name="Rectangle 768" width="3.761" height="3.224" transform="translate(61.581 89.46)" fill="#d1d3d4"/>
        <rect id="Rectangle_769-2" data-name="Rectangle 769" width="6.744" height="0.471" transform="translate(66.35 89.696)" fill="#d1d3d4"/>
        <rect id="Rectangle_770-2" data-name="Rectangle 770" width="6.744" height="0.47" transform="translate(66.35 90.838)" fill="#d1d3d4"/>
        <rect id="Rectangle_771-2" data-name="Rectangle 771" width="6.744" height="0.471" transform="translate(66.35 91.979)" fill="#d1d3d4"/>
        <path id="Path_3411-2" data-name="Path 3411" d="M1517.094,842.542s-5.606-2.509-9.374,0a38.532,38.532,0,0,1,1.8,7.717l5.287-.519Z" transform="translate(-1474.17 -736.573)" fill="#fcae88"/>
        <path id="Path_3412-2" data-name="Path 3412" d="M1677.99,849.61s7.22-4.346,9.969-3.734c1.194.311,4.91,7.468,3.586,8.873-2.188,2.322-12.574,2.168-12.574,2.168Z" transform="translate(-1606.229 -739.978)" fill="#fcae88"/>
        <path id="Path_3413-2" data-name="Path 3413" d="M1434.57,800.931s6.813,20.08,11.865,23.617c6.394,4.477,45.33-7.654,45.33-7.654L1489.2,810.4l-34.405,3.857-6.454-19Z" transform="translate(-1417.437 -700.769)" fill="#fcae88"/>
        <path id="Path_3414-2" data-name="Path 3414" d="M1674.9,894.344h0c.624-.183,1.171-.347,1.631-.484h0C1676.072,894,1675.524,894.16,1674.9,894.344Z" transform="translate(-1603.833 -777.239)" fill="#f9bbb6" fill-rule="evenodd"/>
        <path id="Path_3415-2" data-name="Path 3415" d="M1620.94,902.6c3.288-.837,6.342-1.674,8.844-2.384h0C1627.282,900.928,1624.228,901.764,1620.94,902.6Z" transform="translate(-1561.982 -782.17)" fill="#f3b5b1"/>
        <path id="Path_3416-2" data-name="Path 3416" d="M1674.9,896.018h0Z" transform="translate(-1603.833 -778.913)" fill="#f0b2ae"/>
        <path id="Path_3417-2" data-name="Path 3417" d="M1660.35,896.961h0c1.234-.35,2.336-.669,3.265-.942h0C1662.686,896.292,1661.584,896.611,1660.35,896.961Z" transform="translate(-1592.547 -778.913)" fill="#edafab"/>
        <path id="Path_3418-2" data-name="Path 3418" d="M1682.147,877.846h0c.988-.3,1.567-.476,1.625-.494C1683.713,877.371,1683.134,877.55,1682.147,877.846Zm1.627-.495h0Zm0,0h0Zm0,0-1.636-4.137,5.384,1.281Z" transform="translate(-1609.448 -761.226)" fill="#f89a87"/>
        <path id="Path_3419-2" data-name="Path 3419" d="M1551.654,876.7l-15.794-8.04,25.8-2.893,7.026,1.671,1.636,4.138h0c-.058.018-.637.2-1.625.494-.46.138-1.008.3-1.632.484-.929.273-2.031.593-3.265.942-2.5.71-5.557,1.546-8.844,2.384Q1553.334,876.292,1551.654,876.7Z" transform="translate(-1495.995 -755.45)" fill="#f89a87"/>
        <path id="Path_3420-2" data-name="Path 3420" d="M1435.4,813.256c-.487-1.34-.783-2.2-.821-2.319.038.114.334.979.823,2.319Zm-.826-2.332,6.744-2.776h0Z" transform="translate(-1417.437 -710.763)" fill="#f9b6b2"/>
        <path id="Path_3421-2" data-name="Path 3421" d="M1473.6,801.008l-1.953-5.747-.521.214h0l.521-.214,1.953,5.747Zm-8.977-2.855h0Z" transform="translate(-1440.742 -700.768)" fill="#f4b1ad"/>
        <path id="Path_3422-2" data-name="Path 3422" d="M1464.62,798.892h0l6.5-2.678h0Z" transform="translate(-1440.742 -701.506)" fill="#eeaca8"/>
        <path id="Path_3423-2" data-name="Path 3423" d="M1434.575,820.535v0Zm0,0s0-.005,0-.007S1434.572,820.529,1434.572,820.532Zm0-.007h0Zm0,0h0Z" transform="translate(-1417.437 -720.361)" fill="#f9b6b2"/>
        <path id="Path_3424-2" data-name="Path 3424" d="M1435.4,803.263c-.489-1.34-.785-2.2-.823-2.319h0v0h0s0-.005,0-.007h0l6.744-2.776,6.5-2.678.521-.214,1.952,5.747Z" transform="translate(-1417.437 -700.769)" fill="#f89987"/>
        <path id="Path_3425-2" data-name="Path 3425" d="M1583.2,855.2l-42.392-8.8-2.511,7.085S1589.891,879.524,1583.2,855.2Z" transform="translate(-1497.888 -740.427)" fill="#fcae88"/>
        <path id="Path_3426-2" data-name="Path 3426" d="M1439.651,710.381l-18.994,6.684c-2.621-14.217-1.737-29.13,5.13-33.091C1431.388,680.746,1436.467,696.88,1439.651,710.381Z" transform="translate(-1405.59 -614.132)" fill="#03a9f4"/>
        <path id="Path_3427-2" data-name="Path 3427" d="M1543.036,591.592V618.6L1531.4,603.273V591.592Z" transform="translate(-1492.536 -542.805)" fill="#fcae88"/>
        <path id="Path_3428-2" data-name="Path 3428" d="M1543.036,591.592v9.787l-11.636-3.467v-6.319Z" transform="translate(-1492.536 -542.805)" fill="#f58d86"/>
        <path id="Path_3429-2" data-name="Path 3429" d="M1460.51,397.082a22.884,22.884,0,1,0,22.884-22.884A22.884,22.884,0,0,0,1460.51,397.082Z" transform="translate(-1437.555 -374.198)" fill="#8e2e15"/>
        <path id="Path_3430-2" data-name="Path 3430" d="M1471.712,422.791a5.715,5.715,0,0,0,.161,1.239,4.686,4.686,0,0,0,2.413,3.263,2.466,2.466,0,0,0,1.192.214c1.8,10.818,7.6,18.677,18.359,18.605a17.251,17.251,0,0,0,8.546-2.132c7.107-4.032,10.137-13.369,10.065-24.211a36.041,36.041,0,0,0-.428-5.339c-1.847-11.9-9.47-20.813-18.532-20.752-10.117.064-18.285,11.263-18.606,25.232a2.259,2.259,0,0,0-1.008.047,1.789,1.789,0,0,0-.332.124A3.8,3.8,0,0,0,1471.712,422.791Z" transform="translate(-1446.241 -389.305)" fill="#fcae88"/>
        <path id="Path_3433-2" data-name="Path 3433" d="M1505.635,587.213a18.167,18.167,0,0,1-7.455-8.845,18.189,18.189,0,0,0,7.455,8.844Z" transform="translate(-1466.772 -532.549)" fill="#f9bbb6"/>
        <path id="Path_3434-2" data-name="Path 3434" d="M1531.687,617.941c-.1-.053-.193-.107-.287-.162h0C1531.494,617.834,1531.591,617.888,1531.687,617.941Z" transform="translate(-1492.536 -563.116)" fill="#f58d86"/>
        <path id="Path_3435-2" data-name="Path 3435" d="M1613.79,612.791c.216-.151.429-.307.635-.469A2.43,2.43,0,0,1,1613.79,612.791Z" transform="translate(-1556.437 -558.883)" fill="#f9bbb6"/>
        <path id="Path_3436-2" data-name="Path 3436" d="M1506.722,563.027a17.065,17.065,0,0,1-8.292-1.98c-.1-.053-.193-.107-.287-.162a18.191,18.191,0,0,1-7.455-8.844,32.474,32.474,0,0,1-2.168-7.618c4.544,14.539,12.314,17.965,18.633,17.965a21.48,21.48,0,0,0,10.116-2.73s0,0,0,0c-.206.162-.419.318-.635.469a5.16,5.16,0,0,0-1.212.766,17.258,17.258,0,0,1-8.548,2.131Z" transform="translate(-1459.279 -506.221)" fill="#f89a87"/>
        <path id="Path_3437-2" data-name="Path 3437" d="M1515.807,386.294s-17.388,18.611-30.119,20.681C1485.022,404.425,1490.1,361.649,1515.807,386.294Z" transform="translate(-1457.04 -377.667)" fill="#8e2e15"/>
        <path id="Path_3438-2" data-name="Path 3438" d="M1613.96,411.227s5,16.624,9.414,21.967C1623.323,431.414,1622.371,400.559,1613.96,411.227Z" transform="translate(-1556.569 -401.182)" fill="#8e2e15"/>
        <path id="Path_3461-2" data-name="Path 3461" d="M1537.74,491.028c0-.053,0-.1,0-.155H1538C1537.913,490.923,1537.825,490.975,1537.74,491.028Z" transform="translate(-1497.453 -464.689)" fill="#bd8c7f"/>
      </g>
    </g>
  </g>
</svg>
